G04 EAGLE Gerber RS-274X export*
G75*
%MOMM*%
%FSLAX34Y34*%
%LPD*%
%IN*%
%IPPOS*%
%AMOC8*
5,1,8,0,0,1.08239X$1,22.5*%
G01*
%ADD10C,0.254000*%


D10*
X0Y30000D02*
X114Y27385D01*
X456Y24791D01*
X1022Y22235D01*
X1809Y19739D01*
X2811Y17321D01*
X4019Y15000D01*
X5425Y12793D01*
X7019Y10716D01*
X8787Y8787D01*
X10716Y7019D01*
X12793Y5425D01*
X15000Y4019D01*
X17321Y2811D01*
X19739Y1809D01*
X22235Y1022D01*
X24791Y456D01*
X27385Y114D01*
X30000Y0D01*
X845000Y0D01*
X847615Y114D01*
X850209Y456D01*
X852765Y1022D01*
X855261Y1809D01*
X857679Y2811D01*
X860000Y4019D01*
X862207Y5425D01*
X864284Y7019D01*
X866213Y8787D01*
X867981Y10716D01*
X869575Y12793D01*
X870981Y15000D01*
X872189Y17321D01*
X873191Y19739D01*
X873978Y22235D01*
X874544Y24791D01*
X874886Y27385D01*
X875000Y30000D01*
X875000Y1470000D01*
X874886Y1472615D01*
X874544Y1475209D01*
X873978Y1477765D01*
X873191Y1480261D01*
X872189Y1482679D01*
X870981Y1485000D01*
X869575Y1487207D01*
X867981Y1489284D01*
X866213Y1491213D01*
X864284Y1492981D01*
X862207Y1494575D01*
X860000Y1495981D01*
X857679Y1497189D01*
X855261Y1498191D01*
X852765Y1498978D01*
X850209Y1499544D01*
X847615Y1499886D01*
X845000Y1500000D01*
X30000Y1500000D01*
X27385Y1499886D01*
X24791Y1499544D01*
X22235Y1498978D01*
X19739Y1498191D01*
X17321Y1497189D01*
X15000Y1495981D01*
X12793Y1494575D01*
X10716Y1492981D01*
X8787Y1491213D01*
X7019Y1489284D01*
X5425Y1487207D01*
X4019Y1485000D01*
X2811Y1482679D01*
X1809Y1480261D01*
X1022Y1477765D01*
X456Y1475209D01*
X114Y1472615D01*
X0Y1470000D01*
X0Y30000D01*
X130500Y1399190D02*
X130421Y1397572D01*
X130262Y1395959D01*
X130024Y1394357D01*
X129708Y1392767D01*
X129314Y1391196D01*
X128844Y1389645D01*
X128298Y1388120D01*
X127678Y1386623D01*
X126985Y1385158D01*
X126222Y1383729D01*
X125389Y1382340D01*
X124488Y1380993D01*
X123523Y1379691D01*
X122495Y1378439D01*
X121407Y1377238D01*
X120262Y1376093D01*
X119061Y1375005D01*
X117809Y1373977D01*
X116507Y1373012D01*
X115160Y1372111D01*
X113771Y1371278D01*
X112342Y1370515D01*
X110877Y1369822D01*
X109380Y1369202D01*
X107855Y1368656D01*
X106304Y1368186D01*
X104733Y1367792D01*
X103143Y1367476D01*
X101541Y1367238D01*
X99928Y1367080D01*
X98310Y1367000D01*
X96690Y1367000D01*
X95072Y1367080D01*
X93459Y1367238D01*
X91857Y1367476D01*
X90267Y1367792D01*
X88696Y1368186D01*
X87145Y1368656D01*
X85620Y1369202D01*
X84123Y1369822D01*
X82658Y1370515D01*
X81229Y1371278D01*
X79840Y1372111D01*
X78493Y1373012D01*
X77191Y1373977D01*
X75939Y1375005D01*
X74738Y1376093D01*
X73593Y1377238D01*
X72505Y1378439D01*
X71477Y1379691D01*
X70512Y1380993D01*
X69611Y1382340D01*
X68778Y1383729D01*
X68015Y1385158D01*
X67322Y1386623D01*
X66702Y1388120D01*
X66156Y1389645D01*
X65686Y1391196D01*
X65292Y1392767D01*
X64976Y1394357D01*
X64738Y1395959D01*
X64580Y1397572D01*
X64500Y1399190D01*
X64500Y1400810D01*
X64580Y1402428D01*
X64738Y1404041D01*
X64976Y1405643D01*
X65292Y1407233D01*
X65686Y1408804D01*
X66156Y1410355D01*
X66702Y1411880D01*
X67322Y1413377D01*
X68015Y1414842D01*
X68778Y1416271D01*
X69611Y1417660D01*
X70512Y1419007D01*
X71477Y1420309D01*
X72505Y1421561D01*
X73593Y1422762D01*
X74738Y1423907D01*
X75939Y1424995D01*
X77191Y1426023D01*
X78493Y1426988D01*
X79840Y1427889D01*
X81229Y1428722D01*
X82658Y1429485D01*
X84123Y1430178D01*
X85620Y1430798D01*
X87145Y1431344D01*
X88696Y1431814D01*
X90267Y1432208D01*
X91857Y1432524D01*
X93459Y1432762D01*
X95072Y1432921D01*
X96690Y1433000D01*
X98310Y1433000D01*
X99928Y1432921D01*
X101541Y1432762D01*
X103143Y1432524D01*
X104733Y1432208D01*
X106304Y1431814D01*
X107855Y1431344D01*
X109380Y1430798D01*
X110877Y1430178D01*
X112342Y1429485D01*
X113771Y1428722D01*
X115160Y1427889D01*
X116507Y1426988D01*
X117809Y1426023D01*
X119061Y1424995D01*
X120262Y1423907D01*
X121407Y1422762D01*
X122495Y1421561D01*
X123523Y1420309D01*
X124488Y1419007D01*
X125389Y1417660D01*
X126222Y1416271D01*
X126985Y1414842D01*
X127678Y1413377D01*
X128298Y1411880D01*
X128844Y1410355D01*
X129314Y1408804D01*
X129708Y1407233D01*
X130024Y1405643D01*
X130262Y1404041D01*
X130421Y1402428D01*
X130500Y1400810D01*
X130500Y1399190D01*
X133000Y96690D02*
X132921Y95072D01*
X132762Y93459D01*
X132524Y91857D01*
X132208Y90267D01*
X131814Y88696D01*
X131344Y87145D01*
X130798Y85620D01*
X130178Y84123D01*
X129485Y82658D01*
X128722Y81229D01*
X127889Y79840D01*
X126988Y78493D01*
X126023Y77191D01*
X124995Y75939D01*
X123907Y74738D01*
X122762Y73593D01*
X121561Y72505D01*
X120309Y71477D01*
X119007Y70512D01*
X117660Y69611D01*
X116271Y68778D01*
X114842Y68015D01*
X113377Y67322D01*
X111880Y66702D01*
X110355Y66156D01*
X108804Y65686D01*
X107233Y65292D01*
X105643Y64976D01*
X104041Y64738D01*
X102428Y64580D01*
X100810Y64500D01*
X99190Y64500D01*
X97572Y64580D01*
X95959Y64738D01*
X94357Y64976D01*
X92767Y65292D01*
X91196Y65686D01*
X89645Y66156D01*
X88120Y66702D01*
X86623Y67322D01*
X85158Y68015D01*
X83729Y68778D01*
X82340Y69611D01*
X80993Y70512D01*
X79691Y71477D01*
X78439Y72505D01*
X77238Y73593D01*
X76093Y74738D01*
X75005Y75939D01*
X73977Y77191D01*
X73012Y78493D01*
X72111Y79840D01*
X71278Y81229D01*
X70515Y82658D01*
X69822Y84123D01*
X69202Y85620D01*
X68656Y87145D01*
X68186Y88696D01*
X67792Y90267D01*
X67476Y91857D01*
X67238Y93459D01*
X67080Y95072D01*
X67000Y96690D01*
X67000Y98310D01*
X67080Y99928D01*
X67238Y101541D01*
X67476Y103143D01*
X67792Y104733D01*
X68186Y106304D01*
X68656Y107855D01*
X69202Y109380D01*
X69822Y110877D01*
X70515Y112342D01*
X71278Y113771D01*
X72111Y115160D01*
X73012Y116507D01*
X73977Y117809D01*
X75005Y119061D01*
X76093Y120262D01*
X77238Y121407D01*
X78439Y122495D01*
X79691Y123523D01*
X80993Y124488D01*
X82340Y125389D01*
X83729Y126222D01*
X85158Y126985D01*
X86623Y127678D01*
X88120Y128298D01*
X89645Y128844D01*
X91196Y129314D01*
X92767Y129708D01*
X94357Y130024D01*
X95959Y130262D01*
X97572Y130421D01*
X99190Y130500D01*
X100810Y130500D01*
X102428Y130421D01*
X104041Y130262D01*
X105643Y130024D01*
X107233Y129708D01*
X108804Y129314D01*
X110355Y128844D01*
X111880Y128298D01*
X113377Y127678D01*
X114842Y126985D01*
X116271Y126222D01*
X117660Y125389D01*
X119007Y124488D01*
X120309Y123523D01*
X121561Y122495D01*
X122762Y121407D01*
X123907Y120262D01*
X124995Y119061D01*
X126023Y117809D01*
X126988Y116507D01*
X127889Y115160D01*
X128722Y113771D01*
X129485Y112342D01*
X130178Y110877D01*
X130798Y109380D01*
X131344Y107855D01*
X131814Y106304D01*
X132208Y104733D01*
X132524Y103143D01*
X132762Y101541D01*
X132921Y99928D01*
X133000Y98310D01*
X133000Y96690D01*
X810500Y99190D02*
X810421Y97572D01*
X810262Y95959D01*
X810024Y94357D01*
X809708Y92767D01*
X809314Y91196D01*
X808844Y89645D01*
X808298Y88120D01*
X807678Y86623D01*
X806985Y85158D01*
X806222Y83729D01*
X805389Y82340D01*
X804488Y80993D01*
X803523Y79691D01*
X802495Y78439D01*
X801407Y77238D01*
X800262Y76093D01*
X799061Y75005D01*
X797809Y73977D01*
X796507Y73012D01*
X795160Y72111D01*
X793771Y71278D01*
X792342Y70515D01*
X790877Y69822D01*
X789380Y69202D01*
X787855Y68656D01*
X786304Y68186D01*
X784733Y67792D01*
X783143Y67476D01*
X781541Y67238D01*
X779928Y67080D01*
X778310Y67000D01*
X776690Y67000D01*
X775072Y67080D01*
X773459Y67238D01*
X771857Y67476D01*
X770267Y67792D01*
X768696Y68186D01*
X767145Y68656D01*
X765620Y69202D01*
X764123Y69822D01*
X762658Y70515D01*
X761229Y71278D01*
X759840Y72111D01*
X758493Y73012D01*
X757191Y73977D01*
X755939Y75005D01*
X754738Y76093D01*
X753593Y77238D01*
X752505Y78439D01*
X751477Y79691D01*
X750512Y80993D01*
X749611Y82340D01*
X748778Y83729D01*
X748015Y85158D01*
X747322Y86623D01*
X746702Y88120D01*
X746156Y89645D01*
X745686Y91196D01*
X745292Y92767D01*
X744976Y94357D01*
X744738Y95959D01*
X744580Y97572D01*
X744500Y99190D01*
X744500Y100810D01*
X744580Y102428D01*
X744738Y104041D01*
X744976Y105643D01*
X745292Y107233D01*
X745686Y108804D01*
X746156Y110355D01*
X746702Y111880D01*
X747322Y113377D01*
X748015Y114842D01*
X748778Y116271D01*
X749611Y117660D01*
X750512Y119007D01*
X751477Y120309D01*
X752505Y121561D01*
X753593Y122762D01*
X754738Y123907D01*
X755939Y124995D01*
X757191Y126023D01*
X758493Y126988D01*
X759840Y127889D01*
X761229Y128722D01*
X762658Y129485D01*
X764123Y130178D01*
X765620Y130798D01*
X767145Y131344D01*
X768696Y131814D01*
X770267Y132208D01*
X771857Y132524D01*
X773459Y132762D01*
X775072Y132921D01*
X776690Y133000D01*
X778310Y133000D01*
X779928Y132921D01*
X781541Y132762D01*
X783143Y132524D01*
X784733Y132208D01*
X786304Y131814D01*
X787855Y131344D01*
X789380Y130798D01*
X790877Y130178D01*
X792342Y129485D01*
X793771Y128722D01*
X795160Y127889D01*
X796507Y126988D01*
X797809Y126023D01*
X799061Y124995D01*
X800262Y123907D01*
X801407Y122762D01*
X802495Y121561D01*
X803523Y120309D01*
X804488Y119007D01*
X805389Y117660D01*
X806222Y116271D01*
X806985Y114842D01*
X807678Y113377D01*
X808298Y111880D01*
X808844Y110355D01*
X809314Y108804D01*
X809708Y107233D01*
X810024Y105643D01*
X810262Y104041D01*
X810421Y102428D01*
X810500Y100810D01*
X810500Y99190D01*
X810500Y1399190D02*
X810421Y1397572D01*
X810262Y1395959D01*
X810024Y1394357D01*
X809708Y1392767D01*
X809314Y1391196D01*
X808844Y1389645D01*
X808298Y1388120D01*
X807678Y1386623D01*
X806985Y1385158D01*
X806222Y1383729D01*
X805389Y1382340D01*
X804488Y1380993D01*
X803523Y1379691D01*
X802495Y1378439D01*
X801407Y1377238D01*
X800262Y1376093D01*
X799061Y1375005D01*
X797809Y1373977D01*
X796507Y1373012D01*
X795160Y1372111D01*
X793771Y1371278D01*
X792342Y1370515D01*
X790877Y1369822D01*
X789380Y1369202D01*
X787855Y1368656D01*
X786304Y1368186D01*
X784733Y1367792D01*
X783143Y1367476D01*
X781541Y1367238D01*
X779928Y1367080D01*
X778310Y1367000D01*
X776690Y1367000D01*
X775072Y1367080D01*
X773459Y1367238D01*
X771857Y1367476D01*
X770267Y1367792D01*
X768696Y1368186D01*
X767145Y1368656D01*
X765620Y1369202D01*
X764123Y1369822D01*
X762658Y1370515D01*
X761229Y1371278D01*
X759840Y1372111D01*
X758493Y1373012D01*
X757191Y1373977D01*
X755939Y1375005D01*
X754738Y1376093D01*
X753593Y1377238D01*
X752505Y1378439D01*
X751477Y1379691D01*
X750512Y1380993D01*
X749611Y1382340D01*
X748778Y1383729D01*
X748015Y1385158D01*
X747322Y1386623D01*
X746702Y1388120D01*
X746156Y1389645D01*
X745686Y1391196D01*
X745292Y1392767D01*
X744976Y1394357D01*
X744738Y1395959D01*
X744580Y1397572D01*
X744500Y1399190D01*
X744500Y1400810D01*
X744580Y1402428D01*
X744738Y1404041D01*
X744976Y1405643D01*
X745292Y1407233D01*
X745686Y1408804D01*
X746156Y1410355D01*
X746702Y1411880D01*
X747322Y1413377D01*
X748015Y1414842D01*
X748778Y1416271D01*
X749611Y1417660D01*
X750512Y1419007D01*
X751477Y1420309D01*
X752505Y1421561D01*
X753593Y1422762D01*
X754738Y1423907D01*
X755939Y1424995D01*
X757191Y1426023D01*
X758493Y1426988D01*
X759840Y1427889D01*
X761229Y1428722D01*
X762658Y1429485D01*
X764123Y1430178D01*
X765620Y1430798D01*
X767145Y1431344D01*
X768696Y1431814D01*
X770267Y1432208D01*
X771857Y1432524D01*
X773459Y1432762D01*
X775072Y1432921D01*
X776690Y1433000D01*
X778310Y1433000D01*
X779928Y1432921D01*
X781541Y1432762D01*
X783143Y1432524D01*
X784733Y1432208D01*
X786304Y1431814D01*
X787855Y1431344D01*
X789380Y1430798D01*
X790877Y1430178D01*
X792342Y1429485D01*
X793771Y1428722D01*
X795160Y1427889D01*
X796507Y1426988D01*
X797809Y1426023D01*
X799061Y1424995D01*
X800262Y1423907D01*
X801407Y1422762D01*
X802495Y1421561D01*
X803523Y1420309D01*
X804488Y1419007D01*
X805389Y1417660D01*
X806222Y1416271D01*
X806985Y1414842D01*
X807678Y1413377D01*
X808298Y1411880D01*
X808844Y1410355D01*
X809314Y1408804D01*
X809708Y1407233D01*
X810024Y1405643D01*
X810262Y1404041D01*
X810421Y1402428D01*
X810500Y1400810D01*
X810500Y1399190D01*
X537700Y229421D02*
X537624Y228264D01*
X537473Y227115D01*
X537247Y225979D01*
X536947Y224859D01*
X536574Y223762D01*
X536131Y222691D01*
X535618Y221652D01*
X535039Y220648D01*
X534395Y219685D01*
X533690Y218765D01*
X532926Y217894D01*
X532106Y217075D01*
X531235Y216310D01*
X530315Y215605D01*
X529352Y214961D01*
X528348Y214382D01*
X527309Y213869D01*
X526238Y213426D01*
X525141Y213053D01*
X524021Y212753D01*
X522885Y212527D01*
X521736Y212376D01*
X520579Y212300D01*
X519421Y212300D01*
X518264Y212376D01*
X517115Y212527D01*
X515979Y212753D01*
X514859Y213053D01*
X513762Y213426D01*
X512691Y213869D01*
X511652Y214382D01*
X510648Y214961D01*
X509685Y215605D01*
X508765Y216310D01*
X507894Y217075D01*
X507075Y217894D01*
X506310Y218765D01*
X505605Y219685D01*
X504961Y220648D01*
X504382Y221652D01*
X503869Y222691D01*
X503426Y223762D01*
X503053Y224859D01*
X502753Y225979D01*
X502527Y227115D01*
X502376Y228264D01*
X502300Y229421D01*
X502300Y230579D01*
X502376Y231736D01*
X502527Y232885D01*
X502753Y234021D01*
X503053Y235141D01*
X503426Y236238D01*
X503869Y237309D01*
X504382Y238348D01*
X504961Y239352D01*
X505605Y240315D01*
X506310Y241235D01*
X507075Y242106D01*
X507894Y242926D01*
X508765Y243690D01*
X509685Y244395D01*
X510648Y245039D01*
X511652Y245618D01*
X512691Y246131D01*
X513762Y246574D01*
X514859Y246947D01*
X515979Y247247D01*
X517115Y247473D01*
X518264Y247624D01*
X519421Y247700D01*
X520579Y247700D01*
X521736Y247624D01*
X522885Y247473D01*
X524021Y247247D01*
X525141Y246947D01*
X526238Y246574D01*
X527309Y246131D01*
X528348Y245618D01*
X529352Y245039D01*
X530315Y244395D01*
X531235Y243690D01*
X532106Y242926D01*
X532926Y242106D01*
X533690Y241235D01*
X534395Y240315D01*
X535039Y239352D01*
X535618Y238348D01*
X536131Y237309D01*
X536574Y236238D01*
X536947Y235141D01*
X537247Y234021D01*
X537473Y232885D01*
X537624Y231736D01*
X537700Y230579D01*
X537700Y229421D01*
X397700Y229421D02*
X397624Y228264D01*
X397473Y227115D01*
X397247Y225979D01*
X396947Y224859D01*
X396574Y223762D01*
X396131Y222691D01*
X395618Y221652D01*
X395039Y220648D01*
X394395Y219685D01*
X393690Y218765D01*
X392926Y217894D01*
X392106Y217075D01*
X391235Y216310D01*
X390315Y215605D01*
X389352Y214961D01*
X388348Y214382D01*
X387309Y213869D01*
X386238Y213426D01*
X385141Y213053D01*
X384021Y212753D01*
X382885Y212527D01*
X381736Y212376D01*
X380579Y212300D01*
X379421Y212300D01*
X378264Y212376D01*
X377115Y212527D01*
X375979Y212753D01*
X374859Y213053D01*
X373762Y213426D01*
X372691Y213869D01*
X371652Y214382D01*
X370648Y214961D01*
X369685Y215605D01*
X368765Y216310D01*
X367894Y217075D01*
X367075Y217894D01*
X366310Y218765D01*
X365605Y219685D01*
X364961Y220648D01*
X364382Y221652D01*
X363869Y222691D01*
X363426Y223762D01*
X363053Y224859D01*
X362753Y225979D01*
X362527Y227115D01*
X362376Y228264D01*
X362300Y229421D01*
X362300Y230579D01*
X362376Y231736D01*
X362527Y232885D01*
X362753Y234021D01*
X363053Y235141D01*
X363426Y236238D01*
X363869Y237309D01*
X364382Y238348D01*
X364961Y239352D01*
X365605Y240315D01*
X366310Y241235D01*
X367075Y242106D01*
X367894Y242926D01*
X368765Y243690D01*
X369685Y244395D01*
X370648Y245039D01*
X371652Y245618D01*
X372691Y246131D01*
X373762Y246574D01*
X374859Y246947D01*
X375979Y247247D01*
X377115Y247473D01*
X378264Y247624D01*
X379421Y247700D01*
X380579Y247700D01*
X381736Y247624D01*
X382885Y247473D01*
X384021Y247247D01*
X385141Y246947D01*
X386238Y246574D01*
X387309Y246131D01*
X388348Y245618D01*
X389352Y245039D01*
X390315Y244395D01*
X391235Y243690D01*
X392106Y242926D01*
X392926Y242106D01*
X393690Y241235D01*
X394395Y240315D01*
X395039Y239352D01*
X395618Y238348D01*
X396131Y237309D01*
X396574Y236238D01*
X396947Y235141D01*
X397247Y234021D01*
X397473Y232885D01*
X397624Y231736D01*
X397700Y230579D01*
X397700Y229421D01*
X67700Y889421D02*
X67624Y888264D01*
X67473Y887115D01*
X67247Y885979D01*
X66947Y884859D01*
X66574Y883762D01*
X66131Y882691D01*
X65618Y881652D01*
X65039Y880648D01*
X64395Y879685D01*
X63690Y878765D01*
X62926Y877894D01*
X62106Y877075D01*
X61235Y876310D01*
X60315Y875605D01*
X59352Y874961D01*
X58348Y874382D01*
X57309Y873869D01*
X56238Y873426D01*
X55141Y873053D01*
X54021Y872753D01*
X52885Y872527D01*
X51736Y872376D01*
X50579Y872300D01*
X49421Y872300D01*
X48264Y872376D01*
X47115Y872527D01*
X45979Y872753D01*
X44859Y873053D01*
X43762Y873426D01*
X42691Y873869D01*
X41652Y874382D01*
X40648Y874961D01*
X39685Y875605D01*
X38765Y876310D01*
X37894Y877075D01*
X37075Y877894D01*
X36310Y878765D01*
X35605Y879685D01*
X34961Y880648D01*
X34382Y881652D01*
X33869Y882691D01*
X33426Y883762D01*
X33053Y884859D01*
X32753Y885979D01*
X32527Y887115D01*
X32376Y888264D01*
X32300Y889421D01*
X32300Y890579D01*
X32376Y891736D01*
X32527Y892885D01*
X32753Y894021D01*
X33053Y895141D01*
X33426Y896238D01*
X33869Y897309D01*
X34382Y898348D01*
X34961Y899352D01*
X35605Y900315D01*
X36310Y901235D01*
X37075Y902106D01*
X37894Y902926D01*
X38765Y903690D01*
X39685Y904395D01*
X40648Y905039D01*
X41652Y905618D01*
X42691Y906131D01*
X43762Y906574D01*
X44859Y906947D01*
X45979Y907247D01*
X47115Y907473D01*
X48264Y907624D01*
X49421Y907700D01*
X50579Y907700D01*
X51736Y907624D01*
X52885Y907473D01*
X54021Y907247D01*
X55141Y906947D01*
X56238Y906574D01*
X57309Y906131D01*
X58348Y905618D01*
X59352Y905039D01*
X60315Y904395D01*
X61235Y903690D01*
X62106Y902926D01*
X62926Y902106D01*
X63690Y901235D01*
X64395Y900315D01*
X65039Y899352D01*
X65618Y898348D01*
X66131Y897309D01*
X66574Y896238D01*
X66947Y895141D01*
X67247Y894021D01*
X67473Y892885D01*
X67624Y891736D01*
X67700Y890579D01*
X67700Y889421D01*
X572700Y889421D02*
X572624Y888264D01*
X572473Y887115D01*
X572247Y885979D01*
X571947Y884859D01*
X571574Y883762D01*
X571131Y882691D01*
X570618Y881652D01*
X570039Y880648D01*
X569395Y879685D01*
X568690Y878765D01*
X567926Y877894D01*
X567106Y877075D01*
X566235Y876310D01*
X565315Y875605D01*
X564352Y874961D01*
X563348Y874382D01*
X562309Y873869D01*
X561238Y873426D01*
X560141Y873053D01*
X559021Y872753D01*
X557885Y872527D01*
X556736Y872376D01*
X555579Y872300D01*
X554421Y872300D01*
X553264Y872376D01*
X552115Y872527D01*
X550979Y872753D01*
X549859Y873053D01*
X548762Y873426D01*
X547691Y873869D01*
X546652Y874382D01*
X545648Y874961D01*
X544685Y875605D01*
X543765Y876310D01*
X542894Y877075D01*
X542075Y877894D01*
X541310Y878765D01*
X540605Y879685D01*
X539961Y880648D01*
X539382Y881652D01*
X538869Y882691D01*
X538426Y883762D01*
X538053Y884859D01*
X537753Y885979D01*
X537527Y887115D01*
X537376Y888264D01*
X537300Y889421D01*
X537300Y890579D01*
X537376Y891736D01*
X537527Y892885D01*
X537753Y894021D01*
X538053Y895141D01*
X538426Y896238D01*
X538869Y897309D01*
X539382Y898348D01*
X539961Y899352D01*
X540605Y900315D01*
X541310Y901235D01*
X542075Y902106D01*
X542894Y902926D01*
X543765Y903690D01*
X544685Y904395D01*
X545648Y905039D01*
X546652Y905618D01*
X547691Y906131D01*
X548762Y906574D01*
X549859Y906947D01*
X550979Y907247D01*
X552115Y907473D01*
X553264Y907624D01*
X554421Y907700D01*
X555579Y907700D01*
X556736Y907624D01*
X557885Y907473D01*
X559021Y907247D01*
X560141Y906947D01*
X561238Y906574D01*
X562309Y906131D01*
X563348Y905618D01*
X564352Y905039D01*
X565315Y904395D01*
X566235Y903690D01*
X567106Y902926D01*
X567926Y902106D01*
X568690Y901235D01*
X569395Y900315D01*
X570039Y899352D01*
X570618Y898348D01*
X571131Y897309D01*
X571574Y896238D01*
X571947Y895141D01*
X572247Y894021D01*
X572473Y892885D01*
X572624Y891736D01*
X572700Y890579D01*
X572700Y889421D01*
X257700Y1409421D02*
X257624Y1408264D01*
X257473Y1407115D01*
X257247Y1405979D01*
X256947Y1404859D01*
X256574Y1403762D01*
X256131Y1402691D01*
X255618Y1401652D01*
X255039Y1400648D01*
X254395Y1399685D01*
X253690Y1398765D01*
X252926Y1397894D01*
X252106Y1397075D01*
X251235Y1396310D01*
X250315Y1395605D01*
X249352Y1394961D01*
X248348Y1394382D01*
X247309Y1393869D01*
X246238Y1393426D01*
X245141Y1393053D01*
X244021Y1392753D01*
X242885Y1392527D01*
X241736Y1392376D01*
X240579Y1392300D01*
X239421Y1392300D01*
X238264Y1392376D01*
X237115Y1392527D01*
X235979Y1392753D01*
X234859Y1393053D01*
X233762Y1393426D01*
X232691Y1393869D01*
X231652Y1394382D01*
X230648Y1394961D01*
X229685Y1395605D01*
X228765Y1396310D01*
X227894Y1397075D01*
X227075Y1397894D01*
X226310Y1398765D01*
X225605Y1399685D01*
X224961Y1400648D01*
X224382Y1401652D01*
X223869Y1402691D01*
X223426Y1403762D01*
X223053Y1404859D01*
X222753Y1405979D01*
X222527Y1407115D01*
X222376Y1408264D01*
X222300Y1409421D01*
X222300Y1410579D01*
X222376Y1411736D01*
X222527Y1412885D01*
X222753Y1414021D01*
X223053Y1415141D01*
X223426Y1416238D01*
X223869Y1417309D01*
X224382Y1418348D01*
X224961Y1419352D01*
X225605Y1420315D01*
X226310Y1421235D01*
X227075Y1422106D01*
X227894Y1422926D01*
X228765Y1423690D01*
X229685Y1424395D01*
X230648Y1425039D01*
X231652Y1425618D01*
X232691Y1426131D01*
X233762Y1426574D01*
X234859Y1426947D01*
X235979Y1427247D01*
X237115Y1427473D01*
X238264Y1427624D01*
X239421Y1427700D01*
X240579Y1427700D01*
X241736Y1427624D01*
X242885Y1427473D01*
X244021Y1427247D01*
X245141Y1426947D01*
X246238Y1426574D01*
X247309Y1426131D01*
X248348Y1425618D01*
X249352Y1425039D01*
X250315Y1424395D01*
X251235Y1423690D01*
X252106Y1422926D01*
X252926Y1422106D01*
X253690Y1421235D01*
X254395Y1420315D01*
X255039Y1419352D01*
X255618Y1418348D01*
X256131Y1417309D01*
X256574Y1416238D01*
X256947Y1415141D01*
X257247Y1414021D01*
X257473Y1412885D01*
X257624Y1411736D01*
X257700Y1410579D01*
X257700Y1409421D01*
X627700Y1409421D02*
X627624Y1408264D01*
X627473Y1407115D01*
X627247Y1405979D01*
X626947Y1404859D01*
X626574Y1403762D01*
X626131Y1402691D01*
X625618Y1401652D01*
X625039Y1400648D01*
X624395Y1399685D01*
X623690Y1398765D01*
X622926Y1397894D01*
X622106Y1397075D01*
X621235Y1396310D01*
X620315Y1395605D01*
X619352Y1394961D01*
X618348Y1394382D01*
X617309Y1393869D01*
X616238Y1393426D01*
X615141Y1393053D01*
X614021Y1392753D01*
X612885Y1392527D01*
X611736Y1392376D01*
X610579Y1392300D01*
X609421Y1392300D01*
X608264Y1392376D01*
X607115Y1392527D01*
X605979Y1392753D01*
X604859Y1393053D01*
X603762Y1393426D01*
X602691Y1393869D01*
X601652Y1394382D01*
X600648Y1394961D01*
X599685Y1395605D01*
X598765Y1396310D01*
X597894Y1397075D01*
X597075Y1397894D01*
X596310Y1398765D01*
X595605Y1399685D01*
X594961Y1400648D01*
X594382Y1401652D01*
X593869Y1402691D01*
X593426Y1403762D01*
X593053Y1404859D01*
X592753Y1405979D01*
X592527Y1407115D01*
X592376Y1408264D01*
X592300Y1409421D01*
X592300Y1410579D01*
X592376Y1411736D01*
X592527Y1412885D01*
X592753Y1414021D01*
X593053Y1415141D01*
X593426Y1416238D01*
X593869Y1417309D01*
X594382Y1418348D01*
X594961Y1419352D01*
X595605Y1420315D01*
X596310Y1421235D01*
X597075Y1422106D01*
X597894Y1422926D01*
X598765Y1423690D01*
X599685Y1424395D01*
X600648Y1425039D01*
X601652Y1425618D01*
X602691Y1426131D01*
X603762Y1426574D01*
X604859Y1426947D01*
X605979Y1427247D01*
X607115Y1427473D01*
X608264Y1427624D01*
X609421Y1427700D01*
X610579Y1427700D01*
X611736Y1427624D01*
X612885Y1427473D01*
X614021Y1427247D01*
X615141Y1426947D01*
X616238Y1426574D01*
X617309Y1426131D01*
X618348Y1425618D01*
X619352Y1425039D01*
X620315Y1424395D01*
X621235Y1423690D01*
X622106Y1422926D01*
X622926Y1422106D01*
X623690Y1421235D01*
X624395Y1420315D01*
X625039Y1419352D01*
X625618Y1418348D01*
X626131Y1417309D01*
X626574Y1416238D01*
X626947Y1415141D01*
X627247Y1414021D01*
X627473Y1412885D01*
X627624Y1411736D01*
X627700Y1410579D01*
X627700Y1409421D01*
X118390Y810012D02*
X118322Y809239D01*
X118188Y808474D01*
X117987Y807724D01*
X117721Y806995D01*
X117393Y806291D01*
X117005Y805619D01*
X116560Y804983D01*
X116061Y804388D01*
X115512Y803839D01*
X114917Y803340D01*
X114281Y802895D01*
X113609Y802507D01*
X112905Y802179D01*
X112176Y801913D01*
X111426Y801712D01*
X110661Y801578D01*
X109888Y801510D01*
X109112Y801510D01*
X108339Y801578D01*
X107574Y801712D01*
X106824Y801913D01*
X106095Y802179D01*
X105391Y802507D01*
X104719Y802895D01*
X104083Y803340D01*
X103488Y803839D01*
X102939Y804388D01*
X102440Y804983D01*
X101995Y805619D01*
X101607Y806291D01*
X101279Y806995D01*
X101013Y807724D01*
X100812Y808474D01*
X100678Y809239D01*
X100610Y810012D01*
X100610Y810788D01*
X100678Y811561D01*
X100812Y812326D01*
X101013Y813076D01*
X101279Y813805D01*
X101607Y814509D01*
X101995Y815181D01*
X102440Y815817D01*
X102939Y816412D01*
X103488Y816961D01*
X104083Y817460D01*
X104719Y817905D01*
X105391Y818293D01*
X106095Y818621D01*
X106824Y818887D01*
X107574Y819088D01*
X108339Y819222D01*
X109112Y819290D01*
X109888Y819290D01*
X110661Y819222D01*
X111426Y819088D01*
X112176Y818887D01*
X112905Y818621D01*
X113609Y818293D01*
X114281Y817905D01*
X114917Y817460D01*
X115512Y816961D01*
X116061Y816412D01*
X116560Y815817D01*
X117005Y815181D01*
X117393Y814509D01*
X117721Y813805D01*
X117987Y813076D01*
X118188Y812326D01*
X118322Y811561D01*
X118390Y810788D01*
X118390Y810012D01*
X118390Y962412D02*
X118322Y961639D01*
X118188Y960874D01*
X117987Y960124D01*
X117721Y959395D01*
X117393Y958691D01*
X117005Y958019D01*
X116560Y957383D01*
X116061Y956788D01*
X115512Y956239D01*
X114917Y955740D01*
X114281Y955295D01*
X113609Y954907D01*
X112905Y954579D01*
X112176Y954313D01*
X111426Y954112D01*
X110661Y953978D01*
X109888Y953910D01*
X109112Y953910D01*
X108339Y953978D01*
X107574Y954112D01*
X106824Y954313D01*
X106095Y954579D01*
X105391Y954907D01*
X104719Y955295D01*
X104083Y955740D01*
X103488Y956239D01*
X102939Y956788D01*
X102440Y957383D01*
X101995Y958019D01*
X101607Y958691D01*
X101279Y959395D01*
X101013Y960124D01*
X100812Y960874D01*
X100678Y961639D01*
X100610Y962412D01*
X100610Y963188D01*
X100678Y963961D01*
X100812Y964726D01*
X101013Y965476D01*
X101279Y966205D01*
X101607Y966909D01*
X101995Y967581D01*
X102440Y968217D01*
X102939Y968812D01*
X103488Y969361D01*
X104083Y969860D01*
X104719Y970305D01*
X105391Y970693D01*
X106095Y971021D01*
X106824Y971287D01*
X107574Y971488D01*
X108339Y971622D01*
X109112Y971690D01*
X109888Y971690D01*
X110661Y971622D01*
X111426Y971488D01*
X112176Y971287D01*
X112905Y971021D01*
X113609Y970693D01*
X114281Y970305D01*
X114917Y969860D01*
X115512Y969361D01*
X116061Y968812D01*
X116560Y968217D01*
X117005Y967581D01*
X117393Y966909D01*
X117721Y966205D01*
X117987Y965476D01*
X118188Y964726D01*
X118322Y963961D01*
X118390Y963188D01*
X118390Y962412D01*
X524790Y962412D02*
X524722Y961639D01*
X524588Y960874D01*
X524387Y960124D01*
X524121Y959395D01*
X523793Y958691D01*
X523405Y958019D01*
X522960Y957383D01*
X522461Y956788D01*
X521912Y956239D01*
X521317Y955740D01*
X520681Y955295D01*
X520009Y954907D01*
X519305Y954579D01*
X518576Y954313D01*
X517826Y954112D01*
X517061Y953978D01*
X516288Y953910D01*
X515512Y953910D01*
X514739Y953978D01*
X513974Y954112D01*
X513224Y954313D01*
X512495Y954579D01*
X511791Y954907D01*
X511119Y955295D01*
X510483Y955740D01*
X509888Y956239D01*
X509339Y956788D01*
X508840Y957383D01*
X508395Y958019D01*
X508007Y958691D01*
X507679Y959395D01*
X507413Y960124D01*
X507212Y960874D01*
X507078Y961639D01*
X507010Y962412D01*
X507010Y963188D01*
X507078Y963961D01*
X507212Y964726D01*
X507413Y965476D01*
X507679Y966205D01*
X508007Y966909D01*
X508395Y967581D01*
X508840Y968217D01*
X509339Y968812D01*
X509888Y969361D01*
X510483Y969860D01*
X511119Y970305D01*
X511791Y970693D01*
X512495Y971021D01*
X513224Y971287D01*
X513974Y971488D01*
X514739Y971622D01*
X515512Y971690D01*
X516288Y971690D01*
X517061Y971622D01*
X517826Y971488D01*
X518576Y971287D01*
X519305Y971021D01*
X520009Y970693D01*
X520681Y970305D01*
X521317Y969860D01*
X521912Y969361D01*
X522461Y968812D01*
X522960Y968217D01*
X523405Y967581D01*
X523793Y966909D01*
X524121Y966205D01*
X524387Y965476D01*
X524588Y964726D01*
X524722Y963961D01*
X524790Y963188D01*
X524790Y962412D01*
X524790Y810012D02*
X524722Y809239D01*
X524588Y808474D01*
X524387Y807724D01*
X524121Y806995D01*
X523793Y806291D01*
X523405Y805619D01*
X522960Y804983D01*
X522461Y804388D01*
X521912Y803839D01*
X521317Y803340D01*
X520681Y802895D01*
X520009Y802507D01*
X519305Y802179D01*
X518576Y801913D01*
X517826Y801712D01*
X517061Y801578D01*
X516288Y801510D01*
X515512Y801510D01*
X514739Y801578D01*
X513974Y801712D01*
X513224Y801913D01*
X512495Y802179D01*
X511791Y802507D01*
X511119Y802895D01*
X510483Y803340D01*
X509888Y803839D01*
X509339Y804388D01*
X508840Y804983D01*
X508395Y805619D01*
X508007Y806291D01*
X507679Y806995D01*
X507413Y807724D01*
X507212Y808474D01*
X507078Y809239D01*
X507010Y810012D01*
X507010Y810788D01*
X507078Y811561D01*
X507212Y812326D01*
X507413Y813076D01*
X507679Y813805D01*
X508007Y814509D01*
X508395Y815181D01*
X508840Y815817D01*
X509339Y816412D01*
X509888Y816961D01*
X510483Y817460D01*
X511119Y817905D01*
X511791Y818293D01*
X512495Y818621D01*
X513224Y818887D01*
X513974Y819088D01*
X514739Y819222D01*
X515512Y819290D01*
X516288Y819290D01*
X517061Y819222D01*
X517826Y819088D01*
X518576Y818887D01*
X519305Y818621D01*
X520009Y818293D01*
X520681Y817905D01*
X521317Y817460D01*
X521912Y816961D01*
X522461Y816412D01*
X522960Y815817D01*
X523405Y815181D01*
X523793Y814509D01*
X524121Y813805D01*
X524387Y813076D01*
X524588Y812326D01*
X524722Y811561D01*
X524790Y810788D01*
X524790Y810012D01*
X190464Y253200D02*
X191391Y253134D01*
X192310Y253002D01*
X193217Y252804D01*
X194108Y252543D01*
X194978Y252218D01*
X195823Y251832D01*
X196638Y251387D01*
X197419Y250885D01*
X198162Y250329D01*
X198864Y249721D01*
X199521Y249064D01*
X200129Y248362D01*
X200685Y247619D01*
X201187Y246838D01*
X201632Y246023D01*
X202018Y245178D01*
X202343Y244308D01*
X202604Y243417D01*
X202802Y242510D01*
X202934Y241591D01*
X203000Y240664D01*
X203000Y239736D01*
X202934Y238809D01*
X202802Y237890D01*
X202604Y236983D01*
X202343Y236092D01*
X202018Y235222D01*
X201632Y234377D01*
X201187Y233562D01*
X200685Y232781D01*
X200129Y232038D01*
X199521Y231336D01*
X198864Y230679D01*
X198162Y230071D01*
X197419Y229515D01*
X196638Y229013D01*
X195823Y228568D01*
X194978Y228182D01*
X194108Y227857D01*
X193217Y227596D01*
X192310Y227398D01*
X191391Y227266D01*
X190464Y227200D01*
X189536Y227200D01*
X188609Y227266D01*
X187690Y227398D01*
X186783Y227596D01*
X185892Y227857D01*
X185022Y228182D01*
X184177Y228568D01*
X183362Y229013D01*
X182581Y229515D01*
X181838Y230071D01*
X181136Y230679D01*
X180479Y231336D01*
X179871Y232038D01*
X179315Y232781D01*
X178813Y233562D01*
X178368Y234377D01*
X177982Y235222D01*
X177657Y236092D01*
X177396Y236983D01*
X177198Y237890D01*
X177066Y238809D01*
X177000Y239736D01*
X177000Y240664D01*
X177066Y241591D01*
X177198Y242510D01*
X177396Y243417D01*
X177657Y244308D01*
X177982Y245178D01*
X178368Y246023D01*
X178813Y246838D01*
X179315Y247619D01*
X179871Y248362D01*
X180479Y249064D01*
X181136Y249721D01*
X181838Y250329D01*
X182581Y250885D01*
X183362Y251387D01*
X184177Y251832D01*
X185022Y252218D01*
X185892Y252543D01*
X186783Y252804D01*
X187690Y253002D01*
X188609Y253134D01*
X189536Y253200D01*
X190464Y253200D01*
X69464Y619300D02*
X70391Y619234D01*
X71310Y619102D01*
X72217Y618904D01*
X73108Y618643D01*
X73978Y618318D01*
X74823Y617932D01*
X75638Y617487D01*
X76419Y616985D01*
X77162Y616429D01*
X77864Y615821D01*
X78521Y615164D01*
X79129Y614462D01*
X79685Y613719D01*
X80187Y612938D01*
X80632Y612123D01*
X81018Y611278D01*
X81343Y610408D01*
X81604Y609517D01*
X81802Y608610D01*
X81934Y607691D01*
X82000Y606764D01*
X82000Y605836D01*
X81934Y604909D01*
X81802Y603990D01*
X81604Y603083D01*
X81343Y602192D01*
X81018Y601322D01*
X80632Y600477D01*
X80187Y599662D01*
X79685Y598881D01*
X79129Y598138D01*
X78521Y597436D01*
X77864Y596779D01*
X77162Y596171D01*
X76419Y595615D01*
X75638Y595113D01*
X74823Y594668D01*
X73978Y594282D01*
X73108Y593957D01*
X72217Y593696D01*
X71310Y593498D01*
X70391Y593366D01*
X69464Y593300D01*
X68536Y593300D01*
X67609Y593366D01*
X66690Y593498D01*
X65783Y593696D01*
X64892Y593957D01*
X64022Y594282D01*
X63177Y594668D01*
X62362Y595113D01*
X61581Y595615D01*
X60838Y596171D01*
X60136Y596779D01*
X59479Y597436D01*
X58871Y598138D01*
X58315Y598881D01*
X57813Y599662D01*
X57368Y600477D01*
X56982Y601322D01*
X56657Y602192D01*
X56396Y603083D01*
X56198Y603990D01*
X56066Y604909D01*
X56000Y605836D01*
X56000Y606764D01*
X56066Y607691D01*
X56198Y608610D01*
X56396Y609517D01*
X56657Y610408D01*
X56982Y611278D01*
X57368Y612123D01*
X57813Y612938D01*
X58315Y613719D01*
X58871Y614462D01*
X59479Y615164D01*
X60136Y615821D01*
X60838Y616429D01*
X61581Y616985D01*
X62362Y617487D01*
X63177Y617932D01*
X64022Y618318D01*
X64892Y618643D01*
X65783Y618904D01*
X66690Y619102D01*
X67609Y619234D01*
X68536Y619300D01*
X69464Y619300D01*
X311464Y619300D02*
X312391Y619234D01*
X313310Y619102D01*
X314217Y618904D01*
X315108Y618643D01*
X315978Y618318D01*
X316823Y617932D01*
X317638Y617487D01*
X318419Y616985D01*
X319162Y616429D01*
X319864Y615821D01*
X320521Y615164D01*
X321129Y614462D01*
X321685Y613719D01*
X322187Y612938D01*
X322632Y612123D01*
X323018Y611278D01*
X323343Y610408D01*
X323604Y609517D01*
X323802Y608610D01*
X323934Y607691D01*
X324000Y606764D01*
X324000Y605836D01*
X323934Y604909D01*
X323802Y603990D01*
X323604Y603083D01*
X323343Y602192D01*
X323018Y601322D01*
X322632Y600477D01*
X322187Y599662D01*
X321685Y598881D01*
X321129Y598138D01*
X320521Y597436D01*
X319864Y596779D01*
X319162Y596171D01*
X318419Y595615D01*
X317638Y595113D01*
X316823Y594668D01*
X315978Y594282D01*
X315108Y593957D01*
X314217Y593696D01*
X313310Y593498D01*
X312391Y593366D01*
X311464Y593300D01*
X310536Y593300D01*
X309609Y593366D01*
X308690Y593498D01*
X307783Y593696D01*
X306892Y593957D01*
X306022Y594282D01*
X305177Y594668D01*
X304362Y595113D01*
X303581Y595615D01*
X302838Y596171D01*
X302136Y596779D01*
X301479Y597436D01*
X300871Y598138D01*
X300315Y598881D01*
X299813Y599662D01*
X299368Y600477D01*
X298982Y601322D01*
X298657Y602192D01*
X298396Y603083D01*
X298198Y603990D01*
X298066Y604909D01*
X298000Y605836D01*
X298000Y606764D01*
X298066Y607691D01*
X298198Y608610D01*
X298396Y609517D01*
X298657Y610408D01*
X298982Y611278D01*
X299368Y612123D01*
X299813Y612938D01*
X300315Y613719D01*
X300871Y614462D01*
X301479Y615164D01*
X302136Y615821D01*
X302838Y616429D01*
X303581Y616985D01*
X304362Y617487D01*
X305177Y617932D01*
X306022Y618318D01*
X306892Y618643D01*
X307783Y618904D01*
X308690Y619102D01*
X309609Y619234D01*
X310536Y619300D01*
X311464Y619300D01*
X509509Y735970D02*
X508530Y736047D01*
X507560Y736201D01*
X506604Y736430D01*
X505670Y736734D01*
X504763Y737109D01*
X503888Y737555D01*
X503050Y738069D01*
X502255Y738646D01*
X501508Y739284D01*
X500814Y739978D01*
X500176Y740725D01*
X499599Y741520D01*
X499085Y742358D01*
X498639Y743233D01*
X498264Y744140D01*
X497960Y745074D01*
X497731Y746030D01*
X497577Y747000D01*
X497500Y747979D01*
X497500Y748961D01*
X497577Y749940D01*
X497731Y750911D01*
X497960Y751866D01*
X498264Y752800D01*
X498639Y753707D01*
X499085Y754582D01*
X499599Y755420D01*
X500176Y756215D01*
X500814Y756962D01*
X501508Y757656D01*
X502255Y758294D01*
X503050Y758871D01*
X503888Y759385D01*
X504763Y759831D01*
X505670Y760206D01*
X506604Y760510D01*
X507560Y760739D01*
X508530Y760893D01*
X509509Y760970D01*
X510491Y760970D01*
X511470Y760893D01*
X512441Y760739D01*
X513396Y760510D01*
X514330Y760206D01*
X515237Y759831D01*
X516112Y759385D01*
X516950Y758871D01*
X517745Y758294D01*
X518492Y757656D01*
X519186Y756962D01*
X519824Y756215D01*
X520401Y755420D01*
X520915Y754582D01*
X521361Y753707D01*
X521736Y752800D01*
X522040Y751866D01*
X522269Y750911D01*
X522423Y749940D01*
X522500Y748961D01*
X522500Y747979D01*
X522423Y747000D01*
X522269Y746030D01*
X522040Y745074D01*
X521736Y744140D01*
X521361Y743233D01*
X520915Y742358D01*
X520401Y741520D01*
X519824Y740725D01*
X519186Y739978D01*
X518492Y739284D01*
X517745Y738646D01*
X516950Y738069D01*
X516112Y737555D01*
X515237Y737109D01*
X514330Y736734D01*
X513396Y736430D01*
X512441Y736201D01*
X511470Y736047D01*
X510491Y735970D01*
X509509Y735970D01*
X382909Y735970D02*
X381930Y736047D01*
X380960Y736201D01*
X380004Y736430D01*
X379070Y736734D01*
X378163Y737109D01*
X377288Y737555D01*
X376450Y738069D01*
X375655Y738646D01*
X374908Y739284D01*
X374214Y739978D01*
X373576Y740725D01*
X372999Y741520D01*
X372485Y742358D01*
X372039Y743233D01*
X371664Y744140D01*
X371360Y745074D01*
X371131Y746030D01*
X370977Y747000D01*
X370900Y747979D01*
X370900Y748961D01*
X370977Y749940D01*
X371131Y750911D01*
X371360Y751866D01*
X371664Y752800D01*
X372039Y753707D01*
X372485Y754582D01*
X372999Y755420D01*
X373576Y756215D01*
X374214Y756962D01*
X374908Y757656D01*
X375655Y758294D01*
X376450Y758871D01*
X377288Y759385D01*
X378163Y759831D01*
X379070Y760206D01*
X380004Y760510D01*
X380960Y760739D01*
X381930Y760893D01*
X382909Y760970D01*
X383891Y760970D01*
X384870Y760893D01*
X385841Y760739D01*
X386796Y760510D01*
X387730Y760206D01*
X388637Y759831D01*
X389512Y759385D01*
X390350Y758871D01*
X391145Y758294D01*
X391892Y757656D01*
X392586Y756962D01*
X393224Y756215D01*
X393801Y755420D01*
X394315Y754582D01*
X394761Y753707D01*
X395136Y752800D01*
X395440Y751866D01*
X395669Y750911D01*
X395823Y749940D01*
X395900Y748961D01*
X395900Y747979D01*
X395823Y747000D01*
X395669Y746030D01*
X395440Y745074D01*
X395136Y744140D01*
X394761Y743233D01*
X394315Y742358D01*
X393801Y741520D01*
X393224Y740725D01*
X392586Y739978D01*
X391892Y739284D01*
X391145Y738646D01*
X390350Y738069D01*
X389512Y737555D01*
X388637Y737109D01*
X387730Y736734D01*
X386796Y736430D01*
X385841Y736201D01*
X384870Y736047D01*
X383891Y735970D01*
X382909Y735970D01*
X242400Y1213809D02*
X242323Y1212830D01*
X242169Y1211860D01*
X241940Y1210904D01*
X241636Y1209970D01*
X241261Y1209063D01*
X240815Y1208188D01*
X240301Y1207350D01*
X239724Y1206555D01*
X239086Y1205808D01*
X238392Y1205114D01*
X237645Y1204476D01*
X236850Y1203899D01*
X236012Y1203385D01*
X235137Y1202939D01*
X234230Y1202564D01*
X233296Y1202260D01*
X232341Y1202031D01*
X231370Y1201877D01*
X230391Y1201800D01*
X229409Y1201800D01*
X228430Y1201877D01*
X227460Y1202031D01*
X226504Y1202260D01*
X225570Y1202564D01*
X224663Y1202939D01*
X223788Y1203385D01*
X222950Y1203899D01*
X222155Y1204476D01*
X221408Y1205114D01*
X220714Y1205808D01*
X220076Y1206555D01*
X219499Y1207350D01*
X218985Y1208188D01*
X218539Y1209063D01*
X218164Y1209970D01*
X217860Y1210904D01*
X217631Y1211860D01*
X217477Y1212830D01*
X217400Y1213809D01*
X217400Y1214791D01*
X217477Y1215770D01*
X217631Y1216741D01*
X217860Y1217696D01*
X218164Y1218630D01*
X218539Y1219537D01*
X218985Y1220412D01*
X219499Y1221250D01*
X220076Y1222045D01*
X220714Y1222792D01*
X221408Y1223486D01*
X222155Y1224124D01*
X222950Y1224701D01*
X223788Y1225215D01*
X224663Y1225661D01*
X225570Y1226036D01*
X226504Y1226340D01*
X227460Y1226569D01*
X228430Y1226723D01*
X229409Y1226800D01*
X230391Y1226800D01*
X231370Y1226723D01*
X232341Y1226569D01*
X233296Y1226340D01*
X234230Y1226036D01*
X235137Y1225661D01*
X236012Y1225215D01*
X236850Y1224701D01*
X237645Y1224124D01*
X238392Y1223486D01*
X239086Y1222792D01*
X239724Y1222045D01*
X240301Y1221250D01*
X240815Y1220412D01*
X241261Y1219537D01*
X241636Y1218630D01*
X241940Y1217696D01*
X242169Y1216741D01*
X242323Y1215770D01*
X242400Y1214791D01*
X242400Y1213809D01*
X242400Y1010609D02*
X242323Y1009630D01*
X242169Y1008660D01*
X241940Y1007704D01*
X241636Y1006770D01*
X241261Y1005863D01*
X240815Y1004988D01*
X240301Y1004150D01*
X239724Y1003355D01*
X239086Y1002608D01*
X238392Y1001914D01*
X237645Y1001276D01*
X236850Y1000699D01*
X236012Y1000185D01*
X235137Y999739D01*
X234230Y999364D01*
X233296Y999060D01*
X232341Y998831D01*
X231370Y998677D01*
X230391Y998600D01*
X229409Y998600D01*
X228430Y998677D01*
X227460Y998831D01*
X226504Y999060D01*
X225570Y999364D01*
X224663Y999739D01*
X223788Y1000185D01*
X222950Y1000699D01*
X222155Y1001276D01*
X221408Y1001914D01*
X220714Y1002608D01*
X220076Y1003355D01*
X219499Y1004150D01*
X218985Y1004988D01*
X218539Y1005863D01*
X218164Y1006770D01*
X217860Y1007704D01*
X217631Y1008660D01*
X217477Y1009630D01*
X217400Y1010609D01*
X217400Y1011591D01*
X217477Y1012570D01*
X217631Y1013541D01*
X217860Y1014496D01*
X218164Y1015430D01*
X218539Y1016337D01*
X218985Y1017212D01*
X219499Y1018050D01*
X220076Y1018845D01*
X220714Y1019592D01*
X221408Y1020286D01*
X222155Y1020924D01*
X222950Y1021501D01*
X223788Y1022015D01*
X224663Y1022461D01*
X225570Y1022836D01*
X226504Y1023140D01*
X227460Y1023369D01*
X228430Y1023523D01*
X229409Y1023600D01*
X230391Y1023600D01*
X231370Y1023523D01*
X232341Y1023369D01*
X233296Y1023140D01*
X234230Y1022836D01*
X235137Y1022461D01*
X236012Y1022015D01*
X236850Y1021501D01*
X237645Y1020924D01*
X238392Y1020286D01*
X239086Y1019592D01*
X239724Y1018845D01*
X240301Y1018050D01*
X240815Y1017212D01*
X241261Y1016337D01*
X241636Y1015430D01*
X241940Y1014496D01*
X242169Y1013541D01*
X242323Y1012570D01*
X242400Y1011591D01*
X242400Y1010609D01*
M02*
