G04 EAGLE Gerber RS-274X export*
G75*
%MOMM*%
%FSLAX34Y34*%
%LPD*%
%INSilkscreen Bottom*%
%IPPOS*%
%AMOC8*
5,1,8,0,0,1.08239X$1,22.5*%
G01*
%ADD10C,0.203200*%
%ADD11C,0.127000*%


D10*
X206500Y1242500D02*
X206500Y1312500D01*
X144500Y1312500D01*
X136500Y1312500D01*
X136500Y1242500D01*
X144500Y1242500D01*
X206500Y1242500D01*
X144500Y1242500D02*
X144500Y1312500D01*
D11*
X218535Y1247935D02*
X223361Y1247935D01*
X223361Y1249276D01*
X223359Y1249347D01*
X223353Y1249419D01*
X223344Y1249489D01*
X223331Y1249559D01*
X223314Y1249629D01*
X223293Y1249697D01*
X223269Y1249764D01*
X223241Y1249830D01*
X223210Y1249894D01*
X223175Y1249957D01*
X223137Y1250017D01*
X223096Y1250076D01*
X223052Y1250132D01*
X223005Y1250186D01*
X222956Y1250237D01*
X222903Y1250285D01*
X222848Y1250331D01*
X222791Y1250373D01*
X222731Y1250413D01*
X222670Y1250449D01*
X222606Y1250482D01*
X222541Y1250511D01*
X222475Y1250537D01*
X222407Y1250560D01*
X222338Y1250579D01*
X222268Y1250594D01*
X222198Y1250605D01*
X222127Y1250613D01*
X222056Y1250617D01*
X221984Y1250617D01*
X221913Y1250613D01*
X221842Y1250605D01*
X221772Y1250594D01*
X221702Y1250579D01*
X221633Y1250560D01*
X221565Y1250537D01*
X221499Y1250511D01*
X221434Y1250482D01*
X221370Y1250449D01*
X221309Y1250413D01*
X221249Y1250373D01*
X221192Y1250331D01*
X221137Y1250285D01*
X221084Y1250237D01*
X221035Y1250186D01*
X220988Y1250132D01*
X220944Y1250076D01*
X220903Y1250017D01*
X220865Y1249957D01*
X220830Y1249894D01*
X220799Y1249830D01*
X220771Y1249764D01*
X220747Y1249697D01*
X220726Y1249629D01*
X220709Y1249559D01*
X220696Y1249489D01*
X220687Y1249419D01*
X220681Y1249347D01*
X220679Y1249276D01*
X220680Y1249276D02*
X220680Y1247935D01*
X219876Y1253092D02*
X222020Y1253092D01*
X222091Y1253094D01*
X222163Y1253100D01*
X222233Y1253109D01*
X222303Y1253122D01*
X222373Y1253139D01*
X222441Y1253160D01*
X222508Y1253184D01*
X222574Y1253212D01*
X222638Y1253243D01*
X222701Y1253278D01*
X222761Y1253316D01*
X222820Y1253357D01*
X222876Y1253401D01*
X222930Y1253448D01*
X222981Y1253497D01*
X223029Y1253550D01*
X223075Y1253605D01*
X223117Y1253662D01*
X223157Y1253722D01*
X223193Y1253783D01*
X223226Y1253847D01*
X223255Y1253912D01*
X223281Y1253978D01*
X223304Y1254046D01*
X223323Y1254115D01*
X223338Y1254185D01*
X223349Y1254255D01*
X223357Y1254326D01*
X223361Y1254397D01*
X223361Y1254469D01*
X223357Y1254540D01*
X223349Y1254611D01*
X223338Y1254681D01*
X223323Y1254751D01*
X223304Y1254820D01*
X223281Y1254888D01*
X223255Y1254954D01*
X223226Y1255019D01*
X223193Y1255083D01*
X223157Y1255144D01*
X223117Y1255204D01*
X223075Y1255261D01*
X223029Y1255316D01*
X222981Y1255369D01*
X222930Y1255418D01*
X222876Y1255465D01*
X222820Y1255509D01*
X222761Y1255550D01*
X222701Y1255588D01*
X222638Y1255623D01*
X222574Y1255654D01*
X222508Y1255682D01*
X222441Y1255706D01*
X222373Y1255727D01*
X222303Y1255744D01*
X222233Y1255757D01*
X222163Y1255766D01*
X222091Y1255772D01*
X222020Y1255774D01*
X222020Y1255773D02*
X219876Y1255773D01*
X219876Y1255774D02*
X219805Y1255772D01*
X219733Y1255766D01*
X219663Y1255757D01*
X219593Y1255744D01*
X219523Y1255727D01*
X219455Y1255706D01*
X219388Y1255682D01*
X219322Y1255654D01*
X219258Y1255623D01*
X219195Y1255588D01*
X219135Y1255550D01*
X219076Y1255509D01*
X219020Y1255465D01*
X218966Y1255418D01*
X218915Y1255369D01*
X218867Y1255316D01*
X218821Y1255261D01*
X218779Y1255204D01*
X218739Y1255144D01*
X218703Y1255083D01*
X218670Y1255019D01*
X218641Y1254954D01*
X218615Y1254888D01*
X218592Y1254820D01*
X218573Y1254751D01*
X218558Y1254681D01*
X218547Y1254611D01*
X218539Y1254540D01*
X218535Y1254469D01*
X218535Y1254397D01*
X218539Y1254326D01*
X218547Y1254255D01*
X218558Y1254185D01*
X218573Y1254115D01*
X218592Y1254046D01*
X218615Y1253978D01*
X218641Y1253912D01*
X218670Y1253847D01*
X218703Y1253783D01*
X218739Y1253722D01*
X218779Y1253662D01*
X218821Y1253605D01*
X218867Y1253550D01*
X218915Y1253497D01*
X218966Y1253448D01*
X219020Y1253401D01*
X219076Y1253357D01*
X219135Y1253316D01*
X219195Y1253278D01*
X219258Y1253243D01*
X219322Y1253212D01*
X219388Y1253184D01*
X219455Y1253160D01*
X219523Y1253139D01*
X219593Y1253122D01*
X219663Y1253109D01*
X219733Y1253100D01*
X219805Y1253094D01*
X219876Y1253092D01*
X223361Y1258506D02*
X218535Y1259578D01*
X221752Y1260650D01*
X218535Y1261723D01*
X223361Y1262795D01*
X218535Y1265730D02*
X218535Y1267875D01*
X218535Y1265730D02*
X223361Y1265730D01*
X223361Y1267875D01*
X221216Y1267339D02*
X221216Y1265730D01*
X223361Y1270529D02*
X218535Y1270529D01*
X223361Y1270529D02*
X223361Y1271870D01*
X223359Y1271941D01*
X223353Y1272013D01*
X223344Y1272083D01*
X223331Y1272153D01*
X223314Y1272223D01*
X223293Y1272291D01*
X223269Y1272358D01*
X223241Y1272424D01*
X223210Y1272488D01*
X223175Y1272551D01*
X223137Y1272611D01*
X223096Y1272670D01*
X223052Y1272726D01*
X223005Y1272780D01*
X222956Y1272831D01*
X222903Y1272879D01*
X222848Y1272925D01*
X222791Y1272967D01*
X222731Y1273007D01*
X222670Y1273043D01*
X222606Y1273076D01*
X222541Y1273105D01*
X222475Y1273131D01*
X222407Y1273154D01*
X222338Y1273173D01*
X222268Y1273188D01*
X222198Y1273199D01*
X222127Y1273207D01*
X222056Y1273211D01*
X221984Y1273211D01*
X221913Y1273207D01*
X221842Y1273199D01*
X221772Y1273188D01*
X221702Y1273173D01*
X221633Y1273154D01*
X221565Y1273131D01*
X221499Y1273105D01*
X221434Y1273076D01*
X221370Y1273043D01*
X221309Y1273007D01*
X221249Y1272967D01*
X221192Y1272925D01*
X221137Y1272879D01*
X221084Y1272831D01*
X221035Y1272780D01*
X220988Y1272726D01*
X220944Y1272670D01*
X220903Y1272611D01*
X220865Y1272551D01*
X220830Y1272488D01*
X220799Y1272424D01*
X220771Y1272358D01*
X220747Y1272291D01*
X220726Y1272223D01*
X220709Y1272153D01*
X220696Y1272083D01*
X220687Y1272013D01*
X220681Y1271941D01*
X220679Y1271870D01*
X220680Y1271870D02*
X220680Y1270529D01*
X220680Y1272138D02*
X218535Y1273210D01*
X217999Y1275671D02*
X217999Y1277816D01*
X218535Y1280584D02*
X223361Y1280584D01*
X218535Y1280048D02*
X218535Y1281120D01*
X223361Y1281120D02*
X223361Y1280048D01*
X223361Y1283816D02*
X218535Y1283816D01*
X218535Y1286497D02*
X223361Y1283816D01*
X223361Y1286497D02*
X218535Y1286497D01*
M02*
