G04 EAGLE Gerber RS-274X export*
G75*
%MOMM*%
%FSLAX34Y34*%
%LPD*%
%INSilkscreen Top*%
%IPPOS*%
%AMOC8*
5,1,8,0,0,1.08239X$1,22.5*%
G01*
%ADD10C,0.127000*%
%ADD11C,0.076200*%
%ADD12C,0.050800*%
%ADD13C,0.101600*%
%ADD14C,0.203200*%
%ADD15C,0.152400*%
%ADD16C,0.406400*%


D10*
X96800Y975500D02*
X528600Y975500D01*
X528600Y924700D01*
X528600Y848500D01*
X528600Y797700D01*
X96800Y797700D01*
X96800Y912000D01*
X96800Y975500D01*
X96800Y912000D02*
X84100Y912000D01*
X84100Y861200D01*
X147600Y861200D02*
X147600Y912000D01*
X96800Y912000D01*
X84100Y861200D02*
X147600Y861200D01*
X320139Y886600D02*
X320144Y887041D01*
X320161Y887481D01*
X320188Y887921D01*
X320225Y888360D01*
X320274Y888799D01*
X320333Y889235D01*
X320403Y889671D01*
X320484Y890104D01*
X320575Y890535D01*
X320677Y890964D01*
X320790Y891390D01*
X320912Y891814D01*
X321046Y892234D01*
X321189Y892651D01*
X321343Y893064D01*
X321506Y893473D01*
X321680Y893879D01*
X321863Y894279D01*
X322057Y894675D01*
X322260Y895067D01*
X322472Y895453D01*
X322694Y895834D01*
X322926Y896209D01*
X323166Y896579D01*
X323415Y896942D01*
X323674Y897299D01*
X323941Y897650D01*
X324216Y897994D01*
X324500Y898332D01*
X324792Y898662D01*
X325092Y898985D01*
X325400Y899300D01*
X325715Y899608D01*
X326038Y899908D01*
X326368Y900200D01*
X326706Y900484D01*
X327050Y900759D01*
X327401Y901026D01*
X327758Y901285D01*
X328121Y901534D01*
X328491Y901774D01*
X328866Y902006D01*
X329247Y902228D01*
X329633Y902440D01*
X330025Y902643D01*
X330421Y902837D01*
X330821Y903020D01*
X331227Y903194D01*
X331636Y903357D01*
X332049Y903511D01*
X332466Y903654D01*
X332886Y903788D01*
X333310Y903910D01*
X333736Y904023D01*
X334165Y904125D01*
X334596Y904216D01*
X335029Y904297D01*
X335465Y904367D01*
X335901Y904426D01*
X336340Y904475D01*
X336779Y904512D01*
X337219Y904539D01*
X337659Y904556D01*
X338100Y904561D01*
X338541Y904556D01*
X338981Y904539D01*
X339421Y904512D01*
X339860Y904475D01*
X340299Y904426D01*
X340735Y904367D01*
X341171Y904297D01*
X341604Y904216D01*
X342035Y904125D01*
X342464Y904023D01*
X342890Y903910D01*
X343314Y903788D01*
X343734Y903654D01*
X344151Y903511D01*
X344564Y903357D01*
X344973Y903194D01*
X345379Y903020D01*
X345779Y902837D01*
X346175Y902643D01*
X346567Y902440D01*
X346953Y902228D01*
X347334Y902006D01*
X347709Y901774D01*
X348079Y901534D01*
X348442Y901285D01*
X348799Y901026D01*
X349150Y900759D01*
X349494Y900484D01*
X349832Y900200D01*
X350162Y899908D01*
X350485Y899608D01*
X350800Y899300D01*
X351108Y898985D01*
X351408Y898662D01*
X351700Y898332D01*
X351984Y897994D01*
X352259Y897650D01*
X352526Y897299D01*
X352785Y896942D01*
X353034Y896579D01*
X353274Y896209D01*
X353506Y895834D01*
X353728Y895453D01*
X353940Y895067D01*
X354143Y894675D01*
X354337Y894279D01*
X354520Y893879D01*
X354694Y893473D01*
X354857Y893064D01*
X355011Y892651D01*
X355154Y892234D01*
X355288Y891814D01*
X355410Y891390D01*
X355523Y890964D01*
X355625Y890535D01*
X355716Y890104D01*
X355797Y889671D01*
X355867Y889235D01*
X355926Y888799D01*
X355975Y888360D01*
X356012Y887921D01*
X356039Y887481D01*
X356056Y887041D01*
X356061Y886600D01*
X356056Y886159D01*
X356039Y885719D01*
X356012Y885279D01*
X355975Y884840D01*
X355926Y884401D01*
X355867Y883965D01*
X355797Y883529D01*
X355716Y883096D01*
X355625Y882665D01*
X355523Y882236D01*
X355410Y881810D01*
X355288Y881386D01*
X355154Y880966D01*
X355011Y880549D01*
X354857Y880136D01*
X354694Y879727D01*
X354520Y879321D01*
X354337Y878921D01*
X354143Y878525D01*
X353940Y878133D01*
X353728Y877747D01*
X353506Y877366D01*
X353274Y876991D01*
X353034Y876621D01*
X352785Y876258D01*
X352526Y875901D01*
X352259Y875550D01*
X351984Y875206D01*
X351700Y874868D01*
X351408Y874538D01*
X351108Y874215D01*
X350800Y873900D01*
X350485Y873592D01*
X350162Y873292D01*
X349832Y873000D01*
X349494Y872716D01*
X349150Y872441D01*
X348799Y872174D01*
X348442Y871915D01*
X348079Y871666D01*
X347709Y871426D01*
X347334Y871194D01*
X346953Y870972D01*
X346567Y870760D01*
X346175Y870557D01*
X345779Y870363D01*
X345379Y870180D01*
X344973Y870006D01*
X344564Y869843D01*
X344151Y869689D01*
X343734Y869546D01*
X343314Y869412D01*
X342890Y869290D01*
X342464Y869177D01*
X342035Y869075D01*
X341604Y868984D01*
X341171Y868903D01*
X340735Y868833D01*
X340299Y868774D01*
X339860Y868725D01*
X339421Y868688D01*
X338981Y868661D01*
X338541Y868644D01*
X338100Y868639D01*
X337659Y868644D01*
X337219Y868661D01*
X336779Y868688D01*
X336340Y868725D01*
X335901Y868774D01*
X335465Y868833D01*
X335029Y868903D01*
X334596Y868984D01*
X334165Y869075D01*
X333736Y869177D01*
X333310Y869290D01*
X332886Y869412D01*
X332466Y869546D01*
X332049Y869689D01*
X331636Y869843D01*
X331227Y870006D01*
X330821Y870180D01*
X330421Y870363D01*
X330025Y870557D01*
X329633Y870760D01*
X329247Y870972D01*
X328866Y871194D01*
X328491Y871426D01*
X328121Y871666D01*
X327758Y871915D01*
X327401Y872174D01*
X327050Y872441D01*
X326706Y872716D01*
X326368Y873000D01*
X326038Y873292D01*
X325715Y873592D01*
X325400Y873900D01*
X325092Y874215D01*
X324792Y874538D01*
X324500Y874868D01*
X324216Y875206D01*
X323941Y875550D01*
X323674Y875901D01*
X323415Y876258D01*
X323166Y876621D01*
X322926Y876991D01*
X322694Y877366D01*
X322472Y877747D01*
X322260Y878133D01*
X322057Y878525D01*
X321863Y878921D01*
X321680Y879321D01*
X321506Y879727D01*
X321343Y880136D01*
X321189Y880549D01*
X321046Y880966D01*
X320912Y881386D01*
X320790Y881810D01*
X320677Y882236D01*
X320575Y882665D01*
X320484Y883096D01*
X320403Y883529D01*
X320333Y883965D01*
X320274Y884401D01*
X320225Y884840D01*
X320188Y885279D01*
X320161Y885719D01*
X320144Y886159D01*
X320139Y886600D01*
D11*
X368453Y874281D02*
X375819Y874281D01*
X368453Y874281D02*
X368453Y876327D01*
X368455Y876416D01*
X368461Y876505D01*
X368471Y876594D01*
X368484Y876682D01*
X368501Y876770D01*
X368523Y876857D01*
X368548Y876942D01*
X368576Y877027D01*
X368609Y877110D01*
X368645Y877192D01*
X368684Y877272D01*
X368727Y877350D01*
X368773Y877426D01*
X368823Y877501D01*
X368876Y877573D01*
X368932Y877642D01*
X368991Y877709D01*
X369052Y877774D01*
X369117Y877835D01*
X369184Y877894D01*
X369253Y877950D01*
X369325Y878003D01*
X369400Y878053D01*
X369476Y878099D01*
X369554Y878142D01*
X369634Y878181D01*
X369716Y878217D01*
X369799Y878250D01*
X369884Y878278D01*
X369969Y878303D01*
X370056Y878325D01*
X370144Y878342D01*
X370232Y878355D01*
X370321Y878365D01*
X370410Y878371D01*
X370499Y878373D01*
X370588Y878371D01*
X370677Y878365D01*
X370766Y878355D01*
X370854Y878342D01*
X370942Y878325D01*
X371029Y878303D01*
X371114Y878278D01*
X371199Y878250D01*
X371282Y878217D01*
X371364Y878181D01*
X371444Y878142D01*
X371522Y878099D01*
X371598Y878053D01*
X371673Y878003D01*
X371745Y877950D01*
X371814Y877894D01*
X371881Y877835D01*
X371946Y877774D01*
X372007Y877709D01*
X372066Y877642D01*
X372122Y877573D01*
X372175Y877501D01*
X372225Y877426D01*
X372271Y877350D01*
X372314Y877272D01*
X372353Y877192D01*
X372389Y877110D01*
X372422Y877027D01*
X372450Y876942D01*
X372475Y876857D01*
X372497Y876770D01*
X372514Y876682D01*
X372527Y876594D01*
X372537Y876505D01*
X372543Y876416D01*
X372545Y876327D01*
X372545Y874281D01*
X372545Y876736D02*
X375819Y878373D01*
X375819Y882694D02*
X375819Y884740D01*
X375819Y882694D02*
X375817Y882625D01*
X375811Y882557D01*
X375802Y882488D01*
X375788Y882421D01*
X375771Y882354D01*
X375750Y882288D01*
X375726Y882224D01*
X375697Y882161D01*
X375666Y882100D01*
X375631Y882041D01*
X375593Y881983D01*
X375551Y881928D01*
X375507Y881876D01*
X375459Y881826D01*
X375409Y881778D01*
X375357Y881734D01*
X375302Y881693D01*
X375244Y881654D01*
X375185Y881619D01*
X375124Y881588D01*
X375061Y881559D01*
X374997Y881535D01*
X374931Y881514D01*
X374864Y881497D01*
X374797Y881483D01*
X374729Y881474D01*
X374660Y881468D01*
X374591Y881466D01*
X374591Y881467D02*
X372545Y881467D01*
X372545Y881466D02*
X372466Y881468D01*
X372387Y881474D01*
X372308Y881483D01*
X372230Y881496D01*
X372153Y881514D01*
X372077Y881534D01*
X372002Y881559D01*
X371928Y881587D01*
X371855Y881618D01*
X371784Y881654D01*
X371715Y881692D01*
X371648Y881734D01*
X371583Y881779D01*
X371520Y881827D01*
X371459Y881878D01*
X371402Y881932D01*
X371346Y881988D01*
X371294Y882047D01*
X371244Y882109D01*
X371198Y882173D01*
X371154Y882239D01*
X371114Y882307D01*
X371078Y882377D01*
X371044Y882449D01*
X371014Y882523D01*
X370988Y882597D01*
X370965Y882673D01*
X370947Y882750D01*
X370931Y882827D01*
X370920Y882906D01*
X370912Y882984D01*
X370908Y883063D01*
X370908Y883143D01*
X370912Y883222D01*
X370920Y883300D01*
X370931Y883379D01*
X370947Y883456D01*
X370965Y883533D01*
X370988Y883609D01*
X371014Y883683D01*
X371044Y883757D01*
X371078Y883829D01*
X371114Y883899D01*
X371154Y883967D01*
X371198Y884033D01*
X371244Y884097D01*
X371294Y884159D01*
X371346Y884218D01*
X371402Y884274D01*
X371459Y884328D01*
X371520Y884379D01*
X371583Y884427D01*
X371648Y884472D01*
X371715Y884514D01*
X371784Y884552D01*
X371855Y884588D01*
X371928Y884619D01*
X372002Y884647D01*
X372077Y884672D01*
X372153Y884692D01*
X372230Y884710D01*
X372308Y884723D01*
X372387Y884732D01*
X372466Y884738D01*
X372545Y884740D01*
X373364Y884740D01*
X373364Y881467D01*
X372954Y888420D02*
X373773Y890466D01*
X372954Y888420D02*
X372929Y888361D01*
X372900Y888304D01*
X372867Y888249D01*
X372831Y888196D01*
X372793Y888145D01*
X372751Y888097D01*
X372706Y888051D01*
X372659Y888008D01*
X372609Y887968D01*
X372557Y887931D01*
X372502Y887897D01*
X372446Y887866D01*
X372388Y887839D01*
X372328Y887816D01*
X372268Y887796D01*
X372206Y887780D01*
X372143Y887767D01*
X372079Y887759D01*
X372016Y887754D01*
X371952Y887753D01*
X371888Y887756D01*
X371824Y887763D01*
X371761Y887774D01*
X371699Y887788D01*
X371637Y887806D01*
X371577Y887828D01*
X371518Y887853D01*
X371461Y887882D01*
X371406Y887915D01*
X371353Y887950D01*
X371302Y887989D01*
X371253Y888031D01*
X371207Y888075D01*
X371164Y888123D01*
X371124Y888172D01*
X371087Y888225D01*
X371053Y888279D01*
X371022Y888335D01*
X370995Y888393D01*
X370971Y888452D01*
X370952Y888513D01*
X370935Y888575D01*
X370923Y888638D01*
X370914Y888701D01*
X370909Y888765D01*
X370908Y888829D01*
X370912Y888965D01*
X370920Y889100D01*
X370932Y889236D01*
X370948Y889370D01*
X370968Y889505D01*
X370991Y889638D01*
X371019Y889771D01*
X371050Y889903D01*
X371085Y890034D01*
X371124Y890164D01*
X371167Y890293D01*
X371214Y890420D01*
X371264Y890546D01*
X371318Y890671D01*
X373773Y890466D02*
X373798Y890525D01*
X373827Y890582D01*
X373860Y890637D01*
X373896Y890690D01*
X373934Y890741D01*
X373976Y890789D01*
X374021Y890835D01*
X374068Y890878D01*
X374118Y890918D01*
X374170Y890955D01*
X374225Y890989D01*
X374281Y891020D01*
X374339Y891047D01*
X374399Y891070D01*
X374459Y891090D01*
X374521Y891106D01*
X374584Y891119D01*
X374648Y891127D01*
X374711Y891132D01*
X374775Y891133D01*
X374839Y891130D01*
X374903Y891123D01*
X374966Y891112D01*
X375028Y891098D01*
X375090Y891080D01*
X375150Y891058D01*
X375209Y891033D01*
X375266Y891004D01*
X375321Y890971D01*
X375374Y890936D01*
X375425Y890897D01*
X375474Y890855D01*
X375520Y890811D01*
X375563Y890763D01*
X375603Y890714D01*
X375640Y890661D01*
X375674Y890607D01*
X375705Y890551D01*
X375732Y890493D01*
X375756Y890434D01*
X375775Y890373D01*
X375792Y890311D01*
X375804Y890248D01*
X375813Y890185D01*
X375818Y890121D01*
X375819Y890057D01*
X375815Y889893D01*
X375807Y889729D01*
X375795Y889565D01*
X375779Y889402D01*
X375759Y889239D01*
X375736Y889076D01*
X375708Y888915D01*
X375677Y888753D01*
X375642Y888593D01*
X375603Y888434D01*
X375560Y888275D01*
X375514Y888118D01*
X375464Y887961D01*
X375410Y887806D01*
X375819Y895374D02*
X375819Y897420D01*
X375819Y895374D02*
X375817Y895305D01*
X375811Y895237D01*
X375802Y895168D01*
X375788Y895101D01*
X375771Y895034D01*
X375750Y894968D01*
X375726Y894904D01*
X375697Y894841D01*
X375666Y894780D01*
X375631Y894721D01*
X375593Y894663D01*
X375551Y894608D01*
X375507Y894556D01*
X375459Y894506D01*
X375409Y894458D01*
X375357Y894414D01*
X375302Y894373D01*
X375244Y894334D01*
X375185Y894299D01*
X375124Y894268D01*
X375061Y894239D01*
X374997Y894215D01*
X374931Y894194D01*
X374864Y894177D01*
X374797Y894163D01*
X374729Y894154D01*
X374660Y894148D01*
X374591Y894146D01*
X372545Y894146D01*
X372466Y894148D01*
X372387Y894154D01*
X372308Y894163D01*
X372230Y894176D01*
X372153Y894194D01*
X372077Y894214D01*
X372002Y894239D01*
X371928Y894267D01*
X371855Y894298D01*
X371784Y894334D01*
X371715Y894372D01*
X371648Y894414D01*
X371583Y894459D01*
X371520Y894507D01*
X371459Y894558D01*
X371402Y894612D01*
X371346Y894668D01*
X371294Y894727D01*
X371244Y894789D01*
X371198Y894853D01*
X371154Y894919D01*
X371114Y894987D01*
X371078Y895057D01*
X371044Y895129D01*
X371014Y895203D01*
X370988Y895277D01*
X370965Y895353D01*
X370947Y895430D01*
X370931Y895507D01*
X370920Y895586D01*
X370912Y895664D01*
X370908Y895743D01*
X370908Y895823D01*
X370912Y895902D01*
X370920Y895980D01*
X370931Y896059D01*
X370947Y896136D01*
X370965Y896213D01*
X370988Y896289D01*
X371014Y896363D01*
X371044Y896437D01*
X371078Y896509D01*
X371114Y896579D01*
X371154Y896647D01*
X371198Y896713D01*
X371244Y896777D01*
X371294Y896839D01*
X371346Y896898D01*
X371402Y896954D01*
X371459Y897008D01*
X371520Y897059D01*
X371583Y897107D01*
X371648Y897152D01*
X371715Y897194D01*
X371784Y897232D01*
X371855Y897268D01*
X371928Y897299D01*
X372002Y897327D01*
X372077Y897352D01*
X372153Y897372D01*
X372230Y897390D01*
X372308Y897403D01*
X372387Y897412D01*
X372466Y897418D01*
X372545Y897420D01*
X373364Y897420D01*
X373364Y894146D01*
X370908Y899856D02*
X370908Y902311D01*
X368453Y900674D02*
X374591Y900674D01*
X374660Y900676D01*
X374728Y900682D01*
X374797Y900691D01*
X374864Y900705D01*
X374931Y900722D01*
X374997Y900743D01*
X375061Y900767D01*
X375124Y900796D01*
X375185Y900827D01*
X375244Y900862D01*
X375302Y900900D01*
X375357Y900942D01*
X375409Y900986D01*
X375459Y901034D01*
X375507Y901084D01*
X375551Y901136D01*
X375593Y901191D01*
X375631Y901249D01*
X375666Y901308D01*
X375697Y901369D01*
X375726Y901432D01*
X375750Y901496D01*
X375771Y901562D01*
X375788Y901629D01*
X375802Y901696D01*
X375811Y901765D01*
X375817Y901833D01*
X375819Y901902D01*
X375819Y902311D01*
X137892Y832879D02*
X135281Y830791D01*
X137892Y832879D02*
X137892Y823481D01*
X140502Y823481D02*
X135281Y823481D01*
D12*
X115218Y918858D02*
X115218Y924446D01*
X117080Y921342D01*
X118943Y924446D01*
X118943Y918858D01*
X121469Y918858D02*
X121469Y922583D01*
X121314Y924136D02*
X121314Y924446D01*
X121625Y924446D01*
X121625Y924136D01*
X121314Y924136D01*
X123885Y922583D02*
X123885Y918858D01*
X123885Y922583D02*
X125437Y922583D01*
X125495Y922581D01*
X125554Y922576D01*
X125611Y922567D01*
X125669Y922554D01*
X125725Y922537D01*
X125780Y922518D01*
X125833Y922494D01*
X125886Y922468D01*
X125936Y922438D01*
X125984Y922405D01*
X126030Y922369D01*
X126074Y922331D01*
X126116Y922289D01*
X126154Y922245D01*
X126190Y922199D01*
X126223Y922151D01*
X126253Y922101D01*
X126279Y922048D01*
X126303Y921995D01*
X126322Y921940D01*
X126339Y921884D01*
X126352Y921826D01*
X126361Y921769D01*
X126366Y921710D01*
X126368Y921652D01*
X126369Y921652D02*
X126369Y918858D01*
X128785Y918858D02*
X128785Y922583D01*
X128629Y924136D02*
X128629Y924446D01*
X128940Y924446D01*
X128940Y924136D01*
X128629Y924136D01*
X131128Y921031D02*
X134853Y921031D01*
X137556Y921962D02*
X139109Y921962D01*
X139186Y921960D01*
X139264Y921954D01*
X139340Y921945D01*
X139417Y921931D01*
X139492Y921914D01*
X139566Y921893D01*
X139640Y921868D01*
X139712Y921840D01*
X139782Y921808D01*
X139851Y921773D01*
X139918Y921734D01*
X139983Y921692D01*
X140046Y921647D01*
X140107Y921599D01*
X140165Y921548D01*
X140220Y921494D01*
X140273Y921437D01*
X140322Y921378D01*
X140369Y921316D01*
X140413Y921252D01*
X140453Y921186D01*
X140490Y921118D01*
X140524Y921048D01*
X140554Y920977D01*
X140580Y920904D01*
X140603Y920830D01*
X140622Y920755D01*
X140637Y920680D01*
X140649Y920603D01*
X140657Y920526D01*
X140661Y920449D01*
X140661Y920371D01*
X140657Y920294D01*
X140649Y920217D01*
X140637Y920140D01*
X140622Y920065D01*
X140603Y919990D01*
X140580Y919916D01*
X140554Y919843D01*
X140524Y919772D01*
X140490Y919702D01*
X140453Y919634D01*
X140413Y919568D01*
X140369Y919504D01*
X140322Y919442D01*
X140273Y919383D01*
X140220Y919326D01*
X140165Y919272D01*
X140107Y919221D01*
X140046Y919173D01*
X139983Y919128D01*
X139918Y919086D01*
X139851Y919047D01*
X139782Y919012D01*
X139712Y918980D01*
X139640Y918952D01*
X139566Y918927D01*
X139492Y918906D01*
X139417Y918889D01*
X139340Y918875D01*
X139264Y918866D01*
X139186Y918860D01*
X139109Y918858D01*
X137556Y918858D01*
X137556Y924446D01*
X139109Y924446D01*
X139179Y924444D01*
X139248Y924438D01*
X139317Y924428D01*
X139385Y924415D01*
X139453Y924397D01*
X139519Y924376D01*
X139584Y924351D01*
X139648Y924323D01*
X139710Y924291D01*
X139770Y924256D01*
X139828Y924217D01*
X139883Y924175D01*
X139937Y924130D01*
X139987Y924082D01*
X140035Y924032D01*
X140080Y923978D01*
X140122Y923923D01*
X140161Y923865D01*
X140196Y923805D01*
X140228Y923743D01*
X140256Y923679D01*
X140281Y923614D01*
X140302Y923548D01*
X140320Y923480D01*
X140333Y923412D01*
X140343Y923343D01*
X140349Y923274D01*
X140351Y923204D01*
X140349Y923134D01*
X140343Y923065D01*
X140333Y922996D01*
X140320Y922928D01*
X140302Y922860D01*
X140281Y922794D01*
X140256Y922729D01*
X140228Y922665D01*
X140196Y922603D01*
X140161Y922543D01*
X140122Y922485D01*
X140080Y922430D01*
X140035Y922376D01*
X139987Y922326D01*
X139937Y922278D01*
X139883Y922233D01*
X139828Y922191D01*
X139770Y922152D01*
X139710Y922117D01*
X139648Y922085D01*
X139584Y922057D01*
X139519Y922032D01*
X139453Y922011D01*
X139385Y921993D01*
X139317Y921980D01*
X139248Y921970D01*
X139179Y921964D01*
X139109Y921962D01*
X145886Y920410D02*
X145886Y924446D01*
X145886Y920410D02*
X145888Y920333D01*
X145894Y920255D01*
X145903Y920179D01*
X145917Y920102D01*
X145934Y920027D01*
X145955Y919953D01*
X145980Y919879D01*
X146008Y919807D01*
X146040Y919737D01*
X146075Y919668D01*
X146114Y919601D01*
X146156Y919536D01*
X146201Y919473D01*
X146249Y919412D01*
X146300Y919354D01*
X146354Y919299D01*
X146411Y919246D01*
X146470Y919197D01*
X146532Y919150D01*
X146596Y919106D01*
X146662Y919066D01*
X146730Y919029D01*
X146800Y918995D01*
X146871Y918965D01*
X146944Y918939D01*
X147018Y918916D01*
X147093Y918897D01*
X147168Y918882D01*
X147245Y918870D01*
X147322Y918862D01*
X147399Y918858D01*
X147477Y918858D01*
X147554Y918862D01*
X147631Y918870D01*
X147708Y918882D01*
X147783Y918897D01*
X147858Y918916D01*
X147932Y918939D01*
X148005Y918965D01*
X148076Y918995D01*
X148146Y919029D01*
X148214Y919066D01*
X148280Y919106D01*
X148344Y919150D01*
X148406Y919197D01*
X148465Y919246D01*
X148522Y919299D01*
X148576Y919354D01*
X148627Y919412D01*
X148675Y919473D01*
X148720Y919536D01*
X148762Y919601D01*
X148801Y919668D01*
X148836Y919737D01*
X148868Y919807D01*
X148896Y919879D01*
X148921Y919953D01*
X148942Y920027D01*
X148959Y920102D01*
X148973Y920179D01*
X148982Y920255D01*
X148988Y920333D01*
X148990Y920410D01*
X148990Y924446D01*
X154477Y920100D02*
X154475Y920030D01*
X154469Y919961D01*
X154459Y919892D01*
X154446Y919824D01*
X154428Y919756D01*
X154407Y919690D01*
X154382Y919625D01*
X154354Y919561D01*
X154322Y919499D01*
X154287Y919439D01*
X154248Y919381D01*
X154206Y919326D01*
X154161Y919272D01*
X154113Y919222D01*
X154063Y919174D01*
X154009Y919129D01*
X153954Y919087D01*
X153896Y919048D01*
X153836Y919013D01*
X153774Y918981D01*
X153710Y918953D01*
X153645Y918928D01*
X153579Y918907D01*
X153511Y918889D01*
X153443Y918876D01*
X153374Y918866D01*
X153305Y918860D01*
X153235Y918858D01*
X153136Y918860D01*
X153038Y918865D01*
X152940Y918875D01*
X152842Y918888D01*
X152745Y918904D01*
X152648Y918924D01*
X152553Y918948D01*
X152458Y918976D01*
X152364Y919007D01*
X152272Y919041D01*
X152181Y919079D01*
X152091Y919120D01*
X152003Y919165D01*
X151917Y919213D01*
X151833Y919264D01*
X151751Y919318D01*
X151670Y919376D01*
X151592Y919436D01*
X151517Y919499D01*
X151443Y919565D01*
X151373Y919634D01*
X151527Y923204D02*
X151529Y923274D01*
X151535Y923343D01*
X151545Y923412D01*
X151558Y923480D01*
X151576Y923548D01*
X151597Y923614D01*
X151622Y923679D01*
X151650Y923743D01*
X151682Y923805D01*
X151717Y923865D01*
X151756Y923923D01*
X151798Y923978D01*
X151843Y924032D01*
X151891Y924082D01*
X151941Y924130D01*
X151995Y924175D01*
X152050Y924217D01*
X152108Y924256D01*
X152168Y924291D01*
X152230Y924323D01*
X152294Y924351D01*
X152359Y924376D01*
X152425Y924397D01*
X152493Y924415D01*
X152561Y924428D01*
X152630Y924438D01*
X152699Y924444D01*
X152769Y924446D01*
X152863Y924444D01*
X152956Y924438D01*
X153049Y924429D01*
X153142Y924416D01*
X153234Y924399D01*
X153325Y924379D01*
X153416Y924354D01*
X153505Y924327D01*
X153593Y924295D01*
X153680Y924260D01*
X153766Y924222D01*
X153849Y924180D01*
X153931Y924135D01*
X154012Y924087D01*
X154090Y924035D01*
X154166Y923980D01*
X152149Y922118D02*
X152090Y922154D01*
X152034Y922194D01*
X151980Y922237D01*
X151928Y922282D01*
X151879Y922331D01*
X151833Y922382D01*
X151790Y922435D01*
X151749Y922491D01*
X151712Y922549D01*
X151677Y922609D01*
X151647Y922670D01*
X151619Y922733D01*
X151595Y922798D01*
X151575Y922864D01*
X151558Y922931D01*
X151545Y922998D01*
X151536Y923066D01*
X151530Y923135D01*
X151528Y923204D01*
X153855Y921186D02*
X153914Y921150D01*
X153970Y921110D01*
X154024Y921067D01*
X154076Y921022D01*
X154125Y920973D01*
X154171Y920922D01*
X154214Y920869D01*
X154255Y920813D01*
X154292Y920755D01*
X154327Y920695D01*
X154357Y920634D01*
X154385Y920571D01*
X154409Y920506D01*
X154429Y920440D01*
X154446Y920373D01*
X154459Y920306D01*
X154468Y920238D01*
X154474Y920169D01*
X154476Y920100D01*
X153856Y921186D02*
X152148Y922118D01*
X156942Y921962D02*
X158494Y921962D01*
X158571Y921960D01*
X158649Y921954D01*
X158725Y921945D01*
X158802Y921931D01*
X158877Y921914D01*
X158951Y921893D01*
X159025Y921868D01*
X159097Y921840D01*
X159167Y921808D01*
X159236Y921773D01*
X159303Y921734D01*
X159368Y921692D01*
X159431Y921647D01*
X159492Y921599D01*
X159550Y921548D01*
X159605Y921494D01*
X159658Y921437D01*
X159707Y921378D01*
X159754Y921316D01*
X159798Y921252D01*
X159838Y921186D01*
X159875Y921118D01*
X159909Y921048D01*
X159939Y920977D01*
X159965Y920904D01*
X159988Y920830D01*
X160007Y920755D01*
X160022Y920680D01*
X160034Y920603D01*
X160042Y920526D01*
X160046Y920449D01*
X160046Y920371D01*
X160042Y920294D01*
X160034Y920217D01*
X160022Y920140D01*
X160007Y920065D01*
X159988Y919990D01*
X159965Y919916D01*
X159939Y919843D01*
X159909Y919772D01*
X159875Y919702D01*
X159838Y919634D01*
X159798Y919568D01*
X159754Y919504D01*
X159707Y919442D01*
X159658Y919383D01*
X159605Y919326D01*
X159550Y919272D01*
X159492Y919221D01*
X159431Y919173D01*
X159368Y919128D01*
X159303Y919086D01*
X159236Y919047D01*
X159167Y919012D01*
X159097Y918980D01*
X159025Y918952D01*
X158951Y918927D01*
X158877Y918906D01*
X158802Y918889D01*
X158725Y918875D01*
X158649Y918866D01*
X158571Y918860D01*
X158494Y918858D01*
X156942Y918858D01*
X156942Y924446D01*
X158494Y924446D01*
X158564Y924444D01*
X158633Y924438D01*
X158702Y924428D01*
X158770Y924415D01*
X158838Y924397D01*
X158904Y924376D01*
X158969Y924351D01*
X159033Y924323D01*
X159095Y924291D01*
X159155Y924256D01*
X159213Y924217D01*
X159268Y924175D01*
X159322Y924130D01*
X159372Y924082D01*
X159420Y924032D01*
X159465Y923978D01*
X159507Y923923D01*
X159546Y923865D01*
X159581Y923805D01*
X159613Y923743D01*
X159641Y923679D01*
X159666Y923614D01*
X159687Y923548D01*
X159705Y923480D01*
X159718Y923412D01*
X159728Y923343D01*
X159734Y923274D01*
X159736Y923204D01*
X159734Y923134D01*
X159728Y923065D01*
X159718Y922996D01*
X159705Y922928D01*
X159687Y922860D01*
X159666Y922794D01*
X159641Y922729D01*
X159613Y922665D01*
X159581Y922603D01*
X159546Y922543D01*
X159507Y922485D01*
X159465Y922430D01*
X159420Y922376D01*
X159372Y922326D01*
X159322Y922278D01*
X159268Y922233D01*
X159213Y922191D01*
X159155Y922152D01*
X159095Y922117D01*
X159033Y922085D01*
X158969Y922057D01*
X158904Y922032D01*
X158838Y922011D01*
X158770Y921993D01*
X158702Y921980D01*
X158633Y921970D01*
X158564Y921964D01*
X158494Y921962D01*
D10*
X477800Y924700D02*
X528600Y924700D01*
X477800Y924700D02*
X477800Y848500D01*
X528600Y848500D01*
X507900Y861200D02*
X507902Y861396D01*
X507910Y861593D01*
X507922Y861789D01*
X507939Y861984D01*
X507960Y862179D01*
X507987Y862374D01*
X508018Y862568D01*
X508054Y862761D01*
X508094Y862953D01*
X508140Y863144D01*
X508190Y863334D01*
X508244Y863522D01*
X508304Y863709D01*
X508368Y863895D01*
X508436Y864079D01*
X508509Y864261D01*
X508586Y864442D01*
X508668Y864620D01*
X508754Y864797D01*
X508845Y864971D01*
X508939Y865143D01*
X509038Y865313D01*
X509141Y865480D01*
X509248Y865645D01*
X509359Y865806D01*
X509474Y865966D01*
X509593Y866122D01*
X509716Y866275D01*
X509842Y866425D01*
X509972Y866572D01*
X510106Y866716D01*
X510243Y866857D01*
X510384Y866994D01*
X510528Y867128D01*
X510675Y867258D01*
X510825Y867384D01*
X510978Y867507D01*
X511134Y867626D01*
X511294Y867741D01*
X511455Y867852D01*
X511620Y867959D01*
X511787Y868062D01*
X511957Y868161D01*
X512129Y868255D01*
X512303Y868346D01*
X512480Y868432D01*
X512658Y868514D01*
X512839Y868591D01*
X513021Y868664D01*
X513205Y868732D01*
X513391Y868796D01*
X513578Y868856D01*
X513766Y868910D01*
X513956Y868960D01*
X514147Y869006D01*
X514339Y869046D01*
X514532Y869082D01*
X514726Y869113D01*
X514921Y869140D01*
X515116Y869161D01*
X515311Y869178D01*
X515507Y869190D01*
X515704Y869198D01*
X515900Y869200D01*
X516096Y869198D01*
X516293Y869190D01*
X516489Y869178D01*
X516684Y869161D01*
X516879Y869140D01*
X517074Y869113D01*
X517268Y869082D01*
X517461Y869046D01*
X517653Y869006D01*
X517844Y868960D01*
X518034Y868910D01*
X518222Y868856D01*
X518409Y868796D01*
X518595Y868732D01*
X518779Y868664D01*
X518961Y868591D01*
X519142Y868514D01*
X519320Y868432D01*
X519497Y868346D01*
X519671Y868255D01*
X519843Y868161D01*
X520013Y868062D01*
X520180Y867959D01*
X520345Y867852D01*
X520506Y867741D01*
X520666Y867626D01*
X520822Y867507D01*
X520975Y867384D01*
X521125Y867258D01*
X521272Y867128D01*
X521416Y866994D01*
X521557Y866857D01*
X521694Y866716D01*
X521828Y866572D01*
X521958Y866425D01*
X522084Y866275D01*
X522207Y866122D01*
X522326Y865966D01*
X522441Y865806D01*
X522552Y865645D01*
X522659Y865480D01*
X522762Y865313D01*
X522861Y865143D01*
X522955Y864971D01*
X523046Y864797D01*
X523132Y864620D01*
X523214Y864442D01*
X523291Y864261D01*
X523364Y864079D01*
X523432Y863895D01*
X523496Y863709D01*
X523556Y863522D01*
X523610Y863334D01*
X523660Y863144D01*
X523706Y862953D01*
X523746Y862761D01*
X523782Y862568D01*
X523813Y862374D01*
X523840Y862179D01*
X523861Y861984D01*
X523878Y861789D01*
X523890Y861593D01*
X523898Y861396D01*
X523900Y861200D01*
X523898Y861004D01*
X523890Y860807D01*
X523878Y860611D01*
X523861Y860416D01*
X523840Y860221D01*
X523813Y860026D01*
X523782Y859832D01*
X523746Y859639D01*
X523706Y859447D01*
X523660Y859256D01*
X523610Y859066D01*
X523556Y858878D01*
X523496Y858691D01*
X523432Y858505D01*
X523364Y858321D01*
X523291Y858139D01*
X523214Y857958D01*
X523132Y857780D01*
X523046Y857603D01*
X522955Y857429D01*
X522861Y857257D01*
X522762Y857087D01*
X522659Y856920D01*
X522552Y856755D01*
X522441Y856594D01*
X522326Y856434D01*
X522207Y856278D01*
X522084Y856125D01*
X521958Y855975D01*
X521828Y855828D01*
X521694Y855684D01*
X521557Y855543D01*
X521416Y855406D01*
X521272Y855272D01*
X521125Y855142D01*
X520975Y855016D01*
X520822Y854893D01*
X520666Y854774D01*
X520506Y854659D01*
X520345Y854548D01*
X520180Y854441D01*
X520013Y854338D01*
X519843Y854239D01*
X519671Y854145D01*
X519497Y854054D01*
X519320Y853968D01*
X519142Y853886D01*
X518961Y853809D01*
X518779Y853736D01*
X518595Y853668D01*
X518409Y853604D01*
X518222Y853544D01*
X518034Y853490D01*
X517844Y853440D01*
X517653Y853394D01*
X517461Y853354D01*
X517268Y853318D01*
X517074Y853287D01*
X516879Y853260D01*
X516684Y853239D01*
X516489Y853222D01*
X516293Y853210D01*
X516096Y853202D01*
X515900Y853200D01*
X515704Y853202D01*
X515507Y853210D01*
X515311Y853222D01*
X515116Y853239D01*
X514921Y853260D01*
X514726Y853287D01*
X514532Y853318D01*
X514339Y853354D01*
X514147Y853394D01*
X513956Y853440D01*
X513766Y853490D01*
X513578Y853544D01*
X513391Y853604D01*
X513205Y853668D01*
X513021Y853736D01*
X512839Y853809D01*
X512658Y853886D01*
X512480Y853968D01*
X512303Y854054D01*
X512129Y854145D01*
X511957Y854239D01*
X511787Y854338D01*
X511620Y854441D01*
X511455Y854548D01*
X511294Y854659D01*
X511134Y854774D01*
X510978Y854893D01*
X510825Y855016D01*
X510675Y855142D01*
X510528Y855272D01*
X510384Y855406D01*
X510243Y855543D01*
X510106Y855684D01*
X509972Y855828D01*
X509842Y855975D01*
X509716Y856125D01*
X509593Y856278D01*
X509474Y856434D01*
X509359Y856594D01*
X509248Y856755D01*
X509141Y856920D01*
X509038Y857087D01*
X508939Y857257D01*
X508845Y857429D01*
X508754Y857603D01*
X508668Y857780D01*
X508586Y857958D01*
X508509Y858139D01*
X508436Y858321D01*
X508368Y858505D01*
X508304Y858691D01*
X508244Y858878D01*
X508190Y859066D01*
X508140Y859256D01*
X508094Y859447D01*
X508054Y859639D01*
X508018Y859832D01*
X507987Y860026D01*
X507960Y860221D01*
X507939Y860416D01*
X507922Y860611D01*
X507910Y860807D01*
X507902Y861004D01*
X507900Y861200D01*
X507900Y886600D02*
X507902Y886796D01*
X507910Y886993D01*
X507922Y887189D01*
X507939Y887384D01*
X507960Y887579D01*
X507987Y887774D01*
X508018Y887968D01*
X508054Y888161D01*
X508094Y888353D01*
X508140Y888544D01*
X508190Y888734D01*
X508244Y888922D01*
X508304Y889109D01*
X508368Y889295D01*
X508436Y889479D01*
X508509Y889661D01*
X508586Y889842D01*
X508668Y890020D01*
X508754Y890197D01*
X508845Y890371D01*
X508939Y890543D01*
X509038Y890713D01*
X509141Y890880D01*
X509248Y891045D01*
X509359Y891206D01*
X509474Y891366D01*
X509593Y891522D01*
X509716Y891675D01*
X509842Y891825D01*
X509972Y891972D01*
X510106Y892116D01*
X510243Y892257D01*
X510384Y892394D01*
X510528Y892528D01*
X510675Y892658D01*
X510825Y892784D01*
X510978Y892907D01*
X511134Y893026D01*
X511294Y893141D01*
X511455Y893252D01*
X511620Y893359D01*
X511787Y893462D01*
X511957Y893561D01*
X512129Y893655D01*
X512303Y893746D01*
X512480Y893832D01*
X512658Y893914D01*
X512839Y893991D01*
X513021Y894064D01*
X513205Y894132D01*
X513391Y894196D01*
X513578Y894256D01*
X513766Y894310D01*
X513956Y894360D01*
X514147Y894406D01*
X514339Y894446D01*
X514532Y894482D01*
X514726Y894513D01*
X514921Y894540D01*
X515116Y894561D01*
X515311Y894578D01*
X515507Y894590D01*
X515704Y894598D01*
X515900Y894600D01*
X516096Y894598D01*
X516293Y894590D01*
X516489Y894578D01*
X516684Y894561D01*
X516879Y894540D01*
X517074Y894513D01*
X517268Y894482D01*
X517461Y894446D01*
X517653Y894406D01*
X517844Y894360D01*
X518034Y894310D01*
X518222Y894256D01*
X518409Y894196D01*
X518595Y894132D01*
X518779Y894064D01*
X518961Y893991D01*
X519142Y893914D01*
X519320Y893832D01*
X519497Y893746D01*
X519671Y893655D01*
X519843Y893561D01*
X520013Y893462D01*
X520180Y893359D01*
X520345Y893252D01*
X520506Y893141D01*
X520666Y893026D01*
X520822Y892907D01*
X520975Y892784D01*
X521125Y892658D01*
X521272Y892528D01*
X521416Y892394D01*
X521557Y892257D01*
X521694Y892116D01*
X521828Y891972D01*
X521958Y891825D01*
X522084Y891675D01*
X522207Y891522D01*
X522326Y891366D01*
X522441Y891206D01*
X522552Y891045D01*
X522659Y890880D01*
X522762Y890713D01*
X522861Y890543D01*
X522955Y890371D01*
X523046Y890197D01*
X523132Y890020D01*
X523214Y889842D01*
X523291Y889661D01*
X523364Y889479D01*
X523432Y889295D01*
X523496Y889109D01*
X523556Y888922D01*
X523610Y888734D01*
X523660Y888544D01*
X523706Y888353D01*
X523746Y888161D01*
X523782Y887968D01*
X523813Y887774D01*
X523840Y887579D01*
X523861Y887384D01*
X523878Y887189D01*
X523890Y886993D01*
X523898Y886796D01*
X523900Y886600D01*
X523898Y886404D01*
X523890Y886207D01*
X523878Y886011D01*
X523861Y885816D01*
X523840Y885621D01*
X523813Y885426D01*
X523782Y885232D01*
X523746Y885039D01*
X523706Y884847D01*
X523660Y884656D01*
X523610Y884466D01*
X523556Y884278D01*
X523496Y884091D01*
X523432Y883905D01*
X523364Y883721D01*
X523291Y883539D01*
X523214Y883358D01*
X523132Y883180D01*
X523046Y883003D01*
X522955Y882829D01*
X522861Y882657D01*
X522762Y882487D01*
X522659Y882320D01*
X522552Y882155D01*
X522441Y881994D01*
X522326Y881834D01*
X522207Y881678D01*
X522084Y881525D01*
X521958Y881375D01*
X521828Y881228D01*
X521694Y881084D01*
X521557Y880943D01*
X521416Y880806D01*
X521272Y880672D01*
X521125Y880542D01*
X520975Y880416D01*
X520822Y880293D01*
X520666Y880174D01*
X520506Y880059D01*
X520345Y879948D01*
X520180Y879841D01*
X520013Y879738D01*
X519843Y879639D01*
X519671Y879545D01*
X519497Y879454D01*
X519320Y879368D01*
X519142Y879286D01*
X518961Y879209D01*
X518779Y879136D01*
X518595Y879068D01*
X518409Y879004D01*
X518222Y878944D01*
X518034Y878890D01*
X517844Y878840D01*
X517653Y878794D01*
X517461Y878754D01*
X517268Y878718D01*
X517074Y878687D01*
X516879Y878660D01*
X516684Y878639D01*
X516489Y878622D01*
X516293Y878610D01*
X516096Y878602D01*
X515900Y878600D01*
X515704Y878602D01*
X515507Y878610D01*
X515311Y878622D01*
X515116Y878639D01*
X514921Y878660D01*
X514726Y878687D01*
X514532Y878718D01*
X514339Y878754D01*
X514147Y878794D01*
X513956Y878840D01*
X513766Y878890D01*
X513578Y878944D01*
X513391Y879004D01*
X513205Y879068D01*
X513021Y879136D01*
X512839Y879209D01*
X512658Y879286D01*
X512480Y879368D01*
X512303Y879454D01*
X512129Y879545D01*
X511957Y879639D01*
X511787Y879738D01*
X511620Y879841D01*
X511455Y879948D01*
X511294Y880059D01*
X511134Y880174D01*
X510978Y880293D01*
X510825Y880416D01*
X510675Y880542D01*
X510528Y880672D01*
X510384Y880806D01*
X510243Y880943D01*
X510106Y881084D01*
X509972Y881228D01*
X509842Y881375D01*
X509716Y881525D01*
X509593Y881678D01*
X509474Y881834D01*
X509359Y881994D01*
X509248Y882155D01*
X509141Y882320D01*
X509038Y882487D01*
X508939Y882657D01*
X508845Y882829D01*
X508754Y883003D01*
X508668Y883180D01*
X508586Y883358D01*
X508509Y883539D01*
X508436Y883721D01*
X508368Y883905D01*
X508304Y884091D01*
X508244Y884278D01*
X508190Y884466D01*
X508140Y884656D01*
X508094Y884847D01*
X508054Y885039D01*
X508018Y885232D01*
X507987Y885426D01*
X507960Y885621D01*
X507939Y885816D01*
X507922Y886011D01*
X507910Y886207D01*
X507902Y886404D01*
X507900Y886600D01*
X507900Y912000D02*
X507902Y912196D01*
X507910Y912393D01*
X507922Y912589D01*
X507939Y912784D01*
X507960Y912979D01*
X507987Y913174D01*
X508018Y913368D01*
X508054Y913561D01*
X508094Y913753D01*
X508140Y913944D01*
X508190Y914134D01*
X508244Y914322D01*
X508304Y914509D01*
X508368Y914695D01*
X508436Y914879D01*
X508509Y915061D01*
X508586Y915242D01*
X508668Y915420D01*
X508754Y915597D01*
X508845Y915771D01*
X508939Y915943D01*
X509038Y916113D01*
X509141Y916280D01*
X509248Y916445D01*
X509359Y916606D01*
X509474Y916766D01*
X509593Y916922D01*
X509716Y917075D01*
X509842Y917225D01*
X509972Y917372D01*
X510106Y917516D01*
X510243Y917657D01*
X510384Y917794D01*
X510528Y917928D01*
X510675Y918058D01*
X510825Y918184D01*
X510978Y918307D01*
X511134Y918426D01*
X511294Y918541D01*
X511455Y918652D01*
X511620Y918759D01*
X511787Y918862D01*
X511957Y918961D01*
X512129Y919055D01*
X512303Y919146D01*
X512480Y919232D01*
X512658Y919314D01*
X512839Y919391D01*
X513021Y919464D01*
X513205Y919532D01*
X513391Y919596D01*
X513578Y919656D01*
X513766Y919710D01*
X513956Y919760D01*
X514147Y919806D01*
X514339Y919846D01*
X514532Y919882D01*
X514726Y919913D01*
X514921Y919940D01*
X515116Y919961D01*
X515311Y919978D01*
X515507Y919990D01*
X515704Y919998D01*
X515900Y920000D01*
X516096Y919998D01*
X516293Y919990D01*
X516489Y919978D01*
X516684Y919961D01*
X516879Y919940D01*
X517074Y919913D01*
X517268Y919882D01*
X517461Y919846D01*
X517653Y919806D01*
X517844Y919760D01*
X518034Y919710D01*
X518222Y919656D01*
X518409Y919596D01*
X518595Y919532D01*
X518779Y919464D01*
X518961Y919391D01*
X519142Y919314D01*
X519320Y919232D01*
X519497Y919146D01*
X519671Y919055D01*
X519843Y918961D01*
X520013Y918862D01*
X520180Y918759D01*
X520345Y918652D01*
X520506Y918541D01*
X520666Y918426D01*
X520822Y918307D01*
X520975Y918184D01*
X521125Y918058D01*
X521272Y917928D01*
X521416Y917794D01*
X521557Y917657D01*
X521694Y917516D01*
X521828Y917372D01*
X521958Y917225D01*
X522084Y917075D01*
X522207Y916922D01*
X522326Y916766D01*
X522441Y916606D01*
X522552Y916445D01*
X522659Y916280D01*
X522762Y916113D01*
X522861Y915943D01*
X522955Y915771D01*
X523046Y915597D01*
X523132Y915420D01*
X523214Y915242D01*
X523291Y915061D01*
X523364Y914879D01*
X523432Y914695D01*
X523496Y914509D01*
X523556Y914322D01*
X523610Y914134D01*
X523660Y913944D01*
X523706Y913753D01*
X523746Y913561D01*
X523782Y913368D01*
X523813Y913174D01*
X523840Y912979D01*
X523861Y912784D01*
X523878Y912589D01*
X523890Y912393D01*
X523898Y912196D01*
X523900Y912000D01*
X523898Y911804D01*
X523890Y911607D01*
X523878Y911411D01*
X523861Y911216D01*
X523840Y911021D01*
X523813Y910826D01*
X523782Y910632D01*
X523746Y910439D01*
X523706Y910247D01*
X523660Y910056D01*
X523610Y909866D01*
X523556Y909678D01*
X523496Y909491D01*
X523432Y909305D01*
X523364Y909121D01*
X523291Y908939D01*
X523214Y908758D01*
X523132Y908580D01*
X523046Y908403D01*
X522955Y908229D01*
X522861Y908057D01*
X522762Y907887D01*
X522659Y907720D01*
X522552Y907555D01*
X522441Y907394D01*
X522326Y907234D01*
X522207Y907078D01*
X522084Y906925D01*
X521958Y906775D01*
X521828Y906628D01*
X521694Y906484D01*
X521557Y906343D01*
X521416Y906206D01*
X521272Y906072D01*
X521125Y905942D01*
X520975Y905816D01*
X520822Y905693D01*
X520666Y905574D01*
X520506Y905459D01*
X520345Y905348D01*
X520180Y905241D01*
X520013Y905138D01*
X519843Y905039D01*
X519671Y904945D01*
X519497Y904854D01*
X519320Y904768D01*
X519142Y904686D01*
X518961Y904609D01*
X518779Y904536D01*
X518595Y904468D01*
X518409Y904404D01*
X518222Y904344D01*
X518034Y904290D01*
X517844Y904240D01*
X517653Y904194D01*
X517461Y904154D01*
X517268Y904118D01*
X517074Y904087D01*
X516879Y904060D01*
X516684Y904039D01*
X516489Y904022D01*
X516293Y904010D01*
X516096Y904002D01*
X515900Y904000D01*
X515704Y904002D01*
X515507Y904010D01*
X515311Y904022D01*
X515116Y904039D01*
X514921Y904060D01*
X514726Y904087D01*
X514532Y904118D01*
X514339Y904154D01*
X514147Y904194D01*
X513956Y904240D01*
X513766Y904290D01*
X513578Y904344D01*
X513391Y904404D01*
X513205Y904468D01*
X513021Y904536D01*
X512839Y904609D01*
X512658Y904686D01*
X512480Y904768D01*
X512303Y904854D01*
X512129Y904945D01*
X511957Y905039D01*
X511787Y905138D01*
X511620Y905241D01*
X511455Y905348D01*
X511294Y905459D01*
X511134Y905574D01*
X510978Y905693D01*
X510825Y905816D01*
X510675Y905942D01*
X510528Y906072D01*
X510384Y906206D01*
X510243Y906343D01*
X510106Y906484D01*
X509972Y906628D01*
X509842Y906775D01*
X509716Y906925D01*
X509593Y907078D01*
X509474Y907234D01*
X509359Y907394D01*
X509248Y907555D01*
X509141Y907720D01*
X509038Y907887D01*
X508939Y908057D01*
X508845Y908229D01*
X508754Y908403D01*
X508668Y908580D01*
X508586Y908758D01*
X508509Y908939D01*
X508436Y909121D01*
X508368Y909305D01*
X508304Y909491D01*
X508244Y909678D01*
X508190Y909866D01*
X508140Y910056D01*
X508094Y910247D01*
X508054Y910439D01*
X508018Y910632D01*
X507987Y910826D01*
X507960Y911021D01*
X507939Y911216D01*
X507922Y911411D01*
X507910Y911607D01*
X507902Y911804D01*
X507900Y912000D01*
X482500Y912000D02*
X482502Y912196D01*
X482510Y912393D01*
X482522Y912589D01*
X482539Y912784D01*
X482560Y912979D01*
X482587Y913174D01*
X482618Y913368D01*
X482654Y913561D01*
X482694Y913753D01*
X482740Y913944D01*
X482790Y914134D01*
X482844Y914322D01*
X482904Y914509D01*
X482968Y914695D01*
X483036Y914879D01*
X483109Y915061D01*
X483186Y915242D01*
X483268Y915420D01*
X483354Y915597D01*
X483445Y915771D01*
X483539Y915943D01*
X483638Y916113D01*
X483741Y916280D01*
X483848Y916445D01*
X483959Y916606D01*
X484074Y916766D01*
X484193Y916922D01*
X484316Y917075D01*
X484442Y917225D01*
X484572Y917372D01*
X484706Y917516D01*
X484843Y917657D01*
X484984Y917794D01*
X485128Y917928D01*
X485275Y918058D01*
X485425Y918184D01*
X485578Y918307D01*
X485734Y918426D01*
X485894Y918541D01*
X486055Y918652D01*
X486220Y918759D01*
X486387Y918862D01*
X486557Y918961D01*
X486729Y919055D01*
X486903Y919146D01*
X487080Y919232D01*
X487258Y919314D01*
X487439Y919391D01*
X487621Y919464D01*
X487805Y919532D01*
X487991Y919596D01*
X488178Y919656D01*
X488366Y919710D01*
X488556Y919760D01*
X488747Y919806D01*
X488939Y919846D01*
X489132Y919882D01*
X489326Y919913D01*
X489521Y919940D01*
X489716Y919961D01*
X489911Y919978D01*
X490107Y919990D01*
X490304Y919998D01*
X490500Y920000D01*
X490696Y919998D01*
X490893Y919990D01*
X491089Y919978D01*
X491284Y919961D01*
X491479Y919940D01*
X491674Y919913D01*
X491868Y919882D01*
X492061Y919846D01*
X492253Y919806D01*
X492444Y919760D01*
X492634Y919710D01*
X492822Y919656D01*
X493009Y919596D01*
X493195Y919532D01*
X493379Y919464D01*
X493561Y919391D01*
X493742Y919314D01*
X493920Y919232D01*
X494097Y919146D01*
X494271Y919055D01*
X494443Y918961D01*
X494613Y918862D01*
X494780Y918759D01*
X494945Y918652D01*
X495106Y918541D01*
X495266Y918426D01*
X495422Y918307D01*
X495575Y918184D01*
X495725Y918058D01*
X495872Y917928D01*
X496016Y917794D01*
X496157Y917657D01*
X496294Y917516D01*
X496428Y917372D01*
X496558Y917225D01*
X496684Y917075D01*
X496807Y916922D01*
X496926Y916766D01*
X497041Y916606D01*
X497152Y916445D01*
X497259Y916280D01*
X497362Y916113D01*
X497461Y915943D01*
X497555Y915771D01*
X497646Y915597D01*
X497732Y915420D01*
X497814Y915242D01*
X497891Y915061D01*
X497964Y914879D01*
X498032Y914695D01*
X498096Y914509D01*
X498156Y914322D01*
X498210Y914134D01*
X498260Y913944D01*
X498306Y913753D01*
X498346Y913561D01*
X498382Y913368D01*
X498413Y913174D01*
X498440Y912979D01*
X498461Y912784D01*
X498478Y912589D01*
X498490Y912393D01*
X498498Y912196D01*
X498500Y912000D01*
X498498Y911804D01*
X498490Y911607D01*
X498478Y911411D01*
X498461Y911216D01*
X498440Y911021D01*
X498413Y910826D01*
X498382Y910632D01*
X498346Y910439D01*
X498306Y910247D01*
X498260Y910056D01*
X498210Y909866D01*
X498156Y909678D01*
X498096Y909491D01*
X498032Y909305D01*
X497964Y909121D01*
X497891Y908939D01*
X497814Y908758D01*
X497732Y908580D01*
X497646Y908403D01*
X497555Y908229D01*
X497461Y908057D01*
X497362Y907887D01*
X497259Y907720D01*
X497152Y907555D01*
X497041Y907394D01*
X496926Y907234D01*
X496807Y907078D01*
X496684Y906925D01*
X496558Y906775D01*
X496428Y906628D01*
X496294Y906484D01*
X496157Y906343D01*
X496016Y906206D01*
X495872Y906072D01*
X495725Y905942D01*
X495575Y905816D01*
X495422Y905693D01*
X495266Y905574D01*
X495106Y905459D01*
X494945Y905348D01*
X494780Y905241D01*
X494613Y905138D01*
X494443Y905039D01*
X494271Y904945D01*
X494097Y904854D01*
X493920Y904768D01*
X493742Y904686D01*
X493561Y904609D01*
X493379Y904536D01*
X493195Y904468D01*
X493009Y904404D01*
X492822Y904344D01*
X492634Y904290D01*
X492444Y904240D01*
X492253Y904194D01*
X492061Y904154D01*
X491868Y904118D01*
X491674Y904087D01*
X491479Y904060D01*
X491284Y904039D01*
X491089Y904022D01*
X490893Y904010D01*
X490696Y904002D01*
X490500Y904000D01*
X490304Y904002D01*
X490107Y904010D01*
X489911Y904022D01*
X489716Y904039D01*
X489521Y904060D01*
X489326Y904087D01*
X489132Y904118D01*
X488939Y904154D01*
X488747Y904194D01*
X488556Y904240D01*
X488366Y904290D01*
X488178Y904344D01*
X487991Y904404D01*
X487805Y904468D01*
X487621Y904536D01*
X487439Y904609D01*
X487258Y904686D01*
X487080Y904768D01*
X486903Y904854D01*
X486729Y904945D01*
X486557Y905039D01*
X486387Y905138D01*
X486220Y905241D01*
X486055Y905348D01*
X485894Y905459D01*
X485734Y905574D01*
X485578Y905693D01*
X485425Y905816D01*
X485275Y905942D01*
X485128Y906072D01*
X484984Y906206D01*
X484843Y906343D01*
X484706Y906484D01*
X484572Y906628D01*
X484442Y906775D01*
X484316Y906925D01*
X484193Y907078D01*
X484074Y907234D01*
X483959Y907394D01*
X483848Y907555D01*
X483741Y907720D01*
X483638Y907887D01*
X483539Y908057D01*
X483445Y908229D01*
X483354Y908403D01*
X483268Y908580D01*
X483186Y908758D01*
X483109Y908939D01*
X483036Y909121D01*
X482968Y909305D01*
X482904Y909491D01*
X482844Y909678D01*
X482790Y909866D01*
X482740Y910056D01*
X482694Y910247D01*
X482654Y910439D01*
X482618Y910632D01*
X482587Y910826D01*
X482560Y911021D01*
X482539Y911216D01*
X482522Y911411D01*
X482510Y911607D01*
X482502Y911804D01*
X482500Y912000D01*
X507900Y886600D02*
X507902Y886796D01*
X507910Y886993D01*
X507922Y887189D01*
X507939Y887384D01*
X507960Y887579D01*
X507987Y887774D01*
X508018Y887968D01*
X508054Y888161D01*
X508094Y888353D01*
X508140Y888544D01*
X508190Y888734D01*
X508244Y888922D01*
X508304Y889109D01*
X508368Y889295D01*
X508436Y889479D01*
X508509Y889661D01*
X508586Y889842D01*
X508668Y890020D01*
X508754Y890197D01*
X508845Y890371D01*
X508939Y890543D01*
X509038Y890713D01*
X509141Y890880D01*
X509248Y891045D01*
X509359Y891206D01*
X509474Y891366D01*
X509593Y891522D01*
X509716Y891675D01*
X509842Y891825D01*
X509972Y891972D01*
X510106Y892116D01*
X510243Y892257D01*
X510384Y892394D01*
X510528Y892528D01*
X510675Y892658D01*
X510825Y892784D01*
X510978Y892907D01*
X511134Y893026D01*
X511294Y893141D01*
X511455Y893252D01*
X511620Y893359D01*
X511787Y893462D01*
X511957Y893561D01*
X512129Y893655D01*
X512303Y893746D01*
X512480Y893832D01*
X512658Y893914D01*
X512839Y893991D01*
X513021Y894064D01*
X513205Y894132D01*
X513391Y894196D01*
X513578Y894256D01*
X513766Y894310D01*
X513956Y894360D01*
X514147Y894406D01*
X514339Y894446D01*
X514532Y894482D01*
X514726Y894513D01*
X514921Y894540D01*
X515116Y894561D01*
X515311Y894578D01*
X515507Y894590D01*
X515704Y894598D01*
X515900Y894600D01*
X516096Y894598D01*
X516293Y894590D01*
X516489Y894578D01*
X516684Y894561D01*
X516879Y894540D01*
X517074Y894513D01*
X517268Y894482D01*
X517461Y894446D01*
X517653Y894406D01*
X517844Y894360D01*
X518034Y894310D01*
X518222Y894256D01*
X518409Y894196D01*
X518595Y894132D01*
X518779Y894064D01*
X518961Y893991D01*
X519142Y893914D01*
X519320Y893832D01*
X519497Y893746D01*
X519671Y893655D01*
X519843Y893561D01*
X520013Y893462D01*
X520180Y893359D01*
X520345Y893252D01*
X520506Y893141D01*
X520666Y893026D01*
X520822Y892907D01*
X520975Y892784D01*
X521125Y892658D01*
X521272Y892528D01*
X521416Y892394D01*
X521557Y892257D01*
X521694Y892116D01*
X521828Y891972D01*
X521958Y891825D01*
X522084Y891675D01*
X522207Y891522D01*
X522326Y891366D01*
X522441Y891206D01*
X522552Y891045D01*
X522659Y890880D01*
X522762Y890713D01*
X522861Y890543D01*
X522955Y890371D01*
X523046Y890197D01*
X523132Y890020D01*
X523214Y889842D01*
X523291Y889661D01*
X523364Y889479D01*
X523432Y889295D01*
X523496Y889109D01*
X523556Y888922D01*
X523610Y888734D01*
X523660Y888544D01*
X523706Y888353D01*
X523746Y888161D01*
X523782Y887968D01*
X523813Y887774D01*
X523840Y887579D01*
X523861Y887384D01*
X523878Y887189D01*
X523890Y886993D01*
X523898Y886796D01*
X523900Y886600D01*
X523898Y886404D01*
X523890Y886207D01*
X523878Y886011D01*
X523861Y885816D01*
X523840Y885621D01*
X523813Y885426D01*
X523782Y885232D01*
X523746Y885039D01*
X523706Y884847D01*
X523660Y884656D01*
X523610Y884466D01*
X523556Y884278D01*
X523496Y884091D01*
X523432Y883905D01*
X523364Y883721D01*
X523291Y883539D01*
X523214Y883358D01*
X523132Y883180D01*
X523046Y883003D01*
X522955Y882829D01*
X522861Y882657D01*
X522762Y882487D01*
X522659Y882320D01*
X522552Y882155D01*
X522441Y881994D01*
X522326Y881834D01*
X522207Y881678D01*
X522084Y881525D01*
X521958Y881375D01*
X521828Y881228D01*
X521694Y881084D01*
X521557Y880943D01*
X521416Y880806D01*
X521272Y880672D01*
X521125Y880542D01*
X520975Y880416D01*
X520822Y880293D01*
X520666Y880174D01*
X520506Y880059D01*
X520345Y879948D01*
X520180Y879841D01*
X520013Y879738D01*
X519843Y879639D01*
X519671Y879545D01*
X519497Y879454D01*
X519320Y879368D01*
X519142Y879286D01*
X518961Y879209D01*
X518779Y879136D01*
X518595Y879068D01*
X518409Y879004D01*
X518222Y878944D01*
X518034Y878890D01*
X517844Y878840D01*
X517653Y878794D01*
X517461Y878754D01*
X517268Y878718D01*
X517074Y878687D01*
X516879Y878660D01*
X516684Y878639D01*
X516489Y878622D01*
X516293Y878610D01*
X516096Y878602D01*
X515900Y878600D01*
X515704Y878602D01*
X515507Y878610D01*
X515311Y878622D01*
X515116Y878639D01*
X514921Y878660D01*
X514726Y878687D01*
X514532Y878718D01*
X514339Y878754D01*
X514147Y878794D01*
X513956Y878840D01*
X513766Y878890D01*
X513578Y878944D01*
X513391Y879004D01*
X513205Y879068D01*
X513021Y879136D01*
X512839Y879209D01*
X512658Y879286D01*
X512480Y879368D01*
X512303Y879454D01*
X512129Y879545D01*
X511957Y879639D01*
X511787Y879738D01*
X511620Y879841D01*
X511455Y879948D01*
X511294Y880059D01*
X511134Y880174D01*
X510978Y880293D01*
X510825Y880416D01*
X510675Y880542D01*
X510528Y880672D01*
X510384Y880806D01*
X510243Y880943D01*
X510106Y881084D01*
X509972Y881228D01*
X509842Y881375D01*
X509716Y881525D01*
X509593Y881678D01*
X509474Y881834D01*
X509359Y881994D01*
X509248Y882155D01*
X509141Y882320D01*
X509038Y882487D01*
X508939Y882657D01*
X508845Y882829D01*
X508754Y883003D01*
X508668Y883180D01*
X508586Y883358D01*
X508509Y883539D01*
X508436Y883721D01*
X508368Y883905D01*
X508304Y884091D01*
X508244Y884278D01*
X508190Y884466D01*
X508140Y884656D01*
X508094Y884847D01*
X508054Y885039D01*
X508018Y885232D01*
X507987Y885426D01*
X507960Y885621D01*
X507939Y885816D01*
X507922Y886011D01*
X507910Y886207D01*
X507902Y886404D01*
X507900Y886600D01*
X482500Y886600D02*
X482502Y886796D01*
X482510Y886993D01*
X482522Y887189D01*
X482539Y887384D01*
X482560Y887579D01*
X482587Y887774D01*
X482618Y887968D01*
X482654Y888161D01*
X482694Y888353D01*
X482740Y888544D01*
X482790Y888734D01*
X482844Y888922D01*
X482904Y889109D01*
X482968Y889295D01*
X483036Y889479D01*
X483109Y889661D01*
X483186Y889842D01*
X483268Y890020D01*
X483354Y890197D01*
X483445Y890371D01*
X483539Y890543D01*
X483638Y890713D01*
X483741Y890880D01*
X483848Y891045D01*
X483959Y891206D01*
X484074Y891366D01*
X484193Y891522D01*
X484316Y891675D01*
X484442Y891825D01*
X484572Y891972D01*
X484706Y892116D01*
X484843Y892257D01*
X484984Y892394D01*
X485128Y892528D01*
X485275Y892658D01*
X485425Y892784D01*
X485578Y892907D01*
X485734Y893026D01*
X485894Y893141D01*
X486055Y893252D01*
X486220Y893359D01*
X486387Y893462D01*
X486557Y893561D01*
X486729Y893655D01*
X486903Y893746D01*
X487080Y893832D01*
X487258Y893914D01*
X487439Y893991D01*
X487621Y894064D01*
X487805Y894132D01*
X487991Y894196D01*
X488178Y894256D01*
X488366Y894310D01*
X488556Y894360D01*
X488747Y894406D01*
X488939Y894446D01*
X489132Y894482D01*
X489326Y894513D01*
X489521Y894540D01*
X489716Y894561D01*
X489911Y894578D01*
X490107Y894590D01*
X490304Y894598D01*
X490500Y894600D01*
X490696Y894598D01*
X490893Y894590D01*
X491089Y894578D01*
X491284Y894561D01*
X491479Y894540D01*
X491674Y894513D01*
X491868Y894482D01*
X492061Y894446D01*
X492253Y894406D01*
X492444Y894360D01*
X492634Y894310D01*
X492822Y894256D01*
X493009Y894196D01*
X493195Y894132D01*
X493379Y894064D01*
X493561Y893991D01*
X493742Y893914D01*
X493920Y893832D01*
X494097Y893746D01*
X494271Y893655D01*
X494443Y893561D01*
X494613Y893462D01*
X494780Y893359D01*
X494945Y893252D01*
X495106Y893141D01*
X495266Y893026D01*
X495422Y892907D01*
X495575Y892784D01*
X495725Y892658D01*
X495872Y892528D01*
X496016Y892394D01*
X496157Y892257D01*
X496294Y892116D01*
X496428Y891972D01*
X496558Y891825D01*
X496684Y891675D01*
X496807Y891522D01*
X496926Y891366D01*
X497041Y891206D01*
X497152Y891045D01*
X497259Y890880D01*
X497362Y890713D01*
X497461Y890543D01*
X497555Y890371D01*
X497646Y890197D01*
X497732Y890020D01*
X497814Y889842D01*
X497891Y889661D01*
X497964Y889479D01*
X498032Y889295D01*
X498096Y889109D01*
X498156Y888922D01*
X498210Y888734D01*
X498260Y888544D01*
X498306Y888353D01*
X498346Y888161D01*
X498382Y887968D01*
X498413Y887774D01*
X498440Y887579D01*
X498461Y887384D01*
X498478Y887189D01*
X498490Y886993D01*
X498498Y886796D01*
X498500Y886600D01*
X498498Y886404D01*
X498490Y886207D01*
X498478Y886011D01*
X498461Y885816D01*
X498440Y885621D01*
X498413Y885426D01*
X498382Y885232D01*
X498346Y885039D01*
X498306Y884847D01*
X498260Y884656D01*
X498210Y884466D01*
X498156Y884278D01*
X498096Y884091D01*
X498032Y883905D01*
X497964Y883721D01*
X497891Y883539D01*
X497814Y883358D01*
X497732Y883180D01*
X497646Y883003D01*
X497555Y882829D01*
X497461Y882657D01*
X497362Y882487D01*
X497259Y882320D01*
X497152Y882155D01*
X497041Y881994D01*
X496926Y881834D01*
X496807Y881678D01*
X496684Y881525D01*
X496558Y881375D01*
X496428Y881228D01*
X496294Y881084D01*
X496157Y880943D01*
X496016Y880806D01*
X495872Y880672D01*
X495725Y880542D01*
X495575Y880416D01*
X495422Y880293D01*
X495266Y880174D01*
X495106Y880059D01*
X494945Y879948D01*
X494780Y879841D01*
X494613Y879738D01*
X494443Y879639D01*
X494271Y879545D01*
X494097Y879454D01*
X493920Y879368D01*
X493742Y879286D01*
X493561Y879209D01*
X493379Y879136D01*
X493195Y879068D01*
X493009Y879004D01*
X492822Y878944D01*
X492634Y878890D01*
X492444Y878840D01*
X492253Y878794D01*
X492061Y878754D01*
X491868Y878718D01*
X491674Y878687D01*
X491479Y878660D01*
X491284Y878639D01*
X491089Y878622D01*
X490893Y878610D01*
X490696Y878602D01*
X490500Y878600D01*
X490304Y878602D01*
X490107Y878610D01*
X489911Y878622D01*
X489716Y878639D01*
X489521Y878660D01*
X489326Y878687D01*
X489132Y878718D01*
X488939Y878754D01*
X488747Y878794D01*
X488556Y878840D01*
X488366Y878890D01*
X488178Y878944D01*
X487991Y879004D01*
X487805Y879068D01*
X487621Y879136D01*
X487439Y879209D01*
X487258Y879286D01*
X487080Y879368D01*
X486903Y879454D01*
X486729Y879545D01*
X486557Y879639D01*
X486387Y879738D01*
X486220Y879841D01*
X486055Y879948D01*
X485894Y880059D01*
X485734Y880174D01*
X485578Y880293D01*
X485425Y880416D01*
X485275Y880542D01*
X485128Y880672D01*
X484984Y880806D01*
X484843Y880943D01*
X484706Y881084D01*
X484572Y881228D01*
X484442Y881375D01*
X484316Y881525D01*
X484193Y881678D01*
X484074Y881834D01*
X483959Y881994D01*
X483848Y882155D01*
X483741Y882320D01*
X483638Y882487D01*
X483539Y882657D01*
X483445Y882829D01*
X483354Y883003D01*
X483268Y883180D01*
X483186Y883358D01*
X483109Y883539D01*
X483036Y883721D01*
X482968Y883905D01*
X482904Y884091D01*
X482844Y884278D01*
X482790Y884466D01*
X482740Y884656D01*
X482694Y884847D01*
X482654Y885039D01*
X482618Y885232D01*
X482587Y885426D01*
X482560Y885621D01*
X482539Y885816D01*
X482522Y886011D01*
X482510Y886207D01*
X482502Y886404D01*
X482500Y886600D01*
X482500Y861200D02*
X482502Y861396D01*
X482510Y861593D01*
X482522Y861789D01*
X482539Y861984D01*
X482560Y862179D01*
X482587Y862374D01*
X482618Y862568D01*
X482654Y862761D01*
X482694Y862953D01*
X482740Y863144D01*
X482790Y863334D01*
X482844Y863522D01*
X482904Y863709D01*
X482968Y863895D01*
X483036Y864079D01*
X483109Y864261D01*
X483186Y864442D01*
X483268Y864620D01*
X483354Y864797D01*
X483445Y864971D01*
X483539Y865143D01*
X483638Y865313D01*
X483741Y865480D01*
X483848Y865645D01*
X483959Y865806D01*
X484074Y865966D01*
X484193Y866122D01*
X484316Y866275D01*
X484442Y866425D01*
X484572Y866572D01*
X484706Y866716D01*
X484843Y866857D01*
X484984Y866994D01*
X485128Y867128D01*
X485275Y867258D01*
X485425Y867384D01*
X485578Y867507D01*
X485734Y867626D01*
X485894Y867741D01*
X486055Y867852D01*
X486220Y867959D01*
X486387Y868062D01*
X486557Y868161D01*
X486729Y868255D01*
X486903Y868346D01*
X487080Y868432D01*
X487258Y868514D01*
X487439Y868591D01*
X487621Y868664D01*
X487805Y868732D01*
X487991Y868796D01*
X488178Y868856D01*
X488366Y868910D01*
X488556Y868960D01*
X488747Y869006D01*
X488939Y869046D01*
X489132Y869082D01*
X489326Y869113D01*
X489521Y869140D01*
X489716Y869161D01*
X489911Y869178D01*
X490107Y869190D01*
X490304Y869198D01*
X490500Y869200D01*
X490696Y869198D01*
X490893Y869190D01*
X491089Y869178D01*
X491284Y869161D01*
X491479Y869140D01*
X491674Y869113D01*
X491868Y869082D01*
X492061Y869046D01*
X492253Y869006D01*
X492444Y868960D01*
X492634Y868910D01*
X492822Y868856D01*
X493009Y868796D01*
X493195Y868732D01*
X493379Y868664D01*
X493561Y868591D01*
X493742Y868514D01*
X493920Y868432D01*
X494097Y868346D01*
X494271Y868255D01*
X494443Y868161D01*
X494613Y868062D01*
X494780Y867959D01*
X494945Y867852D01*
X495106Y867741D01*
X495266Y867626D01*
X495422Y867507D01*
X495575Y867384D01*
X495725Y867258D01*
X495872Y867128D01*
X496016Y866994D01*
X496157Y866857D01*
X496294Y866716D01*
X496428Y866572D01*
X496558Y866425D01*
X496684Y866275D01*
X496807Y866122D01*
X496926Y865966D01*
X497041Y865806D01*
X497152Y865645D01*
X497259Y865480D01*
X497362Y865313D01*
X497461Y865143D01*
X497555Y864971D01*
X497646Y864797D01*
X497732Y864620D01*
X497814Y864442D01*
X497891Y864261D01*
X497964Y864079D01*
X498032Y863895D01*
X498096Y863709D01*
X498156Y863522D01*
X498210Y863334D01*
X498260Y863144D01*
X498306Y862953D01*
X498346Y862761D01*
X498382Y862568D01*
X498413Y862374D01*
X498440Y862179D01*
X498461Y861984D01*
X498478Y861789D01*
X498490Y861593D01*
X498498Y861396D01*
X498500Y861200D01*
X498498Y861004D01*
X498490Y860807D01*
X498478Y860611D01*
X498461Y860416D01*
X498440Y860221D01*
X498413Y860026D01*
X498382Y859832D01*
X498346Y859639D01*
X498306Y859447D01*
X498260Y859256D01*
X498210Y859066D01*
X498156Y858878D01*
X498096Y858691D01*
X498032Y858505D01*
X497964Y858321D01*
X497891Y858139D01*
X497814Y857958D01*
X497732Y857780D01*
X497646Y857603D01*
X497555Y857429D01*
X497461Y857257D01*
X497362Y857087D01*
X497259Y856920D01*
X497152Y856755D01*
X497041Y856594D01*
X496926Y856434D01*
X496807Y856278D01*
X496684Y856125D01*
X496558Y855975D01*
X496428Y855828D01*
X496294Y855684D01*
X496157Y855543D01*
X496016Y855406D01*
X495872Y855272D01*
X495725Y855142D01*
X495575Y855016D01*
X495422Y854893D01*
X495266Y854774D01*
X495106Y854659D01*
X494945Y854548D01*
X494780Y854441D01*
X494613Y854338D01*
X494443Y854239D01*
X494271Y854145D01*
X494097Y854054D01*
X493920Y853968D01*
X493742Y853886D01*
X493561Y853809D01*
X493379Y853736D01*
X493195Y853668D01*
X493009Y853604D01*
X492822Y853544D01*
X492634Y853490D01*
X492444Y853440D01*
X492253Y853394D01*
X492061Y853354D01*
X491868Y853318D01*
X491674Y853287D01*
X491479Y853260D01*
X491284Y853239D01*
X491089Y853222D01*
X490893Y853210D01*
X490696Y853202D01*
X490500Y853200D01*
X490304Y853202D01*
X490107Y853210D01*
X489911Y853222D01*
X489716Y853239D01*
X489521Y853260D01*
X489326Y853287D01*
X489132Y853318D01*
X488939Y853354D01*
X488747Y853394D01*
X488556Y853440D01*
X488366Y853490D01*
X488178Y853544D01*
X487991Y853604D01*
X487805Y853668D01*
X487621Y853736D01*
X487439Y853809D01*
X487258Y853886D01*
X487080Y853968D01*
X486903Y854054D01*
X486729Y854145D01*
X486557Y854239D01*
X486387Y854338D01*
X486220Y854441D01*
X486055Y854548D01*
X485894Y854659D01*
X485734Y854774D01*
X485578Y854893D01*
X485425Y855016D01*
X485275Y855142D01*
X485128Y855272D01*
X484984Y855406D01*
X484843Y855543D01*
X484706Y855684D01*
X484572Y855828D01*
X484442Y855975D01*
X484316Y856125D01*
X484193Y856278D01*
X484074Y856434D01*
X483959Y856594D01*
X483848Y856755D01*
X483741Y856920D01*
X483638Y857087D01*
X483539Y857257D01*
X483445Y857429D01*
X483354Y857603D01*
X483268Y857780D01*
X483186Y857958D01*
X483109Y858139D01*
X483036Y858321D01*
X482968Y858505D01*
X482904Y858691D01*
X482844Y858878D01*
X482790Y859066D01*
X482740Y859256D01*
X482694Y859447D01*
X482654Y859639D01*
X482618Y859832D01*
X482587Y860026D01*
X482560Y860221D01*
X482539Y860416D01*
X482522Y860611D01*
X482510Y860807D01*
X482502Y861004D01*
X482500Y861200D01*
D11*
X472847Y898101D02*
X465481Y898101D01*
X465481Y898919D02*
X465481Y897282D01*
X472847Y897282D02*
X472847Y898919D01*
X465481Y892681D02*
X465481Y891044D01*
X465481Y892681D02*
X465483Y892759D01*
X465488Y892837D01*
X465498Y892914D01*
X465511Y892991D01*
X465527Y893067D01*
X465547Y893142D01*
X465571Y893216D01*
X465598Y893289D01*
X465629Y893361D01*
X465663Y893431D01*
X465700Y893500D01*
X465741Y893566D01*
X465785Y893631D01*
X465831Y893693D01*
X465881Y893753D01*
X465933Y893811D01*
X465988Y893866D01*
X466046Y893918D01*
X466106Y893968D01*
X466168Y894014D01*
X466233Y894058D01*
X466300Y894099D01*
X466368Y894136D01*
X466438Y894170D01*
X466510Y894201D01*
X466583Y894228D01*
X466657Y894252D01*
X466732Y894272D01*
X466808Y894288D01*
X466885Y894301D01*
X466962Y894311D01*
X467040Y894316D01*
X467118Y894318D01*
X471210Y894318D01*
X471288Y894316D01*
X471366Y894311D01*
X471443Y894301D01*
X471520Y894288D01*
X471596Y894272D01*
X471671Y894252D01*
X471745Y894228D01*
X471818Y894201D01*
X471890Y894170D01*
X471960Y894136D01*
X472029Y894099D01*
X472095Y894058D01*
X472160Y894014D01*
X472222Y893968D01*
X472282Y893918D01*
X472340Y893866D01*
X472395Y893811D01*
X472447Y893753D01*
X472497Y893693D01*
X472543Y893631D01*
X472587Y893566D01*
X472628Y893500D01*
X472665Y893431D01*
X472699Y893361D01*
X472730Y893289D01*
X472757Y893216D01*
X472781Y893142D01*
X472801Y893067D01*
X472817Y892991D01*
X472830Y892914D01*
X472840Y892837D01*
X472845Y892759D01*
X472847Y892681D01*
X472847Y891044D01*
X467118Y884350D02*
X467040Y884352D01*
X466962Y884357D01*
X466885Y884367D01*
X466808Y884380D01*
X466732Y884396D01*
X466657Y884416D01*
X466583Y884440D01*
X466510Y884467D01*
X466438Y884498D01*
X466368Y884532D01*
X466299Y884569D01*
X466233Y884610D01*
X466168Y884654D01*
X466106Y884700D01*
X466046Y884750D01*
X465988Y884802D01*
X465933Y884857D01*
X465881Y884915D01*
X465831Y884975D01*
X465785Y885037D01*
X465741Y885102D01*
X465700Y885169D01*
X465663Y885237D01*
X465629Y885307D01*
X465598Y885379D01*
X465571Y885452D01*
X465547Y885526D01*
X465527Y885601D01*
X465511Y885677D01*
X465498Y885754D01*
X465488Y885831D01*
X465483Y885909D01*
X465481Y885987D01*
X465483Y886101D01*
X465488Y886214D01*
X465498Y886328D01*
X465511Y886441D01*
X465528Y886553D01*
X465548Y886665D01*
X465572Y886776D01*
X465600Y886887D01*
X465631Y886996D01*
X465666Y887104D01*
X465705Y887211D01*
X465747Y887317D01*
X465792Y887421D01*
X465841Y887524D01*
X465894Y887625D01*
X465949Y887724D01*
X466008Y887822D01*
X466070Y887917D01*
X466135Y888010D01*
X466203Y888102D01*
X466274Y888190D01*
X466348Y888277D01*
X466425Y888361D01*
X466504Y888442D01*
X471210Y888238D02*
X471288Y888236D01*
X471366Y888231D01*
X471443Y888221D01*
X471520Y888208D01*
X471596Y888192D01*
X471671Y888172D01*
X471745Y888148D01*
X471818Y888121D01*
X471890Y888090D01*
X471960Y888056D01*
X472029Y888019D01*
X472095Y887978D01*
X472160Y887934D01*
X472222Y887888D01*
X472282Y887838D01*
X472340Y887786D01*
X472395Y887731D01*
X472447Y887673D01*
X472497Y887613D01*
X472543Y887551D01*
X472587Y887486D01*
X472628Y887420D01*
X472665Y887351D01*
X472699Y887281D01*
X472730Y887209D01*
X472757Y887136D01*
X472781Y887062D01*
X472801Y886987D01*
X472817Y886911D01*
X472830Y886834D01*
X472840Y886757D01*
X472845Y886679D01*
X472847Y886601D01*
X472845Y886491D01*
X472839Y886382D01*
X472829Y886272D01*
X472816Y886164D01*
X472798Y886055D01*
X472777Y885948D01*
X472751Y885841D01*
X472722Y885735D01*
X472690Y885630D01*
X472653Y885527D01*
X472613Y885425D01*
X472569Y885324D01*
X472521Y885225D01*
X472471Y885128D01*
X472416Y885033D01*
X472358Y884940D01*
X472297Y884849D01*
X472233Y884760D01*
X469777Y887419D02*
X469819Y887486D01*
X469863Y887551D01*
X469911Y887613D01*
X469961Y887673D01*
X470014Y887731D01*
X470070Y887786D01*
X470129Y887838D01*
X470189Y887888D01*
X470253Y887935D01*
X470318Y887978D01*
X470385Y888019D01*
X470454Y888056D01*
X470525Y888090D01*
X470597Y888121D01*
X470671Y888148D01*
X470745Y888172D01*
X470821Y888192D01*
X470898Y888208D01*
X470975Y888221D01*
X471053Y888231D01*
X471132Y888236D01*
X471210Y888238D01*
X468550Y885169D02*
X468509Y885103D01*
X468464Y885038D01*
X468417Y884976D01*
X468366Y884916D01*
X468313Y884858D01*
X468257Y884803D01*
X468199Y884750D01*
X468138Y884701D01*
X468075Y884654D01*
X468010Y884611D01*
X467943Y884570D01*
X467874Y884533D01*
X467803Y884499D01*
X467731Y884468D01*
X467657Y884441D01*
X467582Y884417D01*
X467507Y884397D01*
X467430Y884381D01*
X467353Y884368D01*
X467275Y884358D01*
X467196Y884353D01*
X467118Y884351D01*
X468550Y885169D02*
X469778Y887419D01*
X472847Y881010D02*
X465481Y881010D01*
X472847Y881010D02*
X472847Y878963D01*
X472845Y878874D01*
X472839Y878785D01*
X472829Y878696D01*
X472816Y878608D01*
X472799Y878520D01*
X472777Y878433D01*
X472752Y878348D01*
X472724Y878263D01*
X472691Y878180D01*
X472655Y878098D01*
X472616Y878018D01*
X472573Y877940D01*
X472527Y877864D01*
X472477Y877789D01*
X472424Y877717D01*
X472368Y877648D01*
X472309Y877581D01*
X472248Y877516D01*
X472183Y877455D01*
X472116Y877396D01*
X472047Y877340D01*
X471975Y877287D01*
X471900Y877237D01*
X471824Y877191D01*
X471746Y877148D01*
X471666Y877109D01*
X471584Y877073D01*
X471501Y877040D01*
X471416Y877012D01*
X471331Y876987D01*
X471244Y876965D01*
X471156Y876948D01*
X471068Y876935D01*
X470979Y876925D01*
X470890Y876919D01*
X470801Y876917D01*
X470712Y876919D01*
X470623Y876925D01*
X470534Y876935D01*
X470446Y876948D01*
X470358Y876965D01*
X470271Y876987D01*
X470186Y877012D01*
X470101Y877040D01*
X470018Y877073D01*
X469936Y877109D01*
X469856Y877148D01*
X469778Y877191D01*
X469702Y877237D01*
X469627Y877287D01*
X469555Y877340D01*
X469486Y877396D01*
X469419Y877455D01*
X469354Y877516D01*
X469293Y877581D01*
X469234Y877648D01*
X469178Y877717D01*
X469125Y877789D01*
X469075Y877864D01*
X469029Y877940D01*
X468986Y878018D01*
X468947Y878098D01*
X468911Y878180D01*
X468878Y878263D01*
X468850Y878348D01*
X468825Y878433D01*
X468803Y878520D01*
X468786Y878608D01*
X468773Y878696D01*
X468763Y878785D01*
X468757Y878874D01*
X468755Y878963D01*
X468755Y881010D01*
D13*
X164703Y898792D02*
X160808Y887108D01*
X168597Y887108D02*
X164703Y898792D01*
X167624Y890029D02*
X161782Y890029D01*
X173342Y887108D02*
X173342Y898792D01*
X176587Y898792D01*
X176700Y898790D01*
X176813Y898784D01*
X176926Y898774D01*
X177039Y898760D01*
X177151Y898743D01*
X177262Y898721D01*
X177372Y898696D01*
X177482Y898666D01*
X177590Y898633D01*
X177697Y898596D01*
X177803Y898556D01*
X177907Y898511D01*
X178010Y898463D01*
X178111Y898412D01*
X178210Y898357D01*
X178307Y898299D01*
X178402Y898237D01*
X178495Y898172D01*
X178585Y898104D01*
X178673Y898033D01*
X178759Y897958D01*
X178842Y897881D01*
X178922Y897801D01*
X178999Y897718D01*
X179074Y897632D01*
X179145Y897544D01*
X179213Y897454D01*
X179278Y897361D01*
X179340Y897266D01*
X179398Y897169D01*
X179453Y897070D01*
X179504Y896969D01*
X179552Y896866D01*
X179597Y896762D01*
X179637Y896656D01*
X179674Y896549D01*
X179707Y896441D01*
X179737Y896331D01*
X179762Y896221D01*
X179784Y896110D01*
X179801Y895998D01*
X179815Y895885D01*
X179825Y895772D01*
X179831Y895659D01*
X179833Y895546D01*
X179831Y895433D01*
X179825Y895320D01*
X179815Y895207D01*
X179801Y895094D01*
X179784Y894982D01*
X179762Y894871D01*
X179737Y894761D01*
X179707Y894651D01*
X179674Y894543D01*
X179637Y894436D01*
X179597Y894330D01*
X179552Y894226D01*
X179504Y894123D01*
X179453Y894022D01*
X179398Y893923D01*
X179340Y893826D01*
X179278Y893731D01*
X179213Y893638D01*
X179145Y893548D01*
X179074Y893460D01*
X178999Y893374D01*
X178922Y893291D01*
X178842Y893211D01*
X178759Y893134D01*
X178673Y893059D01*
X178585Y892988D01*
X178495Y892920D01*
X178402Y892855D01*
X178307Y892793D01*
X178210Y892735D01*
X178111Y892680D01*
X178010Y892629D01*
X177907Y892581D01*
X177803Y892536D01*
X177697Y892496D01*
X177590Y892459D01*
X177482Y892426D01*
X177372Y892396D01*
X177262Y892371D01*
X177151Y892349D01*
X177039Y892332D01*
X176926Y892318D01*
X176813Y892308D01*
X176700Y892302D01*
X176587Y892300D01*
X176587Y892301D02*
X173342Y892301D01*
X177236Y892301D02*
X179833Y887108D01*
X185079Y887108D02*
X185079Y898792D01*
X188325Y898792D01*
X188438Y898790D01*
X188551Y898784D01*
X188664Y898774D01*
X188777Y898760D01*
X188889Y898743D01*
X189000Y898721D01*
X189110Y898696D01*
X189220Y898666D01*
X189328Y898633D01*
X189435Y898596D01*
X189541Y898556D01*
X189645Y898511D01*
X189748Y898463D01*
X189849Y898412D01*
X189948Y898357D01*
X190045Y898299D01*
X190140Y898237D01*
X190233Y898172D01*
X190323Y898104D01*
X190411Y898033D01*
X190497Y897958D01*
X190580Y897881D01*
X190660Y897801D01*
X190737Y897718D01*
X190812Y897632D01*
X190883Y897544D01*
X190951Y897454D01*
X191016Y897361D01*
X191078Y897266D01*
X191136Y897169D01*
X191191Y897070D01*
X191242Y896969D01*
X191290Y896866D01*
X191335Y896762D01*
X191375Y896656D01*
X191412Y896549D01*
X191445Y896441D01*
X191475Y896331D01*
X191500Y896221D01*
X191522Y896110D01*
X191539Y895998D01*
X191553Y895885D01*
X191563Y895772D01*
X191569Y895659D01*
X191571Y895546D01*
X191570Y895546D02*
X191570Y890354D01*
X191571Y890354D02*
X191569Y890241D01*
X191563Y890128D01*
X191553Y890015D01*
X191539Y889902D01*
X191522Y889790D01*
X191500Y889679D01*
X191475Y889569D01*
X191445Y889459D01*
X191412Y889351D01*
X191375Y889244D01*
X191335Y889138D01*
X191290Y889034D01*
X191242Y888931D01*
X191191Y888830D01*
X191136Y888731D01*
X191078Y888634D01*
X191016Y888539D01*
X190951Y888446D01*
X190883Y888356D01*
X190812Y888268D01*
X190737Y888182D01*
X190660Y888099D01*
X190580Y888019D01*
X190497Y887942D01*
X190411Y887867D01*
X190323Y887796D01*
X190233Y887728D01*
X190140Y887663D01*
X190045Y887601D01*
X189948Y887543D01*
X189849Y887488D01*
X189748Y887437D01*
X189645Y887389D01*
X189541Y887344D01*
X189435Y887304D01*
X189328Y887267D01*
X189220Y887234D01*
X189110Y887204D01*
X189000Y887179D01*
X188889Y887157D01*
X188777Y887140D01*
X188664Y887126D01*
X188551Y887116D01*
X188438Y887110D01*
X188325Y887108D01*
X185079Y887108D01*
X197271Y890354D02*
X197271Y898792D01*
X197271Y890354D02*
X197273Y890241D01*
X197279Y890128D01*
X197289Y890015D01*
X197303Y889902D01*
X197320Y889790D01*
X197342Y889679D01*
X197367Y889569D01*
X197397Y889459D01*
X197430Y889351D01*
X197467Y889244D01*
X197507Y889138D01*
X197552Y889034D01*
X197600Y888931D01*
X197651Y888830D01*
X197706Y888731D01*
X197764Y888634D01*
X197826Y888539D01*
X197891Y888446D01*
X197959Y888356D01*
X198030Y888268D01*
X198105Y888182D01*
X198182Y888099D01*
X198262Y888019D01*
X198345Y887942D01*
X198431Y887867D01*
X198519Y887796D01*
X198609Y887728D01*
X198702Y887663D01*
X198797Y887601D01*
X198894Y887543D01*
X198993Y887488D01*
X199094Y887437D01*
X199197Y887389D01*
X199301Y887344D01*
X199407Y887304D01*
X199514Y887267D01*
X199622Y887234D01*
X199732Y887204D01*
X199842Y887179D01*
X199953Y887157D01*
X200065Y887140D01*
X200178Y887126D01*
X200291Y887116D01*
X200404Y887110D01*
X200517Y887108D01*
X200630Y887110D01*
X200743Y887116D01*
X200856Y887126D01*
X200969Y887140D01*
X201081Y887157D01*
X201192Y887179D01*
X201302Y887204D01*
X201412Y887234D01*
X201520Y887267D01*
X201627Y887304D01*
X201733Y887344D01*
X201837Y887389D01*
X201940Y887437D01*
X202041Y887488D01*
X202140Y887543D01*
X202237Y887601D01*
X202332Y887663D01*
X202425Y887728D01*
X202515Y887796D01*
X202603Y887867D01*
X202689Y887942D01*
X202772Y888019D01*
X202852Y888099D01*
X202929Y888182D01*
X203004Y888268D01*
X203075Y888356D01*
X203143Y888446D01*
X203208Y888539D01*
X203270Y888634D01*
X203328Y888731D01*
X203383Y888830D01*
X203434Y888931D01*
X203482Y889034D01*
X203527Y889138D01*
X203567Y889244D01*
X203604Y889351D01*
X203637Y889459D01*
X203667Y889569D01*
X203692Y889679D01*
X203714Y889790D01*
X203731Y889902D01*
X203745Y890015D01*
X203755Y890128D01*
X203761Y890241D01*
X203763Y890354D01*
X203762Y890354D02*
X203762Y898792D01*
X210042Y898792D02*
X210042Y887108D01*
X211340Y887108D02*
X208743Y887108D01*
X208743Y898792D02*
X211340Y898792D01*
X216321Y898792D02*
X216321Y887108D01*
X222812Y887108D02*
X216321Y898792D01*
X222812Y898792D02*
X222812Y887108D01*
X228132Y890354D02*
X228132Y895546D01*
X228134Y895659D01*
X228140Y895772D01*
X228150Y895885D01*
X228164Y895998D01*
X228181Y896110D01*
X228203Y896221D01*
X228228Y896331D01*
X228258Y896441D01*
X228291Y896549D01*
X228328Y896656D01*
X228368Y896762D01*
X228413Y896866D01*
X228461Y896969D01*
X228512Y897070D01*
X228567Y897169D01*
X228625Y897266D01*
X228687Y897361D01*
X228752Y897454D01*
X228820Y897544D01*
X228891Y897632D01*
X228966Y897718D01*
X229043Y897801D01*
X229123Y897881D01*
X229206Y897958D01*
X229292Y898033D01*
X229380Y898104D01*
X229470Y898172D01*
X229563Y898237D01*
X229658Y898299D01*
X229755Y898357D01*
X229854Y898412D01*
X229955Y898463D01*
X230058Y898511D01*
X230162Y898556D01*
X230268Y898596D01*
X230375Y898633D01*
X230483Y898666D01*
X230593Y898696D01*
X230703Y898721D01*
X230814Y898743D01*
X230926Y898760D01*
X231039Y898774D01*
X231152Y898784D01*
X231265Y898790D01*
X231378Y898792D01*
X231491Y898790D01*
X231604Y898784D01*
X231717Y898774D01*
X231830Y898760D01*
X231942Y898743D01*
X232053Y898721D01*
X232163Y898696D01*
X232273Y898666D01*
X232381Y898633D01*
X232488Y898596D01*
X232594Y898556D01*
X232698Y898511D01*
X232801Y898463D01*
X232902Y898412D01*
X233001Y898357D01*
X233098Y898299D01*
X233193Y898237D01*
X233286Y898172D01*
X233376Y898104D01*
X233464Y898033D01*
X233550Y897958D01*
X233633Y897881D01*
X233713Y897801D01*
X233790Y897718D01*
X233865Y897632D01*
X233936Y897544D01*
X234004Y897454D01*
X234069Y897361D01*
X234131Y897266D01*
X234189Y897169D01*
X234244Y897070D01*
X234295Y896969D01*
X234343Y896866D01*
X234388Y896762D01*
X234428Y896656D01*
X234465Y896549D01*
X234498Y896441D01*
X234528Y896331D01*
X234553Y896221D01*
X234575Y896110D01*
X234592Y895998D01*
X234606Y895885D01*
X234616Y895772D01*
X234622Y895659D01*
X234624Y895546D01*
X234623Y895546D02*
X234623Y890354D01*
X234624Y890354D02*
X234622Y890241D01*
X234616Y890128D01*
X234606Y890015D01*
X234592Y889902D01*
X234575Y889790D01*
X234553Y889679D01*
X234528Y889569D01*
X234498Y889459D01*
X234465Y889351D01*
X234428Y889244D01*
X234388Y889138D01*
X234343Y889034D01*
X234295Y888931D01*
X234244Y888830D01*
X234189Y888731D01*
X234131Y888634D01*
X234069Y888539D01*
X234004Y888446D01*
X233936Y888356D01*
X233865Y888268D01*
X233790Y888182D01*
X233713Y888099D01*
X233633Y888019D01*
X233550Y887942D01*
X233464Y887867D01*
X233376Y887796D01*
X233286Y887728D01*
X233193Y887663D01*
X233098Y887601D01*
X233001Y887543D01*
X232902Y887488D01*
X232801Y887437D01*
X232698Y887389D01*
X232594Y887344D01*
X232488Y887304D01*
X232381Y887267D01*
X232273Y887234D01*
X232163Y887204D01*
X232053Y887179D01*
X231942Y887157D01*
X231830Y887140D01*
X231717Y887126D01*
X231604Y887116D01*
X231491Y887110D01*
X231378Y887108D01*
X231265Y887110D01*
X231152Y887116D01*
X231039Y887126D01*
X230926Y887140D01*
X230814Y887157D01*
X230703Y887179D01*
X230593Y887204D01*
X230483Y887234D01*
X230375Y887267D01*
X230268Y887304D01*
X230162Y887344D01*
X230058Y887389D01*
X229955Y887437D01*
X229854Y887488D01*
X229755Y887543D01*
X229658Y887601D01*
X229563Y887663D01*
X229470Y887728D01*
X229380Y887796D01*
X229292Y887867D01*
X229206Y887942D01*
X229123Y888019D01*
X229043Y888099D01*
X228966Y888182D01*
X228891Y888268D01*
X228820Y888356D01*
X228752Y888446D01*
X228687Y888539D01*
X228625Y888634D01*
X228567Y888731D01*
X228512Y888830D01*
X228461Y888931D01*
X228413Y889034D01*
X228368Y889138D01*
X228328Y889244D01*
X228291Y889351D01*
X228258Y889459D01*
X228228Y889569D01*
X228203Y889679D01*
X228181Y889790D01*
X228164Y889902D01*
X228150Y890015D01*
X228140Y890128D01*
X228134Y890241D01*
X228132Y890354D01*
X239068Y885810D02*
X244261Y885810D01*
X249087Y887108D02*
X249087Y898792D01*
X255578Y887108D01*
X255578Y898792D01*
X264143Y898792D02*
X260249Y887108D01*
X268038Y887108D02*
X264143Y898792D01*
X267064Y890029D02*
X261222Y890029D01*
X272709Y887108D02*
X272709Y898792D01*
X279200Y887108D01*
X279200Y898792D01*
X284520Y895546D02*
X284520Y890354D01*
X284519Y895546D02*
X284521Y895659D01*
X284527Y895772D01*
X284537Y895885D01*
X284551Y895998D01*
X284568Y896110D01*
X284590Y896221D01*
X284615Y896331D01*
X284645Y896441D01*
X284678Y896549D01*
X284715Y896656D01*
X284755Y896762D01*
X284800Y896866D01*
X284848Y896969D01*
X284899Y897070D01*
X284954Y897169D01*
X285012Y897266D01*
X285074Y897361D01*
X285139Y897454D01*
X285207Y897544D01*
X285278Y897632D01*
X285353Y897718D01*
X285430Y897801D01*
X285510Y897881D01*
X285593Y897958D01*
X285679Y898033D01*
X285767Y898104D01*
X285857Y898172D01*
X285950Y898237D01*
X286045Y898299D01*
X286142Y898357D01*
X286241Y898412D01*
X286342Y898463D01*
X286445Y898511D01*
X286549Y898556D01*
X286655Y898596D01*
X286762Y898633D01*
X286870Y898666D01*
X286980Y898696D01*
X287090Y898721D01*
X287201Y898743D01*
X287313Y898760D01*
X287426Y898774D01*
X287539Y898784D01*
X287652Y898790D01*
X287765Y898792D01*
X287878Y898790D01*
X287991Y898784D01*
X288104Y898774D01*
X288217Y898760D01*
X288329Y898743D01*
X288440Y898721D01*
X288550Y898696D01*
X288660Y898666D01*
X288768Y898633D01*
X288875Y898596D01*
X288981Y898556D01*
X289085Y898511D01*
X289188Y898463D01*
X289289Y898412D01*
X289388Y898357D01*
X289485Y898299D01*
X289580Y898237D01*
X289673Y898172D01*
X289763Y898104D01*
X289851Y898033D01*
X289937Y897958D01*
X290020Y897881D01*
X290100Y897801D01*
X290177Y897718D01*
X290252Y897632D01*
X290323Y897544D01*
X290391Y897454D01*
X290456Y897361D01*
X290518Y897266D01*
X290576Y897169D01*
X290631Y897070D01*
X290682Y896969D01*
X290730Y896866D01*
X290775Y896762D01*
X290815Y896656D01*
X290852Y896549D01*
X290885Y896441D01*
X290915Y896331D01*
X290940Y896221D01*
X290962Y896110D01*
X290979Y895998D01*
X290993Y895885D01*
X291003Y895772D01*
X291009Y895659D01*
X291011Y895546D01*
X291011Y890354D01*
X291009Y890241D01*
X291003Y890128D01*
X290993Y890015D01*
X290979Y889902D01*
X290962Y889790D01*
X290940Y889679D01*
X290915Y889569D01*
X290885Y889459D01*
X290852Y889351D01*
X290815Y889244D01*
X290775Y889138D01*
X290730Y889034D01*
X290682Y888931D01*
X290631Y888830D01*
X290576Y888731D01*
X290518Y888634D01*
X290456Y888539D01*
X290391Y888446D01*
X290323Y888356D01*
X290252Y888268D01*
X290177Y888182D01*
X290100Y888099D01*
X290020Y888019D01*
X289937Y887942D01*
X289851Y887867D01*
X289763Y887796D01*
X289673Y887728D01*
X289580Y887663D01*
X289485Y887601D01*
X289388Y887543D01*
X289289Y887488D01*
X289188Y887437D01*
X289085Y887389D01*
X288981Y887344D01*
X288875Y887304D01*
X288768Y887267D01*
X288660Y887234D01*
X288550Y887204D01*
X288440Y887179D01*
X288329Y887157D01*
X288217Y887140D01*
X288104Y887126D01*
X287991Y887116D01*
X287878Y887110D01*
X287765Y887108D01*
X287652Y887110D01*
X287539Y887116D01*
X287426Y887126D01*
X287313Y887140D01*
X287201Y887157D01*
X287090Y887179D01*
X286980Y887204D01*
X286870Y887234D01*
X286762Y887267D01*
X286655Y887304D01*
X286549Y887344D01*
X286445Y887389D01*
X286342Y887437D01*
X286241Y887488D01*
X286142Y887543D01*
X286045Y887601D01*
X285950Y887663D01*
X285857Y887728D01*
X285767Y887796D01*
X285679Y887867D01*
X285593Y887942D01*
X285510Y888019D01*
X285430Y888099D01*
X285353Y888182D01*
X285278Y888268D01*
X285207Y888356D01*
X285139Y888446D01*
X285074Y888539D01*
X285012Y888634D01*
X284954Y888731D01*
X284899Y888830D01*
X284848Y888931D01*
X284800Y889034D01*
X284755Y889138D01*
X284715Y889244D01*
X284678Y889351D01*
X284645Y889459D01*
X284615Y889569D01*
X284590Y889679D01*
X284568Y889790D01*
X284551Y889902D01*
X284537Y890015D01*
X284527Y890128D01*
X284521Y890241D01*
X284519Y890354D01*
X295950Y896196D02*
X299195Y898792D01*
X299195Y887108D01*
X295950Y887108D02*
X302441Y887108D01*
X58558Y1223858D02*
X58558Y1235542D01*
X61804Y1235542D01*
X61917Y1235540D01*
X62030Y1235534D01*
X62143Y1235524D01*
X62256Y1235510D01*
X62368Y1235493D01*
X62479Y1235471D01*
X62589Y1235446D01*
X62699Y1235416D01*
X62807Y1235383D01*
X62914Y1235346D01*
X63020Y1235306D01*
X63124Y1235261D01*
X63227Y1235213D01*
X63328Y1235162D01*
X63427Y1235107D01*
X63524Y1235049D01*
X63619Y1234987D01*
X63712Y1234922D01*
X63802Y1234854D01*
X63890Y1234783D01*
X63976Y1234708D01*
X64059Y1234631D01*
X64139Y1234551D01*
X64216Y1234468D01*
X64291Y1234382D01*
X64362Y1234294D01*
X64430Y1234204D01*
X64495Y1234111D01*
X64557Y1234016D01*
X64615Y1233919D01*
X64670Y1233820D01*
X64721Y1233719D01*
X64769Y1233616D01*
X64814Y1233512D01*
X64854Y1233406D01*
X64891Y1233299D01*
X64924Y1233191D01*
X64954Y1233081D01*
X64979Y1232971D01*
X65001Y1232860D01*
X65018Y1232748D01*
X65032Y1232635D01*
X65042Y1232522D01*
X65048Y1232409D01*
X65050Y1232296D01*
X65048Y1232183D01*
X65042Y1232070D01*
X65032Y1231957D01*
X65018Y1231844D01*
X65001Y1231732D01*
X64979Y1231621D01*
X64954Y1231511D01*
X64924Y1231401D01*
X64891Y1231293D01*
X64854Y1231186D01*
X64814Y1231080D01*
X64769Y1230976D01*
X64721Y1230873D01*
X64670Y1230772D01*
X64615Y1230673D01*
X64557Y1230576D01*
X64495Y1230481D01*
X64430Y1230388D01*
X64362Y1230298D01*
X64291Y1230210D01*
X64216Y1230124D01*
X64139Y1230041D01*
X64059Y1229961D01*
X63976Y1229884D01*
X63890Y1229809D01*
X63802Y1229738D01*
X63712Y1229670D01*
X63619Y1229605D01*
X63524Y1229543D01*
X63427Y1229485D01*
X63328Y1229430D01*
X63227Y1229379D01*
X63124Y1229331D01*
X63020Y1229286D01*
X62914Y1229246D01*
X62807Y1229209D01*
X62699Y1229176D01*
X62589Y1229146D01*
X62479Y1229121D01*
X62368Y1229099D01*
X62256Y1229082D01*
X62143Y1229068D01*
X62030Y1229058D01*
X61917Y1229052D01*
X61804Y1229050D01*
X61804Y1229051D02*
X58558Y1229051D01*
X62453Y1229051D02*
X65049Y1223858D01*
X69420Y1222560D02*
X74613Y1222560D01*
X82572Y1223858D02*
X82671Y1223860D01*
X82771Y1223866D01*
X82870Y1223875D01*
X82968Y1223888D01*
X83066Y1223905D01*
X83164Y1223926D01*
X83260Y1223951D01*
X83355Y1223979D01*
X83449Y1224011D01*
X83542Y1224046D01*
X83634Y1224085D01*
X83724Y1224128D01*
X83812Y1224173D01*
X83899Y1224223D01*
X83983Y1224275D01*
X84066Y1224331D01*
X84146Y1224389D01*
X84224Y1224451D01*
X84299Y1224516D01*
X84372Y1224584D01*
X84442Y1224654D01*
X84510Y1224727D01*
X84575Y1224802D01*
X84637Y1224880D01*
X84695Y1224960D01*
X84751Y1225043D01*
X84803Y1225127D01*
X84853Y1225214D01*
X84898Y1225302D01*
X84941Y1225392D01*
X84980Y1225484D01*
X85015Y1225577D01*
X85047Y1225671D01*
X85075Y1225766D01*
X85100Y1225862D01*
X85121Y1225960D01*
X85138Y1226058D01*
X85151Y1226156D01*
X85160Y1226255D01*
X85166Y1226355D01*
X85168Y1226454D01*
X82572Y1223858D02*
X82428Y1223860D01*
X82283Y1223866D01*
X82139Y1223875D01*
X81996Y1223888D01*
X81852Y1223905D01*
X81709Y1223926D01*
X81567Y1223951D01*
X81426Y1223979D01*
X81285Y1224011D01*
X81145Y1224047D01*
X81006Y1224086D01*
X80868Y1224129D01*
X80732Y1224176D01*
X80596Y1224226D01*
X80462Y1224280D01*
X80330Y1224337D01*
X80199Y1224398D01*
X80070Y1224462D01*
X79942Y1224530D01*
X79816Y1224600D01*
X79692Y1224675D01*
X79571Y1224752D01*
X79451Y1224833D01*
X79333Y1224916D01*
X79218Y1225003D01*
X79105Y1225093D01*
X78994Y1225186D01*
X78886Y1225281D01*
X78780Y1225380D01*
X78677Y1225481D01*
X79002Y1232946D02*
X79004Y1233045D01*
X79010Y1233145D01*
X79019Y1233244D01*
X79032Y1233342D01*
X79049Y1233440D01*
X79070Y1233538D01*
X79095Y1233634D01*
X79123Y1233729D01*
X79155Y1233823D01*
X79190Y1233916D01*
X79229Y1234008D01*
X79272Y1234098D01*
X79317Y1234186D01*
X79367Y1234273D01*
X79419Y1234357D01*
X79475Y1234440D01*
X79533Y1234520D01*
X79595Y1234598D01*
X79660Y1234673D01*
X79728Y1234746D01*
X79798Y1234816D01*
X79871Y1234884D01*
X79946Y1234949D01*
X80024Y1235011D01*
X80104Y1235069D01*
X80187Y1235125D01*
X80271Y1235177D01*
X80358Y1235227D01*
X80446Y1235272D01*
X80536Y1235315D01*
X80628Y1235354D01*
X80721Y1235389D01*
X80815Y1235421D01*
X80910Y1235449D01*
X81007Y1235474D01*
X81104Y1235495D01*
X81202Y1235512D01*
X81300Y1235525D01*
X81399Y1235534D01*
X81499Y1235540D01*
X81598Y1235542D01*
X81734Y1235540D01*
X81870Y1235534D01*
X82006Y1235525D01*
X82142Y1235512D01*
X82277Y1235494D01*
X82411Y1235474D01*
X82545Y1235449D01*
X82679Y1235421D01*
X82811Y1235388D01*
X82942Y1235353D01*
X83073Y1235313D01*
X83202Y1235270D01*
X83330Y1235224D01*
X83456Y1235173D01*
X83582Y1235120D01*
X83705Y1235062D01*
X83827Y1235002D01*
X83947Y1234938D01*
X84066Y1234870D01*
X84182Y1234800D01*
X84296Y1234726D01*
X84409Y1234649D01*
X84519Y1234568D01*
X80300Y1230674D02*
X80214Y1230727D01*
X80130Y1230784D01*
X80048Y1230843D01*
X79968Y1230906D01*
X79891Y1230972D01*
X79816Y1231040D01*
X79744Y1231112D01*
X79675Y1231186D01*
X79609Y1231263D01*
X79546Y1231342D01*
X79486Y1231424D01*
X79429Y1231508D01*
X79375Y1231594D01*
X79325Y1231682D01*
X79278Y1231772D01*
X79234Y1231863D01*
X79195Y1231957D01*
X79158Y1232051D01*
X79126Y1232147D01*
X79097Y1232245D01*
X79072Y1232343D01*
X79051Y1232442D01*
X79033Y1232542D01*
X79020Y1232642D01*
X79010Y1232743D01*
X79004Y1232845D01*
X79002Y1232946D01*
X83870Y1228726D02*
X83956Y1228673D01*
X84040Y1228616D01*
X84122Y1228557D01*
X84202Y1228494D01*
X84279Y1228428D01*
X84354Y1228360D01*
X84426Y1228288D01*
X84495Y1228214D01*
X84561Y1228137D01*
X84624Y1228058D01*
X84684Y1227976D01*
X84741Y1227892D01*
X84795Y1227806D01*
X84845Y1227718D01*
X84892Y1227628D01*
X84936Y1227537D01*
X84975Y1227443D01*
X85012Y1227349D01*
X85044Y1227253D01*
X85073Y1227155D01*
X85098Y1227057D01*
X85119Y1226958D01*
X85137Y1226858D01*
X85150Y1226758D01*
X85160Y1226657D01*
X85166Y1226555D01*
X85168Y1226454D01*
X83870Y1228726D02*
X80300Y1230674D01*
X92290Y1223858D02*
X94886Y1223858D01*
X92290Y1223858D02*
X92191Y1223860D01*
X92091Y1223866D01*
X91992Y1223875D01*
X91894Y1223888D01*
X91796Y1223905D01*
X91698Y1223926D01*
X91602Y1223951D01*
X91507Y1223979D01*
X91413Y1224011D01*
X91320Y1224046D01*
X91228Y1224085D01*
X91138Y1224128D01*
X91050Y1224173D01*
X90963Y1224223D01*
X90879Y1224275D01*
X90796Y1224331D01*
X90716Y1224389D01*
X90638Y1224451D01*
X90563Y1224516D01*
X90490Y1224584D01*
X90420Y1224654D01*
X90352Y1224727D01*
X90287Y1224802D01*
X90225Y1224880D01*
X90167Y1224960D01*
X90111Y1225043D01*
X90059Y1225127D01*
X90009Y1225214D01*
X89964Y1225302D01*
X89921Y1225392D01*
X89882Y1225484D01*
X89847Y1225577D01*
X89815Y1225671D01*
X89787Y1225766D01*
X89762Y1225862D01*
X89741Y1225960D01*
X89724Y1226058D01*
X89711Y1226156D01*
X89702Y1226255D01*
X89696Y1226355D01*
X89694Y1226454D01*
X89693Y1226454D02*
X89693Y1232946D01*
X89694Y1232946D02*
X89696Y1233045D01*
X89702Y1233145D01*
X89711Y1233244D01*
X89724Y1233342D01*
X89741Y1233440D01*
X89762Y1233538D01*
X89787Y1233634D01*
X89815Y1233729D01*
X89847Y1233823D01*
X89882Y1233916D01*
X89921Y1234008D01*
X89964Y1234098D01*
X90009Y1234186D01*
X90059Y1234273D01*
X90111Y1234357D01*
X90167Y1234440D01*
X90225Y1234520D01*
X90287Y1234598D01*
X90352Y1234673D01*
X90420Y1234746D01*
X90490Y1234816D01*
X90563Y1234884D01*
X90638Y1234949D01*
X90716Y1235011D01*
X90796Y1235069D01*
X90879Y1235125D01*
X90963Y1235177D01*
X91050Y1235227D01*
X91138Y1235272D01*
X91228Y1235315D01*
X91320Y1235354D01*
X91412Y1235389D01*
X91507Y1235421D01*
X91602Y1235449D01*
X91698Y1235474D01*
X91796Y1235495D01*
X91894Y1235512D01*
X91992Y1235525D01*
X92091Y1235534D01*
X92191Y1235540D01*
X92290Y1235542D01*
X94886Y1235542D01*
X99655Y1235542D02*
X99655Y1223858D01*
X104848Y1223858D01*
X58558Y1255758D02*
X58558Y1267442D01*
X61804Y1267442D01*
X61917Y1267440D01*
X62030Y1267434D01*
X62143Y1267424D01*
X62256Y1267410D01*
X62368Y1267393D01*
X62479Y1267371D01*
X62589Y1267346D01*
X62699Y1267316D01*
X62807Y1267283D01*
X62914Y1267246D01*
X63020Y1267206D01*
X63124Y1267161D01*
X63227Y1267113D01*
X63328Y1267062D01*
X63427Y1267007D01*
X63524Y1266949D01*
X63619Y1266887D01*
X63712Y1266822D01*
X63802Y1266754D01*
X63890Y1266683D01*
X63976Y1266608D01*
X64059Y1266531D01*
X64139Y1266451D01*
X64216Y1266368D01*
X64291Y1266282D01*
X64362Y1266194D01*
X64430Y1266104D01*
X64495Y1266011D01*
X64557Y1265916D01*
X64615Y1265819D01*
X64670Y1265720D01*
X64721Y1265619D01*
X64769Y1265516D01*
X64814Y1265412D01*
X64854Y1265306D01*
X64891Y1265199D01*
X64924Y1265091D01*
X64954Y1264981D01*
X64979Y1264871D01*
X65001Y1264760D01*
X65018Y1264648D01*
X65032Y1264535D01*
X65042Y1264422D01*
X65048Y1264309D01*
X65050Y1264196D01*
X65048Y1264083D01*
X65042Y1263970D01*
X65032Y1263857D01*
X65018Y1263744D01*
X65001Y1263632D01*
X64979Y1263521D01*
X64954Y1263411D01*
X64924Y1263301D01*
X64891Y1263193D01*
X64854Y1263086D01*
X64814Y1262980D01*
X64769Y1262876D01*
X64721Y1262773D01*
X64670Y1262672D01*
X64615Y1262573D01*
X64557Y1262476D01*
X64495Y1262381D01*
X64430Y1262288D01*
X64362Y1262198D01*
X64291Y1262110D01*
X64216Y1262024D01*
X64139Y1261941D01*
X64059Y1261861D01*
X63976Y1261784D01*
X63890Y1261709D01*
X63802Y1261638D01*
X63712Y1261570D01*
X63619Y1261505D01*
X63524Y1261443D01*
X63427Y1261385D01*
X63328Y1261330D01*
X63227Y1261279D01*
X63124Y1261231D01*
X63020Y1261186D01*
X62914Y1261146D01*
X62807Y1261109D01*
X62699Y1261076D01*
X62589Y1261046D01*
X62479Y1261021D01*
X62368Y1260999D01*
X62256Y1260982D01*
X62143Y1260968D01*
X62030Y1260958D01*
X61917Y1260952D01*
X61804Y1260950D01*
X61804Y1260951D02*
X58558Y1260951D01*
X62453Y1260951D02*
X65049Y1255758D01*
X69420Y1254460D02*
X74613Y1254460D01*
X82572Y1255758D02*
X82671Y1255760D01*
X82771Y1255766D01*
X82870Y1255775D01*
X82968Y1255788D01*
X83066Y1255805D01*
X83164Y1255826D01*
X83260Y1255851D01*
X83355Y1255879D01*
X83449Y1255911D01*
X83542Y1255946D01*
X83634Y1255985D01*
X83724Y1256028D01*
X83812Y1256073D01*
X83899Y1256123D01*
X83983Y1256175D01*
X84066Y1256231D01*
X84146Y1256289D01*
X84224Y1256351D01*
X84299Y1256416D01*
X84372Y1256484D01*
X84442Y1256554D01*
X84510Y1256627D01*
X84575Y1256702D01*
X84637Y1256780D01*
X84695Y1256860D01*
X84751Y1256943D01*
X84803Y1257027D01*
X84853Y1257114D01*
X84898Y1257202D01*
X84941Y1257292D01*
X84980Y1257384D01*
X85015Y1257477D01*
X85047Y1257571D01*
X85075Y1257666D01*
X85100Y1257762D01*
X85121Y1257860D01*
X85138Y1257958D01*
X85151Y1258056D01*
X85160Y1258155D01*
X85166Y1258255D01*
X85168Y1258354D01*
X82572Y1255758D02*
X82428Y1255760D01*
X82283Y1255766D01*
X82139Y1255775D01*
X81996Y1255788D01*
X81852Y1255805D01*
X81709Y1255826D01*
X81567Y1255851D01*
X81426Y1255879D01*
X81285Y1255911D01*
X81145Y1255947D01*
X81006Y1255986D01*
X80868Y1256029D01*
X80732Y1256076D01*
X80596Y1256126D01*
X80462Y1256180D01*
X80330Y1256237D01*
X80199Y1256298D01*
X80070Y1256362D01*
X79942Y1256430D01*
X79816Y1256500D01*
X79692Y1256575D01*
X79571Y1256652D01*
X79451Y1256733D01*
X79333Y1256816D01*
X79218Y1256903D01*
X79105Y1256993D01*
X78994Y1257086D01*
X78886Y1257181D01*
X78780Y1257280D01*
X78677Y1257381D01*
X79002Y1264846D02*
X79004Y1264945D01*
X79010Y1265045D01*
X79019Y1265144D01*
X79032Y1265242D01*
X79049Y1265340D01*
X79070Y1265438D01*
X79095Y1265534D01*
X79123Y1265629D01*
X79155Y1265723D01*
X79190Y1265816D01*
X79229Y1265908D01*
X79272Y1265998D01*
X79317Y1266086D01*
X79367Y1266173D01*
X79419Y1266257D01*
X79475Y1266340D01*
X79533Y1266420D01*
X79595Y1266498D01*
X79660Y1266573D01*
X79728Y1266646D01*
X79798Y1266716D01*
X79871Y1266784D01*
X79946Y1266849D01*
X80024Y1266911D01*
X80104Y1266969D01*
X80187Y1267025D01*
X80271Y1267077D01*
X80358Y1267127D01*
X80446Y1267172D01*
X80536Y1267215D01*
X80628Y1267254D01*
X80721Y1267289D01*
X80815Y1267321D01*
X80910Y1267349D01*
X81007Y1267374D01*
X81104Y1267395D01*
X81202Y1267412D01*
X81300Y1267425D01*
X81399Y1267434D01*
X81499Y1267440D01*
X81598Y1267442D01*
X81734Y1267440D01*
X81870Y1267434D01*
X82006Y1267425D01*
X82142Y1267412D01*
X82277Y1267394D01*
X82411Y1267374D01*
X82545Y1267349D01*
X82679Y1267321D01*
X82811Y1267288D01*
X82942Y1267253D01*
X83073Y1267213D01*
X83202Y1267170D01*
X83330Y1267124D01*
X83456Y1267073D01*
X83582Y1267020D01*
X83705Y1266962D01*
X83827Y1266902D01*
X83947Y1266838D01*
X84066Y1266770D01*
X84182Y1266700D01*
X84296Y1266626D01*
X84409Y1266549D01*
X84519Y1266468D01*
X80300Y1262574D02*
X80214Y1262627D01*
X80130Y1262684D01*
X80048Y1262743D01*
X79968Y1262806D01*
X79891Y1262872D01*
X79816Y1262940D01*
X79744Y1263012D01*
X79675Y1263086D01*
X79609Y1263163D01*
X79546Y1263242D01*
X79486Y1263324D01*
X79429Y1263408D01*
X79375Y1263494D01*
X79325Y1263582D01*
X79278Y1263672D01*
X79234Y1263763D01*
X79195Y1263857D01*
X79158Y1263951D01*
X79126Y1264047D01*
X79097Y1264145D01*
X79072Y1264243D01*
X79051Y1264342D01*
X79033Y1264442D01*
X79020Y1264542D01*
X79010Y1264643D01*
X79004Y1264745D01*
X79002Y1264846D01*
X83870Y1260626D02*
X83956Y1260573D01*
X84040Y1260516D01*
X84122Y1260457D01*
X84202Y1260394D01*
X84279Y1260328D01*
X84354Y1260260D01*
X84426Y1260188D01*
X84495Y1260114D01*
X84561Y1260037D01*
X84624Y1259958D01*
X84684Y1259876D01*
X84741Y1259792D01*
X84795Y1259706D01*
X84845Y1259618D01*
X84892Y1259528D01*
X84936Y1259437D01*
X84975Y1259343D01*
X85012Y1259249D01*
X85044Y1259153D01*
X85073Y1259055D01*
X85098Y1258957D01*
X85119Y1258858D01*
X85137Y1258758D01*
X85150Y1258658D01*
X85160Y1258557D01*
X85166Y1258455D01*
X85168Y1258354D01*
X83870Y1260626D02*
X80300Y1262574D01*
X90107Y1267442D02*
X90107Y1255758D01*
X90107Y1267442D02*
X93353Y1267442D01*
X93466Y1267440D01*
X93579Y1267434D01*
X93692Y1267424D01*
X93805Y1267410D01*
X93917Y1267393D01*
X94028Y1267371D01*
X94138Y1267346D01*
X94248Y1267316D01*
X94356Y1267283D01*
X94463Y1267246D01*
X94569Y1267206D01*
X94673Y1267161D01*
X94776Y1267113D01*
X94877Y1267062D01*
X94976Y1267007D01*
X95073Y1266949D01*
X95168Y1266887D01*
X95261Y1266822D01*
X95351Y1266754D01*
X95439Y1266683D01*
X95525Y1266608D01*
X95608Y1266531D01*
X95688Y1266451D01*
X95765Y1266368D01*
X95840Y1266282D01*
X95911Y1266194D01*
X95979Y1266104D01*
X96044Y1266011D01*
X96106Y1265916D01*
X96164Y1265819D01*
X96219Y1265720D01*
X96270Y1265619D01*
X96318Y1265516D01*
X96363Y1265412D01*
X96403Y1265306D01*
X96440Y1265199D01*
X96473Y1265091D01*
X96503Y1264981D01*
X96528Y1264871D01*
X96550Y1264760D01*
X96567Y1264648D01*
X96581Y1264535D01*
X96591Y1264422D01*
X96597Y1264309D01*
X96599Y1264196D01*
X96598Y1264196D02*
X96598Y1259004D01*
X96599Y1259004D02*
X96597Y1258891D01*
X96591Y1258778D01*
X96581Y1258665D01*
X96567Y1258552D01*
X96550Y1258440D01*
X96528Y1258329D01*
X96503Y1258219D01*
X96473Y1258109D01*
X96440Y1258001D01*
X96403Y1257894D01*
X96363Y1257788D01*
X96318Y1257684D01*
X96270Y1257581D01*
X96219Y1257480D01*
X96164Y1257381D01*
X96106Y1257284D01*
X96044Y1257189D01*
X95979Y1257096D01*
X95911Y1257006D01*
X95840Y1256918D01*
X95765Y1256832D01*
X95688Y1256749D01*
X95608Y1256669D01*
X95525Y1256592D01*
X95439Y1256517D01*
X95351Y1256446D01*
X95261Y1256378D01*
X95168Y1256313D01*
X95073Y1256251D01*
X94976Y1256193D01*
X94877Y1256138D01*
X94776Y1256087D01*
X94673Y1256039D01*
X94569Y1255994D01*
X94463Y1255954D01*
X94356Y1255917D01*
X94248Y1255884D01*
X94138Y1255854D01*
X94028Y1255829D01*
X93917Y1255807D01*
X93805Y1255790D01*
X93692Y1255776D01*
X93579Y1255766D01*
X93466Y1255760D01*
X93353Y1255758D01*
X90107Y1255758D01*
X101269Y1255758D02*
X105164Y1267442D01*
X109059Y1255758D01*
X108085Y1258679D02*
X102243Y1258679D01*
D14*
X469450Y182700D02*
X463100Y176350D01*
X469450Y182700D02*
X482150Y182700D01*
X488500Y176350D01*
X488500Y163650D02*
X482150Y157300D01*
X469450Y157300D01*
X463100Y163650D01*
X431350Y182700D02*
X418650Y182700D01*
X431350Y182700D02*
X437700Y176350D01*
X437700Y163650D02*
X431350Y157300D01*
X437700Y176350D02*
X444050Y182700D01*
X456750Y182700D01*
X463100Y176350D01*
X463100Y163650D02*
X456750Y157300D01*
X444050Y157300D01*
X437700Y163650D01*
X412300Y163650D02*
X412300Y176350D01*
X418650Y182700D01*
X412300Y163650D02*
X418650Y157300D01*
X431350Y157300D01*
X488500Y163650D02*
X488500Y176350D01*
D10*
X414544Y189431D02*
X412935Y184605D01*
X416152Y184605D02*
X414544Y189431D01*
X415750Y185812D02*
X413337Y185812D01*
X418933Y184605D02*
X418933Y189431D01*
X418397Y184605D02*
X419469Y184605D01*
X419469Y189431D02*
X418397Y189431D01*
X422228Y189431D02*
X422228Y184605D01*
X422228Y189431D02*
X423568Y189431D01*
X423639Y189429D01*
X423711Y189423D01*
X423781Y189414D01*
X423851Y189401D01*
X423921Y189384D01*
X423989Y189363D01*
X424056Y189339D01*
X424122Y189311D01*
X424186Y189280D01*
X424249Y189245D01*
X424309Y189207D01*
X424368Y189166D01*
X424424Y189122D01*
X424478Y189075D01*
X424529Y189026D01*
X424577Y188973D01*
X424623Y188918D01*
X424665Y188861D01*
X424705Y188801D01*
X424741Y188740D01*
X424774Y188676D01*
X424803Y188611D01*
X424829Y188545D01*
X424852Y188477D01*
X424871Y188408D01*
X424886Y188338D01*
X424897Y188268D01*
X424905Y188197D01*
X424909Y188126D01*
X424909Y188054D01*
X424905Y187983D01*
X424897Y187912D01*
X424886Y187842D01*
X424871Y187772D01*
X424852Y187703D01*
X424829Y187635D01*
X424803Y187569D01*
X424774Y187504D01*
X424741Y187440D01*
X424705Y187379D01*
X424665Y187319D01*
X424623Y187262D01*
X424577Y187207D01*
X424529Y187154D01*
X424478Y187105D01*
X424424Y187058D01*
X424368Y187014D01*
X424309Y186973D01*
X424249Y186935D01*
X424186Y186900D01*
X424122Y186869D01*
X424056Y186841D01*
X423989Y186817D01*
X423921Y186796D01*
X423851Y186779D01*
X423781Y186766D01*
X423711Y186757D01*
X423639Y186751D01*
X423568Y186749D01*
X423568Y186750D02*
X422228Y186750D01*
X423837Y186750D02*
X424909Y184605D01*
X427370Y184069D02*
X429515Y184069D01*
X432369Y187286D02*
X433710Y187286D01*
X433710Y187287D02*
X433781Y187285D01*
X433853Y187279D01*
X433923Y187270D01*
X433993Y187257D01*
X434063Y187240D01*
X434131Y187219D01*
X434198Y187195D01*
X434264Y187167D01*
X434328Y187136D01*
X434391Y187101D01*
X434451Y187063D01*
X434510Y187022D01*
X434566Y186978D01*
X434620Y186931D01*
X434671Y186882D01*
X434719Y186829D01*
X434765Y186774D01*
X434807Y186717D01*
X434847Y186657D01*
X434883Y186596D01*
X434916Y186532D01*
X434945Y186467D01*
X434971Y186401D01*
X434994Y186333D01*
X435013Y186264D01*
X435028Y186194D01*
X435039Y186124D01*
X435047Y186053D01*
X435051Y185982D01*
X435051Y185910D01*
X435047Y185839D01*
X435039Y185768D01*
X435028Y185698D01*
X435013Y185628D01*
X434994Y185559D01*
X434971Y185491D01*
X434945Y185425D01*
X434916Y185360D01*
X434883Y185296D01*
X434847Y185235D01*
X434807Y185175D01*
X434765Y185118D01*
X434719Y185063D01*
X434671Y185010D01*
X434620Y184961D01*
X434566Y184914D01*
X434510Y184870D01*
X434451Y184829D01*
X434391Y184791D01*
X434328Y184756D01*
X434264Y184725D01*
X434198Y184697D01*
X434131Y184673D01*
X434063Y184652D01*
X433993Y184635D01*
X433923Y184622D01*
X433853Y184613D01*
X433781Y184607D01*
X433710Y184605D01*
X432369Y184605D01*
X432369Y189431D01*
X433710Y189431D01*
X433775Y189429D01*
X433839Y189423D01*
X433903Y189413D01*
X433967Y189400D01*
X434029Y189382D01*
X434090Y189361D01*
X434150Y189337D01*
X434208Y189308D01*
X434265Y189276D01*
X434319Y189241D01*
X434371Y189203D01*
X434421Y189161D01*
X434468Y189117D01*
X434512Y189070D01*
X434554Y189020D01*
X434592Y188968D01*
X434627Y188914D01*
X434659Y188857D01*
X434688Y188799D01*
X434712Y188739D01*
X434733Y188678D01*
X434751Y188616D01*
X434764Y188552D01*
X434774Y188488D01*
X434780Y188424D01*
X434782Y188359D01*
X434780Y188294D01*
X434774Y188230D01*
X434764Y188166D01*
X434751Y188102D01*
X434733Y188040D01*
X434712Y187979D01*
X434688Y187919D01*
X434659Y187861D01*
X434627Y187804D01*
X434592Y187750D01*
X434554Y187698D01*
X434512Y187648D01*
X434468Y187601D01*
X434421Y187557D01*
X434371Y187515D01*
X434319Y187477D01*
X434265Y187442D01*
X434208Y187410D01*
X434150Y187381D01*
X434090Y187357D01*
X434029Y187336D01*
X433967Y187318D01*
X433903Y187305D01*
X433839Y187295D01*
X433775Y187289D01*
X433710Y187287D01*
X437773Y189431D02*
X437773Y184605D01*
X437773Y189431D02*
X439113Y189431D01*
X439184Y189429D01*
X439256Y189423D01*
X439326Y189414D01*
X439396Y189401D01*
X439466Y189384D01*
X439534Y189363D01*
X439601Y189339D01*
X439667Y189311D01*
X439731Y189280D01*
X439794Y189245D01*
X439854Y189207D01*
X439913Y189166D01*
X439969Y189122D01*
X440023Y189075D01*
X440074Y189026D01*
X440122Y188973D01*
X440168Y188918D01*
X440210Y188861D01*
X440250Y188801D01*
X440286Y188740D01*
X440319Y188676D01*
X440348Y188611D01*
X440374Y188545D01*
X440397Y188477D01*
X440416Y188408D01*
X440431Y188338D01*
X440442Y188268D01*
X440450Y188197D01*
X440454Y188126D01*
X440454Y188054D01*
X440450Y187983D01*
X440442Y187912D01*
X440431Y187842D01*
X440416Y187772D01*
X440397Y187703D01*
X440374Y187635D01*
X440348Y187569D01*
X440319Y187504D01*
X440286Y187440D01*
X440250Y187379D01*
X440210Y187319D01*
X440168Y187262D01*
X440122Y187207D01*
X440074Y187154D01*
X440023Y187105D01*
X439969Y187058D01*
X439913Y187014D01*
X439854Y186973D01*
X439794Y186935D01*
X439731Y186900D01*
X439667Y186869D01*
X439601Y186841D01*
X439534Y186817D01*
X439466Y186796D01*
X439396Y186779D01*
X439326Y186766D01*
X439256Y186757D01*
X439184Y186751D01*
X439113Y186749D01*
X439113Y186750D02*
X437773Y186750D01*
X439381Y186750D02*
X440454Y184605D01*
X442927Y184605D02*
X444536Y189431D01*
X446144Y184605D01*
X445742Y185812D02*
X443329Y185812D01*
X449011Y184605D02*
X449011Y189431D01*
X451692Y189431D02*
X449011Y186482D01*
X450083Y187554D02*
X451692Y184605D01*
X454370Y184605D02*
X456515Y184605D01*
X454370Y184605D02*
X454370Y189431D01*
X456515Y189431D01*
X455979Y187286D02*
X454370Y187286D01*
D13*
X67408Y1177654D02*
X67408Y1186092D01*
X67408Y1177654D02*
X67410Y1177541D01*
X67416Y1177428D01*
X67426Y1177315D01*
X67440Y1177202D01*
X67457Y1177090D01*
X67479Y1176979D01*
X67504Y1176869D01*
X67534Y1176759D01*
X67567Y1176651D01*
X67604Y1176544D01*
X67644Y1176438D01*
X67689Y1176334D01*
X67737Y1176231D01*
X67788Y1176130D01*
X67843Y1176031D01*
X67901Y1175934D01*
X67963Y1175839D01*
X68028Y1175746D01*
X68096Y1175656D01*
X68167Y1175568D01*
X68242Y1175482D01*
X68319Y1175399D01*
X68399Y1175319D01*
X68482Y1175242D01*
X68568Y1175167D01*
X68656Y1175096D01*
X68746Y1175028D01*
X68839Y1174963D01*
X68934Y1174901D01*
X69031Y1174843D01*
X69130Y1174788D01*
X69231Y1174737D01*
X69334Y1174689D01*
X69438Y1174644D01*
X69544Y1174604D01*
X69651Y1174567D01*
X69759Y1174534D01*
X69869Y1174504D01*
X69979Y1174479D01*
X70090Y1174457D01*
X70202Y1174440D01*
X70315Y1174426D01*
X70428Y1174416D01*
X70541Y1174410D01*
X70654Y1174408D01*
X70767Y1174410D01*
X70880Y1174416D01*
X70993Y1174426D01*
X71106Y1174440D01*
X71218Y1174457D01*
X71329Y1174479D01*
X71439Y1174504D01*
X71549Y1174534D01*
X71657Y1174567D01*
X71764Y1174604D01*
X71870Y1174644D01*
X71974Y1174689D01*
X72077Y1174737D01*
X72178Y1174788D01*
X72277Y1174843D01*
X72374Y1174901D01*
X72469Y1174963D01*
X72562Y1175028D01*
X72652Y1175096D01*
X72740Y1175167D01*
X72826Y1175242D01*
X72909Y1175319D01*
X72989Y1175399D01*
X73066Y1175482D01*
X73141Y1175568D01*
X73212Y1175656D01*
X73280Y1175746D01*
X73345Y1175839D01*
X73407Y1175934D01*
X73465Y1176031D01*
X73520Y1176130D01*
X73571Y1176231D01*
X73619Y1176334D01*
X73664Y1176438D01*
X73704Y1176544D01*
X73741Y1176651D01*
X73774Y1176759D01*
X73804Y1176869D01*
X73829Y1176979D01*
X73851Y1177090D01*
X73868Y1177202D01*
X73882Y1177315D01*
X73892Y1177428D01*
X73898Y1177541D01*
X73900Y1177654D01*
X73899Y1177654D02*
X73899Y1186092D01*
X81703Y1186092D02*
X81703Y1174408D01*
X81703Y1180250D02*
X80080Y1181224D01*
X80079Y1181223D02*
X80006Y1181270D01*
X79935Y1181319D01*
X79865Y1181372D01*
X79799Y1181428D01*
X79735Y1181487D01*
X79673Y1181548D01*
X79615Y1181612D01*
X79559Y1181679D01*
X79507Y1181748D01*
X79457Y1181820D01*
X79411Y1181894D01*
X79368Y1181969D01*
X79329Y1182047D01*
X79293Y1182126D01*
X79261Y1182207D01*
X79232Y1182289D01*
X79207Y1182372D01*
X79186Y1182456D01*
X79169Y1182541D01*
X79155Y1182627D01*
X79146Y1182713D01*
X79140Y1182800D01*
X79138Y1182887D01*
X79140Y1182974D01*
X79146Y1183061D01*
X79156Y1183147D01*
X79169Y1183233D01*
X79187Y1183318D01*
X79208Y1183402D01*
X79233Y1183485D01*
X79262Y1183568D01*
X79294Y1183648D01*
X79330Y1183727D01*
X79369Y1183805D01*
X79412Y1183880D01*
X79459Y1183954D01*
X79508Y1184025D01*
X79561Y1184095D01*
X79616Y1184161D01*
X79675Y1184225D01*
X79736Y1184287D01*
X79801Y1184346D01*
X79867Y1184401D01*
X79936Y1184454D01*
X80008Y1184504D01*
X80081Y1184550D01*
X80157Y1184593D01*
X80234Y1184632D01*
X80313Y1184668D01*
X80394Y1184701D01*
X80476Y1184729D01*
X80559Y1184755D01*
X80643Y1184776D01*
X80729Y1184793D01*
X80729Y1184794D02*
X80869Y1184818D01*
X81011Y1184838D01*
X81152Y1184854D01*
X81294Y1184865D01*
X81437Y1184873D01*
X81579Y1184877D01*
X81722Y1184878D01*
X81865Y1184874D01*
X82007Y1184866D01*
X82149Y1184854D01*
X82291Y1184838D01*
X82432Y1184819D01*
X82573Y1184795D01*
X82713Y1184768D01*
X82852Y1184736D01*
X82990Y1184701D01*
X83128Y1184662D01*
X83264Y1184619D01*
X83398Y1184573D01*
X83532Y1184522D01*
X83664Y1184469D01*
X83794Y1184411D01*
X83923Y1184350D01*
X84050Y1184285D01*
X84176Y1184217D01*
X84299Y1184145D01*
X81703Y1180250D02*
X83325Y1179276D01*
X83326Y1179277D02*
X83399Y1179230D01*
X83470Y1179181D01*
X83540Y1179128D01*
X83606Y1179072D01*
X83670Y1179013D01*
X83732Y1178952D01*
X83790Y1178888D01*
X83846Y1178821D01*
X83898Y1178752D01*
X83948Y1178680D01*
X83994Y1178606D01*
X84037Y1178531D01*
X84076Y1178453D01*
X84112Y1178374D01*
X84144Y1178293D01*
X84173Y1178211D01*
X84198Y1178128D01*
X84219Y1178044D01*
X84236Y1177959D01*
X84250Y1177873D01*
X84259Y1177787D01*
X84265Y1177700D01*
X84267Y1177613D01*
X84265Y1177526D01*
X84259Y1177439D01*
X84249Y1177353D01*
X84236Y1177267D01*
X84218Y1177182D01*
X84197Y1177098D01*
X84172Y1177015D01*
X84143Y1176932D01*
X84111Y1176852D01*
X84075Y1176773D01*
X84036Y1176695D01*
X83993Y1176620D01*
X83946Y1176546D01*
X83897Y1176475D01*
X83844Y1176405D01*
X83789Y1176339D01*
X83730Y1176275D01*
X83669Y1176213D01*
X83604Y1176154D01*
X83538Y1176099D01*
X83469Y1176046D01*
X83397Y1175996D01*
X83324Y1175950D01*
X83248Y1175907D01*
X83171Y1175868D01*
X83092Y1175832D01*
X83011Y1175799D01*
X82929Y1175771D01*
X82846Y1175745D01*
X82762Y1175724D01*
X82677Y1175707D01*
X82676Y1175706D02*
X82536Y1175682D01*
X82394Y1175662D01*
X82253Y1175646D01*
X82111Y1175635D01*
X81968Y1175627D01*
X81826Y1175623D01*
X81683Y1175622D01*
X81540Y1175626D01*
X81398Y1175634D01*
X81256Y1175646D01*
X81114Y1175662D01*
X80973Y1175681D01*
X80832Y1175705D01*
X80692Y1175732D01*
X80553Y1175764D01*
X80415Y1175799D01*
X80277Y1175838D01*
X80141Y1175881D01*
X80007Y1175927D01*
X79873Y1175978D01*
X79741Y1176031D01*
X79611Y1176089D01*
X79482Y1176150D01*
X79355Y1176215D01*
X79229Y1176283D01*
X79106Y1176355D01*
X92695Y1186092D02*
X92802Y1186090D01*
X92908Y1186084D01*
X93014Y1186074D01*
X93120Y1186061D01*
X93226Y1186043D01*
X93330Y1186022D01*
X93434Y1185997D01*
X93537Y1185968D01*
X93638Y1185936D01*
X93738Y1185899D01*
X93837Y1185859D01*
X93935Y1185816D01*
X94031Y1185769D01*
X94125Y1185718D01*
X94217Y1185664D01*
X94307Y1185607D01*
X94395Y1185547D01*
X94480Y1185483D01*
X94563Y1185416D01*
X94644Y1185346D01*
X94722Y1185274D01*
X94798Y1185198D01*
X94870Y1185120D01*
X94940Y1185039D01*
X95007Y1184956D01*
X95071Y1184871D01*
X95131Y1184783D01*
X95188Y1184693D01*
X95242Y1184601D01*
X95293Y1184507D01*
X95340Y1184411D01*
X95383Y1184313D01*
X95423Y1184214D01*
X95460Y1184114D01*
X95492Y1184013D01*
X95521Y1183910D01*
X95546Y1183806D01*
X95567Y1183702D01*
X95585Y1183596D01*
X95598Y1183490D01*
X95608Y1183384D01*
X95614Y1183278D01*
X95616Y1183171D01*
X92695Y1186092D02*
X92574Y1186090D01*
X92453Y1186084D01*
X92333Y1186074D01*
X92212Y1186061D01*
X92093Y1186043D01*
X91973Y1186022D01*
X91855Y1185997D01*
X91738Y1185968D01*
X91621Y1185935D01*
X91506Y1185899D01*
X91392Y1185858D01*
X91279Y1185815D01*
X91167Y1185767D01*
X91058Y1185716D01*
X90950Y1185661D01*
X90843Y1185603D01*
X90739Y1185542D01*
X90637Y1185477D01*
X90537Y1185409D01*
X90439Y1185338D01*
X90343Y1185264D01*
X90250Y1185187D01*
X90160Y1185106D01*
X90072Y1185023D01*
X89987Y1184937D01*
X89904Y1184848D01*
X89825Y1184757D01*
X89748Y1184663D01*
X89675Y1184567D01*
X89605Y1184469D01*
X89538Y1184368D01*
X89474Y1184265D01*
X89414Y1184160D01*
X89357Y1184053D01*
X89303Y1183945D01*
X89253Y1183835D01*
X89207Y1183723D01*
X89164Y1183610D01*
X89125Y1183495D01*
X94643Y1180899D02*
X94722Y1180976D01*
X94798Y1181057D01*
X94871Y1181140D01*
X94941Y1181225D01*
X95008Y1181313D01*
X95072Y1181403D01*
X95132Y1181495D01*
X95189Y1181590D01*
X95243Y1181686D01*
X95294Y1181784D01*
X95341Y1181884D01*
X95385Y1181986D01*
X95425Y1182089D01*
X95461Y1182193D01*
X95493Y1182299D01*
X95522Y1182405D01*
X95547Y1182513D01*
X95569Y1182621D01*
X95586Y1182731D01*
X95600Y1182840D01*
X95609Y1182950D01*
X95615Y1183061D01*
X95617Y1183171D01*
X94642Y1180899D02*
X89125Y1174408D01*
X95616Y1174408D01*
D10*
X350000Y293500D02*
X550000Y293500D01*
X350000Y293500D02*
X350000Y576500D01*
X550000Y576500D01*
X550000Y293500D01*
D13*
X460654Y287680D02*
X460654Y279242D01*
X460653Y279242D02*
X460655Y279129D01*
X460661Y279016D01*
X460671Y278903D01*
X460685Y278790D01*
X460702Y278678D01*
X460724Y278567D01*
X460749Y278457D01*
X460779Y278347D01*
X460812Y278239D01*
X460849Y278132D01*
X460889Y278026D01*
X460934Y277922D01*
X460982Y277819D01*
X461033Y277718D01*
X461088Y277619D01*
X461146Y277522D01*
X461208Y277427D01*
X461273Y277334D01*
X461341Y277244D01*
X461412Y277156D01*
X461487Y277070D01*
X461564Y276987D01*
X461644Y276907D01*
X461727Y276830D01*
X461813Y276755D01*
X461901Y276684D01*
X461991Y276616D01*
X462084Y276551D01*
X462179Y276489D01*
X462276Y276431D01*
X462375Y276376D01*
X462476Y276325D01*
X462579Y276277D01*
X462683Y276232D01*
X462789Y276192D01*
X462896Y276155D01*
X463004Y276122D01*
X463114Y276092D01*
X463224Y276067D01*
X463335Y276045D01*
X463447Y276028D01*
X463560Y276014D01*
X463673Y276004D01*
X463786Y275998D01*
X463899Y275996D01*
X464012Y275998D01*
X464125Y276004D01*
X464238Y276014D01*
X464351Y276028D01*
X464463Y276045D01*
X464574Y276067D01*
X464684Y276092D01*
X464794Y276122D01*
X464902Y276155D01*
X465009Y276192D01*
X465115Y276232D01*
X465219Y276277D01*
X465322Y276325D01*
X465423Y276376D01*
X465522Y276431D01*
X465619Y276489D01*
X465714Y276551D01*
X465807Y276616D01*
X465897Y276684D01*
X465985Y276755D01*
X466071Y276830D01*
X466154Y276907D01*
X466234Y276987D01*
X466311Y277070D01*
X466386Y277156D01*
X466457Y277244D01*
X466525Y277334D01*
X466590Y277427D01*
X466652Y277522D01*
X466710Y277619D01*
X466765Y277718D01*
X466816Y277819D01*
X466864Y277922D01*
X466909Y278026D01*
X466949Y278132D01*
X466986Y278239D01*
X467019Y278347D01*
X467049Y278457D01*
X467074Y278567D01*
X467096Y278678D01*
X467113Y278790D01*
X467127Y278903D01*
X467137Y279016D01*
X467143Y279129D01*
X467145Y279242D01*
X467145Y287680D01*
X474948Y287680D02*
X474948Y275996D01*
X474948Y281838D02*
X473326Y282812D01*
X473325Y282811D02*
X473252Y282858D01*
X473181Y282907D01*
X473111Y282960D01*
X473045Y283016D01*
X472981Y283075D01*
X472919Y283136D01*
X472861Y283200D01*
X472805Y283267D01*
X472753Y283336D01*
X472703Y283408D01*
X472657Y283482D01*
X472614Y283557D01*
X472575Y283635D01*
X472539Y283714D01*
X472507Y283795D01*
X472478Y283877D01*
X472453Y283960D01*
X472432Y284044D01*
X472415Y284129D01*
X472401Y284215D01*
X472392Y284301D01*
X472386Y284388D01*
X472384Y284475D01*
X472386Y284562D01*
X472392Y284649D01*
X472402Y284735D01*
X472415Y284821D01*
X472433Y284906D01*
X472454Y284990D01*
X472479Y285073D01*
X472508Y285156D01*
X472540Y285236D01*
X472576Y285315D01*
X472615Y285393D01*
X472658Y285468D01*
X472705Y285542D01*
X472754Y285613D01*
X472807Y285683D01*
X472862Y285749D01*
X472921Y285813D01*
X472982Y285875D01*
X473047Y285934D01*
X473113Y285989D01*
X473182Y286042D01*
X473254Y286092D01*
X473327Y286138D01*
X473403Y286181D01*
X473480Y286220D01*
X473559Y286256D01*
X473640Y286289D01*
X473722Y286317D01*
X473805Y286343D01*
X473889Y286364D01*
X473975Y286381D01*
X473975Y286382D02*
X474115Y286406D01*
X474257Y286426D01*
X474398Y286442D01*
X474540Y286453D01*
X474683Y286461D01*
X474825Y286465D01*
X474968Y286466D01*
X475111Y286462D01*
X475253Y286454D01*
X475395Y286442D01*
X475537Y286426D01*
X475678Y286407D01*
X475819Y286383D01*
X475959Y286356D01*
X476098Y286324D01*
X476236Y286289D01*
X476374Y286250D01*
X476510Y286207D01*
X476644Y286161D01*
X476778Y286110D01*
X476910Y286057D01*
X477040Y285999D01*
X477169Y285938D01*
X477296Y285873D01*
X477422Y285805D01*
X477545Y285733D01*
X474948Y281838D02*
X476571Y280864D01*
X476572Y280865D02*
X476645Y280818D01*
X476716Y280769D01*
X476786Y280716D01*
X476852Y280660D01*
X476916Y280601D01*
X476978Y280540D01*
X477036Y280476D01*
X477092Y280409D01*
X477144Y280340D01*
X477194Y280268D01*
X477240Y280194D01*
X477283Y280119D01*
X477322Y280041D01*
X477358Y279962D01*
X477390Y279881D01*
X477419Y279799D01*
X477444Y279716D01*
X477465Y279632D01*
X477482Y279547D01*
X477496Y279461D01*
X477505Y279375D01*
X477511Y279288D01*
X477513Y279201D01*
X477511Y279114D01*
X477505Y279027D01*
X477495Y278941D01*
X477482Y278855D01*
X477464Y278770D01*
X477443Y278686D01*
X477418Y278603D01*
X477389Y278520D01*
X477357Y278440D01*
X477321Y278361D01*
X477282Y278283D01*
X477239Y278208D01*
X477192Y278134D01*
X477143Y278063D01*
X477090Y277993D01*
X477035Y277927D01*
X476976Y277863D01*
X476915Y277801D01*
X476850Y277742D01*
X476784Y277687D01*
X476715Y277634D01*
X476643Y277584D01*
X476570Y277538D01*
X476494Y277495D01*
X476417Y277456D01*
X476338Y277420D01*
X476257Y277387D01*
X476175Y277359D01*
X476092Y277333D01*
X476008Y277312D01*
X475923Y277295D01*
X475922Y277294D02*
X475782Y277270D01*
X475640Y277250D01*
X475499Y277234D01*
X475357Y277223D01*
X475214Y277215D01*
X475072Y277211D01*
X474929Y277210D01*
X474786Y277214D01*
X474644Y277222D01*
X474502Y277234D01*
X474360Y277250D01*
X474219Y277269D01*
X474078Y277293D01*
X473938Y277320D01*
X473799Y277352D01*
X473661Y277387D01*
X473523Y277426D01*
X473387Y277469D01*
X473253Y277515D01*
X473119Y277566D01*
X472987Y277619D01*
X472857Y277677D01*
X472728Y277738D01*
X472601Y277803D01*
X472475Y277871D01*
X472352Y277943D01*
X482371Y275996D02*
X486266Y275996D01*
X486365Y275998D01*
X486465Y276004D01*
X486564Y276013D01*
X486662Y276026D01*
X486760Y276043D01*
X486858Y276064D01*
X486954Y276089D01*
X487049Y276117D01*
X487143Y276149D01*
X487236Y276184D01*
X487328Y276223D01*
X487418Y276266D01*
X487506Y276311D01*
X487593Y276361D01*
X487677Y276413D01*
X487760Y276469D01*
X487840Y276527D01*
X487918Y276589D01*
X487993Y276654D01*
X488066Y276722D01*
X488136Y276792D01*
X488204Y276865D01*
X488269Y276940D01*
X488331Y277018D01*
X488389Y277098D01*
X488445Y277181D01*
X488497Y277265D01*
X488547Y277352D01*
X488592Y277440D01*
X488635Y277530D01*
X488674Y277622D01*
X488709Y277715D01*
X488741Y277809D01*
X488769Y277904D01*
X488794Y278000D01*
X488815Y278098D01*
X488832Y278196D01*
X488845Y278294D01*
X488854Y278393D01*
X488860Y278493D01*
X488862Y278592D01*
X488862Y279891D01*
X488860Y279990D01*
X488854Y280090D01*
X488845Y280189D01*
X488832Y280287D01*
X488815Y280385D01*
X488794Y280483D01*
X488769Y280579D01*
X488741Y280674D01*
X488709Y280768D01*
X488674Y280861D01*
X488635Y280953D01*
X488592Y281043D01*
X488547Y281131D01*
X488497Y281218D01*
X488445Y281302D01*
X488389Y281385D01*
X488331Y281465D01*
X488269Y281543D01*
X488204Y281618D01*
X488136Y281691D01*
X488066Y281761D01*
X487993Y281829D01*
X487918Y281894D01*
X487840Y281956D01*
X487760Y282014D01*
X487677Y282070D01*
X487593Y282122D01*
X487506Y282172D01*
X487418Y282217D01*
X487328Y282260D01*
X487236Y282299D01*
X487143Y282334D01*
X487049Y282366D01*
X486954Y282394D01*
X486858Y282419D01*
X486760Y282440D01*
X486662Y282457D01*
X486564Y282470D01*
X486465Y282479D01*
X486365Y282485D01*
X486266Y282487D01*
X482371Y282487D01*
X482371Y287680D01*
X488862Y287680D01*
D15*
X340000Y140300D02*
X40000Y140300D01*
X40000Y626500D01*
X340000Y626500D01*
X340000Y140300D01*
X99238Y151062D02*
X82982Y156481D01*
X99238Y161899D01*
X95174Y160545D02*
X95174Y152417D01*
X99238Y168117D02*
X82982Y168117D01*
X99238Y177149D01*
X82982Y177149D01*
X82982Y187743D02*
X99238Y187743D01*
X82982Y183228D02*
X82982Y192259D01*
X99238Y198368D02*
X99238Y205593D01*
X99238Y198368D02*
X82982Y198368D01*
X82982Y205593D01*
X90207Y203786D02*
X90207Y198368D01*
X82982Y211885D02*
X99238Y211885D01*
X99238Y220916D02*
X82982Y211885D01*
X82982Y220916D02*
X99238Y220916D01*
X99238Y228558D02*
X82982Y228558D01*
X99238Y237589D01*
X82982Y237589D01*
X82982Y249226D02*
X99238Y243807D01*
X99238Y254645D02*
X82982Y249226D01*
X95174Y253290D02*
X95174Y245162D01*
X272982Y156481D02*
X289238Y151062D01*
X289238Y161899D02*
X272982Y156481D01*
X285174Y160545D02*
X285174Y152417D01*
X289238Y168117D02*
X272982Y168117D01*
X289238Y177149D01*
X272982Y177149D01*
X272982Y187743D02*
X289238Y187743D01*
X272982Y183228D02*
X272982Y192259D01*
X289238Y198368D02*
X289238Y205593D01*
X289238Y198368D02*
X272982Y198368D01*
X272982Y205593D01*
X280207Y203786D02*
X280207Y198368D01*
X272982Y211885D02*
X289238Y211885D01*
X289238Y220916D02*
X272982Y211885D01*
X272982Y220916D02*
X289238Y220916D01*
X289238Y228558D02*
X272982Y228558D01*
X289238Y237589D01*
X272982Y237589D01*
X272982Y249226D02*
X289238Y243807D01*
X289238Y254645D02*
X272982Y249226D01*
X285174Y253290D02*
X285174Y245162D01*
X162026Y704982D02*
X162026Y721238D01*
X169251Y721238D01*
X169251Y714013D02*
X162026Y714013D01*
X178496Y721238D02*
X178496Y704982D01*
X173980Y721238D02*
X183011Y721238D01*
X189090Y721238D02*
X189090Y704982D01*
X189090Y721238D02*
X193606Y721238D01*
X193737Y721236D01*
X193869Y721230D01*
X194000Y721221D01*
X194130Y721207D01*
X194261Y721190D01*
X194390Y721169D01*
X194519Y721145D01*
X194647Y721116D01*
X194775Y721084D01*
X194901Y721048D01*
X195026Y721009D01*
X195151Y720966D01*
X195273Y720919D01*
X195395Y720869D01*
X195515Y720815D01*
X195633Y720758D01*
X195749Y720697D01*
X195864Y720633D01*
X195977Y720566D01*
X196088Y720495D01*
X196196Y720421D01*
X196303Y720344D01*
X196407Y720264D01*
X196509Y720181D01*
X196608Y720096D01*
X196705Y720007D01*
X196799Y719915D01*
X196891Y719821D01*
X196980Y719724D01*
X197065Y719625D01*
X197148Y719523D01*
X197228Y719419D01*
X197305Y719312D01*
X197379Y719204D01*
X197450Y719093D01*
X197517Y718980D01*
X197581Y718865D01*
X197642Y718749D01*
X197699Y718631D01*
X197753Y718511D01*
X197803Y718389D01*
X197850Y718267D01*
X197893Y718142D01*
X197932Y718017D01*
X197968Y717891D01*
X198000Y717763D01*
X198029Y717635D01*
X198053Y717506D01*
X198074Y717377D01*
X198091Y717246D01*
X198105Y717116D01*
X198114Y716985D01*
X198120Y716853D01*
X198122Y716722D01*
X198121Y716722D02*
X198121Y709498D01*
X198122Y709498D02*
X198120Y709367D01*
X198114Y709235D01*
X198105Y709104D01*
X198091Y708974D01*
X198074Y708843D01*
X198053Y708714D01*
X198029Y708585D01*
X198000Y708457D01*
X197968Y708329D01*
X197932Y708203D01*
X197893Y708078D01*
X197850Y707953D01*
X197803Y707831D01*
X197753Y707709D01*
X197699Y707589D01*
X197642Y707471D01*
X197581Y707355D01*
X197517Y707240D01*
X197450Y707127D01*
X197379Y707016D01*
X197305Y706908D01*
X197228Y706801D01*
X197148Y706697D01*
X197065Y706595D01*
X196980Y706496D01*
X196891Y706399D01*
X196799Y706305D01*
X196705Y706213D01*
X196608Y706124D01*
X196509Y706039D01*
X196407Y705956D01*
X196303Y705876D01*
X196196Y705799D01*
X196088Y705725D01*
X195977Y705654D01*
X195864Y705587D01*
X195749Y705523D01*
X195633Y705462D01*
X195515Y705405D01*
X195395Y705351D01*
X195273Y705301D01*
X195151Y705254D01*
X195026Y705211D01*
X194901Y705172D01*
X194775Y705136D01*
X194647Y705104D01*
X194519Y705075D01*
X194390Y705051D01*
X194260Y705030D01*
X194130Y705013D01*
X194000Y704999D01*
X193869Y704990D01*
X193737Y704984D01*
X193606Y704982D01*
X189090Y704982D01*
X206632Y704982D02*
X206632Y721238D01*
X204826Y704982D02*
X208438Y704982D01*
X208438Y721238D02*
X204826Y721238D01*
X391782Y609532D02*
X400418Y612411D01*
X391782Y615289D01*
X391782Y619726D02*
X400418Y619726D01*
X400418Y620685D02*
X400418Y618766D01*
X391782Y618766D02*
X391782Y620685D01*
X391782Y624947D02*
X400418Y624947D01*
X400418Y629745D02*
X391782Y624947D01*
X391782Y629745D02*
X400418Y629745D01*
X425818Y611931D02*
X425818Y609532D01*
X425818Y611931D02*
X425816Y612028D01*
X425810Y612124D01*
X425801Y612220D01*
X425787Y612316D01*
X425770Y612411D01*
X425748Y612505D01*
X425723Y612598D01*
X425695Y612691D01*
X425662Y612782D01*
X425626Y612871D01*
X425586Y612959D01*
X425543Y613046D01*
X425497Y613131D01*
X425447Y613213D01*
X425393Y613294D01*
X425337Y613372D01*
X425277Y613448D01*
X425215Y613522D01*
X425149Y613593D01*
X425081Y613661D01*
X425010Y613727D01*
X424936Y613789D01*
X424860Y613849D01*
X424782Y613905D01*
X424701Y613959D01*
X424619Y614009D01*
X424534Y614055D01*
X424447Y614098D01*
X424359Y614138D01*
X424270Y614174D01*
X424179Y614207D01*
X424086Y614235D01*
X423993Y614260D01*
X423899Y614282D01*
X423804Y614299D01*
X423708Y614313D01*
X423612Y614322D01*
X423516Y614328D01*
X423419Y614330D01*
X423322Y614328D01*
X423226Y614322D01*
X423130Y614313D01*
X423034Y614299D01*
X422939Y614282D01*
X422845Y614260D01*
X422752Y614235D01*
X422659Y614207D01*
X422568Y614174D01*
X422479Y614138D01*
X422391Y614098D01*
X422304Y614055D01*
X422220Y614009D01*
X422137Y613959D01*
X422056Y613905D01*
X421978Y613849D01*
X421902Y613789D01*
X421828Y613727D01*
X421757Y613661D01*
X421689Y613593D01*
X421623Y613522D01*
X421561Y613448D01*
X421501Y613372D01*
X421445Y613294D01*
X421391Y613213D01*
X421341Y613131D01*
X421295Y613046D01*
X421252Y612959D01*
X421212Y612871D01*
X421176Y612782D01*
X421143Y612691D01*
X421115Y612598D01*
X421090Y612505D01*
X421068Y612411D01*
X421051Y612316D01*
X421037Y612220D01*
X421028Y612124D01*
X421022Y612028D01*
X421020Y611931D01*
X417182Y612411D02*
X417182Y609532D01*
X417182Y612411D02*
X417184Y612497D01*
X417190Y612583D01*
X417199Y612669D01*
X417213Y612754D01*
X417230Y612838D01*
X417251Y612922D01*
X417276Y613004D01*
X417304Y613085D01*
X417336Y613165D01*
X417372Y613244D01*
X417411Y613320D01*
X417454Y613395D01*
X417499Y613468D01*
X417548Y613539D01*
X417601Y613607D01*
X417656Y613674D01*
X417714Y613737D01*
X417775Y613798D01*
X417838Y613856D01*
X417905Y613911D01*
X417973Y613964D01*
X418044Y614013D01*
X418117Y614058D01*
X418192Y614101D01*
X418268Y614140D01*
X418347Y614176D01*
X418427Y614208D01*
X418508Y614236D01*
X418590Y614261D01*
X418674Y614282D01*
X418758Y614299D01*
X418843Y614313D01*
X418929Y614322D01*
X419015Y614328D01*
X419101Y614330D01*
X419187Y614328D01*
X419273Y614322D01*
X419359Y614313D01*
X419444Y614299D01*
X419528Y614282D01*
X419612Y614261D01*
X419694Y614236D01*
X419775Y614208D01*
X419855Y614176D01*
X419934Y614140D01*
X420010Y614101D01*
X420085Y614058D01*
X420158Y614013D01*
X420229Y613964D01*
X420297Y613911D01*
X420364Y613856D01*
X420427Y613798D01*
X420488Y613737D01*
X420546Y613674D01*
X420601Y613607D01*
X420654Y613539D01*
X420703Y613468D01*
X420748Y613395D01*
X420791Y613320D01*
X420830Y613244D01*
X420866Y613165D01*
X420898Y613085D01*
X420926Y613004D01*
X420951Y612922D01*
X420972Y612838D01*
X420989Y612754D01*
X421003Y612669D01*
X421012Y612583D01*
X421018Y612497D01*
X421020Y612411D01*
X421020Y610492D01*
X417182Y618196D02*
X425818Y621075D01*
X417182Y623954D01*
X421980Y627690D02*
X423899Y627690D01*
X421980Y627690D02*
X421894Y627692D01*
X421808Y627698D01*
X421722Y627707D01*
X421637Y627721D01*
X421553Y627738D01*
X421469Y627759D01*
X421387Y627784D01*
X421306Y627812D01*
X421226Y627844D01*
X421147Y627880D01*
X421071Y627919D01*
X420996Y627962D01*
X420923Y628007D01*
X420852Y628056D01*
X420784Y628109D01*
X420717Y628164D01*
X420654Y628222D01*
X420593Y628283D01*
X420535Y628346D01*
X420480Y628413D01*
X420427Y628481D01*
X420378Y628552D01*
X420333Y628625D01*
X420290Y628700D01*
X420251Y628776D01*
X420215Y628855D01*
X420183Y628935D01*
X420155Y629016D01*
X420130Y629098D01*
X420109Y629182D01*
X420092Y629266D01*
X420078Y629351D01*
X420069Y629437D01*
X420063Y629523D01*
X420061Y629609D01*
X420063Y629695D01*
X420069Y629781D01*
X420078Y629867D01*
X420092Y629952D01*
X420109Y630036D01*
X420130Y630120D01*
X420155Y630202D01*
X420183Y630283D01*
X420215Y630363D01*
X420251Y630442D01*
X420290Y630518D01*
X420333Y630593D01*
X420378Y630666D01*
X420427Y630737D01*
X420480Y630805D01*
X420535Y630872D01*
X420593Y630935D01*
X420654Y630996D01*
X420717Y631054D01*
X420784Y631109D01*
X420852Y631162D01*
X420923Y631211D01*
X420996Y631256D01*
X421071Y631299D01*
X421147Y631338D01*
X421226Y631374D01*
X421306Y631406D01*
X421387Y631434D01*
X421469Y631459D01*
X421553Y631480D01*
X421637Y631497D01*
X421722Y631511D01*
X421808Y631520D01*
X421894Y631526D01*
X421980Y631528D01*
X423899Y631528D01*
X423985Y631526D01*
X424071Y631520D01*
X424157Y631511D01*
X424242Y631497D01*
X424326Y631480D01*
X424410Y631459D01*
X424492Y631434D01*
X424573Y631406D01*
X424653Y631374D01*
X424732Y631338D01*
X424808Y631299D01*
X424883Y631256D01*
X424956Y631211D01*
X425027Y631162D01*
X425095Y631109D01*
X425162Y631054D01*
X425225Y630996D01*
X425286Y630935D01*
X425344Y630872D01*
X425399Y630805D01*
X425452Y630737D01*
X425501Y630666D01*
X425546Y630593D01*
X425589Y630518D01*
X425628Y630442D01*
X425664Y630363D01*
X425696Y630283D01*
X425724Y630202D01*
X425749Y630120D01*
X425770Y630036D01*
X425787Y629952D01*
X425801Y629867D01*
X425810Y629781D01*
X425816Y629695D01*
X425818Y629609D01*
X425816Y629523D01*
X425810Y629437D01*
X425801Y629351D01*
X425787Y629266D01*
X425770Y629182D01*
X425749Y629098D01*
X425724Y629016D01*
X425696Y628935D01*
X425664Y628855D01*
X425628Y628776D01*
X425589Y628700D01*
X425546Y628625D01*
X425501Y628552D01*
X425452Y628481D01*
X425399Y628413D01*
X425344Y628346D01*
X425286Y628283D01*
X425225Y628222D01*
X425162Y628164D01*
X425095Y628109D01*
X425027Y628056D01*
X424956Y628007D01*
X424883Y627962D01*
X424808Y627919D01*
X424732Y627880D01*
X424653Y627844D01*
X424573Y627812D01*
X424492Y627784D01*
X424410Y627759D01*
X424326Y627738D01*
X424242Y627721D01*
X424157Y627707D01*
X424071Y627698D01*
X423985Y627692D01*
X423899Y627690D01*
X445150Y614330D02*
X445150Y612890D01*
X445150Y614330D02*
X449948Y614330D01*
X449948Y611451D01*
X449946Y611365D01*
X449940Y611279D01*
X449931Y611193D01*
X449917Y611108D01*
X449900Y611024D01*
X449879Y610940D01*
X449854Y610858D01*
X449826Y610777D01*
X449794Y610697D01*
X449758Y610618D01*
X449719Y610542D01*
X449676Y610467D01*
X449631Y610394D01*
X449582Y610323D01*
X449529Y610255D01*
X449474Y610188D01*
X449416Y610125D01*
X449355Y610064D01*
X449292Y610006D01*
X449225Y609951D01*
X449157Y609899D01*
X449086Y609849D01*
X449013Y609804D01*
X448938Y609761D01*
X448862Y609722D01*
X448783Y609686D01*
X448703Y609654D01*
X448622Y609626D01*
X448540Y609601D01*
X448456Y609580D01*
X448372Y609563D01*
X448287Y609549D01*
X448201Y609540D01*
X448115Y609534D01*
X448029Y609532D01*
X443231Y609532D01*
X443145Y609534D01*
X443059Y609540D01*
X442973Y609549D01*
X442888Y609563D01*
X442804Y609580D01*
X442720Y609601D01*
X442638Y609626D01*
X442557Y609654D01*
X442477Y609686D01*
X442398Y609722D01*
X442322Y609761D01*
X442247Y609804D01*
X442174Y609849D01*
X442103Y609898D01*
X442035Y609951D01*
X441968Y610006D01*
X441905Y610064D01*
X441844Y610125D01*
X441786Y610188D01*
X441731Y610255D01*
X441679Y610323D01*
X441629Y610394D01*
X441584Y610467D01*
X441541Y610542D01*
X441502Y610618D01*
X441466Y610697D01*
X441434Y610777D01*
X441406Y610858D01*
X441381Y610940D01*
X441360Y611024D01*
X441343Y611108D01*
X441329Y611193D01*
X441320Y611279D01*
X441314Y611365D01*
X441312Y611451D01*
X441312Y614330D01*
X441312Y619286D02*
X449948Y619286D01*
X449948Y624083D02*
X441312Y619286D01*
X441312Y624083D02*
X449948Y624083D01*
X449948Y629039D02*
X441312Y629039D01*
X441312Y631438D01*
X441314Y631535D01*
X441320Y631631D01*
X441329Y631727D01*
X441343Y631823D01*
X441360Y631918D01*
X441382Y632012D01*
X441407Y632105D01*
X441435Y632198D01*
X441468Y632289D01*
X441504Y632378D01*
X441544Y632466D01*
X441587Y632553D01*
X441633Y632638D01*
X441683Y632720D01*
X441737Y632801D01*
X441793Y632879D01*
X441853Y632955D01*
X441915Y633029D01*
X441981Y633100D01*
X442049Y633168D01*
X442120Y633234D01*
X442194Y633296D01*
X442270Y633356D01*
X442348Y633412D01*
X442429Y633466D01*
X442512Y633516D01*
X442596Y633562D01*
X442683Y633605D01*
X442771Y633645D01*
X442860Y633681D01*
X442951Y633714D01*
X443044Y633742D01*
X443137Y633767D01*
X443231Y633789D01*
X443326Y633806D01*
X443422Y633820D01*
X443518Y633829D01*
X443614Y633835D01*
X443711Y633837D01*
X447549Y633837D01*
X447646Y633835D01*
X447742Y633829D01*
X447838Y633820D01*
X447934Y633806D01*
X448029Y633789D01*
X448123Y633767D01*
X448216Y633742D01*
X448309Y633714D01*
X448400Y633681D01*
X448489Y633645D01*
X448577Y633605D01*
X448664Y633562D01*
X448749Y633516D01*
X448831Y633466D01*
X448912Y633412D01*
X448990Y633356D01*
X449066Y633296D01*
X449140Y633234D01*
X449211Y633168D01*
X449279Y633100D01*
X449345Y633029D01*
X449407Y632955D01*
X449467Y632879D01*
X449523Y632801D01*
X449577Y632720D01*
X449627Y632638D01*
X449673Y632553D01*
X449716Y632466D01*
X449756Y632378D01*
X449792Y632289D01*
X449825Y632198D01*
X449853Y632105D01*
X449878Y632012D01*
X449900Y631918D01*
X449917Y631823D01*
X449931Y631727D01*
X449940Y631631D01*
X449946Y631535D01*
X449948Y631438D01*
X449948Y629039D01*
X472159Y614330D02*
X472245Y614328D01*
X472331Y614322D01*
X472417Y614313D01*
X472502Y614299D01*
X472586Y614282D01*
X472670Y614261D01*
X472752Y614236D01*
X472833Y614208D01*
X472913Y614176D01*
X472992Y614140D01*
X473068Y614101D01*
X473143Y614058D01*
X473216Y614013D01*
X473287Y613964D01*
X473355Y613911D01*
X473422Y613856D01*
X473485Y613798D01*
X473546Y613737D01*
X473604Y613674D01*
X473659Y613607D01*
X473712Y613539D01*
X473761Y613468D01*
X473806Y613395D01*
X473849Y613320D01*
X473888Y613244D01*
X473924Y613165D01*
X473956Y613085D01*
X473984Y613004D01*
X474009Y612922D01*
X474030Y612838D01*
X474047Y612754D01*
X474061Y612669D01*
X474070Y612583D01*
X474076Y612497D01*
X474078Y612411D01*
X474076Y612288D01*
X474071Y612165D01*
X474061Y612042D01*
X474048Y611920D01*
X474031Y611798D01*
X474011Y611676D01*
X473987Y611556D01*
X473959Y611436D01*
X473928Y611317D01*
X473892Y611199D01*
X473854Y611082D01*
X473812Y610966D01*
X473766Y610852D01*
X473717Y610739D01*
X473665Y610628D01*
X473609Y610518D01*
X473550Y610410D01*
X473487Y610304D01*
X473422Y610200D01*
X473353Y610097D01*
X473281Y609997D01*
X473206Y609900D01*
X473129Y609804D01*
X473048Y609711D01*
X472965Y609620D01*
X472879Y609532D01*
X467361Y609772D02*
X467275Y609774D01*
X467189Y609780D01*
X467103Y609789D01*
X467018Y609803D01*
X466934Y609820D01*
X466850Y609841D01*
X466768Y609866D01*
X466687Y609894D01*
X466607Y609926D01*
X466528Y609962D01*
X466452Y610001D01*
X466377Y610044D01*
X466304Y610089D01*
X466233Y610138D01*
X466165Y610191D01*
X466098Y610246D01*
X466035Y610304D01*
X465974Y610365D01*
X465916Y610428D01*
X465861Y610495D01*
X465808Y610563D01*
X465759Y610634D01*
X465714Y610707D01*
X465671Y610782D01*
X465632Y610858D01*
X465596Y610937D01*
X465564Y611017D01*
X465536Y611098D01*
X465511Y611180D01*
X465490Y611264D01*
X465473Y611348D01*
X465459Y611433D01*
X465450Y611519D01*
X465444Y611605D01*
X465442Y611691D01*
X465444Y611807D01*
X465449Y611922D01*
X465459Y612038D01*
X465472Y612153D01*
X465488Y612267D01*
X465509Y612381D01*
X465533Y612495D01*
X465561Y612607D01*
X465592Y612718D01*
X465627Y612829D01*
X465665Y612938D01*
X465707Y613046D01*
X465752Y613152D01*
X465801Y613258D01*
X465853Y613361D01*
X465908Y613463D01*
X465967Y613562D01*
X466029Y613660D01*
X466094Y613756D01*
X466162Y613850D01*
X469040Y610732D02*
X468994Y610657D01*
X468944Y610584D01*
X468891Y610514D01*
X468835Y610446D01*
X468776Y610381D01*
X468714Y610318D01*
X468650Y610259D01*
X468582Y610202D01*
X468512Y610148D01*
X468440Y610098D01*
X468366Y610051D01*
X468290Y610007D01*
X468211Y609967D01*
X468131Y609931D01*
X468050Y609898D01*
X467967Y609869D01*
X467882Y609843D01*
X467797Y609821D01*
X467711Y609804D01*
X467624Y609790D01*
X467537Y609780D01*
X467449Y609774D01*
X467361Y609772D01*
X470480Y613371D02*
X470526Y613445D01*
X470576Y613518D01*
X470629Y613588D01*
X470685Y613656D01*
X470744Y613721D01*
X470806Y613784D01*
X470871Y613843D01*
X470938Y613900D01*
X471008Y613954D01*
X471080Y614004D01*
X471154Y614051D01*
X471230Y614095D01*
X471309Y614135D01*
X471389Y614171D01*
X471470Y614204D01*
X471553Y614234D01*
X471638Y614259D01*
X471723Y614281D01*
X471809Y614298D01*
X471896Y614312D01*
X471983Y614322D01*
X472071Y614328D01*
X472159Y614330D01*
X470480Y613370D02*
X469040Y610731D01*
X474078Y620252D02*
X474078Y622171D01*
X474078Y620252D02*
X474076Y620166D01*
X474070Y620080D01*
X474061Y619994D01*
X474047Y619909D01*
X474030Y619825D01*
X474009Y619741D01*
X473984Y619659D01*
X473956Y619578D01*
X473924Y619498D01*
X473888Y619419D01*
X473849Y619343D01*
X473806Y619268D01*
X473761Y619195D01*
X473712Y619124D01*
X473659Y619056D01*
X473604Y618989D01*
X473546Y618926D01*
X473485Y618865D01*
X473422Y618807D01*
X473355Y618752D01*
X473287Y618700D01*
X473216Y618650D01*
X473143Y618605D01*
X473068Y618562D01*
X472992Y618523D01*
X472913Y618487D01*
X472833Y618455D01*
X472752Y618427D01*
X472670Y618402D01*
X472586Y618381D01*
X472502Y618364D01*
X472417Y618350D01*
X472331Y618341D01*
X472245Y618335D01*
X472159Y618333D01*
X467361Y618333D01*
X467275Y618335D01*
X467189Y618341D01*
X467103Y618350D01*
X467018Y618364D01*
X466934Y618381D01*
X466850Y618402D01*
X466768Y618427D01*
X466687Y618455D01*
X466607Y618487D01*
X466528Y618523D01*
X466452Y618562D01*
X466377Y618605D01*
X466304Y618650D01*
X466233Y618699D01*
X466165Y618752D01*
X466098Y618807D01*
X466035Y618865D01*
X465974Y618926D01*
X465916Y618989D01*
X465861Y619056D01*
X465809Y619124D01*
X465759Y619195D01*
X465714Y619268D01*
X465671Y619343D01*
X465632Y619419D01*
X465596Y619498D01*
X465564Y619578D01*
X465536Y619659D01*
X465511Y619741D01*
X465490Y619825D01*
X465473Y619909D01*
X465459Y619994D01*
X465450Y620080D01*
X465444Y620166D01*
X465442Y620252D01*
X465442Y622171D01*
X465442Y626322D02*
X474078Y626322D01*
X474078Y630160D01*
X498829Y614330D02*
X498915Y614328D01*
X499001Y614322D01*
X499087Y614313D01*
X499172Y614299D01*
X499256Y614282D01*
X499340Y614261D01*
X499422Y614236D01*
X499503Y614208D01*
X499583Y614176D01*
X499662Y614140D01*
X499738Y614101D01*
X499813Y614058D01*
X499886Y614013D01*
X499957Y613964D01*
X500025Y613911D01*
X500092Y613856D01*
X500155Y613798D01*
X500216Y613737D01*
X500274Y613674D01*
X500329Y613607D01*
X500382Y613539D01*
X500431Y613468D01*
X500476Y613395D01*
X500519Y613320D01*
X500558Y613244D01*
X500594Y613165D01*
X500626Y613085D01*
X500654Y613004D01*
X500679Y612922D01*
X500700Y612838D01*
X500717Y612754D01*
X500731Y612669D01*
X500740Y612583D01*
X500746Y612497D01*
X500748Y612411D01*
X500746Y612288D01*
X500741Y612165D01*
X500731Y612042D01*
X500718Y611920D01*
X500701Y611798D01*
X500681Y611676D01*
X500657Y611556D01*
X500629Y611436D01*
X500598Y611317D01*
X500562Y611199D01*
X500524Y611082D01*
X500482Y610966D01*
X500436Y610852D01*
X500387Y610739D01*
X500335Y610628D01*
X500279Y610518D01*
X500220Y610410D01*
X500157Y610304D01*
X500092Y610200D01*
X500023Y610097D01*
X499951Y609997D01*
X499876Y609900D01*
X499799Y609804D01*
X499718Y609711D01*
X499635Y609620D01*
X499549Y609532D01*
X494031Y609772D02*
X493945Y609774D01*
X493859Y609780D01*
X493773Y609789D01*
X493688Y609803D01*
X493604Y609820D01*
X493520Y609841D01*
X493438Y609866D01*
X493357Y609894D01*
X493277Y609926D01*
X493198Y609962D01*
X493122Y610001D01*
X493047Y610044D01*
X492974Y610089D01*
X492903Y610138D01*
X492835Y610191D01*
X492768Y610246D01*
X492705Y610304D01*
X492644Y610365D01*
X492586Y610428D01*
X492531Y610495D01*
X492478Y610563D01*
X492429Y610634D01*
X492384Y610707D01*
X492341Y610782D01*
X492302Y610858D01*
X492266Y610937D01*
X492234Y611017D01*
X492206Y611098D01*
X492181Y611180D01*
X492160Y611264D01*
X492143Y611348D01*
X492129Y611433D01*
X492120Y611519D01*
X492114Y611605D01*
X492112Y611691D01*
X492114Y611807D01*
X492119Y611922D01*
X492129Y612038D01*
X492142Y612153D01*
X492158Y612267D01*
X492179Y612381D01*
X492203Y612495D01*
X492231Y612607D01*
X492262Y612718D01*
X492297Y612829D01*
X492335Y612938D01*
X492377Y613046D01*
X492422Y613152D01*
X492471Y613258D01*
X492523Y613361D01*
X492578Y613463D01*
X492637Y613562D01*
X492699Y613660D01*
X492764Y613756D01*
X492832Y613850D01*
X495710Y610732D02*
X495664Y610657D01*
X495614Y610584D01*
X495561Y610514D01*
X495505Y610446D01*
X495446Y610381D01*
X495384Y610318D01*
X495320Y610259D01*
X495252Y610202D01*
X495182Y610148D01*
X495110Y610098D01*
X495036Y610051D01*
X494960Y610007D01*
X494881Y609967D01*
X494801Y609931D01*
X494720Y609898D01*
X494637Y609869D01*
X494552Y609843D01*
X494467Y609821D01*
X494381Y609804D01*
X494294Y609790D01*
X494207Y609780D01*
X494119Y609774D01*
X494031Y609772D01*
X497150Y613371D02*
X497196Y613445D01*
X497246Y613518D01*
X497299Y613588D01*
X497355Y613656D01*
X497414Y613721D01*
X497476Y613784D01*
X497541Y613843D01*
X497608Y613900D01*
X497678Y613954D01*
X497750Y614004D01*
X497824Y614051D01*
X497900Y614095D01*
X497979Y614135D01*
X498059Y614171D01*
X498140Y614204D01*
X498223Y614234D01*
X498308Y614259D01*
X498393Y614281D01*
X498479Y614298D01*
X498566Y614312D01*
X498653Y614322D01*
X498741Y614328D01*
X498829Y614330D01*
X497150Y613370D02*
X495710Y610731D01*
X492112Y618676D02*
X500748Y618676D01*
X492112Y618676D02*
X492112Y621075D01*
X492114Y621172D01*
X492120Y621268D01*
X492129Y621364D01*
X492143Y621460D01*
X492160Y621555D01*
X492182Y621649D01*
X492207Y621742D01*
X492235Y621835D01*
X492268Y621926D01*
X492304Y622015D01*
X492344Y622103D01*
X492387Y622190D01*
X492433Y622275D01*
X492483Y622357D01*
X492537Y622438D01*
X492593Y622516D01*
X492653Y622592D01*
X492715Y622666D01*
X492781Y622737D01*
X492849Y622805D01*
X492920Y622871D01*
X492994Y622933D01*
X493070Y622993D01*
X493148Y623049D01*
X493229Y623103D01*
X493312Y623153D01*
X493396Y623199D01*
X493483Y623242D01*
X493571Y623282D01*
X493660Y623318D01*
X493751Y623351D01*
X493844Y623379D01*
X493937Y623404D01*
X494031Y623426D01*
X494126Y623443D01*
X494222Y623457D01*
X494318Y623466D01*
X494414Y623472D01*
X494511Y623474D01*
X498349Y623474D01*
X498446Y623472D01*
X498542Y623466D01*
X498638Y623457D01*
X498734Y623443D01*
X498829Y623426D01*
X498923Y623404D01*
X499016Y623379D01*
X499109Y623351D01*
X499200Y623318D01*
X499289Y623282D01*
X499377Y623242D01*
X499464Y623199D01*
X499549Y623153D01*
X499631Y623103D01*
X499712Y623049D01*
X499790Y622993D01*
X499866Y622933D01*
X499940Y622871D01*
X500011Y622805D01*
X500079Y622737D01*
X500145Y622666D01*
X500207Y622592D01*
X500267Y622516D01*
X500323Y622438D01*
X500377Y622357D01*
X500427Y622275D01*
X500473Y622190D01*
X500516Y622103D01*
X500556Y622015D01*
X500592Y621926D01*
X500625Y621835D01*
X500653Y621742D01*
X500678Y621649D01*
X500700Y621555D01*
X500717Y621460D01*
X500731Y621364D01*
X500740Y621268D01*
X500746Y621172D01*
X500748Y621075D01*
X500748Y618676D01*
X500748Y627645D02*
X492112Y630524D01*
X500748Y633402D01*
X498589Y632683D02*
X498589Y628365D01*
D16*
X511340Y1185020D02*
X511340Y1195180D01*
X506260Y1190100D01*
X511340Y1185020D01*
X506260Y1017380D02*
X506260Y1007220D01*
X511340Y1012300D01*
X506260Y1017380D01*
X511340Y1058020D02*
X511340Y1068180D01*
X506260Y1063100D01*
X511340Y1058020D01*
X506260Y1108820D02*
X506260Y1118980D01*
X511340Y1113900D02*
X506260Y1108820D01*
X511340Y1113900D02*
X506260Y1118980D01*
X511340Y1134220D02*
X511340Y1144380D01*
X506260Y1139300D01*
X511340Y1134220D01*
X511340Y1042780D02*
X511340Y1032620D01*
X506260Y1037700D02*
X511340Y1042780D01*
X506260Y1037700D02*
X511340Y1032620D01*
X506260Y1083420D02*
X506260Y1093580D01*
X511340Y1088500D02*
X506260Y1083420D01*
X511340Y1088500D02*
X506260Y1093580D01*
X506260Y1210420D02*
X506260Y1220580D01*
X511340Y1215500D02*
X506260Y1210420D01*
X511340Y1215500D02*
X506260Y1220580D01*
D14*
X474976Y1194164D02*
X478532Y1183496D01*
X482088Y1194164D01*
X487676Y1194164D02*
X487676Y1183496D01*
X488861Y1183496D02*
X486490Y1183496D01*
X486490Y1194164D02*
X488861Y1194164D01*
X494237Y1194164D02*
X494237Y1183496D01*
X500164Y1183496D02*
X494237Y1194164D01*
X500164Y1194164D02*
X500164Y1183496D01*
X469176Y1005696D02*
X466213Y1005696D01*
X469176Y1005696D02*
X469283Y1005698D01*
X469390Y1005704D01*
X469496Y1005713D01*
X469602Y1005727D01*
X469708Y1005744D01*
X469813Y1005765D01*
X469917Y1005790D01*
X470020Y1005819D01*
X470122Y1005851D01*
X470223Y1005887D01*
X470322Y1005927D01*
X470420Y1005970D01*
X470516Y1006017D01*
X470611Y1006067D01*
X470704Y1006120D01*
X470794Y1006177D01*
X470883Y1006237D01*
X470969Y1006300D01*
X471053Y1006366D01*
X471135Y1006436D01*
X471214Y1006508D01*
X471290Y1006583D01*
X471364Y1006661D01*
X471434Y1006741D01*
X471502Y1006824D01*
X471567Y1006909D01*
X471628Y1006996D01*
X471687Y1007086D01*
X471742Y1007178D01*
X471794Y1007271D01*
X471842Y1007367D01*
X471887Y1007464D01*
X471929Y1007562D01*
X471966Y1007662D01*
X472001Y1007764D01*
X472031Y1007866D01*
X472058Y1007970D01*
X472081Y1008074D01*
X472100Y1008180D01*
X472115Y1008286D01*
X472127Y1008392D01*
X472135Y1008499D01*
X472139Y1008606D01*
X472139Y1008712D01*
X472135Y1008819D01*
X472127Y1008926D01*
X472115Y1009032D01*
X472100Y1009138D01*
X472081Y1009244D01*
X472058Y1009348D01*
X472031Y1009452D01*
X472001Y1009554D01*
X471966Y1009656D01*
X471929Y1009756D01*
X471887Y1009854D01*
X471842Y1009951D01*
X471794Y1010047D01*
X471742Y1010141D01*
X471687Y1010232D01*
X471628Y1010322D01*
X471567Y1010409D01*
X471502Y1010494D01*
X471434Y1010577D01*
X471364Y1010657D01*
X471290Y1010735D01*
X471214Y1010810D01*
X471135Y1010882D01*
X471053Y1010952D01*
X470969Y1011018D01*
X470883Y1011081D01*
X470794Y1011141D01*
X470704Y1011198D01*
X470611Y1011251D01*
X470516Y1011301D01*
X470420Y1011348D01*
X470322Y1011391D01*
X470223Y1011431D01*
X470122Y1011467D01*
X470020Y1011499D01*
X469917Y1011528D01*
X469813Y1011553D01*
X469708Y1011574D01*
X469602Y1011591D01*
X469496Y1011605D01*
X469390Y1011614D01*
X469283Y1011620D01*
X469176Y1011622D01*
X469769Y1016364D02*
X466213Y1016364D01*
X469769Y1016364D02*
X469866Y1016362D01*
X469962Y1016356D01*
X470058Y1016346D01*
X470154Y1016332D01*
X470249Y1016315D01*
X470344Y1016293D01*
X470437Y1016268D01*
X470529Y1016239D01*
X470620Y1016206D01*
X470710Y1016169D01*
X470798Y1016129D01*
X470884Y1016085D01*
X470968Y1016038D01*
X471051Y1015988D01*
X471131Y1015934D01*
X471209Y1015876D01*
X471285Y1015816D01*
X471358Y1015753D01*
X471428Y1015687D01*
X471496Y1015617D01*
X471561Y1015546D01*
X471623Y1015471D01*
X471681Y1015394D01*
X471737Y1015315D01*
X471789Y1015234D01*
X471838Y1015150D01*
X471884Y1015065D01*
X471926Y1014978D01*
X471964Y1014889D01*
X471999Y1014799D01*
X472030Y1014707D01*
X472057Y1014614D01*
X472081Y1014521D01*
X472100Y1014426D01*
X472116Y1014330D01*
X472128Y1014234D01*
X472136Y1014138D01*
X472140Y1014041D01*
X472140Y1013945D01*
X472136Y1013848D01*
X472128Y1013752D01*
X472116Y1013656D01*
X472100Y1013560D01*
X472081Y1013465D01*
X472057Y1013372D01*
X472030Y1013279D01*
X471999Y1013187D01*
X471964Y1013097D01*
X471926Y1013008D01*
X471884Y1012921D01*
X471838Y1012836D01*
X471789Y1012752D01*
X471737Y1012671D01*
X471681Y1012592D01*
X471623Y1012515D01*
X471561Y1012440D01*
X471496Y1012369D01*
X471428Y1012299D01*
X471358Y1012233D01*
X471285Y1012170D01*
X471209Y1012110D01*
X471131Y1012052D01*
X471051Y1011998D01*
X470968Y1011948D01*
X470884Y1011901D01*
X470798Y1011857D01*
X470710Y1011817D01*
X470620Y1011780D01*
X470529Y1011747D01*
X470437Y1011718D01*
X470344Y1011693D01*
X470249Y1011671D01*
X470154Y1011654D01*
X470058Y1011640D01*
X469962Y1011630D01*
X469866Y1011624D01*
X469769Y1011622D01*
X469769Y1011623D02*
X467398Y1011623D01*
X476881Y1006289D02*
X476881Y1005696D01*
X476881Y1006289D02*
X477473Y1006289D01*
X477473Y1005696D01*
X476881Y1005696D01*
X482215Y1005696D02*
X485178Y1005696D01*
X485285Y1005698D01*
X485392Y1005704D01*
X485498Y1005713D01*
X485604Y1005727D01*
X485710Y1005744D01*
X485815Y1005765D01*
X485919Y1005790D01*
X486022Y1005819D01*
X486124Y1005851D01*
X486225Y1005887D01*
X486324Y1005927D01*
X486422Y1005970D01*
X486518Y1006017D01*
X486613Y1006067D01*
X486706Y1006120D01*
X486796Y1006177D01*
X486885Y1006237D01*
X486971Y1006300D01*
X487055Y1006366D01*
X487137Y1006436D01*
X487216Y1006508D01*
X487292Y1006583D01*
X487366Y1006661D01*
X487436Y1006741D01*
X487504Y1006824D01*
X487569Y1006909D01*
X487630Y1006996D01*
X487689Y1007086D01*
X487744Y1007178D01*
X487796Y1007271D01*
X487844Y1007367D01*
X487889Y1007464D01*
X487931Y1007562D01*
X487968Y1007662D01*
X488003Y1007764D01*
X488033Y1007866D01*
X488060Y1007970D01*
X488083Y1008074D01*
X488102Y1008180D01*
X488117Y1008286D01*
X488129Y1008392D01*
X488137Y1008499D01*
X488141Y1008606D01*
X488141Y1008712D01*
X488137Y1008819D01*
X488129Y1008926D01*
X488117Y1009032D01*
X488102Y1009138D01*
X488083Y1009244D01*
X488060Y1009348D01*
X488033Y1009452D01*
X488003Y1009554D01*
X487968Y1009656D01*
X487931Y1009756D01*
X487889Y1009854D01*
X487844Y1009951D01*
X487796Y1010047D01*
X487744Y1010141D01*
X487689Y1010232D01*
X487630Y1010322D01*
X487569Y1010409D01*
X487504Y1010494D01*
X487436Y1010577D01*
X487366Y1010657D01*
X487292Y1010735D01*
X487216Y1010810D01*
X487137Y1010882D01*
X487055Y1010952D01*
X486971Y1011018D01*
X486885Y1011081D01*
X486796Y1011141D01*
X486706Y1011198D01*
X486613Y1011251D01*
X486518Y1011301D01*
X486422Y1011348D01*
X486324Y1011391D01*
X486225Y1011431D01*
X486124Y1011467D01*
X486022Y1011499D01*
X485919Y1011528D01*
X485815Y1011553D01*
X485710Y1011574D01*
X485604Y1011591D01*
X485498Y1011605D01*
X485392Y1011614D01*
X485285Y1011620D01*
X485178Y1011622D01*
X485771Y1016364D02*
X482215Y1016364D01*
X485771Y1016364D02*
X485868Y1016362D01*
X485964Y1016356D01*
X486060Y1016346D01*
X486156Y1016332D01*
X486251Y1016315D01*
X486346Y1016293D01*
X486439Y1016268D01*
X486531Y1016239D01*
X486622Y1016206D01*
X486712Y1016169D01*
X486800Y1016129D01*
X486886Y1016085D01*
X486970Y1016038D01*
X487053Y1015988D01*
X487133Y1015934D01*
X487211Y1015876D01*
X487287Y1015816D01*
X487360Y1015753D01*
X487430Y1015687D01*
X487498Y1015617D01*
X487563Y1015546D01*
X487625Y1015471D01*
X487683Y1015394D01*
X487739Y1015315D01*
X487791Y1015234D01*
X487840Y1015150D01*
X487886Y1015065D01*
X487928Y1014978D01*
X487966Y1014889D01*
X488001Y1014799D01*
X488032Y1014707D01*
X488059Y1014614D01*
X488083Y1014521D01*
X488102Y1014426D01*
X488118Y1014330D01*
X488130Y1014234D01*
X488138Y1014138D01*
X488142Y1014041D01*
X488142Y1013945D01*
X488138Y1013848D01*
X488130Y1013752D01*
X488118Y1013656D01*
X488102Y1013560D01*
X488083Y1013465D01*
X488059Y1013372D01*
X488032Y1013279D01*
X488001Y1013187D01*
X487966Y1013097D01*
X487928Y1013008D01*
X487886Y1012921D01*
X487840Y1012836D01*
X487791Y1012752D01*
X487739Y1012671D01*
X487683Y1012592D01*
X487625Y1012515D01*
X487563Y1012440D01*
X487498Y1012369D01*
X487430Y1012299D01*
X487360Y1012233D01*
X487287Y1012170D01*
X487211Y1012110D01*
X487133Y1012052D01*
X487053Y1011998D01*
X486970Y1011948D01*
X486886Y1011901D01*
X486800Y1011857D01*
X486712Y1011817D01*
X486622Y1011780D01*
X486531Y1011747D01*
X486439Y1011718D01*
X486346Y1011693D01*
X486251Y1011671D01*
X486156Y1011654D01*
X486060Y1011640D01*
X485964Y1011630D01*
X485868Y1011624D01*
X485771Y1011622D01*
X485771Y1011623D02*
X483400Y1011623D01*
X493052Y1016364D02*
X496608Y1005696D01*
X500164Y1016364D01*
X488480Y1164023D02*
X486702Y1164023D01*
X488480Y1164023D02*
X488480Y1158096D01*
X484924Y1158096D01*
X484829Y1158098D01*
X484733Y1158104D01*
X484638Y1158113D01*
X484544Y1158127D01*
X484450Y1158144D01*
X484357Y1158165D01*
X484264Y1158190D01*
X484173Y1158218D01*
X484083Y1158250D01*
X483995Y1158286D01*
X483908Y1158325D01*
X483822Y1158368D01*
X483739Y1158414D01*
X483657Y1158463D01*
X483577Y1158516D01*
X483500Y1158572D01*
X483424Y1158630D01*
X483352Y1158692D01*
X483282Y1158757D01*
X483214Y1158825D01*
X483149Y1158895D01*
X483087Y1158967D01*
X483029Y1159043D01*
X482973Y1159120D01*
X482920Y1159200D01*
X482871Y1159282D01*
X482825Y1159365D01*
X482782Y1159451D01*
X482743Y1159538D01*
X482707Y1159626D01*
X482675Y1159716D01*
X482647Y1159807D01*
X482622Y1159900D01*
X482601Y1159993D01*
X482584Y1160087D01*
X482570Y1160181D01*
X482561Y1160276D01*
X482555Y1160372D01*
X482553Y1160467D01*
X482553Y1166393D01*
X482555Y1166488D01*
X482561Y1166584D01*
X482570Y1166679D01*
X482584Y1166773D01*
X482601Y1166867D01*
X482622Y1166960D01*
X482647Y1167053D01*
X482675Y1167144D01*
X482707Y1167234D01*
X482743Y1167322D01*
X482782Y1167409D01*
X482825Y1167495D01*
X482871Y1167578D01*
X482920Y1167660D01*
X482973Y1167740D01*
X483029Y1167817D01*
X483087Y1167893D01*
X483149Y1167965D01*
X483214Y1168035D01*
X483282Y1168103D01*
X483352Y1168168D01*
X483424Y1168230D01*
X483500Y1168288D01*
X483577Y1168344D01*
X483657Y1168397D01*
X483738Y1168446D01*
X483822Y1168492D01*
X483908Y1168535D01*
X483995Y1168574D01*
X484083Y1168610D01*
X484173Y1168642D01*
X484264Y1168670D01*
X484357Y1168695D01*
X484450Y1168716D01*
X484544Y1168733D01*
X484638Y1168747D01*
X484733Y1168756D01*
X484828Y1168762D01*
X484924Y1168764D01*
X488480Y1168764D01*
X494745Y1168764D02*
X494745Y1158096D01*
X500672Y1158096D02*
X494745Y1168764D01*
X500672Y1168764D02*
X500672Y1158096D01*
X506937Y1158096D02*
X506937Y1168764D01*
X509901Y1168764D01*
X510007Y1168762D01*
X510112Y1168756D01*
X510218Y1168747D01*
X510323Y1168734D01*
X510427Y1168717D01*
X510531Y1168696D01*
X510634Y1168672D01*
X510736Y1168644D01*
X510837Y1168612D01*
X510936Y1168577D01*
X511035Y1168538D01*
X511132Y1168496D01*
X511227Y1168451D01*
X511321Y1168402D01*
X511413Y1168349D01*
X511503Y1168294D01*
X511591Y1168235D01*
X511677Y1168173D01*
X511760Y1168108D01*
X511841Y1168040D01*
X511920Y1167970D01*
X511996Y1167896D01*
X512070Y1167820D01*
X512140Y1167741D01*
X512208Y1167660D01*
X512273Y1167577D01*
X512335Y1167491D01*
X512394Y1167403D01*
X512449Y1167313D01*
X512502Y1167221D01*
X512551Y1167127D01*
X512596Y1167032D01*
X512638Y1166935D01*
X512677Y1166836D01*
X512712Y1166737D01*
X512744Y1166636D01*
X512772Y1166534D01*
X512796Y1166431D01*
X512817Y1166327D01*
X512834Y1166223D01*
X512847Y1166118D01*
X512856Y1166012D01*
X512862Y1165907D01*
X512864Y1165801D01*
X512864Y1161059D01*
X512862Y1160953D01*
X512856Y1160848D01*
X512847Y1160742D01*
X512834Y1160637D01*
X512817Y1160533D01*
X512796Y1160429D01*
X512772Y1160326D01*
X512744Y1160224D01*
X512712Y1160123D01*
X512677Y1160024D01*
X512638Y1159925D01*
X512596Y1159828D01*
X512551Y1159733D01*
X512502Y1159639D01*
X512449Y1159547D01*
X512394Y1159457D01*
X512335Y1159369D01*
X512273Y1159283D01*
X512208Y1159200D01*
X512140Y1159119D01*
X512070Y1159040D01*
X511996Y1158964D01*
X511920Y1158890D01*
X511841Y1158820D01*
X511760Y1158752D01*
X511677Y1158687D01*
X511591Y1158625D01*
X511503Y1158566D01*
X511413Y1158511D01*
X511321Y1158458D01*
X511227Y1158409D01*
X511132Y1158364D01*
X511035Y1158322D01*
X510936Y1158283D01*
X510837Y1158248D01*
X510736Y1158216D01*
X510634Y1158188D01*
X510531Y1158164D01*
X510427Y1158143D01*
X510323Y1158126D01*
X510218Y1158113D01*
X510112Y1158104D01*
X510007Y1158098D01*
X509901Y1158096D01*
X506937Y1158096D01*
D15*
X466667Y1067418D02*
X469715Y1058274D01*
X472763Y1067418D01*
X477294Y1063354D02*
X479834Y1063354D01*
X479934Y1063352D01*
X480033Y1063346D01*
X480133Y1063336D01*
X480231Y1063323D01*
X480330Y1063305D01*
X480427Y1063284D01*
X480523Y1063259D01*
X480619Y1063230D01*
X480713Y1063197D01*
X480806Y1063161D01*
X480897Y1063121D01*
X480987Y1063077D01*
X481075Y1063030D01*
X481161Y1062980D01*
X481245Y1062926D01*
X481327Y1062869D01*
X481406Y1062809D01*
X481484Y1062745D01*
X481558Y1062679D01*
X481630Y1062610D01*
X481699Y1062538D01*
X481765Y1062464D01*
X481829Y1062386D01*
X481889Y1062307D01*
X481946Y1062225D01*
X482000Y1062141D01*
X482050Y1062055D01*
X482097Y1061967D01*
X482141Y1061877D01*
X482181Y1061786D01*
X482217Y1061693D01*
X482250Y1061599D01*
X482279Y1061503D01*
X482304Y1061407D01*
X482325Y1061310D01*
X482343Y1061211D01*
X482356Y1061113D01*
X482366Y1061013D01*
X482372Y1060914D01*
X482374Y1060814D01*
X482372Y1060714D01*
X482366Y1060615D01*
X482356Y1060515D01*
X482343Y1060417D01*
X482325Y1060318D01*
X482304Y1060221D01*
X482279Y1060125D01*
X482250Y1060029D01*
X482217Y1059935D01*
X482181Y1059842D01*
X482141Y1059751D01*
X482097Y1059661D01*
X482050Y1059573D01*
X482000Y1059487D01*
X481946Y1059403D01*
X481889Y1059321D01*
X481829Y1059242D01*
X481765Y1059164D01*
X481699Y1059090D01*
X481630Y1059018D01*
X481558Y1058949D01*
X481484Y1058883D01*
X481406Y1058819D01*
X481327Y1058759D01*
X481245Y1058702D01*
X481161Y1058648D01*
X481075Y1058598D01*
X480987Y1058551D01*
X480897Y1058507D01*
X480806Y1058467D01*
X480713Y1058431D01*
X480619Y1058398D01*
X480523Y1058369D01*
X480427Y1058344D01*
X480330Y1058323D01*
X480231Y1058305D01*
X480133Y1058292D01*
X480033Y1058282D01*
X479934Y1058276D01*
X479834Y1058274D01*
X477294Y1058274D01*
X477294Y1067418D01*
X479834Y1067418D01*
X479923Y1067416D01*
X480011Y1067410D01*
X480099Y1067401D01*
X480187Y1067387D01*
X480274Y1067370D01*
X480360Y1067349D01*
X480445Y1067324D01*
X480529Y1067295D01*
X480612Y1067263D01*
X480693Y1067228D01*
X480772Y1067188D01*
X480850Y1067146D01*
X480926Y1067100D01*
X481000Y1067051D01*
X481071Y1066998D01*
X481140Y1066943D01*
X481207Y1066884D01*
X481271Y1066823D01*
X481332Y1066759D01*
X481391Y1066692D01*
X481446Y1066623D01*
X481499Y1066552D01*
X481548Y1066478D01*
X481594Y1066402D01*
X481636Y1066324D01*
X481676Y1066245D01*
X481711Y1066164D01*
X481743Y1066081D01*
X481772Y1065997D01*
X481797Y1065912D01*
X481818Y1065826D01*
X481835Y1065739D01*
X481849Y1065651D01*
X481858Y1065563D01*
X481864Y1065475D01*
X481866Y1065386D01*
X481864Y1065297D01*
X481858Y1065209D01*
X481849Y1065121D01*
X481835Y1065033D01*
X481818Y1064946D01*
X481797Y1064860D01*
X481772Y1064775D01*
X481743Y1064691D01*
X481711Y1064608D01*
X481676Y1064527D01*
X481636Y1064448D01*
X481594Y1064370D01*
X481548Y1064294D01*
X481499Y1064220D01*
X481446Y1064149D01*
X481391Y1064080D01*
X481332Y1064013D01*
X481271Y1063949D01*
X481207Y1063888D01*
X481140Y1063829D01*
X481071Y1063774D01*
X481000Y1063721D01*
X480926Y1063672D01*
X480850Y1063626D01*
X480772Y1063584D01*
X480693Y1063544D01*
X480612Y1063509D01*
X480529Y1063477D01*
X480445Y1063448D01*
X480360Y1063423D01*
X480274Y1063402D01*
X480187Y1063385D01*
X480099Y1063371D01*
X480011Y1063362D01*
X479923Y1063356D01*
X479834Y1063354D01*
X485869Y1058274D02*
X488917Y1067418D01*
X491965Y1058274D01*
X491203Y1060560D02*
X486631Y1060560D01*
X497878Y1058274D02*
X497878Y1067418D01*
X495338Y1067418D02*
X500418Y1067418D01*
D14*
X485940Y1107296D02*
X485940Y1117964D01*
X482977Y1117964D02*
X488903Y1117964D01*
X500164Y1117964D02*
X493052Y1107296D01*
X500164Y1107296D02*
X493052Y1117964D01*
X482325Y1132696D02*
X482325Y1143364D01*
X485288Y1143364D01*
X485395Y1143362D01*
X485502Y1143356D01*
X485608Y1143347D01*
X485714Y1143333D01*
X485820Y1143316D01*
X485925Y1143295D01*
X486029Y1143270D01*
X486132Y1143241D01*
X486234Y1143209D01*
X486335Y1143173D01*
X486434Y1143133D01*
X486532Y1143090D01*
X486628Y1143043D01*
X486723Y1142993D01*
X486816Y1142940D01*
X486906Y1142883D01*
X486995Y1142823D01*
X487081Y1142760D01*
X487165Y1142694D01*
X487247Y1142624D01*
X487326Y1142552D01*
X487402Y1142477D01*
X487476Y1142399D01*
X487546Y1142319D01*
X487614Y1142236D01*
X487679Y1142151D01*
X487740Y1142064D01*
X487799Y1141974D01*
X487854Y1141883D01*
X487906Y1141789D01*
X487954Y1141693D01*
X487999Y1141596D01*
X488041Y1141498D01*
X488078Y1141398D01*
X488113Y1141296D01*
X488143Y1141194D01*
X488170Y1141090D01*
X488193Y1140986D01*
X488212Y1140880D01*
X488227Y1140774D01*
X488239Y1140668D01*
X488247Y1140561D01*
X488251Y1140454D01*
X488251Y1140348D01*
X488247Y1140241D01*
X488239Y1140134D01*
X488227Y1140028D01*
X488212Y1139922D01*
X488193Y1139816D01*
X488170Y1139712D01*
X488143Y1139608D01*
X488113Y1139506D01*
X488078Y1139404D01*
X488041Y1139304D01*
X487999Y1139206D01*
X487954Y1139109D01*
X487906Y1139013D01*
X487854Y1138920D01*
X487799Y1138828D01*
X487740Y1138738D01*
X487679Y1138651D01*
X487614Y1138566D01*
X487546Y1138483D01*
X487476Y1138403D01*
X487402Y1138325D01*
X487326Y1138250D01*
X487247Y1138178D01*
X487165Y1138108D01*
X487081Y1138042D01*
X486995Y1137979D01*
X486906Y1137919D01*
X486816Y1137862D01*
X486723Y1137809D01*
X486628Y1137759D01*
X486532Y1137712D01*
X486434Y1137669D01*
X486335Y1137629D01*
X486234Y1137593D01*
X486132Y1137561D01*
X486029Y1137532D01*
X485925Y1137507D01*
X485820Y1137486D01*
X485714Y1137469D01*
X485608Y1137455D01*
X485502Y1137446D01*
X485395Y1137440D01*
X485288Y1137438D01*
X485288Y1137437D02*
X482325Y1137437D01*
X485881Y1137437D02*
X488252Y1132696D01*
X493052Y1132696D02*
X500164Y1143364D01*
X493052Y1143364D02*
X500164Y1132696D01*
X489107Y1031096D02*
X484365Y1031096D01*
X484365Y1041764D01*
X489107Y1041764D01*
X487921Y1037023D02*
X484365Y1037023D01*
X494237Y1041764D02*
X494237Y1031096D01*
X500164Y1031096D02*
X494237Y1041764D01*
X500164Y1041764D02*
X500164Y1031096D01*
X477296Y1081896D02*
X477296Y1092564D01*
X482037Y1092564D01*
X482037Y1087823D02*
X477296Y1087823D01*
X487464Y1092564D02*
X487464Y1081896D01*
X486279Y1081896D02*
X488649Y1081896D01*
X488649Y1092564D02*
X486279Y1092564D01*
X493052Y1081896D02*
X500164Y1092564D01*
X493052Y1092564D02*
X500164Y1081896D01*
X472393Y1211436D02*
X472393Y1222104D01*
X475357Y1222104D01*
X475464Y1222102D01*
X475571Y1222096D01*
X475677Y1222087D01*
X475783Y1222073D01*
X475889Y1222056D01*
X475994Y1222035D01*
X476098Y1222010D01*
X476201Y1221981D01*
X476303Y1221949D01*
X476404Y1221913D01*
X476503Y1221873D01*
X476601Y1221830D01*
X476697Y1221783D01*
X476792Y1221733D01*
X476885Y1221680D01*
X476975Y1221623D01*
X477064Y1221563D01*
X477150Y1221500D01*
X477234Y1221434D01*
X477316Y1221364D01*
X477395Y1221292D01*
X477471Y1221217D01*
X477545Y1221139D01*
X477615Y1221059D01*
X477683Y1220976D01*
X477748Y1220891D01*
X477809Y1220804D01*
X477868Y1220714D01*
X477923Y1220623D01*
X477975Y1220529D01*
X478023Y1220433D01*
X478068Y1220336D01*
X478110Y1220238D01*
X478147Y1220138D01*
X478182Y1220036D01*
X478212Y1219934D01*
X478239Y1219830D01*
X478262Y1219726D01*
X478281Y1219620D01*
X478296Y1219514D01*
X478308Y1219408D01*
X478316Y1219301D01*
X478320Y1219194D01*
X478320Y1219088D01*
X478316Y1218981D01*
X478308Y1218874D01*
X478296Y1218768D01*
X478281Y1218662D01*
X478262Y1218556D01*
X478239Y1218452D01*
X478212Y1218348D01*
X478182Y1218246D01*
X478147Y1218144D01*
X478110Y1218044D01*
X478068Y1217946D01*
X478023Y1217849D01*
X477975Y1217753D01*
X477923Y1217660D01*
X477868Y1217568D01*
X477809Y1217478D01*
X477748Y1217391D01*
X477683Y1217306D01*
X477615Y1217223D01*
X477545Y1217143D01*
X477471Y1217065D01*
X477395Y1216990D01*
X477316Y1216918D01*
X477234Y1216848D01*
X477150Y1216782D01*
X477064Y1216719D01*
X476975Y1216659D01*
X476885Y1216602D01*
X476792Y1216549D01*
X476697Y1216499D01*
X476601Y1216452D01*
X476503Y1216409D01*
X476404Y1216369D01*
X476303Y1216333D01*
X476201Y1216301D01*
X476098Y1216272D01*
X475994Y1216247D01*
X475889Y1216226D01*
X475783Y1216209D01*
X475677Y1216195D01*
X475571Y1216186D01*
X475464Y1216180D01*
X475357Y1216178D01*
X475357Y1216177D02*
X472393Y1216177D01*
X483823Y1211436D02*
X483823Y1222104D01*
X486787Y1222104D01*
X486894Y1222102D01*
X487001Y1222096D01*
X487107Y1222087D01*
X487213Y1222073D01*
X487319Y1222056D01*
X487424Y1222035D01*
X487528Y1222010D01*
X487631Y1221981D01*
X487733Y1221949D01*
X487834Y1221913D01*
X487933Y1221873D01*
X488031Y1221830D01*
X488127Y1221783D01*
X488222Y1221733D01*
X488315Y1221680D01*
X488405Y1221623D01*
X488494Y1221563D01*
X488580Y1221500D01*
X488664Y1221434D01*
X488746Y1221364D01*
X488825Y1221292D01*
X488901Y1221217D01*
X488975Y1221139D01*
X489045Y1221059D01*
X489113Y1220976D01*
X489178Y1220891D01*
X489239Y1220804D01*
X489298Y1220714D01*
X489353Y1220623D01*
X489405Y1220529D01*
X489453Y1220433D01*
X489498Y1220336D01*
X489540Y1220238D01*
X489577Y1220138D01*
X489612Y1220036D01*
X489642Y1219934D01*
X489669Y1219830D01*
X489692Y1219726D01*
X489711Y1219620D01*
X489726Y1219514D01*
X489738Y1219408D01*
X489746Y1219301D01*
X489750Y1219194D01*
X489750Y1219088D01*
X489746Y1218981D01*
X489738Y1218874D01*
X489726Y1218768D01*
X489711Y1218662D01*
X489692Y1218556D01*
X489669Y1218452D01*
X489642Y1218348D01*
X489612Y1218246D01*
X489577Y1218144D01*
X489540Y1218044D01*
X489498Y1217946D01*
X489453Y1217849D01*
X489405Y1217753D01*
X489353Y1217660D01*
X489298Y1217568D01*
X489239Y1217478D01*
X489178Y1217391D01*
X489113Y1217306D01*
X489045Y1217223D01*
X488975Y1217143D01*
X488901Y1217065D01*
X488825Y1216990D01*
X488746Y1216918D01*
X488664Y1216848D01*
X488580Y1216782D01*
X488494Y1216719D01*
X488405Y1216659D01*
X488315Y1216602D01*
X488222Y1216549D01*
X488127Y1216499D01*
X488031Y1216452D01*
X487933Y1216409D01*
X487834Y1216369D01*
X487733Y1216333D01*
X487631Y1216301D01*
X487528Y1216272D01*
X487424Y1216247D01*
X487319Y1216226D01*
X487213Y1216209D01*
X487107Y1216195D01*
X487001Y1216186D01*
X486894Y1216180D01*
X486787Y1216178D01*
X486787Y1216177D02*
X483823Y1216177D01*
X497793Y1211436D02*
X497889Y1211438D01*
X497984Y1211444D01*
X498079Y1211453D01*
X498173Y1211467D01*
X498267Y1211484D01*
X498360Y1211505D01*
X498453Y1211530D01*
X498544Y1211558D01*
X498634Y1211590D01*
X498722Y1211626D01*
X498809Y1211665D01*
X498895Y1211708D01*
X498979Y1211754D01*
X499060Y1211803D01*
X499140Y1211856D01*
X499217Y1211912D01*
X499293Y1211970D01*
X499365Y1212032D01*
X499435Y1212097D01*
X499503Y1212165D01*
X499568Y1212235D01*
X499630Y1212307D01*
X499688Y1212383D01*
X499744Y1212460D01*
X499797Y1212540D01*
X499846Y1212622D01*
X499892Y1212705D01*
X499935Y1212791D01*
X499974Y1212878D01*
X500010Y1212966D01*
X500042Y1213056D01*
X500070Y1213147D01*
X500095Y1213240D01*
X500116Y1213333D01*
X500133Y1213427D01*
X500147Y1213521D01*
X500156Y1213616D01*
X500162Y1213712D01*
X500164Y1213807D01*
X497793Y1211436D02*
X497657Y1211438D01*
X497520Y1211443D01*
X497384Y1211453D01*
X497249Y1211466D01*
X497113Y1211482D01*
X496979Y1211503D01*
X496844Y1211527D01*
X496711Y1211554D01*
X496578Y1211586D01*
X496446Y1211620D01*
X496315Y1211659D01*
X496186Y1211701D01*
X496057Y1211746D01*
X495930Y1211795D01*
X495804Y1211848D01*
X495680Y1211904D01*
X495557Y1211963D01*
X495436Y1212025D01*
X495316Y1212091D01*
X495199Y1212160D01*
X495083Y1212233D01*
X494969Y1212308D01*
X494858Y1212386D01*
X494748Y1212468D01*
X494641Y1212552D01*
X494537Y1212639D01*
X494434Y1212729D01*
X494334Y1212822D01*
X494237Y1212918D01*
X494533Y1219733D02*
X494535Y1219828D01*
X494541Y1219924D01*
X494550Y1220019D01*
X494564Y1220113D01*
X494581Y1220207D01*
X494602Y1220300D01*
X494627Y1220393D01*
X494655Y1220484D01*
X494687Y1220574D01*
X494723Y1220662D01*
X494762Y1220749D01*
X494805Y1220835D01*
X494851Y1220919D01*
X494900Y1221000D01*
X494953Y1221080D01*
X495009Y1221157D01*
X495067Y1221233D01*
X495129Y1221305D01*
X495194Y1221375D01*
X495262Y1221443D01*
X495332Y1221508D01*
X495404Y1221570D01*
X495480Y1221628D01*
X495557Y1221684D01*
X495637Y1221737D01*
X495719Y1221786D01*
X495802Y1221832D01*
X495888Y1221875D01*
X495975Y1221914D01*
X496063Y1221950D01*
X496153Y1221982D01*
X496244Y1222010D01*
X496337Y1222035D01*
X496430Y1222056D01*
X496524Y1222073D01*
X496618Y1222087D01*
X496713Y1222096D01*
X496809Y1222102D01*
X496904Y1222104D01*
X497034Y1222102D01*
X497164Y1222096D01*
X497294Y1222087D01*
X497423Y1222074D01*
X497552Y1222057D01*
X497680Y1222036D01*
X497808Y1222011D01*
X497935Y1221983D01*
X498061Y1221951D01*
X498186Y1221915D01*
X498310Y1221876D01*
X498432Y1221833D01*
X498554Y1221787D01*
X498674Y1221736D01*
X498792Y1221683D01*
X498909Y1221626D01*
X499024Y1221566D01*
X499138Y1221502D01*
X499249Y1221435D01*
X499359Y1221365D01*
X499466Y1221291D01*
X499571Y1221215D01*
X495719Y1217658D02*
X495637Y1217709D01*
X495557Y1217763D01*
X495479Y1217819D01*
X495404Y1217879D01*
X495331Y1217942D01*
X495261Y1218008D01*
X495194Y1218076D01*
X495129Y1218147D01*
X495067Y1218221D01*
X495008Y1218297D01*
X494952Y1218375D01*
X494900Y1218456D01*
X494850Y1218538D01*
X494804Y1218623D01*
X494762Y1218709D01*
X494722Y1218797D01*
X494687Y1218886D01*
X494655Y1218977D01*
X494626Y1219069D01*
X494602Y1219162D01*
X494581Y1219255D01*
X494564Y1219350D01*
X494550Y1219445D01*
X494541Y1219541D01*
X494535Y1219637D01*
X494533Y1219733D01*
X498979Y1215882D02*
X499060Y1215831D01*
X499140Y1215777D01*
X499218Y1215721D01*
X499293Y1215661D01*
X499366Y1215598D01*
X499436Y1215532D01*
X499503Y1215464D01*
X499568Y1215393D01*
X499630Y1215319D01*
X499689Y1215243D01*
X499745Y1215165D01*
X499797Y1215084D01*
X499847Y1215002D01*
X499893Y1214917D01*
X499935Y1214831D01*
X499975Y1214743D01*
X500010Y1214654D01*
X500042Y1214563D01*
X500071Y1214471D01*
X500095Y1214378D01*
X500116Y1214285D01*
X500133Y1214190D01*
X500147Y1214095D01*
X500156Y1213999D01*
X500162Y1213903D01*
X500164Y1213807D01*
X498979Y1215881D02*
X495719Y1217659D01*
D10*
X510920Y1225380D02*
X533080Y1225380D01*
X533080Y1000020D01*
X510920Y1000020D01*
X510920Y1225380D01*
D13*
X511428Y1231250D02*
X511428Y1239689D01*
X511428Y1231250D02*
X511430Y1231137D01*
X511436Y1231024D01*
X511446Y1230911D01*
X511460Y1230798D01*
X511477Y1230686D01*
X511499Y1230575D01*
X511524Y1230465D01*
X511554Y1230355D01*
X511587Y1230247D01*
X511624Y1230140D01*
X511664Y1230034D01*
X511709Y1229930D01*
X511757Y1229827D01*
X511808Y1229726D01*
X511863Y1229627D01*
X511921Y1229530D01*
X511983Y1229435D01*
X512048Y1229342D01*
X512116Y1229252D01*
X512187Y1229164D01*
X512262Y1229078D01*
X512339Y1228995D01*
X512419Y1228915D01*
X512502Y1228838D01*
X512588Y1228763D01*
X512676Y1228692D01*
X512766Y1228624D01*
X512859Y1228559D01*
X512954Y1228497D01*
X513051Y1228439D01*
X513150Y1228384D01*
X513251Y1228333D01*
X513354Y1228285D01*
X513458Y1228240D01*
X513564Y1228200D01*
X513671Y1228163D01*
X513779Y1228130D01*
X513889Y1228100D01*
X513999Y1228075D01*
X514110Y1228053D01*
X514222Y1228036D01*
X514335Y1228022D01*
X514448Y1228012D01*
X514561Y1228006D01*
X514674Y1228004D01*
X514787Y1228006D01*
X514900Y1228012D01*
X515013Y1228022D01*
X515126Y1228036D01*
X515238Y1228053D01*
X515349Y1228075D01*
X515459Y1228100D01*
X515569Y1228130D01*
X515677Y1228163D01*
X515784Y1228200D01*
X515890Y1228240D01*
X515994Y1228285D01*
X516097Y1228333D01*
X516198Y1228384D01*
X516297Y1228439D01*
X516394Y1228497D01*
X516489Y1228559D01*
X516582Y1228624D01*
X516672Y1228692D01*
X516760Y1228763D01*
X516846Y1228838D01*
X516929Y1228915D01*
X517009Y1228995D01*
X517086Y1229078D01*
X517161Y1229164D01*
X517232Y1229252D01*
X517300Y1229342D01*
X517365Y1229435D01*
X517427Y1229530D01*
X517485Y1229627D01*
X517540Y1229726D01*
X517591Y1229827D01*
X517639Y1229930D01*
X517684Y1230034D01*
X517724Y1230140D01*
X517761Y1230247D01*
X517794Y1230355D01*
X517824Y1230465D01*
X517849Y1230575D01*
X517871Y1230686D01*
X517888Y1230798D01*
X517902Y1230911D01*
X517912Y1231024D01*
X517918Y1231137D01*
X517920Y1231250D01*
X517919Y1231250D02*
X517919Y1239689D01*
X525723Y1239689D02*
X525723Y1228005D01*
X525723Y1233847D02*
X524100Y1234820D01*
X524099Y1234820D02*
X524026Y1234867D01*
X523955Y1234916D01*
X523885Y1234969D01*
X523819Y1235025D01*
X523755Y1235084D01*
X523693Y1235145D01*
X523635Y1235209D01*
X523579Y1235276D01*
X523527Y1235345D01*
X523477Y1235417D01*
X523431Y1235491D01*
X523388Y1235566D01*
X523349Y1235644D01*
X523313Y1235723D01*
X523281Y1235804D01*
X523252Y1235886D01*
X523227Y1235969D01*
X523206Y1236053D01*
X523189Y1236138D01*
X523175Y1236224D01*
X523166Y1236310D01*
X523160Y1236397D01*
X523158Y1236484D01*
X523160Y1236571D01*
X523166Y1236658D01*
X523176Y1236744D01*
X523189Y1236830D01*
X523207Y1236915D01*
X523228Y1236999D01*
X523253Y1237082D01*
X523282Y1237165D01*
X523314Y1237245D01*
X523350Y1237324D01*
X523389Y1237402D01*
X523432Y1237477D01*
X523479Y1237551D01*
X523528Y1237622D01*
X523581Y1237692D01*
X523636Y1237758D01*
X523695Y1237822D01*
X523756Y1237884D01*
X523821Y1237943D01*
X523887Y1237998D01*
X523956Y1238051D01*
X524028Y1238101D01*
X524101Y1238147D01*
X524177Y1238190D01*
X524254Y1238229D01*
X524333Y1238265D01*
X524414Y1238298D01*
X524496Y1238326D01*
X524579Y1238352D01*
X524663Y1238373D01*
X524749Y1238390D01*
X524889Y1238414D01*
X525031Y1238434D01*
X525172Y1238450D01*
X525314Y1238461D01*
X525457Y1238469D01*
X525599Y1238473D01*
X525742Y1238474D01*
X525885Y1238470D01*
X526027Y1238462D01*
X526169Y1238450D01*
X526311Y1238434D01*
X526452Y1238415D01*
X526593Y1238391D01*
X526733Y1238364D01*
X526872Y1238332D01*
X527010Y1238297D01*
X527148Y1238258D01*
X527284Y1238215D01*
X527418Y1238169D01*
X527552Y1238118D01*
X527684Y1238065D01*
X527814Y1238007D01*
X527943Y1237946D01*
X528070Y1237881D01*
X528196Y1237813D01*
X528319Y1237741D01*
X525723Y1233847D02*
X527345Y1232873D01*
X527346Y1232873D02*
X527419Y1232826D01*
X527490Y1232777D01*
X527560Y1232724D01*
X527626Y1232668D01*
X527690Y1232609D01*
X527752Y1232548D01*
X527810Y1232484D01*
X527866Y1232417D01*
X527918Y1232348D01*
X527968Y1232276D01*
X528014Y1232202D01*
X528057Y1232127D01*
X528096Y1232049D01*
X528132Y1231970D01*
X528164Y1231889D01*
X528193Y1231807D01*
X528218Y1231724D01*
X528239Y1231640D01*
X528256Y1231555D01*
X528270Y1231469D01*
X528279Y1231383D01*
X528285Y1231296D01*
X528287Y1231209D01*
X528285Y1231122D01*
X528279Y1231035D01*
X528269Y1230949D01*
X528256Y1230863D01*
X528238Y1230778D01*
X528217Y1230694D01*
X528192Y1230611D01*
X528163Y1230528D01*
X528131Y1230448D01*
X528095Y1230369D01*
X528056Y1230291D01*
X528013Y1230216D01*
X527966Y1230142D01*
X527917Y1230071D01*
X527864Y1230001D01*
X527809Y1229935D01*
X527750Y1229871D01*
X527689Y1229809D01*
X527624Y1229750D01*
X527558Y1229695D01*
X527489Y1229642D01*
X527417Y1229592D01*
X527344Y1229546D01*
X527268Y1229503D01*
X527191Y1229464D01*
X527112Y1229428D01*
X527031Y1229395D01*
X526949Y1229367D01*
X526866Y1229341D01*
X526782Y1229320D01*
X526697Y1229303D01*
X526696Y1229303D02*
X526556Y1229279D01*
X526414Y1229259D01*
X526273Y1229243D01*
X526131Y1229232D01*
X525988Y1229224D01*
X525846Y1229220D01*
X525703Y1229219D01*
X525560Y1229223D01*
X525418Y1229231D01*
X525276Y1229243D01*
X525134Y1229259D01*
X524993Y1229278D01*
X524852Y1229302D01*
X524712Y1229329D01*
X524573Y1229361D01*
X524435Y1229396D01*
X524297Y1229435D01*
X524161Y1229478D01*
X524027Y1229524D01*
X523893Y1229575D01*
X523761Y1229628D01*
X523631Y1229686D01*
X523502Y1229747D01*
X523375Y1229812D01*
X523249Y1229880D01*
X523126Y1229952D01*
X533145Y1238390D02*
X533145Y1239689D01*
X539636Y1239689D01*
X536391Y1228005D01*
D15*
X292138Y1297882D02*
X283502Y1297882D01*
X283502Y1300281D01*
X283504Y1300378D01*
X283510Y1300474D01*
X283519Y1300570D01*
X283533Y1300666D01*
X283550Y1300761D01*
X283572Y1300855D01*
X283597Y1300948D01*
X283625Y1301041D01*
X283658Y1301132D01*
X283694Y1301221D01*
X283734Y1301309D01*
X283777Y1301396D01*
X283823Y1301481D01*
X283873Y1301563D01*
X283927Y1301644D01*
X283983Y1301722D01*
X284043Y1301798D01*
X284105Y1301872D01*
X284171Y1301943D01*
X284239Y1302011D01*
X284310Y1302077D01*
X284384Y1302139D01*
X284460Y1302199D01*
X284538Y1302255D01*
X284619Y1302309D01*
X284702Y1302359D01*
X284786Y1302405D01*
X284873Y1302448D01*
X284961Y1302488D01*
X285050Y1302524D01*
X285141Y1302557D01*
X285234Y1302585D01*
X285327Y1302610D01*
X285421Y1302632D01*
X285516Y1302649D01*
X285612Y1302663D01*
X285708Y1302672D01*
X285804Y1302678D01*
X285901Y1302680D01*
X285998Y1302678D01*
X286094Y1302672D01*
X286190Y1302663D01*
X286286Y1302649D01*
X286381Y1302632D01*
X286475Y1302610D01*
X286568Y1302585D01*
X286661Y1302557D01*
X286752Y1302524D01*
X286841Y1302488D01*
X286929Y1302448D01*
X287016Y1302405D01*
X287101Y1302359D01*
X287183Y1302309D01*
X287264Y1302255D01*
X287342Y1302199D01*
X287418Y1302139D01*
X287492Y1302077D01*
X287563Y1302011D01*
X287631Y1301943D01*
X287697Y1301872D01*
X287759Y1301798D01*
X287819Y1301722D01*
X287875Y1301644D01*
X287929Y1301563D01*
X287979Y1301481D01*
X288025Y1301396D01*
X288068Y1301309D01*
X288108Y1301221D01*
X288144Y1301132D01*
X288177Y1301041D01*
X288205Y1300948D01*
X288230Y1300855D01*
X288252Y1300761D01*
X288269Y1300666D01*
X288283Y1300570D01*
X288292Y1300474D01*
X288298Y1300378D01*
X288300Y1300281D01*
X288300Y1297882D01*
X288300Y1300761D02*
X292138Y1302680D01*
X292138Y1306462D02*
X283502Y1312219D01*
X283502Y1306462D02*
X292138Y1312219D01*
X288780Y1316215D02*
X288780Y1321972D01*
X292138Y1327018D02*
X283502Y1327018D01*
X292138Y1326059D02*
X292138Y1327978D01*
X283502Y1327978D02*
X283502Y1326059D01*
X308902Y1300281D02*
X317538Y1300281D01*
X308902Y1297882D02*
X308902Y1302680D01*
X308902Y1311694D02*
X317538Y1305937D01*
X317538Y1311694D02*
X308902Y1305937D01*
X314180Y1315690D02*
X314180Y1321447D01*
X315139Y1325924D02*
X311301Y1325924D01*
X311301Y1325923D02*
X311204Y1325925D01*
X311108Y1325931D01*
X311012Y1325940D01*
X310916Y1325954D01*
X310821Y1325971D01*
X310727Y1325993D01*
X310634Y1326018D01*
X310541Y1326046D01*
X310450Y1326079D01*
X310361Y1326115D01*
X310273Y1326155D01*
X310186Y1326198D01*
X310102Y1326244D01*
X310019Y1326294D01*
X309938Y1326348D01*
X309860Y1326404D01*
X309784Y1326464D01*
X309710Y1326526D01*
X309639Y1326592D01*
X309571Y1326660D01*
X309505Y1326731D01*
X309443Y1326805D01*
X309383Y1326881D01*
X309327Y1326959D01*
X309273Y1327040D01*
X309223Y1327123D01*
X309177Y1327207D01*
X309134Y1327294D01*
X309094Y1327382D01*
X309058Y1327471D01*
X309025Y1327562D01*
X308997Y1327655D01*
X308972Y1327748D01*
X308950Y1327842D01*
X308933Y1327937D01*
X308919Y1328033D01*
X308910Y1328129D01*
X308904Y1328225D01*
X308902Y1328322D01*
X308904Y1328419D01*
X308910Y1328515D01*
X308919Y1328611D01*
X308933Y1328707D01*
X308950Y1328802D01*
X308972Y1328896D01*
X308997Y1328989D01*
X309025Y1329082D01*
X309058Y1329173D01*
X309094Y1329262D01*
X309134Y1329350D01*
X309177Y1329437D01*
X309223Y1329522D01*
X309273Y1329604D01*
X309327Y1329685D01*
X309383Y1329763D01*
X309443Y1329839D01*
X309505Y1329913D01*
X309571Y1329984D01*
X309639Y1330052D01*
X309710Y1330118D01*
X309784Y1330180D01*
X309860Y1330240D01*
X309938Y1330296D01*
X310019Y1330350D01*
X310102Y1330400D01*
X310186Y1330446D01*
X310273Y1330489D01*
X310361Y1330529D01*
X310450Y1330565D01*
X310541Y1330598D01*
X310634Y1330626D01*
X310727Y1330651D01*
X310821Y1330673D01*
X310916Y1330690D01*
X311012Y1330704D01*
X311108Y1330713D01*
X311204Y1330719D01*
X311301Y1330721D01*
X315139Y1330721D01*
X315236Y1330719D01*
X315332Y1330713D01*
X315428Y1330704D01*
X315524Y1330690D01*
X315619Y1330673D01*
X315713Y1330651D01*
X315806Y1330626D01*
X315899Y1330598D01*
X315990Y1330565D01*
X316079Y1330529D01*
X316167Y1330489D01*
X316254Y1330446D01*
X316339Y1330400D01*
X316421Y1330350D01*
X316502Y1330296D01*
X316580Y1330240D01*
X316656Y1330180D01*
X316730Y1330118D01*
X316801Y1330052D01*
X316869Y1329984D01*
X316935Y1329913D01*
X316997Y1329839D01*
X317057Y1329763D01*
X317113Y1329685D01*
X317167Y1329604D01*
X317217Y1329522D01*
X317263Y1329437D01*
X317306Y1329350D01*
X317346Y1329262D01*
X317382Y1329173D01*
X317415Y1329082D01*
X317443Y1328989D01*
X317468Y1328896D01*
X317490Y1328802D01*
X317507Y1328707D01*
X317521Y1328611D01*
X317530Y1328515D01*
X317536Y1328419D01*
X317538Y1328322D01*
X317536Y1328225D01*
X317530Y1328129D01*
X317521Y1328033D01*
X317507Y1327937D01*
X317490Y1327842D01*
X317468Y1327748D01*
X317443Y1327655D01*
X317415Y1327562D01*
X317382Y1327471D01*
X317346Y1327382D01*
X317306Y1327294D01*
X317263Y1327207D01*
X317217Y1327123D01*
X317167Y1327040D01*
X317113Y1326959D01*
X317057Y1326881D01*
X316997Y1326805D01*
X316935Y1326731D01*
X316869Y1326660D01*
X316801Y1326592D01*
X316730Y1326526D01*
X316656Y1326464D01*
X316580Y1326404D01*
X316502Y1326348D01*
X316421Y1326294D01*
X316339Y1326244D01*
X316254Y1326198D01*
X316167Y1326155D01*
X316079Y1326115D01*
X315990Y1326079D01*
X315899Y1326046D01*
X315806Y1326018D01*
X315713Y1325993D01*
X315619Y1325971D01*
X315524Y1325954D01*
X315428Y1325940D01*
X315332Y1325931D01*
X315236Y1325925D01*
X315139Y1325923D01*
X338140Y1302680D02*
X338140Y1301240D01*
X338140Y1302680D02*
X342938Y1302680D01*
X342938Y1299801D01*
X342936Y1299715D01*
X342930Y1299629D01*
X342921Y1299543D01*
X342907Y1299458D01*
X342890Y1299374D01*
X342869Y1299290D01*
X342844Y1299208D01*
X342816Y1299127D01*
X342784Y1299047D01*
X342748Y1298968D01*
X342709Y1298892D01*
X342666Y1298817D01*
X342621Y1298744D01*
X342572Y1298673D01*
X342519Y1298605D01*
X342464Y1298538D01*
X342406Y1298475D01*
X342345Y1298414D01*
X342282Y1298356D01*
X342215Y1298301D01*
X342147Y1298249D01*
X342076Y1298199D01*
X342003Y1298154D01*
X341928Y1298111D01*
X341852Y1298072D01*
X341773Y1298036D01*
X341693Y1298004D01*
X341612Y1297976D01*
X341530Y1297951D01*
X341446Y1297930D01*
X341362Y1297913D01*
X341277Y1297899D01*
X341191Y1297890D01*
X341105Y1297884D01*
X341019Y1297882D01*
X336221Y1297882D01*
X336135Y1297884D01*
X336049Y1297890D01*
X335963Y1297899D01*
X335878Y1297913D01*
X335794Y1297930D01*
X335710Y1297951D01*
X335628Y1297976D01*
X335547Y1298004D01*
X335467Y1298036D01*
X335388Y1298072D01*
X335312Y1298111D01*
X335237Y1298154D01*
X335164Y1298199D01*
X335093Y1298248D01*
X335025Y1298301D01*
X334958Y1298356D01*
X334895Y1298414D01*
X334834Y1298475D01*
X334776Y1298538D01*
X334721Y1298605D01*
X334669Y1298673D01*
X334619Y1298744D01*
X334574Y1298817D01*
X334531Y1298892D01*
X334492Y1298968D01*
X334456Y1299047D01*
X334424Y1299127D01*
X334396Y1299208D01*
X334371Y1299290D01*
X334350Y1299374D01*
X334333Y1299458D01*
X334319Y1299543D01*
X334310Y1299629D01*
X334304Y1299715D01*
X334302Y1299801D01*
X334302Y1302680D01*
X334302Y1307636D02*
X342938Y1307636D01*
X342938Y1312433D02*
X334302Y1307636D01*
X334302Y1312433D02*
X342938Y1312433D01*
X342938Y1317389D02*
X334302Y1317389D01*
X334302Y1319788D01*
X334304Y1319885D01*
X334310Y1319981D01*
X334319Y1320077D01*
X334333Y1320173D01*
X334350Y1320268D01*
X334372Y1320362D01*
X334397Y1320455D01*
X334425Y1320548D01*
X334458Y1320639D01*
X334494Y1320728D01*
X334534Y1320816D01*
X334577Y1320903D01*
X334623Y1320988D01*
X334673Y1321070D01*
X334727Y1321151D01*
X334783Y1321229D01*
X334843Y1321305D01*
X334905Y1321379D01*
X334971Y1321450D01*
X335039Y1321518D01*
X335110Y1321584D01*
X335184Y1321646D01*
X335260Y1321706D01*
X335338Y1321762D01*
X335419Y1321816D01*
X335502Y1321866D01*
X335586Y1321912D01*
X335673Y1321955D01*
X335761Y1321995D01*
X335850Y1322031D01*
X335941Y1322064D01*
X336034Y1322092D01*
X336127Y1322117D01*
X336221Y1322139D01*
X336316Y1322156D01*
X336412Y1322170D01*
X336508Y1322179D01*
X336604Y1322185D01*
X336701Y1322187D01*
X340539Y1322187D01*
X340636Y1322185D01*
X340732Y1322179D01*
X340828Y1322170D01*
X340924Y1322156D01*
X341019Y1322139D01*
X341113Y1322117D01*
X341206Y1322092D01*
X341299Y1322064D01*
X341390Y1322031D01*
X341479Y1321995D01*
X341567Y1321955D01*
X341654Y1321912D01*
X341739Y1321866D01*
X341821Y1321816D01*
X341902Y1321762D01*
X341980Y1321706D01*
X342056Y1321646D01*
X342130Y1321584D01*
X342201Y1321518D01*
X342269Y1321450D01*
X342335Y1321379D01*
X342397Y1321305D01*
X342457Y1321229D01*
X342513Y1321151D01*
X342567Y1321070D01*
X342617Y1320988D01*
X342663Y1320903D01*
X342706Y1320816D01*
X342746Y1320728D01*
X342782Y1320639D01*
X342815Y1320548D01*
X342843Y1320455D01*
X342868Y1320362D01*
X342890Y1320268D01*
X342907Y1320173D01*
X342921Y1320077D01*
X342930Y1319981D01*
X342936Y1319885D01*
X342938Y1319788D01*
X342938Y1317389D01*
X359702Y1297882D02*
X368338Y1300761D01*
X359702Y1303639D01*
X368338Y1309387D02*
X368338Y1311306D01*
X368338Y1309387D02*
X368336Y1309301D01*
X368330Y1309215D01*
X368321Y1309129D01*
X368307Y1309044D01*
X368290Y1308960D01*
X368269Y1308876D01*
X368244Y1308794D01*
X368216Y1308713D01*
X368184Y1308633D01*
X368148Y1308554D01*
X368109Y1308478D01*
X368066Y1308403D01*
X368021Y1308330D01*
X367972Y1308259D01*
X367919Y1308191D01*
X367864Y1308124D01*
X367806Y1308061D01*
X367745Y1308000D01*
X367682Y1307942D01*
X367615Y1307887D01*
X367547Y1307835D01*
X367476Y1307785D01*
X367403Y1307740D01*
X367328Y1307697D01*
X367252Y1307658D01*
X367173Y1307622D01*
X367093Y1307590D01*
X367012Y1307562D01*
X366930Y1307537D01*
X366846Y1307516D01*
X366762Y1307499D01*
X366677Y1307485D01*
X366591Y1307476D01*
X366505Y1307470D01*
X366419Y1307468D01*
X361621Y1307468D01*
X361535Y1307470D01*
X361449Y1307476D01*
X361363Y1307485D01*
X361278Y1307499D01*
X361194Y1307516D01*
X361110Y1307537D01*
X361028Y1307562D01*
X360947Y1307590D01*
X360867Y1307622D01*
X360788Y1307658D01*
X360712Y1307697D01*
X360637Y1307740D01*
X360564Y1307785D01*
X360493Y1307834D01*
X360425Y1307887D01*
X360358Y1307942D01*
X360295Y1308000D01*
X360234Y1308061D01*
X360176Y1308124D01*
X360121Y1308191D01*
X360069Y1308259D01*
X360019Y1308330D01*
X359974Y1308403D01*
X359931Y1308478D01*
X359892Y1308554D01*
X359856Y1308633D01*
X359824Y1308713D01*
X359796Y1308794D01*
X359771Y1308876D01*
X359750Y1308960D01*
X359733Y1309044D01*
X359719Y1309129D01*
X359710Y1309215D01*
X359704Y1309301D01*
X359702Y1309387D01*
X359702Y1311306D01*
X368338Y1317007D02*
X368338Y1318926D01*
X368338Y1317007D02*
X368336Y1316921D01*
X368330Y1316835D01*
X368321Y1316749D01*
X368307Y1316664D01*
X368290Y1316580D01*
X368269Y1316496D01*
X368244Y1316414D01*
X368216Y1316333D01*
X368184Y1316253D01*
X368148Y1316174D01*
X368109Y1316098D01*
X368066Y1316023D01*
X368021Y1315950D01*
X367972Y1315879D01*
X367919Y1315811D01*
X367864Y1315744D01*
X367806Y1315681D01*
X367745Y1315620D01*
X367682Y1315562D01*
X367615Y1315507D01*
X367547Y1315455D01*
X367476Y1315405D01*
X367403Y1315360D01*
X367328Y1315317D01*
X367252Y1315278D01*
X367173Y1315242D01*
X367093Y1315210D01*
X367012Y1315182D01*
X366930Y1315157D01*
X366846Y1315136D01*
X366762Y1315119D01*
X366677Y1315105D01*
X366591Y1315096D01*
X366505Y1315090D01*
X366419Y1315088D01*
X366419Y1315087D02*
X361621Y1315087D01*
X361621Y1315088D02*
X361535Y1315090D01*
X361449Y1315096D01*
X361363Y1315105D01*
X361278Y1315119D01*
X361194Y1315136D01*
X361110Y1315157D01*
X361028Y1315182D01*
X360947Y1315210D01*
X360867Y1315242D01*
X360788Y1315278D01*
X360712Y1315317D01*
X360637Y1315360D01*
X360564Y1315405D01*
X360493Y1315454D01*
X360425Y1315507D01*
X360358Y1315562D01*
X360295Y1315620D01*
X360234Y1315681D01*
X360176Y1315744D01*
X360121Y1315811D01*
X360069Y1315879D01*
X360019Y1315950D01*
X359974Y1316023D01*
X359931Y1316098D01*
X359892Y1316174D01*
X359856Y1316253D01*
X359824Y1316333D01*
X359796Y1316414D01*
X359771Y1316496D01*
X359750Y1316580D01*
X359733Y1316664D01*
X359719Y1316749D01*
X359710Y1316835D01*
X359704Y1316921D01*
X359702Y1317007D01*
X359702Y1318926D01*
M02*
