G04 EAGLE Gerber RS-274X export*
G75*
%MOMM*%
%FSLAX34Y34*%
%LPD*%
%INSoldermask Bottom*%
%IPPOS*%
%AMOC8*
5,1,8,0,0,1.08239X$1,22.5*%
G01*
%ADD10C,6.803200*%
%ADD11C,3.743200*%
%ADD12C,1.981200*%
%ADD13R,1.511200X1.511200*%
%ADD14C,1.511200*%
%ADD15R,2.235200X2.235200*%
%ADD16C,2.235200*%
%ADD17C,2.082800*%
%ADD18C,1.727200*%
%ADD19C,2.803200*%
%ADD20C,2.703200*%
%ADD21C,0.959600*%


D10*
X97500Y1400000D03*
X100000Y97500D03*
X777500Y100000D03*
X777500Y1400000D03*
D11*
X520000Y230000D03*
X380000Y230000D03*
X50000Y890000D03*
X555000Y890000D03*
X240000Y1410000D03*
X610000Y1410000D03*
D12*
X109500Y810400D03*
D13*
X134900Y810400D03*
D14*
X160300Y810400D03*
X185700Y810400D03*
X211100Y810400D03*
X236500Y810400D03*
X261900Y810400D03*
X287300Y810400D03*
X312700Y810400D03*
X338100Y810400D03*
X363500Y810400D03*
X388900Y810400D03*
X414300Y810400D03*
X439700Y810400D03*
X465100Y810400D03*
X490500Y810400D03*
X490500Y962800D03*
X465100Y962800D03*
X439700Y962800D03*
X414300Y962800D03*
X388900Y962800D03*
X363500Y962800D03*
X338100Y962800D03*
X312700Y962800D03*
X287300Y962800D03*
X261900Y962800D03*
X236500Y962800D03*
X211100Y962800D03*
X185700Y962800D03*
X160300Y962800D03*
X134900Y962800D03*
D12*
X109500Y962800D03*
X515900Y962800D03*
X515900Y810400D03*
D15*
X172500Y1260000D03*
D16*
X172500Y1295000D03*
D17*
X425000Y170000D03*
X450400Y170000D03*
X475800Y170000D03*
D18*
X506000Y547500D03*
X480600Y547500D03*
X455200Y547500D03*
X429800Y547500D03*
X404400Y547500D03*
X379000Y547500D03*
D19*
X190000Y240200D03*
X69000Y606300D03*
X311000Y606300D03*
D18*
X101100Y743100D03*
X126500Y743100D03*
X151900Y743100D03*
X177300Y743100D03*
X202700Y743100D03*
X228100Y743100D03*
X253500Y743100D03*
X278900Y743100D03*
X278900Y768500D03*
X253500Y768500D03*
X228100Y768500D03*
X202700Y768500D03*
X177300Y768500D03*
X151900Y768500D03*
X126500Y768500D03*
X101100Y768500D03*
X394200Y598800D03*
X419600Y598800D03*
X445000Y598800D03*
X470400Y598800D03*
X495800Y598800D03*
D20*
X510000Y748470D03*
X383400Y748470D03*
D18*
X522000Y1214300D03*
X522000Y1188900D03*
X522000Y1163500D03*
X522000Y1138100D03*
X522000Y1112700D03*
X522000Y1087300D03*
X522000Y1061900D03*
X522000Y1036500D03*
X522000Y1011100D03*
D20*
X229900Y1214300D03*
X229900Y1011100D03*
D18*
X364020Y1283150D03*
X313220Y1283150D03*
X287820Y1283150D03*
X338620Y1283150D03*
D21*
X510540Y868680D03*
X297180Y723900D03*
X91440Y914400D03*
X114300Y891540D03*
X541020Y922020D03*
X601980Y731520D03*
X327660Y739140D03*
X327660Y769620D03*
X68580Y1196340D03*
X350520Y601980D03*
X556260Y800100D03*
M02*
