G04 EAGLE Gerber RS-274X export*
G75*
%MOMM*%
%FSLAX34Y34*%
%LPD*%
%IN*%
%IPPOS*%
%AMOC8*
5,1,8,0,0,1.08239X$1,22.5*%
G01*
%ADD10C,0.254000*%


D10*
X0Y0D02*
X2400000Y0D01*
X2400000Y130000D01*
X0Y130000D01*
X0Y0D01*
X317000Y64443D02*
X316927Y63333D01*
X316782Y62229D01*
X316565Y61138D01*
X316277Y60063D01*
X315919Y59009D01*
X315493Y57980D01*
X315001Y56982D01*
X314444Y56018D01*
X313826Y55093D01*
X313148Y54210D01*
X312414Y53373D01*
X311627Y52586D01*
X310790Y51852D01*
X309907Y51174D01*
X308982Y50556D01*
X308018Y49999D01*
X307020Y49507D01*
X305991Y49081D01*
X304937Y48723D01*
X303862Y48435D01*
X302771Y48218D01*
X301667Y48073D01*
X300557Y48000D01*
X299443Y48000D01*
X298333Y48073D01*
X297229Y48218D01*
X296138Y48435D01*
X295063Y48723D01*
X294009Y49081D01*
X292980Y49507D01*
X291982Y49999D01*
X291018Y50556D01*
X290093Y51174D01*
X289210Y51852D01*
X288373Y52586D01*
X287586Y53373D01*
X286852Y54210D01*
X286174Y55093D01*
X285556Y56018D01*
X284999Y56982D01*
X284507Y57980D01*
X284081Y59009D01*
X283723Y60063D01*
X283435Y61138D01*
X283218Y62229D01*
X283073Y63333D01*
X283000Y64443D01*
X283000Y65557D01*
X283073Y66667D01*
X283218Y67771D01*
X283435Y68862D01*
X283723Y69937D01*
X284081Y70991D01*
X284507Y72020D01*
X284999Y73018D01*
X285556Y73982D01*
X286174Y74907D01*
X286852Y75790D01*
X287586Y76627D01*
X288373Y77414D01*
X289210Y78148D01*
X290093Y78826D01*
X291018Y79444D01*
X291982Y80001D01*
X292980Y80493D01*
X294009Y80919D01*
X295063Y81277D01*
X296138Y81565D01*
X297229Y81782D01*
X298333Y81927D01*
X299443Y82000D01*
X300557Y82000D01*
X301667Y81927D01*
X302771Y81782D01*
X303862Y81565D01*
X304937Y81277D01*
X305991Y80919D01*
X307020Y80493D01*
X308018Y80001D01*
X308982Y79444D01*
X309907Y78826D01*
X310790Y78148D01*
X311627Y77414D01*
X312414Y76627D01*
X313148Y75790D01*
X313826Y74907D01*
X314444Y73982D01*
X315001Y73018D01*
X315493Y72020D01*
X315919Y70991D01*
X316277Y69937D01*
X316565Y68862D01*
X316782Y67771D01*
X316927Y66667D01*
X317000Y65557D01*
X317000Y64443D01*
X2117000Y64443D02*
X2116927Y63333D01*
X2116782Y62229D01*
X2116565Y61138D01*
X2116277Y60063D01*
X2115919Y59009D01*
X2115493Y57980D01*
X2115001Y56982D01*
X2114444Y56018D01*
X2113826Y55093D01*
X2113148Y54210D01*
X2112414Y53373D01*
X2111627Y52586D01*
X2110790Y51852D01*
X2109907Y51174D01*
X2108982Y50556D01*
X2108018Y49999D01*
X2107020Y49507D01*
X2105991Y49081D01*
X2104937Y48723D01*
X2103862Y48435D01*
X2102771Y48218D01*
X2101667Y48073D01*
X2100557Y48000D01*
X2099443Y48000D01*
X2098333Y48073D01*
X2097229Y48218D01*
X2096138Y48435D01*
X2095063Y48723D01*
X2094009Y49081D01*
X2092980Y49507D01*
X2091982Y49999D01*
X2091018Y50556D01*
X2090093Y51174D01*
X2089210Y51852D01*
X2088373Y52586D01*
X2087586Y53373D01*
X2086852Y54210D01*
X2086174Y55093D01*
X2085556Y56018D01*
X2084999Y56982D01*
X2084507Y57980D01*
X2084081Y59009D01*
X2083723Y60063D01*
X2083435Y61138D01*
X2083218Y62229D01*
X2083073Y63333D01*
X2083000Y64443D01*
X2083000Y65557D01*
X2083073Y66667D01*
X2083218Y67771D01*
X2083435Y68862D01*
X2083723Y69937D01*
X2084081Y70991D01*
X2084507Y72020D01*
X2084999Y73018D01*
X2085556Y73982D01*
X2086174Y74907D01*
X2086852Y75790D01*
X2087586Y76627D01*
X2088373Y77414D01*
X2089210Y78148D01*
X2090093Y78826D01*
X2091018Y79444D01*
X2091982Y80001D01*
X2092980Y80493D01*
X2094009Y80919D01*
X2095063Y81277D01*
X2096138Y81565D01*
X2097229Y81782D01*
X2098333Y81927D01*
X2099443Y82000D01*
X2100557Y82000D01*
X2101667Y81927D01*
X2102771Y81782D01*
X2103862Y81565D01*
X2104937Y81277D01*
X2105991Y80919D01*
X2107020Y80493D01*
X2108018Y80001D01*
X2108982Y79444D01*
X2109907Y78826D01*
X2110790Y78148D01*
X2111627Y77414D01*
X2112414Y76627D01*
X2113148Y75790D01*
X2113826Y74907D01*
X2114444Y73982D01*
X2115001Y73018D01*
X2115493Y72020D01*
X2115919Y70991D01*
X2116277Y69937D01*
X2116565Y68862D01*
X2116782Y67771D01*
X2116927Y66667D01*
X2117000Y65557D01*
X2117000Y64443D01*
M02*
