G04 EAGLE Gerber RS-274X export*
G75*
%MOMM*%
%FSLAX34Y34*%
%LPD*%
%INSilkscreen Top*%
%IPPOS*%
%AMOC8*
5,1,8,0,0,1.08239X$1,22.5*%
G01*
%ADD10C,0.203200*%
%ADD11C,0.127000*%


D10*
X72700Y86350D02*
X72700Y73650D01*
X66350Y67300D01*
X53650Y67300D02*
X47300Y73650D01*
X66350Y67300D02*
X72700Y60950D01*
X72700Y48250D01*
X66350Y41900D01*
X53650Y41900D02*
X47300Y48250D01*
X47300Y60950D01*
X53650Y67300D01*
X53650Y92700D02*
X66350Y92700D01*
X72700Y86350D01*
X53650Y92700D02*
X47300Y86350D01*
X47300Y73650D01*
X53650Y41900D02*
X66350Y41900D01*
D11*
X74605Y86436D02*
X78359Y86436D01*
X78424Y86434D01*
X78488Y86428D01*
X78552Y86418D01*
X78616Y86405D01*
X78678Y86387D01*
X78739Y86366D01*
X78799Y86342D01*
X78857Y86313D01*
X78914Y86281D01*
X78968Y86246D01*
X79020Y86208D01*
X79070Y86166D01*
X79117Y86122D01*
X79161Y86075D01*
X79203Y86025D01*
X79241Y85973D01*
X79276Y85919D01*
X79308Y85862D01*
X79337Y85804D01*
X79361Y85744D01*
X79382Y85683D01*
X79400Y85621D01*
X79413Y85557D01*
X79423Y85493D01*
X79429Y85429D01*
X79431Y85364D01*
X79431Y84827D01*
X75677Y89384D02*
X74605Y90724D01*
X79431Y90724D01*
X79431Y89384D02*
X79431Y92065D01*
X100948Y89245D02*
X100948Y84419D01*
X100948Y89245D02*
X102289Y89245D01*
X102360Y89243D01*
X102432Y89237D01*
X102502Y89228D01*
X102572Y89215D01*
X102642Y89198D01*
X102710Y89177D01*
X102777Y89153D01*
X102843Y89125D01*
X102907Y89094D01*
X102970Y89059D01*
X103030Y89021D01*
X103089Y88980D01*
X103145Y88936D01*
X103199Y88889D01*
X103250Y88840D01*
X103298Y88787D01*
X103344Y88732D01*
X103386Y88675D01*
X103426Y88615D01*
X103462Y88554D01*
X103495Y88490D01*
X103524Y88425D01*
X103550Y88359D01*
X103573Y88291D01*
X103592Y88222D01*
X103607Y88152D01*
X103618Y88082D01*
X103626Y88011D01*
X103630Y87940D01*
X103630Y87868D01*
X103626Y87797D01*
X103618Y87726D01*
X103607Y87656D01*
X103592Y87586D01*
X103573Y87517D01*
X103550Y87449D01*
X103524Y87383D01*
X103495Y87318D01*
X103462Y87254D01*
X103426Y87193D01*
X103386Y87133D01*
X103344Y87076D01*
X103298Y87021D01*
X103250Y86968D01*
X103199Y86919D01*
X103145Y86872D01*
X103089Y86828D01*
X103030Y86787D01*
X102970Y86749D01*
X102907Y86714D01*
X102843Y86683D01*
X102777Y86655D01*
X102710Y86631D01*
X102642Y86610D01*
X102572Y86593D01*
X102502Y86580D01*
X102432Y86571D01*
X102360Y86565D01*
X102289Y86563D01*
X102289Y86564D02*
X100948Y86564D01*
X102557Y86564D02*
X103629Y84419D01*
X106371Y88173D02*
X107711Y89245D01*
X107711Y84419D01*
X106371Y84419D02*
X109052Y84419D01*
M02*
