G04 EAGLE Gerber RS-274X export*
G75*
%MOMM*%
%FSLAX34Y34*%
%LPD*%
%IN*%
%IPPOS*%
%AMOC8*
5,1,8,0,0,1.08239X$1,22.5*%
G01*
%ADD10C,0.254000*%


D10*
X0Y30000D02*
X114Y27385D01*
X456Y24791D01*
X1022Y22235D01*
X1809Y19739D01*
X2811Y17321D01*
X4019Y15000D01*
X5425Y12793D01*
X7019Y10716D01*
X8787Y8787D01*
X10716Y7019D01*
X12793Y5425D01*
X15000Y4019D01*
X17321Y2811D01*
X19739Y1809D01*
X22235Y1022D01*
X24791Y456D01*
X27385Y114D01*
X30000Y0D01*
X845000Y0D01*
X847615Y114D01*
X850209Y456D01*
X852765Y1022D01*
X855261Y1809D01*
X857679Y2811D01*
X860000Y4019D01*
X862207Y5425D01*
X864284Y7019D01*
X866213Y8787D01*
X867981Y10716D01*
X869575Y12793D01*
X870981Y15000D01*
X872189Y17321D01*
X873191Y19739D01*
X873978Y22235D01*
X874544Y24791D01*
X874886Y27385D01*
X875000Y30000D01*
X875000Y1470000D01*
X874886Y1472615D01*
X874544Y1475209D01*
X873978Y1477765D01*
X873191Y1480261D01*
X872189Y1482679D01*
X870981Y1485000D01*
X869575Y1487207D01*
X867981Y1489284D01*
X866213Y1491213D01*
X864284Y1492981D01*
X862207Y1494575D01*
X860000Y1495981D01*
X857679Y1497189D01*
X855261Y1498191D01*
X852765Y1498978D01*
X850209Y1499544D01*
X847615Y1499886D01*
X845000Y1500000D01*
X30000Y1500000D01*
X27385Y1499886D01*
X24791Y1499544D01*
X22235Y1498978D01*
X19739Y1498191D01*
X17321Y1497189D01*
X15000Y1495981D01*
X12793Y1494575D01*
X10716Y1492981D01*
X8787Y1491213D01*
X7019Y1489284D01*
X5425Y1487207D01*
X4019Y1485000D01*
X2811Y1482679D01*
X1809Y1480261D01*
X1022Y1477765D01*
X456Y1475209D01*
X114Y1472615D01*
X0Y1470000D01*
X0Y30000D01*
X659324Y1063142D02*
X716220Y1063142D01*
X716220Y1076858D01*
X659324Y1076858D01*
X659324Y1063142D01*
X688280Y1110640D02*
X701996Y1110640D01*
X701996Y1167536D01*
X688280Y1167536D01*
X688280Y1110640D01*
X130500Y1399190D02*
X130421Y1397572D01*
X130262Y1395959D01*
X130024Y1394357D01*
X129708Y1392767D01*
X129314Y1391196D01*
X128844Y1389645D01*
X128298Y1388120D01*
X127678Y1386623D01*
X126985Y1385158D01*
X126222Y1383729D01*
X125389Y1382340D01*
X124488Y1380993D01*
X123523Y1379691D01*
X122495Y1378439D01*
X121407Y1377238D01*
X120262Y1376093D01*
X119061Y1375005D01*
X117809Y1373977D01*
X116507Y1373012D01*
X115160Y1372111D01*
X113771Y1371278D01*
X112342Y1370515D01*
X110877Y1369822D01*
X109380Y1369202D01*
X107855Y1368656D01*
X106304Y1368186D01*
X104733Y1367792D01*
X103143Y1367476D01*
X101541Y1367238D01*
X99928Y1367080D01*
X98310Y1367000D01*
X96690Y1367000D01*
X95072Y1367080D01*
X93459Y1367238D01*
X91857Y1367476D01*
X90267Y1367792D01*
X88696Y1368186D01*
X87145Y1368656D01*
X85620Y1369202D01*
X84123Y1369822D01*
X82658Y1370515D01*
X81229Y1371278D01*
X79840Y1372111D01*
X78493Y1373012D01*
X77191Y1373977D01*
X75939Y1375005D01*
X74738Y1376093D01*
X73593Y1377238D01*
X72505Y1378439D01*
X71477Y1379691D01*
X70512Y1380993D01*
X69611Y1382340D01*
X68778Y1383729D01*
X68015Y1385158D01*
X67322Y1386623D01*
X66702Y1388120D01*
X66156Y1389645D01*
X65686Y1391196D01*
X65292Y1392767D01*
X64976Y1394357D01*
X64738Y1395959D01*
X64580Y1397572D01*
X64500Y1399190D01*
X64500Y1400810D01*
X64580Y1402428D01*
X64738Y1404041D01*
X64976Y1405643D01*
X65292Y1407233D01*
X65686Y1408804D01*
X66156Y1410355D01*
X66702Y1411880D01*
X67322Y1413377D01*
X68015Y1414842D01*
X68778Y1416271D01*
X69611Y1417660D01*
X70512Y1419007D01*
X71477Y1420309D01*
X72505Y1421561D01*
X73593Y1422762D01*
X74738Y1423907D01*
X75939Y1424995D01*
X77191Y1426023D01*
X78493Y1426988D01*
X79840Y1427889D01*
X81229Y1428722D01*
X82658Y1429485D01*
X84123Y1430178D01*
X85620Y1430798D01*
X87145Y1431344D01*
X88696Y1431814D01*
X90267Y1432208D01*
X91857Y1432524D01*
X93459Y1432762D01*
X95072Y1432921D01*
X96690Y1433000D01*
X98310Y1433000D01*
X99928Y1432921D01*
X101541Y1432762D01*
X103143Y1432524D01*
X104733Y1432208D01*
X106304Y1431814D01*
X107855Y1431344D01*
X109380Y1430798D01*
X110877Y1430178D01*
X112342Y1429485D01*
X113771Y1428722D01*
X115160Y1427889D01*
X116507Y1426988D01*
X117809Y1426023D01*
X119061Y1424995D01*
X120262Y1423907D01*
X121407Y1422762D01*
X122495Y1421561D01*
X123523Y1420309D01*
X124488Y1419007D01*
X125389Y1417660D01*
X126222Y1416271D01*
X126985Y1414842D01*
X127678Y1413377D01*
X128298Y1411880D01*
X128844Y1410355D01*
X129314Y1408804D01*
X129708Y1407233D01*
X130024Y1405643D01*
X130262Y1404041D01*
X130421Y1402428D01*
X130500Y1400810D01*
X130500Y1399190D01*
X130500Y99190D02*
X130421Y97572D01*
X130262Y95959D01*
X130024Y94357D01*
X129708Y92767D01*
X129314Y91196D01*
X128844Y89645D01*
X128298Y88120D01*
X127678Y86623D01*
X126985Y85158D01*
X126222Y83729D01*
X125389Y82340D01*
X124488Y80993D01*
X123523Y79691D01*
X122495Y78439D01*
X121407Y77238D01*
X120262Y76093D01*
X119061Y75005D01*
X117809Y73977D01*
X116507Y73012D01*
X115160Y72111D01*
X113771Y71278D01*
X112342Y70515D01*
X110877Y69822D01*
X109380Y69202D01*
X107855Y68656D01*
X106304Y68186D01*
X104733Y67792D01*
X103143Y67476D01*
X101541Y67238D01*
X99928Y67080D01*
X98310Y67000D01*
X96690Y67000D01*
X95072Y67080D01*
X93459Y67238D01*
X91857Y67476D01*
X90267Y67792D01*
X88696Y68186D01*
X87145Y68656D01*
X85620Y69202D01*
X84123Y69822D01*
X82658Y70515D01*
X81229Y71278D01*
X79840Y72111D01*
X78493Y73012D01*
X77191Y73977D01*
X75939Y75005D01*
X74738Y76093D01*
X73593Y77238D01*
X72505Y78439D01*
X71477Y79691D01*
X70512Y80993D01*
X69611Y82340D01*
X68778Y83729D01*
X68015Y85158D01*
X67322Y86623D01*
X66702Y88120D01*
X66156Y89645D01*
X65686Y91196D01*
X65292Y92767D01*
X64976Y94357D01*
X64738Y95959D01*
X64580Y97572D01*
X64500Y99190D01*
X64500Y100810D01*
X64580Y102428D01*
X64738Y104041D01*
X64976Y105643D01*
X65292Y107233D01*
X65686Y108804D01*
X66156Y110355D01*
X66702Y111880D01*
X67322Y113377D01*
X68015Y114842D01*
X68778Y116271D01*
X69611Y117660D01*
X70512Y119007D01*
X71477Y120309D01*
X72505Y121561D01*
X73593Y122762D01*
X74738Y123907D01*
X75939Y124995D01*
X77191Y126023D01*
X78493Y126988D01*
X79840Y127889D01*
X81229Y128722D01*
X82658Y129485D01*
X84123Y130178D01*
X85620Y130798D01*
X87145Y131344D01*
X88696Y131814D01*
X90267Y132208D01*
X91857Y132524D01*
X93459Y132762D01*
X95072Y132921D01*
X96690Y133000D01*
X98310Y133000D01*
X99928Y132921D01*
X101541Y132762D01*
X103143Y132524D01*
X104733Y132208D01*
X106304Y131814D01*
X107855Y131344D01*
X109380Y130798D01*
X110877Y130178D01*
X112342Y129485D01*
X113771Y128722D01*
X115160Y127889D01*
X116507Y126988D01*
X117809Y126023D01*
X119061Y124995D01*
X120262Y123907D01*
X121407Y122762D01*
X122495Y121561D01*
X123523Y120309D01*
X124488Y119007D01*
X125389Y117660D01*
X126222Y116271D01*
X126985Y114842D01*
X127678Y113377D01*
X128298Y111880D01*
X128844Y110355D01*
X129314Y108804D01*
X129708Y107233D01*
X130024Y105643D01*
X130262Y104041D01*
X130421Y102428D01*
X130500Y100810D01*
X130500Y99190D01*
X810500Y99190D02*
X810421Y97572D01*
X810262Y95959D01*
X810024Y94357D01*
X809708Y92767D01*
X809314Y91196D01*
X808844Y89645D01*
X808298Y88120D01*
X807678Y86623D01*
X806985Y85158D01*
X806222Y83729D01*
X805389Y82340D01*
X804488Y80993D01*
X803523Y79691D01*
X802495Y78439D01*
X801407Y77238D01*
X800262Y76093D01*
X799061Y75005D01*
X797809Y73977D01*
X796507Y73012D01*
X795160Y72111D01*
X793771Y71278D01*
X792342Y70515D01*
X790877Y69822D01*
X789380Y69202D01*
X787855Y68656D01*
X786304Y68186D01*
X784733Y67792D01*
X783143Y67476D01*
X781541Y67238D01*
X779928Y67080D01*
X778310Y67000D01*
X776690Y67000D01*
X775072Y67080D01*
X773459Y67238D01*
X771857Y67476D01*
X770267Y67792D01*
X768696Y68186D01*
X767145Y68656D01*
X765620Y69202D01*
X764123Y69822D01*
X762658Y70515D01*
X761229Y71278D01*
X759840Y72111D01*
X758493Y73012D01*
X757191Y73977D01*
X755939Y75005D01*
X754738Y76093D01*
X753593Y77238D01*
X752505Y78439D01*
X751477Y79691D01*
X750512Y80993D01*
X749611Y82340D01*
X748778Y83729D01*
X748015Y85158D01*
X747322Y86623D01*
X746702Y88120D01*
X746156Y89645D01*
X745686Y91196D01*
X745292Y92767D01*
X744976Y94357D01*
X744738Y95959D01*
X744580Y97572D01*
X744500Y99190D01*
X744500Y100810D01*
X744580Y102428D01*
X744738Y104041D01*
X744976Y105643D01*
X745292Y107233D01*
X745686Y108804D01*
X746156Y110355D01*
X746702Y111880D01*
X747322Y113377D01*
X748015Y114842D01*
X748778Y116271D01*
X749611Y117660D01*
X750512Y119007D01*
X751477Y120309D01*
X752505Y121561D01*
X753593Y122762D01*
X754738Y123907D01*
X755939Y124995D01*
X757191Y126023D01*
X758493Y126988D01*
X759840Y127889D01*
X761229Y128722D01*
X762658Y129485D01*
X764123Y130178D01*
X765620Y130798D01*
X767145Y131344D01*
X768696Y131814D01*
X770267Y132208D01*
X771857Y132524D01*
X773459Y132762D01*
X775072Y132921D01*
X776690Y133000D01*
X778310Y133000D01*
X779928Y132921D01*
X781541Y132762D01*
X783143Y132524D01*
X784733Y132208D01*
X786304Y131814D01*
X787855Y131344D01*
X789380Y130798D01*
X790877Y130178D01*
X792342Y129485D01*
X793771Y128722D01*
X795160Y127889D01*
X796507Y126988D01*
X797809Y126023D01*
X799061Y124995D01*
X800262Y123907D01*
X801407Y122762D01*
X802495Y121561D01*
X803523Y120309D01*
X804488Y119007D01*
X805389Y117660D01*
X806222Y116271D01*
X806985Y114842D01*
X807678Y113377D01*
X808298Y111880D01*
X808844Y110355D01*
X809314Y108804D01*
X809708Y107233D01*
X810024Y105643D01*
X810262Y104041D01*
X810421Y102428D01*
X810500Y100810D01*
X810500Y99190D01*
X810500Y1399190D02*
X810421Y1397572D01*
X810262Y1395959D01*
X810024Y1394357D01*
X809708Y1392767D01*
X809314Y1391196D01*
X808844Y1389645D01*
X808298Y1388120D01*
X807678Y1386623D01*
X806985Y1385158D01*
X806222Y1383729D01*
X805389Y1382340D01*
X804488Y1380993D01*
X803523Y1379691D01*
X802495Y1378439D01*
X801407Y1377238D01*
X800262Y1376093D01*
X799061Y1375005D01*
X797809Y1373977D01*
X796507Y1373012D01*
X795160Y1372111D01*
X793771Y1371278D01*
X792342Y1370515D01*
X790877Y1369822D01*
X789380Y1369202D01*
X787855Y1368656D01*
X786304Y1368186D01*
X784733Y1367792D01*
X783143Y1367476D01*
X781541Y1367238D01*
X779928Y1367080D01*
X778310Y1367000D01*
X776690Y1367000D01*
X775072Y1367080D01*
X773459Y1367238D01*
X771857Y1367476D01*
X770267Y1367792D01*
X768696Y1368186D01*
X767145Y1368656D01*
X765620Y1369202D01*
X764123Y1369822D01*
X762658Y1370515D01*
X761229Y1371278D01*
X759840Y1372111D01*
X758493Y1373012D01*
X757191Y1373977D01*
X755939Y1375005D01*
X754738Y1376093D01*
X753593Y1377238D01*
X752505Y1378439D01*
X751477Y1379691D01*
X750512Y1380993D01*
X749611Y1382340D01*
X748778Y1383729D01*
X748015Y1385158D01*
X747322Y1386623D01*
X746702Y1388120D01*
X746156Y1389645D01*
X745686Y1391196D01*
X745292Y1392767D01*
X744976Y1394357D01*
X744738Y1395959D01*
X744580Y1397572D01*
X744500Y1399190D01*
X744500Y1400810D01*
X744580Y1402428D01*
X744738Y1404041D01*
X744976Y1405643D01*
X745292Y1407233D01*
X745686Y1408804D01*
X746156Y1410355D01*
X746702Y1411880D01*
X747322Y1413377D01*
X748015Y1414842D01*
X748778Y1416271D01*
X749611Y1417660D01*
X750512Y1419007D01*
X751477Y1420309D01*
X752505Y1421561D01*
X753593Y1422762D01*
X754738Y1423907D01*
X755939Y1424995D01*
X757191Y1426023D01*
X758493Y1426988D01*
X759840Y1427889D01*
X761229Y1428722D01*
X762658Y1429485D01*
X764123Y1430178D01*
X765620Y1430798D01*
X767145Y1431344D01*
X768696Y1431814D01*
X770267Y1432208D01*
X771857Y1432524D01*
X773459Y1432762D01*
X775072Y1432921D01*
X776690Y1433000D01*
X778310Y1433000D01*
X779928Y1432921D01*
X781541Y1432762D01*
X783143Y1432524D01*
X784733Y1432208D01*
X786304Y1431814D01*
X787855Y1431344D01*
X789380Y1430798D01*
X790877Y1430178D01*
X792342Y1429485D01*
X793771Y1428722D01*
X795160Y1427889D01*
X796507Y1426988D01*
X797809Y1426023D01*
X799061Y1424995D01*
X800262Y1423907D01*
X801407Y1422762D01*
X802495Y1421561D01*
X803523Y1420309D01*
X804488Y1419007D01*
X805389Y1417660D01*
X806222Y1416271D01*
X806985Y1414842D01*
X807678Y1413377D01*
X808298Y1411880D01*
X808844Y1410355D01*
X809314Y1408804D01*
X809708Y1407233D01*
X810024Y1405643D01*
X810262Y1404041D01*
X810421Y1402428D01*
X810500Y1400810D01*
X810500Y1399190D01*
X160000Y1108929D02*
X159924Y1106788D01*
X159771Y1104651D01*
X159542Y1102521D01*
X159237Y1100401D01*
X158857Y1098293D01*
X158401Y1096199D01*
X157871Y1094124D01*
X157268Y1092068D01*
X156591Y1090036D01*
X155843Y1088029D01*
X155023Y1086049D01*
X154133Y1084101D01*
X153174Y1082185D01*
X152147Y1080305D01*
X151054Y1078463D01*
X149896Y1076660D01*
X148674Y1074901D01*
X147391Y1073186D01*
X146046Y1071518D01*
X144644Y1069899D01*
X143184Y1068331D01*
X141669Y1066816D01*
X140101Y1065356D01*
X138482Y1063954D01*
X136814Y1062609D01*
X135099Y1061326D01*
X133340Y1060104D01*
X131537Y1058946D01*
X129695Y1057853D01*
X127815Y1056826D01*
X125899Y1055867D01*
X123951Y1054977D01*
X121971Y1054157D01*
X119964Y1053409D01*
X117932Y1052732D01*
X115876Y1052129D01*
X113801Y1051599D01*
X111707Y1051144D01*
X109599Y1050763D01*
X107479Y1050458D01*
X105349Y1050229D01*
X103212Y1050076D01*
X101071Y1050000D01*
X98929Y1050000D01*
X96788Y1050076D01*
X94651Y1050229D01*
X92521Y1050458D01*
X90401Y1050763D01*
X88293Y1051144D01*
X86199Y1051599D01*
X84124Y1052129D01*
X82068Y1052732D01*
X80036Y1053409D01*
X78029Y1054157D01*
X76049Y1054977D01*
X74101Y1055867D01*
X72185Y1056826D01*
X70305Y1057853D01*
X68463Y1058946D01*
X66660Y1060104D01*
X64901Y1061326D01*
X63186Y1062609D01*
X61518Y1063954D01*
X59899Y1065356D01*
X58331Y1066816D01*
X56816Y1068331D01*
X55356Y1069899D01*
X53954Y1071518D01*
X52609Y1073186D01*
X51326Y1074901D01*
X50104Y1076660D01*
X48946Y1078463D01*
X47853Y1080305D01*
X46826Y1082185D01*
X45867Y1084101D01*
X44977Y1086049D01*
X44157Y1088029D01*
X43409Y1090036D01*
X42732Y1092068D01*
X42129Y1094124D01*
X41599Y1096199D01*
X41144Y1098293D01*
X40763Y1100401D01*
X40458Y1102521D01*
X40229Y1104651D01*
X40076Y1106788D01*
X40000Y1108929D01*
X40000Y1111071D01*
X40076Y1113212D01*
X40229Y1115349D01*
X40458Y1117479D01*
X40763Y1119599D01*
X41144Y1121707D01*
X41599Y1123801D01*
X42129Y1125876D01*
X42732Y1127932D01*
X43409Y1129964D01*
X44157Y1131971D01*
X44977Y1133951D01*
X45867Y1135899D01*
X46826Y1137815D01*
X47853Y1139695D01*
X48946Y1141537D01*
X50104Y1143340D01*
X51326Y1145099D01*
X52609Y1146814D01*
X53954Y1148482D01*
X55356Y1150101D01*
X56816Y1151669D01*
X58331Y1153184D01*
X59899Y1154644D01*
X61518Y1156046D01*
X63186Y1157391D01*
X64901Y1158674D01*
X66660Y1159896D01*
X68463Y1161054D01*
X70305Y1162147D01*
X72185Y1163174D01*
X74101Y1164133D01*
X76049Y1165023D01*
X78029Y1165843D01*
X80036Y1166591D01*
X82068Y1167268D01*
X84124Y1167871D01*
X86199Y1168401D01*
X88293Y1168857D01*
X90401Y1169237D01*
X92521Y1169542D01*
X94651Y1169771D01*
X96788Y1169924D01*
X98929Y1170000D01*
X101071Y1170000D01*
X103212Y1169924D01*
X105349Y1169771D01*
X107479Y1169542D01*
X109599Y1169237D01*
X111707Y1168857D01*
X113801Y1168401D01*
X115876Y1167871D01*
X117932Y1167268D01*
X119964Y1166591D01*
X121971Y1165843D01*
X123951Y1165023D01*
X125899Y1164133D01*
X127815Y1163174D01*
X129695Y1162147D01*
X131537Y1161054D01*
X133340Y1159896D01*
X135099Y1158674D01*
X136814Y1157391D01*
X138482Y1156046D01*
X140101Y1154644D01*
X141669Y1153184D01*
X143184Y1151669D01*
X144644Y1150101D01*
X146046Y1148482D01*
X147391Y1146814D01*
X148674Y1145099D01*
X149896Y1143340D01*
X151054Y1141537D01*
X152147Y1139695D01*
X153174Y1137815D01*
X154133Y1135899D01*
X155023Y1133951D01*
X155843Y1131971D01*
X156591Y1129964D01*
X157268Y1127932D01*
X157871Y1125876D01*
X158401Y1123801D01*
X158857Y1121707D01*
X159237Y1119599D01*
X159542Y1117479D01*
X159771Y1115349D01*
X159924Y1113212D01*
X160000Y1111071D01*
X160000Y1108929D01*
X259500Y1299443D02*
X259427Y1298333D01*
X259282Y1297229D01*
X259065Y1296138D01*
X258777Y1295063D01*
X258419Y1294009D01*
X257993Y1292980D01*
X257501Y1291982D01*
X256944Y1291018D01*
X256326Y1290093D01*
X255648Y1289210D01*
X254914Y1288373D01*
X254127Y1287586D01*
X253290Y1286852D01*
X252407Y1286174D01*
X251482Y1285556D01*
X250518Y1284999D01*
X249520Y1284507D01*
X248491Y1284081D01*
X247437Y1283723D01*
X246362Y1283435D01*
X245271Y1283218D01*
X244167Y1283073D01*
X243057Y1283000D01*
X241943Y1283000D01*
X240833Y1283073D01*
X239729Y1283218D01*
X238638Y1283435D01*
X237563Y1283723D01*
X236509Y1284081D01*
X235480Y1284507D01*
X234482Y1284999D01*
X233518Y1285556D01*
X232593Y1286174D01*
X231710Y1286852D01*
X230873Y1287586D01*
X230086Y1288373D01*
X229352Y1289210D01*
X228674Y1290093D01*
X228056Y1291018D01*
X227499Y1291982D01*
X227007Y1292980D01*
X226581Y1294009D01*
X226223Y1295063D01*
X225935Y1296138D01*
X225718Y1297229D01*
X225573Y1298333D01*
X225500Y1299443D01*
X225500Y1300557D01*
X225573Y1301667D01*
X225718Y1302771D01*
X225935Y1303862D01*
X226223Y1304937D01*
X226581Y1305991D01*
X227007Y1307020D01*
X227499Y1308018D01*
X228056Y1308982D01*
X228674Y1309907D01*
X229352Y1310790D01*
X230086Y1311627D01*
X230873Y1312414D01*
X231710Y1313148D01*
X232593Y1313826D01*
X233518Y1314444D01*
X234482Y1315001D01*
X235480Y1315493D01*
X236509Y1315919D01*
X237563Y1316277D01*
X238638Y1316565D01*
X239729Y1316782D01*
X240833Y1316927D01*
X241943Y1317000D01*
X243057Y1317000D01*
X244167Y1316927D01*
X245271Y1316782D01*
X246362Y1316565D01*
X247437Y1316277D01*
X248491Y1315919D01*
X249520Y1315493D01*
X250518Y1315001D01*
X251482Y1314444D01*
X252407Y1313826D01*
X253290Y1313148D01*
X254127Y1312414D01*
X254914Y1311627D01*
X255648Y1310790D01*
X256326Y1309907D01*
X256944Y1308982D01*
X257501Y1308018D01*
X257993Y1307020D01*
X258419Y1305991D01*
X258777Y1304937D01*
X259065Y1303862D01*
X259282Y1302771D01*
X259427Y1301667D01*
X259500Y1300557D01*
X259500Y1299443D01*
X649500Y1299443D02*
X649427Y1298333D01*
X649282Y1297229D01*
X649065Y1296138D01*
X648777Y1295063D01*
X648419Y1294009D01*
X647993Y1292980D01*
X647501Y1291982D01*
X646944Y1291018D01*
X646326Y1290093D01*
X645648Y1289210D01*
X644914Y1288373D01*
X644127Y1287586D01*
X643290Y1286852D01*
X642407Y1286174D01*
X641482Y1285556D01*
X640518Y1284999D01*
X639520Y1284507D01*
X638491Y1284081D01*
X637437Y1283723D01*
X636362Y1283435D01*
X635271Y1283218D01*
X634167Y1283073D01*
X633057Y1283000D01*
X631943Y1283000D01*
X630833Y1283073D01*
X629729Y1283218D01*
X628638Y1283435D01*
X627563Y1283723D01*
X626509Y1284081D01*
X625480Y1284507D01*
X624482Y1284999D01*
X623518Y1285556D01*
X622593Y1286174D01*
X621710Y1286852D01*
X620873Y1287586D01*
X620086Y1288373D01*
X619352Y1289210D01*
X618674Y1290093D01*
X618056Y1291018D01*
X617499Y1291982D01*
X617007Y1292980D01*
X616581Y1294009D01*
X616223Y1295063D01*
X615935Y1296138D01*
X615718Y1297229D01*
X615573Y1298333D01*
X615500Y1299443D01*
X615500Y1300557D01*
X615573Y1301667D01*
X615718Y1302771D01*
X615935Y1303862D01*
X616223Y1304937D01*
X616581Y1305991D01*
X617007Y1307020D01*
X617499Y1308018D01*
X618056Y1308982D01*
X618674Y1309907D01*
X619352Y1310790D01*
X620086Y1311627D01*
X620873Y1312414D01*
X621710Y1313148D01*
X622593Y1313826D01*
X623518Y1314444D01*
X624482Y1315001D01*
X625480Y1315493D01*
X626509Y1315919D01*
X627563Y1316277D01*
X628638Y1316565D01*
X629729Y1316782D01*
X630833Y1316927D01*
X631943Y1317000D01*
X633057Y1317000D01*
X634167Y1316927D01*
X635271Y1316782D01*
X636362Y1316565D01*
X637437Y1316277D01*
X638491Y1315919D01*
X639520Y1315493D01*
X640518Y1315001D01*
X641482Y1314444D01*
X642407Y1313826D01*
X643290Y1313148D01*
X644127Y1312414D01*
X644914Y1311627D01*
X645648Y1310790D01*
X646326Y1309907D01*
X646944Y1308982D01*
X647501Y1308018D01*
X647993Y1307020D01*
X648419Y1305991D01*
X648777Y1304937D01*
X649065Y1303862D01*
X649282Y1302771D01*
X649427Y1301667D01*
X649500Y1300557D01*
X649500Y1299443D01*
X259500Y909443D02*
X259427Y908333D01*
X259282Y907229D01*
X259065Y906138D01*
X258777Y905063D01*
X258419Y904009D01*
X257993Y902980D01*
X257501Y901982D01*
X256944Y901018D01*
X256326Y900093D01*
X255648Y899210D01*
X254914Y898373D01*
X254127Y897586D01*
X253290Y896852D01*
X252407Y896174D01*
X251482Y895556D01*
X250518Y894999D01*
X249520Y894507D01*
X248491Y894081D01*
X247437Y893723D01*
X246362Y893435D01*
X245271Y893218D01*
X244167Y893073D01*
X243057Y893000D01*
X241943Y893000D01*
X240833Y893073D01*
X239729Y893218D01*
X238638Y893435D01*
X237563Y893723D01*
X236509Y894081D01*
X235480Y894507D01*
X234482Y894999D01*
X233518Y895556D01*
X232593Y896174D01*
X231710Y896852D01*
X230873Y897586D01*
X230086Y898373D01*
X229352Y899210D01*
X228674Y900093D01*
X228056Y901018D01*
X227499Y901982D01*
X227007Y902980D01*
X226581Y904009D01*
X226223Y905063D01*
X225935Y906138D01*
X225718Y907229D01*
X225573Y908333D01*
X225500Y909443D01*
X225500Y910557D01*
X225573Y911667D01*
X225718Y912771D01*
X225935Y913862D01*
X226223Y914937D01*
X226581Y915991D01*
X227007Y917020D01*
X227499Y918018D01*
X228056Y918982D01*
X228674Y919907D01*
X229352Y920790D01*
X230086Y921627D01*
X230873Y922414D01*
X231710Y923148D01*
X232593Y923826D01*
X233518Y924444D01*
X234482Y925001D01*
X235480Y925493D01*
X236509Y925919D01*
X237563Y926277D01*
X238638Y926565D01*
X239729Y926782D01*
X240833Y926927D01*
X241943Y927000D01*
X243057Y927000D01*
X244167Y926927D01*
X245271Y926782D01*
X246362Y926565D01*
X247437Y926277D01*
X248491Y925919D01*
X249520Y925493D01*
X250518Y925001D01*
X251482Y924444D01*
X252407Y923826D01*
X253290Y923148D01*
X254127Y922414D01*
X254914Y921627D01*
X255648Y920790D01*
X256326Y919907D01*
X256944Y918982D01*
X257501Y918018D01*
X257993Y917020D01*
X258419Y915991D01*
X258777Y914937D01*
X259065Y913862D01*
X259282Y912771D01*
X259427Y911667D01*
X259500Y910557D01*
X259500Y909443D01*
X649500Y909443D02*
X649427Y908333D01*
X649282Y907229D01*
X649065Y906138D01*
X648777Y905063D01*
X648419Y904009D01*
X647993Y902980D01*
X647501Y901982D01*
X646944Y901018D01*
X646326Y900093D01*
X645648Y899210D01*
X644914Y898373D01*
X644127Y897586D01*
X643290Y896852D01*
X642407Y896174D01*
X641482Y895556D01*
X640518Y894999D01*
X639520Y894507D01*
X638491Y894081D01*
X637437Y893723D01*
X636362Y893435D01*
X635271Y893218D01*
X634167Y893073D01*
X633057Y893000D01*
X631943Y893000D01*
X630833Y893073D01*
X629729Y893218D01*
X628638Y893435D01*
X627563Y893723D01*
X626509Y894081D01*
X625480Y894507D01*
X624482Y894999D01*
X623518Y895556D01*
X622593Y896174D01*
X621710Y896852D01*
X620873Y897586D01*
X620086Y898373D01*
X619352Y899210D01*
X618674Y900093D01*
X618056Y901018D01*
X617499Y901982D01*
X617007Y902980D01*
X616581Y904009D01*
X616223Y905063D01*
X615935Y906138D01*
X615718Y907229D01*
X615573Y908333D01*
X615500Y909443D01*
X615500Y910557D01*
X615573Y911667D01*
X615718Y912771D01*
X615935Y913862D01*
X616223Y914937D01*
X616581Y915991D01*
X617007Y917020D01*
X617499Y918018D01*
X618056Y918982D01*
X618674Y919907D01*
X619352Y920790D01*
X620086Y921627D01*
X620873Y922414D01*
X621710Y923148D01*
X622593Y923826D01*
X623518Y924444D01*
X624482Y925001D01*
X625480Y925493D01*
X626509Y925919D01*
X627563Y926277D01*
X628638Y926565D01*
X629729Y926782D01*
X630833Y926927D01*
X631943Y927000D01*
X633057Y927000D01*
X634167Y926927D01*
X635271Y926782D01*
X636362Y926565D01*
X637437Y926277D01*
X638491Y925919D01*
X639520Y925493D01*
X640518Y925001D01*
X641482Y924444D01*
X642407Y923826D01*
X643290Y923148D01*
X644127Y922414D01*
X644914Y921627D01*
X645648Y920790D01*
X646326Y919907D01*
X646944Y918982D01*
X647501Y918018D01*
X647993Y917020D01*
X648419Y915991D01*
X648777Y914937D01*
X649065Y913862D01*
X649282Y912771D01*
X649427Y911667D01*
X649500Y910557D01*
X649500Y909443D01*
X777000Y1009443D02*
X776927Y1008333D01*
X776782Y1007229D01*
X776565Y1006138D01*
X776277Y1005063D01*
X775919Y1004009D01*
X775493Y1002980D01*
X775001Y1001982D01*
X774444Y1001018D01*
X773826Y1000093D01*
X773148Y999210D01*
X772414Y998373D01*
X771627Y997586D01*
X770790Y996852D01*
X769907Y996174D01*
X768982Y995556D01*
X768018Y994999D01*
X767020Y994507D01*
X765991Y994081D01*
X764937Y993723D01*
X763862Y993435D01*
X762771Y993218D01*
X761667Y993073D01*
X760557Y993000D01*
X759443Y993000D01*
X758333Y993073D01*
X757229Y993218D01*
X756138Y993435D01*
X755063Y993723D01*
X754009Y994081D01*
X752980Y994507D01*
X751982Y994999D01*
X751018Y995556D01*
X750093Y996174D01*
X749210Y996852D01*
X748373Y997586D01*
X747586Y998373D01*
X746852Y999210D01*
X746174Y1000093D01*
X745556Y1001018D01*
X744999Y1001982D01*
X744507Y1002980D01*
X744081Y1004009D01*
X743723Y1005063D01*
X743435Y1006138D01*
X743218Y1007229D01*
X743073Y1008333D01*
X743000Y1009443D01*
X743000Y1010557D01*
X743073Y1011667D01*
X743218Y1012771D01*
X743435Y1013862D01*
X743723Y1014937D01*
X744081Y1015991D01*
X744507Y1017020D01*
X744999Y1018018D01*
X745556Y1018982D01*
X746174Y1019907D01*
X746852Y1020790D01*
X747586Y1021627D01*
X748373Y1022414D01*
X749210Y1023148D01*
X750093Y1023826D01*
X751018Y1024444D01*
X751982Y1025001D01*
X752980Y1025493D01*
X754009Y1025919D01*
X755063Y1026277D01*
X756138Y1026565D01*
X757229Y1026782D01*
X758333Y1026927D01*
X759443Y1027000D01*
X760557Y1027000D01*
X761667Y1026927D01*
X762771Y1026782D01*
X763862Y1026565D01*
X764937Y1026277D01*
X765991Y1025919D01*
X767020Y1025493D01*
X768018Y1025001D01*
X768982Y1024444D01*
X769907Y1023826D01*
X770790Y1023148D01*
X771627Y1022414D01*
X772414Y1021627D01*
X773148Y1020790D01*
X773826Y1019907D01*
X774444Y1018982D01*
X775001Y1018018D01*
X775493Y1017020D01*
X775919Y1015991D01*
X776277Y1014937D01*
X776565Y1013862D01*
X776782Y1012771D01*
X776927Y1011667D01*
X777000Y1010557D01*
X777000Y1009443D01*
X777000Y1209443D02*
X776927Y1208333D01*
X776782Y1207229D01*
X776565Y1206138D01*
X776277Y1205063D01*
X775919Y1204009D01*
X775493Y1202980D01*
X775001Y1201982D01*
X774444Y1201018D01*
X773826Y1200093D01*
X773148Y1199210D01*
X772414Y1198373D01*
X771627Y1197586D01*
X770790Y1196852D01*
X769907Y1196174D01*
X768982Y1195556D01*
X768018Y1194999D01*
X767020Y1194507D01*
X765991Y1194081D01*
X764937Y1193723D01*
X763862Y1193435D01*
X762771Y1193218D01*
X761667Y1193073D01*
X760557Y1193000D01*
X759443Y1193000D01*
X758333Y1193073D01*
X757229Y1193218D01*
X756138Y1193435D01*
X755063Y1193723D01*
X754009Y1194081D01*
X752980Y1194507D01*
X751982Y1194999D01*
X751018Y1195556D01*
X750093Y1196174D01*
X749210Y1196852D01*
X748373Y1197586D01*
X747586Y1198373D01*
X746852Y1199210D01*
X746174Y1200093D01*
X745556Y1201018D01*
X744999Y1201982D01*
X744507Y1202980D01*
X744081Y1204009D01*
X743723Y1205063D01*
X743435Y1206138D01*
X743218Y1207229D01*
X743073Y1208333D01*
X743000Y1209443D01*
X743000Y1210557D01*
X743073Y1211667D01*
X743218Y1212771D01*
X743435Y1213862D01*
X743723Y1214937D01*
X744081Y1215991D01*
X744507Y1217020D01*
X744999Y1218018D01*
X745556Y1218982D01*
X746174Y1219907D01*
X746852Y1220790D01*
X747586Y1221627D01*
X748373Y1222414D01*
X749210Y1223148D01*
X750093Y1223826D01*
X751018Y1224444D01*
X751982Y1225001D01*
X752980Y1225493D01*
X754009Y1225919D01*
X755063Y1226277D01*
X756138Y1226565D01*
X757229Y1226782D01*
X758333Y1226927D01*
X759443Y1227000D01*
X760557Y1227000D01*
X761667Y1226927D01*
X762771Y1226782D01*
X763862Y1226565D01*
X764937Y1226277D01*
X765991Y1225919D01*
X767020Y1225493D01*
X768018Y1225001D01*
X768982Y1224444D01*
X769907Y1223826D01*
X770790Y1223148D01*
X771627Y1222414D01*
X772414Y1221627D01*
X773148Y1220790D01*
X773826Y1219907D01*
X774444Y1218982D01*
X775001Y1218018D01*
X775493Y1217020D01*
X775919Y1215991D01*
X776277Y1214937D01*
X776565Y1213862D01*
X776782Y1212771D01*
X776927Y1211667D01*
X777000Y1210557D01*
X777000Y1209443D01*
X300460Y541490D02*
X299381Y541561D01*
X298309Y541702D01*
X297249Y541913D01*
X296205Y542192D01*
X295181Y542540D01*
X294183Y542954D01*
X293213Y543432D01*
X292277Y543972D01*
X291378Y544573D01*
X290521Y545231D01*
X289708Y545944D01*
X288944Y546708D01*
X288231Y547521D01*
X287573Y548378D01*
X286972Y549277D01*
X286432Y550213D01*
X285954Y551183D01*
X285540Y552181D01*
X285192Y553205D01*
X284913Y554249D01*
X284702Y555309D01*
X284561Y556381D01*
X284490Y557460D01*
X284490Y558540D01*
X284561Y559619D01*
X284702Y560691D01*
X284913Y561751D01*
X285192Y562795D01*
X285540Y563819D01*
X285954Y564817D01*
X286432Y565787D01*
X286972Y566723D01*
X287573Y567622D01*
X288231Y568479D01*
X288944Y569292D01*
X289708Y570057D01*
X290521Y570769D01*
X291378Y571427D01*
X292277Y572028D01*
X293213Y572568D01*
X294183Y573046D01*
X295181Y573460D01*
X296205Y573808D01*
X297249Y574087D01*
X298309Y574298D01*
X299381Y574439D01*
X300460Y574510D01*
X301540Y574510D01*
X302619Y574439D01*
X303691Y574298D01*
X304751Y574087D01*
X305795Y573808D01*
X306819Y573460D01*
X307817Y573046D01*
X308787Y572568D01*
X309723Y572028D01*
X310622Y571427D01*
X311479Y570769D01*
X312292Y570057D01*
X313057Y569292D01*
X313769Y568479D01*
X314427Y567622D01*
X315028Y566723D01*
X315568Y565787D01*
X316046Y564817D01*
X316460Y563819D01*
X316808Y562795D01*
X317087Y561751D01*
X317298Y560691D01*
X317439Y559619D01*
X317510Y558540D01*
X317510Y557460D01*
X317439Y556381D01*
X317298Y555309D01*
X317087Y554249D01*
X316808Y553205D01*
X316460Y552181D01*
X316046Y551183D01*
X315568Y550213D01*
X315028Y549277D01*
X314427Y548378D01*
X313769Y547521D01*
X313057Y546708D01*
X312292Y545944D01*
X311479Y545231D01*
X310622Y544573D01*
X309723Y543972D01*
X308787Y543432D01*
X307817Y542954D01*
X306819Y542540D01*
X305795Y542192D01*
X304751Y541913D01*
X303691Y541702D01*
X302619Y541561D01*
X301540Y541490D01*
X300460Y541490D01*
X300460Y312890D02*
X299381Y312961D01*
X298309Y313102D01*
X297249Y313313D01*
X296205Y313592D01*
X295181Y313940D01*
X294183Y314354D01*
X293213Y314832D01*
X292277Y315372D01*
X291378Y315973D01*
X290521Y316631D01*
X289708Y317344D01*
X288944Y318108D01*
X288231Y318921D01*
X287573Y319778D01*
X286972Y320677D01*
X286432Y321613D01*
X285954Y322583D01*
X285540Y323581D01*
X285192Y324605D01*
X284913Y325649D01*
X284702Y326709D01*
X284561Y327781D01*
X284490Y328860D01*
X284490Y329940D01*
X284561Y331019D01*
X284702Y332091D01*
X284913Y333151D01*
X285192Y334195D01*
X285540Y335219D01*
X285954Y336217D01*
X286432Y337187D01*
X286972Y338123D01*
X287573Y339022D01*
X288231Y339879D01*
X288944Y340692D01*
X289708Y341457D01*
X290521Y342169D01*
X291378Y342827D01*
X292277Y343428D01*
X293213Y343968D01*
X294183Y344446D01*
X295181Y344860D01*
X296205Y345208D01*
X297249Y345487D01*
X298309Y345698D01*
X299381Y345839D01*
X300460Y345910D01*
X301540Y345910D01*
X302619Y345839D01*
X303691Y345698D01*
X304751Y345487D01*
X305795Y345208D01*
X306819Y344860D01*
X307817Y344446D01*
X308787Y343968D01*
X309723Y343428D01*
X310622Y342827D01*
X311479Y342169D01*
X312292Y341457D01*
X313057Y340692D01*
X313769Y339879D01*
X314427Y339022D01*
X315028Y338123D01*
X315568Y337187D01*
X316046Y336217D01*
X316460Y335219D01*
X316808Y334195D01*
X317087Y333151D01*
X317298Y332091D01*
X317439Y331019D01*
X317510Y329940D01*
X317510Y328860D01*
X317439Y327781D01*
X317298Y326709D01*
X317087Y325649D01*
X316808Y324605D01*
X316460Y323581D01*
X316046Y322583D01*
X315568Y321613D01*
X315028Y320677D01*
X314427Y319778D01*
X313769Y318921D01*
X313057Y318108D01*
X312292Y317344D01*
X311479Y316631D01*
X310622Y315973D01*
X309723Y315372D01*
X308787Y314832D01*
X307817Y314354D01*
X306819Y313940D01*
X305795Y313592D01*
X304751Y313313D01*
X303691Y313102D01*
X302619Y312961D01*
X301540Y312890D01*
X300460Y312890D01*
X529060Y541490D02*
X527981Y541561D01*
X526909Y541702D01*
X525849Y541913D01*
X524805Y542192D01*
X523781Y542540D01*
X522783Y542954D01*
X521813Y543432D01*
X520877Y543972D01*
X519978Y544573D01*
X519121Y545231D01*
X518308Y545944D01*
X517544Y546708D01*
X516831Y547521D01*
X516173Y548378D01*
X515572Y549277D01*
X515032Y550213D01*
X514554Y551183D01*
X514140Y552181D01*
X513792Y553205D01*
X513513Y554249D01*
X513302Y555309D01*
X513161Y556381D01*
X513090Y557460D01*
X513090Y558540D01*
X513161Y559619D01*
X513302Y560691D01*
X513513Y561751D01*
X513792Y562795D01*
X514140Y563819D01*
X514554Y564817D01*
X515032Y565787D01*
X515572Y566723D01*
X516173Y567622D01*
X516831Y568479D01*
X517544Y569292D01*
X518308Y570057D01*
X519121Y570769D01*
X519978Y571427D01*
X520877Y572028D01*
X521813Y572568D01*
X522783Y573046D01*
X523781Y573460D01*
X524805Y573808D01*
X525849Y574087D01*
X526909Y574298D01*
X527981Y574439D01*
X529060Y574510D01*
X530140Y574510D01*
X531219Y574439D01*
X532291Y574298D01*
X533351Y574087D01*
X534395Y573808D01*
X535419Y573460D01*
X536417Y573046D01*
X537387Y572568D01*
X538323Y572028D01*
X539222Y571427D01*
X540079Y570769D01*
X540892Y570057D01*
X541657Y569292D01*
X542369Y568479D01*
X543027Y567622D01*
X543628Y566723D01*
X544168Y565787D01*
X544646Y564817D01*
X545060Y563819D01*
X545408Y562795D01*
X545687Y561751D01*
X545898Y560691D01*
X546039Y559619D01*
X546110Y558540D01*
X546110Y557460D01*
X546039Y556381D01*
X545898Y555309D01*
X545687Y554249D01*
X545408Y553205D01*
X545060Y552181D01*
X544646Y551183D01*
X544168Y550213D01*
X543628Y549277D01*
X543027Y548378D01*
X542369Y547521D01*
X541657Y546708D01*
X540892Y545944D01*
X540079Y545231D01*
X539222Y544573D01*
X538323Y543972D01*
X537387Y543432D01*
X536417Y542954D01*
X535419Y542540D01*
X534395Y542192D01*
X533351Y541913D01*
X532291Y541702D01*
X531219Y541561D01*
X530140Y541490D01*
X529060Y541490D01*
X529060Y312890D02*
X527981Y312961D01*
X526909Y313102D01*
X525849Y313313D01*
X524805Y313592D01*
X523781Y313940D01*
X522783Y314354D01*
X521813Y314832D01*
X520877Y315372D01*
X519978Y315973D01*
X519121Y316631D01*
X518308Y317344D01*
X517544Y318108D01*
X516831Y318921D01*
X516173Y319778D01*
X515572Y320677D01*
X515032Y321613D01*
X514554Y322583D01*
X514140Y323581D01*
X513792Y324605D01*
X513513Y325649D01*
X513302Y326709D01*
X513161Y327781D01*
X513090Y328860D01*
X513090Y329940D01*
X513161Y331019D01*
X513302Y332091D01*
X513513Y333151D01*
X513792Y334195D01*
X514140Y335219D01*
X514554Y336217D01*
X515032Y337187D01*
X515572Y338123D01*
X516173Y339022D01*
X516831Y339879D01*
X517544Y340692D01*
X518308Y341457D01*
X519121Y342169D01*
X519978Y342827D01*
X520877Y343428D01*
X521813Y343968D01*
X522783Y344446D01*
X523781Y344860D01*
X524805Y345208D01*
X525849Y345487D01*
X526909Y345698D01*
X527981Y345839D01*
X529060Y345910D01*
X530140Y345910D01*
X531219Y345839D01*
X532291Y345698D01*
X533351Y345487D01*
X534395Y345208D01*
X535419Y344860D01*
X536417Y344446D01*
X537387Y343968D01*
X538323Y343428D01*
X539222Y342827D01*
X540079Y342169D01*
X540892Y341457D01*
X541657Y340692D01*
X542369Y339879D01*
X543027Y339022D01*
X543628Y338123D01*
X544168Y337187D01*
X544646Y336217D01*
X545060Y335219D01*
X545408Y334195D01*
X545687Y333151D01*
X545898Y332091D01*
X546039Y331019D01*
X546110Y329940D01*
X546110Y328860D01*
X546039Y327781D01*
X545898Y326709D01*
X545687Y325649D01*
X545408Y324605D01*
X545060Y323581D01*
X544646Y322583D01*
X544168Y321613D01*
X543628Y320677D01*
X543027Y319778D01*
X542369Y318921D01*
X541657Y318108D01*
X540892Y317344D01*
X540079Y316631D01*
X539222Y315973D01*
X538323Y315372D01*
X537387Y314832D01*
X536417Y314354D01*
X535419Y313940D01*
X534395Y313592D01*
X533351Y313313D01*
X532291Y313102D01*
X531219Y312961D01*
X530140Y312890D01*
X529060Y312890D01*
M02*
