G04 EAGLE Gerber RS-274X export*
G75*
%MOMM*%
%FSLAX34Y34*%
%LPD*%
%INSilkscreen Top*%
%IPPOS*%
%AMOC8*
5,1,8,0,0,1.08239X$1,22.5*%
G01*
%ADD10C,0.203200*%
%ADD11C,0.152400*%
%ADD12C,0.127000*%
%ADD13C,0.101600*%


D10*
X317256Y398234D02*
X320812Y387566D01*
X324368Y398234D01*
X329956Y398234D02*
X329956Y387566D01*
X328771Y387566D02*
X331141Y387566D01*
X331141Y398234D02*
X328771Y398234D01*
X336518Y398234D02*
X336518Y387566D01*
X342444Y387566D02*
X336518Y398234D01*
X342444Y398234D02*
X342444Y387566D01*
X323183Y418893D02*
X321405Y418893D01*
X323183Y418893D02*
X323183Y412966D01*
X319627Y412966D01*
X319532Y412968D01*
X319436Y412974D01*
X319341Y412983D01*
X319247Y412997D01*
X319153Y413014D01*
X319060Y413035D01*
X318967Y413060D01*
X318876Y413088D01*
X318786Y413120D01*
X318698Y413156D01*
X318611Y413195D01*
X318525Y413238D01*
X318442Y413284D01*
X318360Y413333D01*
X318280Y413386D01*
X318203Y413442D01*
X318127Y413500D01*
X318055Y413562D01*
X317985Y413627D01*
X317917Y413695D01*
X317852Y413765D01*
X317790Y413837D01*
X317732Y413913D01*
X317676Y413990D01*
X317623Y414070D01*
X317574Y414152D01*
X317528Y414235D01*
X317485Y414321D01*
X317446Y414408D01*
X317410Y414496D01*
X317378Y414586D01*
X317350Y414677D01*
X317325Y414770D01*
X317304Y414863D01*
X317287Y414957D01*
X317273Y415051D01*
X317264Y415146D01*
X317258Y415242D01*
X317256Y415337D01*
X317256Y421263D01*
X317258Y421358D01*
X317264Y421454D01*
X317273Y421549D01*
X317287Y421643D01*
X317304Y421737D01*
X317325Y421830D01*
X317350Y421923D01*
X317378Y422014D01*
X317410Y422104D01*
X317446Y422192D01*
X317485Y422279D01*
X317528Y422365D01*
X317574Y422448D01*
X317623Y422530D01*
X317676Y422610D01*
X317732Y422687D01*
X317790Y422763D01*
X317852Y422835D01*
X317917Y422905D01*
X317985Y422973D01*
X318055Y423038D01*
X318127Y423100D01*
X318203Y423158D01*
X318280Y423214D01*
X318360Y423267D01*
X318441Y423316D01*
X318525Y423362D01*
X318611Y423405D01*
X318698Y423444D01*
X318786Y423480D01*
X318876Y423512D01*
X318967Y423540D01*
X319060Y423565D01*
X319153Y423586D01*
X319247Y423603D01*
X319341Y423617D01*
X319436Y423626D01*
X319531Y423632D01*
X319627Y423634D01*
X323183Y423634D01*
X329448Y423634D02*
X329448Y412966D01*
X335375Y412966D02*
X329448Y423634D01*
X335375Y423634D02*
X335375Y412966D01*
X341640Y412966D02*
X341640Y423634D01*
X344603Y423634D01*
X344709Y423632D01*
X344814Y423626D01*
X344920Y423617D01*
X345025Y423604D01*
X345129Y423587D01*
X345233Y423566D01*
X345336Y423542D01*
X345438Y423514D01*
X345539Y423482D01*
X345638Y423447D01*
X345737Y423408D01*
X345834Y423366D01*
X345929Y423321D01*
X346023Y423272D01*
X346115Y423219D01*
X346205Y423164D01*
X346293Y423105D01*
X346379Y423043D01*
X346462Y422978D01*
X346543Y422910D01*
X346622Y422840D01*
X346698Y422766D01*
X346772Y422690D01*
X346842Y422611D01*
X346910Y422530D01*
X346975Y422447D01*
X347037Y422361D01*
X347096Y422273D01*
X347151Y422183D01*
X347204Y422091D01*
X347253Y421997D01*
X347298Y421902D01*
X347340Y421805D01*
X347379Y421706D01*
X347414Y421607D01*
X347446Y421506D01*
X347474Y421404D01*
X347498Y421301D01*
X347519Y421197D01*
X347536Y421093D01*
X347549Y420988D01*
X347558Y420882D01*
X347564Y420777D01*
X347566Y420671D01*
X347567Y420671D02*
X347567Y415929D01*
X347566Y415929D02*
X347564Y415823D01*
X347558Y415718D01*
X347549Y415612D01*
X347536Y415507D01*
X347519Y415403D01*
X347498Y415299D01*
X347474Y415196D01*
X347446Y415094D01*
X347414Y414993D01*
X347379Y414894D01*
X347340Y414795D01*
X347298Y414698D01*
X347253Y414603D01*
X347204Y414509D01*
X347151Y414417D01*
X347096Y414327D01*
X347037Y414239D01*
X346975Y414153D01*
X346910Y414070D01*
X346842Y413989D01*
X346772Y413910D01*
X346698Y413834D01*
X346622Y413760D01*
X346543Y413690D01*
X346462Y413622D01*
X346379Y413557D01*
X346293Y413495D01*
X346205Y413436D01*
X346115Y413381D01*
X346023Y413328D01*
X345929Y413279D01*
X345834Y413234D01*
X345737Y413192D01*
X345638Y413153D01*
X345539Y413118D01*
X345438Y413086D01*
X345336Y413058D01*
X345233Y413034D01*
X345129Y413013D01*
X345025Y412996D01*
X344920Y412983D01*
X344814Y412974D01*
X344709Y412968D01*
X344603Y412966D01*
X341640Y412966D01*
X317256Y489166D02*
X317256Y499834D01*
X320219Y499834D01*
X320326Y499832D01*
X320433Y499826D01*
X320539Y499817D01*
X320645Y499803D01*
X320751Y499786D01*
X320856Y499765D01*
X320960Y499740D01*
X321063Y499711D01*
X321165Y499679D01*
X321266Y499643D01*
X321365Y499603D01*
X321463Y499560D01*
X321559Y499513D01*
X321654Y499463D01*
X321747Y499410D01*
X321837Y499353D01*
X321926Y499293D01*
X322012Y499230D01*
X322096Y499164D01*
X322178Y499094D01*
X322257Y499022D01*
X322333Y498947D01*
X322407Y498869D01*
X322477Y498789D01*
X322545Y498706D01*
X322610Y498621D01*
X322671Y498534D01*
X322730Y498444D01*
X322785Y498353D01*
X322837Y498259D01*
X322885Y498163D01*
X322930Y498066D01*
X322972Y497968D01*
X323009Y497868D01*
X323044Y497766D01*
X323074Y497664D01*
X323101Y497560D01*
X323124Y497456D01*
X323143Y497350D01*
X323158Y497244D01*
X323170Y497138D01*
X323178Y497031D01*
X323182Y496924D01*
X323182Y496818D01*
X323178Y496711D01*
X323170Y496604D01*
X323158Y496498D01*
X323143Y496392D01*
X323124Y496286D01*
X323101Y496182D01*
X323074Y496078D01*
X323044Y495976D01*
X323009Y495874D01*
X322972Y495774D01*
X322930Y495676D01*
X322885Y495579D01*
X322837Y495483D01*
X322785Y495390D01*
X322730Y495298D01*
X322671Y495208D01*
X322610Y495121D01*
X322545Y495036D01*
X322477Y494953D01*
X322407Y494873D01*
X322333Y494795D01*
X322257Y494720D01*
X322178Y494648D01*
X322096Y494578D01*
X322012Y494512D01*
X321926Y494449D01*
X321837Y494389D01*
X321747Y494332D01*
X321654Y494279D01*
X321559Y494229D01*
X321463Y494182D01*
X321365Y494139D01*
X321266Y494099D01*
X321165Y494063D01*
X321063Y494031D01*
X320960Y494002D01*
X320856Y493977D01*
X320751Y493956D01*
X320645Y493939D01*
X320539Y493925D01*
X320433Y493916D01*
X320326Y493910D01*
X320219Y493908D01*
X320219Y493907D02*
X317256Y493907D01*
X332581Y495093D02*
X334359Y495093D01*
X334359Y489166D01*
X330803Y489166D01*
X330708Y489168D01*
X330612Y489174D01*
X330517Y489183D01*
X330423Y489197D01*
X330329Y489214D01*
X330236Y489235D01*
X330143Y489260D01*
X330052Y489288D01*
X329962Y489320D01*
X329874Y489356D01*
X329787Y489395D01*
X329701Y489438D01*
X329618Y489484D01*
X329536Y489533D01*
X329456Y489586D01*
X329379Y489642D01*
X329303Y489700D01*
X329231Y489762D01*
X329161Y489827D01*
X329093Y489895D01*
X329028Y489965D01*
X328966Y490037D01*
X328908Y490113D01*
X328852Y490190D01*
X328799Y490270D01*
X328750Y490352D01*
X328704Y490435D01*
X328661Y490521D01*
X328622Y490608D01*
X328586Y490696D01*
X328554Y490786D01*
X328526Y490877D01*
X328501Y490970D01*
X328480Y491063D01*
X328463Y491157D01*
X328449Y491251D01*
X328440Y491346D01*
X328434Y491442D01*
X328432Y491537D01*
X328432Y497463D01*
X328434Y497558D01*
X328440Y497654D01*
X328449Y497749D01*
X328463Y497843D01*
X328480Y497937D01*
X328501Y498030D01*
X328526Y498123D01*
X328554Y498214D01*
X328586Y498304D01*
X328622Y498392D01*
X328661Y498479D01*
X328704Y498565D01*
X328750Y498648D01*
X328799Y498730D01*
X328852Y498810D01*
X328908Y498887D01*
X328966Y498963D01*
X329028Y499035D01*
X329093Y499105D01*
X329161Y499173D01*
X329231Y499238D01*
X329303Y499300D01*
X329379Y499358D01*
X329456Y499414D01*
X329536Y499467D01*
X329617Y499516D01*
X329701Y499562D01*
X329787Y499605D01*
X329874Y499644D01*
X329962Y499680D01*
X330052Y499712D01*
X330143Y499740D01*
X330236Y499765D01*
X330329Y499786D01*
X330423Y499803D01*
X330517Y499817D01*
X330612Y499826D01*
X330707Y499832D01*
X330803Y499834D01*
X334359Y499834D01*
X340624Y499834D02*
X340624Y489166D01*
X340624Y499834D02*
X343587Y499834D01*
X343693Y499832D01*
X343798Y499826D01*
X343904Y499817D01*
X344009Y499804D01*
X344113Y499787D01*
X344217Y499766D01*
X344320Y499742D01*
X344422Y499714D01*
X344523Y499682D01*
X344622Y499647D01*
X344721Y499608D01*
X344818Y499566D01*
X344913Y499521D01*
X345007Y499472D01*
X345099Y499419D01*
X345189Y499364D01*
X345277Y499305D01*
X345363Y499243D01*
X345446Y499178D01*
X345527Y499110D01*
X345606Y499040D01*
X345682Y498966D01*
X345756Y498890D01*
X345826Y498811D01*
X345894Y498730D01*
X345959Y498647D01*
X346021Y498561D01*
X346080Y498473D01*
X346135Y498383D01*
X346188Y498291D01*
X346237Y498197D01*
X346282Y498102D01*
X346324Y498005D01*
X346363Y497906D01*
X346398Y497807D01*
X346430Y497706D01*
X346458Y497604D01*
X346482Y497501D01*
X346503Y497397D01*
X346520Y497293D01*
X346533Y497188D01*
X346542Y497082D01*
X346548Y496977D01*
X346550Y496871D01*
X346551Y496871D02*
X346551Y492129D01*
X346550Y492129D02*
X346548Y492023D01*
X346542Y491918D01*
X346533Y491812D01*
X346520Y491707D01*
X346503Y491603D01*
X346482Y491499D01*
X346458Y491396D01*
X346430Y491294D01*
X346398Y491193D01*
X346363Y491094D01*
X346324Y490995D01*
X346282Y490898D01*
X346237Y490803D01*
X346188Y490709D01*
X346135Y490617D01*
X346080Y490527D01*
X346021Y490439D01*
X345959Y490353D01*
X345894Y490270D01*
X345826Y490189D01*
X345756Y490110D01*
X345682Y490034D01*
X345606Y489960D01*
X345527Y489890D01*
X345446Y489822D01*
X345363Y489757D01*
X345277Y489695D01*
X345189Y489636D01*
X345099Y489581D01*
X345007Y489528D01*
X344913Y489479D01*
X344818Y489434D01*
X344721Y489392D01*
X344622Y489353D01*
X344523Y489318D01*
X344422Y489286D01*
X344320Y489258D01*
X344217Y489234D01*
X344113Y489213D01*
X344009Y489196D01*
X343904Y489183D01*
X343798Y489174D01*
X343693Y489168D01*
X343587Y489166D01*
X340624Y489166D01*
X323183Y466137D02*
X323181Y466042D01*
X323175Y465946D01*
X323166Y465851D01*
X323152Y465757D01*
X323135Y465663D01*
X323114Y465570D01*
X323089Y465477D01*
X323061Y465386D01*
X323029Y465296D01*
X322993Y465208D01*
X322954Y465121D01*
X322911Y465035D01*
X322865Y464952D01*
X322816Y464870D01*
X322763Y464790D01*
X322707Y464713D01*
X322649Y464637D01*
X322587Y464565D01*
X322522Y464495D01*
X322454Y464427D01*
X322384Y464362D01*
X322312Y464300D01*
X322236Y464242D01*
X322159Y464186D01*
X322079Y464133D01*
X321998Y464084D01*
X321914Y464038D01*
X321828Y463995D01*
X321741Y463956D01*
X321653Y463920D01*
X321563Y463888D01*
X321472Y463860D01*
X321379Y463835D01*
X321286Y463814D01*
X321192Y463797D01*
X321098Y463783D01*
X321003Y463774D01*
X320908Y463768D01*
X320812Y463766D01*
X320676Y463768D01*
X320539Y463773D01*
X320403Y463783D01*
X320268Y463796D01*
X320132Y463812D01*
X319998Y463833D01*
X319863Y463857D01*
X319730Y463884D01*
X319597Y463916D01*
X319465Y463950D01*
X319334Y463989D01*
X319205Y464031D01*
X319076Y464076D01*
X318949Y464125D01*
X318823Y464178D01*
X318699Y464234D01*
X318576Y464293D01*
X318455Y464355D01*
X318335Y464421D01*
X318218Y464490D01*
X318102Y464563D01*
X317988Y464638D01*
X317877Y464716D01*
X317767Y464798D01*
X317660Y464882D01*
X317556Y464969D01*
X317453Y465059D01*
X317353Y465152D01*
X317256Y465248D01*
X317552Y472063D02*
X317554Y472158D01*
X317560Y472254D01*
X317569Y472349D01*
X317583Y472443D01*
X317600Y472537D01*
X317621Y472630D01*
X317646Y472723D01*
X317674Y472814D01*
X317706Y472904D01*
X317742Y472992D01*
X317781Y473079D01*
X317824Y473165D01*
X317870Y473249D01*
X317919Y473330D01*
X317972Y473410D01*
X318028Y473487D01*
X318086Y473563D01*
X318148Y473635D01*
X318213Y473705D01*
X318281Y473773D01*
X318351Y473838D01*
X318423Y473900D01*
X318499Y473958D01*
X318576Y474014D01*
X318656Y474067D01*
X318738Y474116D01*
X318821Y474162D01*
X318907Y474205D01*
X318994Y474244D01*
X319082Y474280D01*
X319172Y474312D01*
X319263Y474340D01*
X319356Y474365D01*
X319449Y474386D01*
X319543Y474403D01*
X319637Y474417D01*
X319732Y474426D01*
X319828Y474432D01*
X319923Y474434D01*
X320053Y474432D01*
X320183Y474426D01*
X320313Y474417D01*
X320442Y474404D01*
X320571Y474387D01*
X320699Y474366D01*
X320827Y474341D01*
X320954Y474313D01*
X321080Y474281D01*
X321205Y474245D01*
X321329Y474206D01*
X321451Y474163D01*
X321573Y474117D01*
X321693Y474066D01*
X321811Y474013D01*
X321928Y473956D01*
X322043Y473896D01*
X322157Y473832D01*
X322268Y473765D01*
X322378Y473695D01*
X322485Y473621D01*
X322590Y473545D01*
X318738Y469988D02*
X318656Y470039D01*
X318576Y470093D01*
X318498Y470149D01*
X318423Y470209D01*
X318350Y470272D01*
X318280Y470338D01*
X318213Y470406D01*
X318148Y470477D01*
X318086Y470551D01*
X318027Y470627D01*
X317971Y470705D01*
X317919Y470786D01*
X317869Y470868D01*
X317823Y470953D01*
X317781Y471039D01*
X317741Y471127D01*
X317706Y471216D01*
X317674Y471307D01*
X317645Y471399D01*
X317621Y471492D01*
X317600Y471585D01*
X317583Y471680D01*
X317569Y471775D01*
X317560Y471871D01*
X317554Y471967D01*
X317552Y472063D01*
X321998Y468212D02*
X322079Y468161D01*
X322159Y468107D01*
X322237Y468051D01*
X322312Y467991D01*
X322385Y467928D01*
X322455Y467862D01*
X322522Y467794D01*
X322587Y467723D01*
X322649Y467649D01*
X322708Y467573D01*
X322764Y467495D01*
X322816Y467414D01*
X322866Y467332D01*
X322912Y467247D01*
X322954Y467161D01*
X322994Y467073D01*
X323029Y466984D01*
X323061Y466893D01*
X323090Y466801D01*
X323114Y466708D01*
X323135Y466615D01*
X323152Y466520D01*
X323166Y466425D01*
X323175Y466329D01*
X323181Y466233D01*
X323183Y466137D01*
X321997Y468211D02*
X318738Y469989D01*
X328720Y463766D02*
X333461Y463766D01*
X328720Y463766D02*
X328720Y474434D01*
X333461Y474434D01*
X332276Y469693D02*
X328720Y469693D01*
X339212Y471471D02*
X339212Y466729D01*
X339212Y471471D02*
X339214Y471578D01*
X339220Y471685D01*
X339229Y471791D01*
X339243Y471897D01*
X339260Y472003D01*
X339281Y472108D01*
X339306Y472212D01*
X339335Y472315D01*
X339367Y472417D01*
X339403Y472518D01*
X339443Y472617D01*
X339486Y472715D01*
X339533Y472811D01*
X339583Y472906D01*
X339636Y472999D01*
X339693Y473089D01*
X339753Y473178D01*
X339816Y473264D01*
X339882Y473348D01*
X339952Y473430D01*
X340024Y473509D01*
X340099Y473585D01*
X340177Y473659D01*
X340257Y473729D01*
X340340Y473797D01*
X340425Y473862D01*
X340512Y473923D01*
X340602Y473982D01*
X340694Y474037D01*
X340787Y474089D01*
X340883Y474137D01*
X340980Y474182D01*
X341078Y474224D01*
X341178Y474261D01*
X341280Y474296D01*
X341382Y474326D01*
X341486Y474353D01*
X341590Y474376D01*
X341696Y474395D01*
X341802Y474410D01*
X341908Y474422D01*
X342015Y474430D01*
X342122Y474434D01*
X342228Y474434D01*
X342335Y474430D01*
X342442Y474422D01*
X342548Y474410D01*
X342654Y474395D01*
X342760Y474376D01*
X342864Y474353D01*
X342968Y474326D01*
X343070Y474296D01*
X343172Y474261D01*
X343272Y474224D01*
X343370Y474182D01*
X343467Y474137D01*
X343563Y474089D01*
X343657Y474037D01*
X343748Y473982D01*
X343838Y473923D01*
X343925Y473862D01*
X344010Y473797D01*
X344093Y473729D01*
X344173Y473659D01*
X344251Y473585D01*
X344326Y473509D01*
X344398Y473430D01*
X344468Y473348D01*
X344534Y473264D01*
X344597Y473178D01*
X344657Y473089D01*
X344714Y472999D01*
X344767Y472906D01*
X344817Y472811D01*
X344864Y472715D01*
X344907Y472617D01*
X344947Y472518D01*
X344983Y472417D01*
X345015Y472315D01*
X345044Y472212D01*
X345069Y472108D01*
X345090Y472003D01*
X345107Y471897D01*
X345121Y471791D01*
X345130Y471685D01*
X345136Y471578D01*
X345138Y471471D01*
X345138Y466729D01*
X345136Y466622D01*
X345130Y466515D01*
X345121Y466409D01*
X345107Y466303D01*
X345090Y466197D01*
X345069Y466092D01*
X345044Y465988D01*
X345015Y465885D01*
X344983Y465783D01*
X344947Y465682D01*
X344907Y465583D01*
X344864Y465485D01*
X344817Y465389D01*
X344767Y465294D01*
X344714Y465201D01*
X344657Y465111D01*
X344597Y465022D01*
X344534Y464936D01*
X344468Y464852D01*
X344398Y464770D01*
X344326Y464691D01*
X344251Y464615D01*
X344173Y464541D01*
X344093Y464471D01*
X344010Y464403D01*
X343925Y464338D01*
X343838Y464277D01*
X343748Y464218D01*
X343657Y464163D01*
X343563Y464111D01*
X343467Y464063D01*
X343370Y464018D01*
X343272Y463976D01*
X343172Y463939D01*
X343070Y463904D01*
X342968Y463874D01*
X342864Y463847D01*
X342760Y463824D01*
X342654Y463805D01*
X342548Y463790D01*
X342442Y463778D01*
X342335Y463770D01*
X342228Y463766D01*
X342122Y463766D01*
X342015Y463770D01*
X341908Y463778D01*
X341802Y463790D01*
X341696Y463805D01*
X341590Y463824D01*
X341486Y463847D01*
X341382Y463874D01*
X341280Y463904D01*
X341178Y463939D01*
X341078Y463976D01*
X340980Y464018D01*
X340883Y464063D01*
X340787Y464111D01*
X340694Y464163D01*
X340602Y464218D01*
X340512Y464277D01*
X340425Y464338D01*
X340340Y464403D01*
X340257Y464471D01*
X340177Y464541D01*
X340099Y464615D01*
X340024Y464691D01*
X339952Y464770D01*
X339882Y464852D01*
X339816Y464936D01*
X339753Y465022D01*
X339693Y465111D01*
X339636Y465201D01*
X339583Y465294D01*
X339533Y465389D01*
X339486Y465485D01*
X339443Y465583D01*
X339403Y465682D01*
X339367Y465783D01*
X339335Y465885D01*
X339306Y465988D01*
X339281Y466092D01*
X339260Y466197D01*
X339243Y466303D01*
X339229Y466409D01*
X339220Y466515D01*
X339214Y466622D01*
X339212Y466729D01*
X343953Y466137D02*
X346324Y463766D01*
X317256Y446071D02*
X317256Y441329D01*
X317256Y446071D02*
X317258Y446178D01*
X317264Y446285D01*
X317273Y446391D01*
X317287Y446497D01*
X317304Y446603D01*
X317325Y446708D01*
X317350Y446812D01*
X317379Y446915D01*
X317411Y447017D01*
X317447Y447118D01*
X317487Y447217D01*
X317530Y447315D01*
X317577Y447411D01*
X317627Y447506D01*
X317680Y447599D01*
X317737Y447689D01*
X317797Y447778D01*
X317860Y447864D01*
X317926Y447948D01*
X317996Y448030D01*
X318068Y448109D01*
X318143Y448185D01*
X318221Y448259D01*
X318301Y448329D01*
X318384Y448397D01*
X318469Y448462D01*
X318556Y448523D01*
X318646Y448582D01*
X318738Y448637D01*
X318831Y448689D01*
X318927Y448737D01*
X319024Y448782D01*
X319122Y448824D01*
X319222Y448861D01*
X319324Y448896D01*
X319426Y448926D01*
X319530Y448953D01*
X319634Y448976D01*
X319740Y448995D01*
X319846Y449010D01*
X319952Y449022D01*
X320059Y449030D01*
X320166Y449034D01*
X320272Y449034D01*
X320379Y449030D01*
X320486Y449022D01*
X320592Y449010D01*
X320698Y448995D01*
X320804Y448976D01*
X320908Y448953D01*
X321012Y448926D01*
X321114Y448896D01*
X321216Y448861D01*
X321316Y448824D01*
X321414Y448782D01*
X321511Y448737D01*
X321607Y448689D01*
X321701Y448637D01*
X321792Y448582D01*
X321882Y448523D01*
X321969Y448462D01*
X322054Y448397D01*
X322137Y448329D01*
X322217Y448259D01*
X322295Y448185D01*
X322370Y448109D01*
X322442Y448030D01*
X322512Y447948D01*
X322578Y447864D01*
X322641Y447778D01*
X322701Y447689D01*
X322758Y447599D01*
X322811Y447506D01*
X322861Y447411D01*
X322908Y447315D01*
X322951Y447217D01*
X322991Y447118D01*
X323027Y447017D01*
X323059Y446915D01*
X323088Y446812D01*
X323113Y446708D01*
X323134Y446603D01*
X323151Y446497D01*
X323165Y446391D01*
X323174Y446285D01*
X323180Y446178D01*
X323182Y446071D01*
X323183Y446071D02*
X323183Y441329D01*
X323182Y441329D02*
X323180Y441222D01*
X323174Y441115D01*
X323165Y441009D01*
X323151Y440903D01*
X323134Y440797D01*
X323113Y440692D01*
X323088Y440588D01*
X323059Y440485D01*
X323027Y440383D01*
X322991Y440282D01*
X322951Y440183D01*
X322908Y440085D01*
X322861Y439989D01*
X322811Y439894D01*
X322758Y439801D01*
X322701Y439711D01*
X322641Y439622D01*
X322578Y439536D01*
X322512Y439452D01*
X322442Y439370D01*
X322370Y439291D01*
X322295Y439215D01*
X322217Y439141D01*
X322137Y439071D01*
X322054Y439003D01*
X321969Y438938D01*
X321882Y438877D01*
X321792Y438818D01*
X321701Y438763D01*
X321607Y438711D01*
X321511Y438663D01*
X321414Y438618D01*
X321316Y438576D01*
X321216Y438539D01*
X321114Y438504D01*
X321012Y438474D01*
X320908Y438447D01*
X320804Y438424D01*
X320698Y438405D01*
X320592Y438390D01*
X320486Y438378D01*
X320379Y438370D01*
X320272Y438366D01*
X320166Y438366D01*
X320059Y438370D01*
X319952Y438378D01*
X319846Y438390D01*
X319740Y438405D01*
X319634Y438424D01*
X319530Y438447D01*
X319426Y438474D01*
X319324Y438504D01*
X319222Y438539D01*
X319122Y438576D01*
X319024Y438618D01*
X318927Y438663D01*
X318831Y438711D01*
X318738Y438763D01*
X318646Y438818D01*
X318556Y438877D01*
X318469Y438938D01*
X318384Y439003D01*
X318301Y439071D01*
X318221Y439141D01*
X318143Y439215D01*
X318068Y439291D01*
X317996Y439370D01*
X317926Y439452D01*
X317860Y439536D01*
X317797Y439622D01*
X317737Y439711D01*
X317680Y439801D01*
X317627Y439894D01*
X317577Y439989D01*
X317530Y440085D01*
X317487Y440183D01*
X317447Y440282D01*
X317411Y440383D01*
X317379Y440485D01*
X317350Y440588D01*
X317325Y440692D01*
X317304Y440797D01*
X317287Y440903D01*
X317273Y441009D01*
X317264Y441115D01*
X317258Y441222D01*
X317256Y441329D01*
X329067Y438366D02*
X329067Y449034D01*
X334994Y438366D01*
X334994Y449034D01*
D11*
X493922Y444434D02*
X495361Y444434D01*
X495361Y439636D01*
X492482Y439636D01*
X492396Y439638D01*
X492310Y439644D01*
X492224Y439653D01*
X492139Y439667D01*
X492055Y439684D01*
X491971Y439705D01*
X491889Y439730D01*
X491808Y439758D01*
X491728Y439790D01*
X491649Y439826D01*
X491573Y439865D01*
X491498Y439908D01*
X491425Y439953D01*
X491354Y440002D01*
X491286Y440055D01*
X491219Y440110D01*
X491156Y440168D01*
X491095Y440229D01*
X491037Y440292D01*
X490982Y440359D01*
X490929Y440427D01*
X490880Y440498D01*
X490835Y440571D01*
X490792Y440646D01*
X490753Y440722D01*
X490717Y440801D01*
X490685Y440881D01*
X490657Y440962D01*
X490632Y441044D01*
X490611Y441128D01*
X490594Y441212D01*
X490580Y441297D01*
X490571Y441383D01*
X490565Y441469D01*
X490563Y441555D01*
X490563Y446353D01*
X490565Y446439D01*
X490571Y446525D01*
X490580Y446611D01*
X490594Y446696D01*
X490611Y446780D01*
X490632Y446864D01*
X490657Y446946D01*
X490685Y447027D01*
X490717Y447107D01*
X490753Y447186D01*
X490792Y447262D01*
X490835Y447337D01*
X490880Y447410D01*
X490929Y447481D01*
X490982Y447549D01*
X491037Y447616D01*
X491095Y447679D01*
X491156Y447740D01*
X491219Y447798D01*
X491286Y447853D01*
X491354Y447905D01*
X491425Y447955D01*
X491498Y448000D01*
X491573Y448043D01*
X491649Y448082D01*
X491728Y448118D01*
X491808Y448150D01*
X491889Y448178D01*
X491971Y448203D01*
X492055Y448224D01*
X492139Y448241D01*
X492224Y448255D01*
X492310Y448264D01*
X492396Y448270D01*
X492482Y448272D01*
X495361Y448272D01*
X500317Y448272D02*
X500317Y439636D01*
X505114Y439636D02*
X500317Y448272D01*
X505114Y448272D02*
X505114Y439636D01*
X510070Y439636D02*
X510070Y448272D01*
X512469Y448272D01*
X512566Y448270D01*
X512662Y448264D01*
X512758Y448255D01*
X512854Y448241D01*
X512949Y448224D01*
X513043Y448202D01*
X513136Y448177D01*
X513229Y448149D01*
X513320Y448116D01*
X513409Y448080D01*
X513497Y448040D01*
X513584Y447997D01*
X513669Y447951D01*
X513751Y447901D01*
X513832Y447847D01*
X513910Y447791D01*
X513986Y447731D01*
X514060Y447669D01*
X514131Y447603D01*
X514199Y447535D01*
X514265Y447464D01*
X514327Y447390D01*
X514387Y447314D01*
X514443Y447236D01*
X514497Y447155D01*
X514547Y447073D01*
X514593Y446988D01*
X514636Y446901D01*
X514676Y446813D01*
X514712Y446724D01*
X514745Y446633D01*
X514773Y446540D01*
X514798Y446447D01*
X514820Y446353D01*
X514837Y446258D01*
X514851Y446162D01*
X514860Y446066D01*
X514866Y445970D01*
X514868Y445873D01*
X514868Y442035D01*
X514866Y441938D01*
X514860Y441842D01*
X514851Y441746D01*
X514837Y441650D01*
X514820Y441555D01*
X514798Y441461D01*
X514773Y441368D01*
X514745Y441275D01*
X514712Y441184D01*
X514676Y441095D01*
X514636Y441007D01*
X514593Y440920D01*
X514547Y440836D01*
X514497Y440753D01*
X514443Y440672D01*
X514387Y440594D01*
X514327Y440518D01*
X514265Y440444D01*
X514199Y440373D01*
X514131Y440305D01*
X514060Y440239D01*
X513986Y440177D01*
X513910Y440117D01*
X513832Y440061D01*
X513751Y440007D01*
X513669Y439957D01*
X513584Y439911D01*
X513497Y439868D01*
X513409Y439828D01*
X513320Y439792D01*
X513229Y439759D01*
X513136Y439731D01*
X513043Y439706D01*
X512949Y439684D01*
X512854Y439667D01*
X512758Y439653D01*
X512662Y439644D01*
X512566Y439638D01*
X512469Y439636D01*
X510070Y439636D01*
X485037Y465036D02*
X482159Y473672D01*
X487916Y473672D02*
X485037Y465036D01*
X491782Y467435D02*
X491782Y471273D01*
X491784Y471370D01*
X491790Y471466D01*
X491799Y471562D01*
X491813Y471658D01*
X491830Y471753D01*
X491852Y471847D01*
X491877Y471940D01*
X491905Y472033D01*
X491938Y472124D01*
X491974Y472213D01*
X492014Y472301D01*
X492057Y472388D01*
X492103Y472473D01*
X492153Y472555D01*
X492207Y472636D01*
X492263Y472714D01*
X492323Y472790D01*
X492385Y472864D01*
X492451Y472935D01*
X492519Y473003D01*
X492590Y473069D01*
X492664Y473131D01*
X492740Y473191D01*
X492818Y473247D01*
X492899Y473301D01*
X492982Y473351D01*
X493066Y473397D01*
X493153Y473440D01*
X493241Y473480D01*
X493330Y473516D01*
X493421Y473549D01*
X493514Y473577D01*
X493607Y473602D01*
X493701Y473624D01*
X493796Y473641D01*
X493892Y473655D01*
X493988Y473664D01*
X494084Y473670D01*
X494181Y473672D01*
X494278Y473670D01*
X494374Y473664D01*
X494470Y473655D01*
X494566Y473641D01*
X494661Y473624D01*
X494755Y473602D01*
X494848Y473577D01*
X494941Y473549D01*
X495032Y473516D01*
X495121Y473480D01*
X495209Y473440D01*
X495296Y473397D01*
X495381Y473351D01*
X495463Y473301D01*
X495544Y473247D01*
X495622Y473191D01*
X495698Y473131D01*
X495772Y473069D01*
X495843Y473003D01*
X495911Y472935D01*
X495977Y472864D01*
X496039Y472790D01*
X496099Y472714D01*
X496155Y472636D01*
X496209Y472555D01*
X496259Y472473D01*
X496305Y472388D01*
X496348Y472301D01*
X496388Y472213D01*
X496424Y472124D01*
X496457Y472033D01*
X496485Y471940D01*
X496510Y471847D01*
X496532Y471753D01*
X496549Y471658D01*
X496563Y471562D01*
X496572Y471466D01*
X496578Y471370D01*
X496580Y471273D01*
X496580Y467435D01*
X496578Y467338D01*
X496572Y467242D01*
X496563Y467146D01*
X496549Y467050D01*
X496532Y466955D01*
X496510Y466861D01*
X496485Y466768D01*
X496457Y466675D01*
X496424Y466584D01*
X496388Y466495D01*
X496348Y466407D01*
X496305Y466320D01*
X496259Y466236D01*
X496209Y466153D01*
X496155Y466072D01*
X496099Y465994D01*
X496039Y465918D01*
X495977Y465844D01*
X495911Y465773D01*
X495843Y465705D01*
X495772Y465639D01*
X495698Y465577D01*
X495622Y465517D01*
X495544Y465461D01*
X495463Y465407D01*
X495381Y465357D01*
X495296Y465311D01*
X495209Y465268D01*
X495121Y465228D01*
X495032Y465192D01*
X494941Y465159D01*
X494848Y465131D01*
X494755Y465106D01*
X494661Y465084D01*
X494566Y465067D01*
X494470Y465053D01*
X494374Y465044D01*
X494278Y465038D01*
X494181Y465036D01*
X494084Y465038D01*
X493988Y465044D01*
X493892Y465053D01*
X493796Y465067D01*
X493701Y465084D01*
X493607Y465106D01*
X493514Y465131D01*
X493421Y465159D01*
X493330Y465192D01*
X493241Y465228D01*
X493153Y465268D01*
X493066Y465311D01*
X492982Y465357D01*
X492899Y465407D01*
X492818Y465461D01*
X492740Y465517D01*
X492664Y465577D01*
X492590Y465639D01*
X492519Y465705D01*
X492451Y465773D01*
X492385Y465844D01*
X492323Y465918D01*
X492263Y465994D01*
X492207Y466072D01*
X492153Y466153D01*
X492103Y466236D01*
X492057Y466320D01*
X492014Y466407D01*
X491974Y466495D01*
X491938Y466584D01*
X491905Y466675D01*
X491877Y466768D01*
X491852Y466861D01*
X491830Y466955D01*
X491813Y467050D01*
X491799Y467146D01*
X491790Y467242D01*
X491784Y467338D01*
X491782Y467435D01*
X501231Y467435D02*
X501231Y473672D01*
X501231Y467435D02*
X501233Y467338D01*
X501239Y467242D01*
X501248Y467146D01*
X501262Y467050D01*
X501279Y466955D01*
X501301Y466861D01*
X501326Y466768D01*
X501354Y466675D01*
X501387Y466584D01*
X501423Y466495D01*
X501463Y466407D01*
X501506Y466320D01*
X501552Y466236D01*
X501602Y466153D01*
X501656Y466072D01*
X501712Y465994D01*
X501772Y465918D01*
X501834Y465844D01*
X501900Y465773D01*
X501968Y465705D01*
X502039Y465639D01*
X502113Y465577D01*
X502189Y465517D01*
X502267Y465461D01*
X502348Y465407D01*
X502431Y465357D01*
X502515Y465311D01*
X502602Y465268D01*
X502690Y465228D01*
X502779Y465192D01*
X502870Y465159D01*
X502963Y465131D01*
X503056Y465106D01*
X503150Y465084D01*
X503245Y465067D01*
X503341Y465053D01*
X503437Y465044D01*
X503533Y465038D01*
X503630Y465036D01*
X503727Y465038D01*
X503823Y465044D01*
X503919Y465053D01*
X504015Y465067D01*
X504110Y465084D01*
X504204Y465106D01*
X504297Y465131D01*
X504390Y465159D01*
X504481Y465192D01*
X504570Y465228D01*
X504658Y465268D01*
X504745Y465311D01*
X504830Y465357D01*
X504912Y465407D01*
X504993Y465461D01*
X505071Y465517D01*
X505147Y465577D01*
X505221Y465639D01*
X505292Y465705D01*
X505360Y465773D01*
X505426Y465844D01*
X505488Y465918D01*
X505548Y465994D01*
X505604Y466072D01*
X505658Y466153D01*
X505708Y466236D01*
X505754Y466320D01*
X505797Y466407D01*
X505837Y466495D01*
X505873Y466584D01*
X505906Y466675D01*
X505934Y466768D01*
X505959Y466861D01*
X505981Y466955D01*
X505998Y467050D01*
X506012Y467146D01*
X506021Y467242D01*
X506027Y467338D01*
X506029Y467435D01*
X506029Y473672D01*
X512469Y473672D02*
X512469Y465036D01*
X510070Y473672D02*
X514868Y473672D01*
X487606Y422872D02*
X487606Y414236D01*
X490004Y422872D02*
X485207Y422872D01*
X494130Y422872D02*
X494130Y414236D01*
X494130Y422872D02*
X496529Y422872D01*
X496626Y422870D01*
X496722Y422864D01*
X496818Y422855D01*
X496914Y422841D01*
X497009Y422824D01*
X497103Y422802D01*
X497196Y422777D01*
X497289Y422749D01*
X497380Y422716D01*
X497469Y422680D01*
X497557Y422640D01*
X497644Y422597D01*
X497729Y422551D01*
X497811Y422501D01*
X497892Y422447D01*
X497970Y422391D01*
X498046Y422331D01*
X498120Y422269D01*
X498191Y422203D01*
X498259Y422135D01*
X498325Y422064D01*
X498387Y421990D01*
X498447Y421914D01*
X498503Y421836D01*
X498557Y421755D01*
X498607Y421673D01*
X498653Y421588D01*
X498696Y421501D01*
X498736Y421413D01*
X498772Y421324D01*
X498805Y421233D01*
X498833Y421140D01*
X498858Y421047D01*
X498880Y420953D01*
X498897Y420858D01*
X498911Y420762D01*
X498920Y420666D01*
X498926Y420570D01*
X498928Y420473D01*
X498926Y420376D01*
X498920Y420280D01*
X498911Y420184D01*
X498897Y420088D01*
X498880Y419993D01*
X498858Y419899D01*
X498833Y419806D01*
X498805Y419713D01*
X498772Y419622D01*
X498736Y419533D01*
X498696Y419445D01*
X498653Y419358D01*
X498607Y419274D01*
X498557Y419191D01*
X498503Y419110D01*
X498447Y419032D01*
X498387Y418956D01*
X498325Y418882D01*
X498259Y418811D01*
X498191Y418743D01*
X498120Y418677D01*
X498046Y418615D01*
X497970Y418555D01*
X497892Y418499D01*
X497811Y418445D01*
X497729Y418395D01*
X497644Y418349D01*
X497557Y418306D01*
X497469Y418266D01*
X497380Y418230D01*
X497289Y418197D01*
X497196Y418169D01*
X497103Y418144D01*
X497009Y418122D01*
X496914Y418105D01*
X496818Y418091D01*
X496722Y418082D01*
X496626Y418076D01*
X496529Y418074D01*
X494130Y418074D01*
X497009Y418074D02*
X498928Y414236D01*
X503760Y414236D02*
X503760Y422872D01*
X502800Y414236D02*
X504719Y414236D01*
X504719Y422872D02*
X502800Y422872D01*
X509111Y422872D02*
X509111Y414236D01*
X511989Y418074D02*
X509111Y422872D01*
X511989Y418074D02*
X514868Y422872D01*
X514868Y414236D01*
D10*
X313700Y411950D02*
X313700Y424650D01*
X313700Y411950D02*
X307350Y405600D01*
X294650Y405600D02*
X288300Y411950D01*
X307350Y405600D02*
X313700Y399250D01*
X313700Y386550D01*
X307350Y380200D01*
X294650Y380200D02*
X288300Y386550D01*
X288300Y399250D01*
X294650Y405600D01*
X313700Y450050D02*
X307350Y456400D01*
X313700Y450050D02*
X313700Y437350D01*
X307350Y431000D01*
X294650Y431000D02*
X288300Y437350D01*
X288300Y450050D01*
X294650Y456400D01*
X307350Y431000D02*
X313700Y424650D01*
X294650Y431000D02*
X288300Y424650D01*
X288300Y411950D01*
X313700Y488150D02*
X313700Y500850D01*
X313700Y488150D02*
X307350Y481800D01*
X294650Y481800D02*
X288300Y488150D01*
X307350Y481800D02*
X313700Y475450D01*
X313700Y462750D01*
X307350Y456400D01*
X294650Y456400D02*
X288300Y462750D01*
X288300Y475450D01*
X294650Y481800D01*
X294650Y507200D02*
X307350Y507200D01*
X313700Y500850D01*
X294650Y507200D02*
X288300Y500850D01*
X288300Y488150D01*
X294650Y380200D02*
X307350Y380200D01*
D12*
X319923Y482816D02*
X331353Y482816D01*
X331353Y481546D02*
X331353Y484086D01*
X319923Y484086D02*
X319923Y481546D01*
X319923Y489166D02*
X331353Y489166D01*
X331353Y495516D02*
X319923Y489166D01*
X319923Y495516D02*
X331353Y495516D01*
X322463Y500977D02*
X319923Y504152D01*
X331353Y504152D01*
X331353Y500977D02*
X331353Y507327D01*
D10*
X516900Y462750D02*
X523250Y456400D01*
X516900Y462750D02*
X516900Y475450D01*
X523250Y481800D01*
X535950Y481800D02*
X542300Y475450D01*
X542300Y462750D01*
X535950Y456400D01*
X516900Y424650D02*
X516900Y411950D01*
X516900Y424650D02*
X523250Y431000D01*
X535950Y431000D02*
X542300Y424650D01*
X523250Y431000D02*
X516900Y437350D01*
X516900Y450050D01*
X523250Y456400D01*
X535950Y456400D02*
X542300Y450050D01*
X542300Y437350D01*
X535950Y431000D01*
X535950Y405600D02*
X523250Y405600D01*
X516900Y411950D01*
X535950Y405600D02*
X542300Y411950D01*
X542300Y424650D01*
X535950Y481800D02*
X523250Y481800D01*
D12*
X507502Y405473D02*
X502422Y405473D01*
X502311Y405475D01*
X502201Y405481D01*
X502090Y405490D01*
X501980Y405504D01*
X501871Y405521D01*
X501762Y405542D01*
X501654Y405567D01*
X501547Y405596D01*
X501441Y405628D01*
X501336Y405664D01*
X501233Y405704D01*
X501131Y405747D01*
X501030Y405794D01*
X500931Y405845D01*
X500835Y405898D01*
X500740Y405955D01*
X500647Y406016D01*
X500556Y406079D01*
X500467Y406146D01*
X500381Y406216D01*
X500298Y406289D01*
X500216Y406364D01*
X500138Y406442D01*
X500063Y406524D01*
X499990Y406607D01*
X499920Y406693D01*
X499853Y406782D01*
X499790Y406873D01*
X499729Y406966D01*
X499672Y407061D01*
X499619Y407157D01*
X499568Y407256D01*
X499521Y407357D01*
X499478Y407459D01*
X499438Y407562D01*
X499402Y407667D01*
X499370Y407773D01*
X499341Y407880D01*
X499316Y407988D01*
X499295Y408097D01*
X499278Y408206D01*
X499264Y408316D01*
X499255Y408427D01*
X499249Y408537D01*
X499247Y408648D01*
X499249Y408759D01*
X499255Y408869D01*
X499264Y408980D01*
X499278Y409090D01*
X499295Y409199D01*
X499316Y409308D01*
X499341Y409416D01*
X499370Y409523D01*
X499402Y409629D01*
X499438Y409734D01*
X499478Y409837D01*
X499521Y409939D01*
X499568Y410040D01*
X499619Y410139D01*
X499672Y410236D01*
X499729Y410330D01*
X499790Y410423D01*
X499853Y410514D01*
X499920Y410603D01*
X499990Y410689D01*
X500063Y410772D01*
X500138Y410854D01*
X500216Y410932D01*
X500298Y411007D01*
X500381Y411080D01*
X500467Y411150D01*
X500556Y411217D01*
X500647Y411280D01*
X500740Y411341D01*
X500835Y411398D01*
X500931Y411451D01*
X501030Y411502D01*
X501131Y411549D01*
X501233Y411592D01*
X501336Y411632D01*
X501441Y411668D01*
X501547Y411700D01*
X501654Y411729D01*
X501762Y411754D01*
X501871Y411775D01*
X501980Y411792D01*
X502090Y411806D01*
X502201Y411815D01*
X502311Y411821D01*
X502422Y411823D01*
X507502Y411823D01*
X507613Y411821D01*
X507723Y411815D01*
X507834Y411806D01*
X507944Y411792D01*
X508053Y411775D01*
X508162Y411754D01*
X508270Y411729D01*
X508377Y411700D01*
X508483Y411668D01*
X508588Y411632D01*
X508691Y411592D01*
X508793Y411549D01*
X508894Y411502D01*
X508993Y411451D01*
X509090Y411398D01*
X509184Y411341D01*
X509277Y411280D01*
X509368Y411217D01*
X509457Y411150D01*
X509543Y411080D01*
X509626Y411007D01*
X509708Y410932D01*
X509786Y410854D01*
X509861Y410772D01*
X509934Y410689D01*
X510004Y410603D01*
X510071Y410514D01*
X510134Y410423D01*
X510195Y410330D01*
X510252Y410235D01*
X510305Y410139D01*
X510356Y410040D01*
X510403Y409939D01*
X510446Y409837D01*
X510486Y409734D01*
X510522Y409629D01*
X510554Y409523D01*
X510583Y409416D01*
X510608Y409308D01*
X510629Y409199D01*
X510646Y409090D01*
X510660Y408980D01*
X510669Y408869D01*
X510675Y408759D01*
X510677Y408648D01*
X510675Y408537D01*
X510669Y408427D01*
X510660Y408316D01*
X510646Y408206D01*
X510629Y408097D01*
X510608Y407988D01*
X510583Y407880D01*
X510554Y407773D01*
X510522Y407667D01*
X510486Y407562D01*
X510446Y407459D01*
X510403Y407357D01*
X510356Y407256D01*
X510305Y407157D01*
X510252Y407060D01*
X510195Y406966D01*
X510134Y406873D01*
X510071Y406782D01*
X510004Y406693D01*
X509934Y406607D01*
X509861Y406524D01*
X509786Y406442D01*
X509708Y406364D01*
X509626Y406289D01*
X509543Y406216D01*
X509457Y406146D01*
X509368Y406079D01*
X509277Y406016D01*
X509184Y405955D01*
X509090Y405898D01*
X508993Y405845D01*
X508894Y405794D01*
X508793Y405747D01*
X508691Y405704D01*
X508588Y405664D01*
X508483Y405628D01*
X508377Y405596D01*
X508270Y405567D01*
X508162Y405542D01*
X508053Y405521D01*
X507944Y405504D01*
X507834Y405490D01*
X507723Y405481D01*
X507613Y405475D01*
X507502Y405473D01*
X507502Y417284D02*
X499247Y417284D01*
X507502Y417284D02*
X507613Y417286D01*
X507723Y417292D01*
X507834Y417301D01*
X507944Y417315D01*
X508053Y417332D01*
X508162Y417353D01*
X508270Y417378D01*
X508377Y417407D01*
X508483Y417439D01*
X508588Y417475D01*
X508691Y417515D01*
X508793Y417558D01*
X508894Y417605D01*
X508993Y417656D01*
X509090Y417709D01*
X509184Y417766D01*
X509277Y417827D01*
X509368Y417890D01*
X509457Y417957D01*
X509543Y418027D01*
X509626Y418100D01*
X509708Y418175D01*
X509786Y418253D01*
X509861Y418335D01*
X509934Y418418D01*
X510004Y418504D01*
X510071Y418593D01*
X510134Y418684D01*
X510195Y418777D01*
X510252Y418871D01*
X510305Y418968D01*
X510356Y419067D01*
X510403Y419168D01*
X510446Y419270D01*
X510486Y419373D01*
X510522Y419478D01*
X510554Y419584D01*
X510583Y419691D01*
X510608Y419799D01*
X510629Y419908D01*
X510646Y420017D01*
X510660Y420127D01*
X510669Y420238D01*
X510675Y420348D01*
X510677Y420459D01*
X510675Y420570D01*
X510669Y420680D01*
X510660Y420791D01*
X510646Y420901D01*
X510629Y421010D01*
X510608Y421119D01*
X510583Y421227D01*
X510554Y421334D01*
X510522Y421440D01*
X510486Y421545D01*
X510446Y421648D01*
X510403Y421750D01*
X510356Y421851D01*
X510305Y421950D01*
X510252Y422046D01*
X510195Y422141D01*
X510134Y422234D01*
X510071Y422325D01*
X510004Y422414D01*
X509934Y422500D01*
X509861Y422583D01*
X509786Y422665D01*
X509708Y422743D01*
X509626Y422818D01*
X509543Y422891D01*
X509457Y422961D01*
X509368Y423028D01*
X509277Y423091D01*
X509184Y423152D01*
X509090Y423209D01*
X508993Y423262D01*
X508894Y423313D01*
X508793Y423360D01*
X508691Y423403D01*
X508588Y423443D01*
X508483Y423479D01*
X508377Y423511D01*
X508270Y423540D01*
X508162Y423565D01*
X508053Y423586D01*
X507944Y423603D01*
X507834Y423617D01*
X507723Y423626D01*
X507613Y423632D01*
X507502Y423634D01*
X499247Y423634D01*
X499247Y431508D02*
X510677Y431508D01*
X499247Y428333D02*
X499247Y434683D01*
X501787Y439001D02*
X499247Y442176D01*
X510677Y442176D01*
X510677Y439001D02*
X510677Y445351D01*
D13*
X461042Y373484D02*
X449358Y373484D01*
X449358Y376729D01*
X449360Y376842D01*
X449366Y376955D01*
X449376Y377068D01*
X449390Y377181D01*
X449407Y377293D01*
X449429Y377404D01*
X449454Y377514D01*
X449484Y377624D01*
X449517Y377732D01*
X449554Y377839D01*
X449594Y377945D01*
X449639Y378049D01*
X449687Y378152D01*
X449738Y378253D01*
X449793Y378352D01*
X449851Y378449D01*
X449913Y378544D01*
X449978Y378637D01*
X450046Y378727D01*
X450117Y378815D01*
X450192Y378901D01*
X450269Y378984D01*
X450349Y379064D01*
X450432Y379141D01*
X450518Y379216D01*
X450606Y379287D01*
X450696Y379355D01*
X450789Y379420D01*
X450884Y379482D01*
X450981Y379540D01*
X451080Y379595D01*
X451181Y379646D01*
X451284Y379694D01*
X451388Y379739D01*
X451494Y379779D01*
X451601Y379816D01*
X451709Y379849D01*
X451819Y379879D01*
X451929Y379904D01*
X452040Y379926D01*
X452152Y379943D01*
X452265Y379957D01*
X452378Y379967D01*
X452491Y379973D01*
X452604Y379975D01*
X452717Y379973D01*
X452830Y379967D01*
X452943Y379957D01*
X453056Y379943D01*
X453168Y379926D01*
X453279Y379904D01*
X453389Y379879D01*
X453499Y379849D01*
X453607Y379816D01*
X453714Y379779D01*
X453820Y379739D01*
X453924Y379694D01*
X454027Y379646D01*
X454128Y379595D01*
X454227Y379540D01*
X454324Y379482D01*
X454419Y379420D01*
X454512Y379355D01*
X454602Y379287D01*
X454690Y379216D01*
X454776Y379141D01*
X454859Y379064D01*
X454939Y378984D01*
X455016Y378901D01*
X455091Y378815D01*
X455162Y378727D01*
X455230Y378637D01*
X455295Y378544D01*
X455357Y378449D01*
X455415Y378352D01*
X455470Y378253D01*
X455521Y378152D01*
X455569Y378049D01*
X455614Y377945D01*
X455654Y377839D01*
X455691Y377732D01*
X455724Y377624D01*
X455754Y377514D01*
X455779Y377404D01*
X455801Y377293D01*
X455818Y377181D01*
X455832Y377068D01*
X455842Y376955D01*
X455848Y376842D01*
X455850Y376729D01*
X455849Y376729D02*
X455849Y373484D01*
X455849Y377378D02*
X461042Y379975D01*
X462340Y384346D02*
X462340Y389539D01*
X461042Y396467D02*
X449358Y396467D01*
X449358Y393222D02*
X449358Y399713D01*
X449358Y404344D02*
X461042Y404344D01*
X449358Y404344D02*
X449358Y407590D01*
X449360Y407703D01*
X449366Y407816D01*
X449376Y407929D01*
X449390Y408042D01*
X449407Y408154D01*
X449429Y408265D01*
X449454Y408375D01*
X449484Y408485D01*
X449517Y408593D01*
X449554Y408700D01*
X449594Y408806D01*
X449639Y408910D01*
X449687Y409013D01*
X449738Y409114D01*
X449793Y409213D01*
X449851Y409310D01*
X449913Y409405D01*
X449978Y409498D01*
X450046Y409588D01*
X450117Y409676D01*
X450192Y409762D01*
X450269Y409845D01*
X450349Y409925D01*
X450432Y410002D01*
X450518Y410077D01*
X450606Y410148D01*
X450696Y410216D01*
X450789Y410281D01*
X450884Y410343D01*
X450981Y410401D01*
X451080Y410456D01*
X451181Y410507D01*
X451284Y410555D01*
X451388Y410600D01*
X451494Y410640D01*
X451601Y410677D01*
X451709Y410710D01*
X451819Y410740D01*
X451929Y410765D01*
X452040Y410787D01*
X452152Y410804D01*
X452265Y410818D01*
X452378Y410828D01*
X452491Y410834D01*
X452604Y410836D01*
X452717Y410834D01*
X452830Y410828D01*
X452943Y410818D01*
X453056Y410804D01*
X453168Y410787D01*
X453279Y410765D01*
X453389Y410740D01*
X453499Y410710D01*
X453607Y410677D01*
X453714Y410640D01*
X453820Y410600D01*
X453924Y410555D01*
X454027Y410507D01*
X454128Y410456D01*
X454227Y410401D01*
X454324Y410343D01*
X454419Y410281D01*
X454512Y410216D01*
X454602Y410148D01*
X454690Y410077D01*
X454776Y410002D01*
X454859Y409925D01*
X454939Y409845D01*
X455016Y409762D01*
X455091Y409676D01*
X455162Y409588D01*
X455230Y409498D01*
X455295Y409405D01*
X455357Y409310D01*
X455415Y409213D01*
X455470Y409114D01*
X455521Y409013D01*
X455569Y408910D01*
X455614Y408806D01*
X455654Y408700D01*
X455691Y408593D01*
X455724Y408485D01*
X455754Y408375D01*
X455779Y408265D01*
X455801Y408154D01*
X455818Y408042D01*
X455832Y407929D01*
X455842Y407816D01*
X455848Y407703D01*
X455850Y407590D01*
X455849Y407590D02*
X455849Y404344D01*
X455849Y408239D02*
X461042Y410836D01*
X461042Y416660D02*
X449358Y416660D01*
X461042Y415362D02*
X461042Y417959D01*
X449358Y417959D02*
X449358Y415362D01*
X449358Y423053D02*
X461042Y423053D01*
X455849Y426947D02*
X449358Y423053D01*
X455849Y426947D02*
X449358Y430842D01*
X461042Y430842D01*
M02*
